<svg width="1000" height="1000" xmlns="http://www.w3.org/2000/svg"><path d="M100 0h800c55.228 0 100 44.772 100 100v800c0 55.228-44.772 100-100 100H100C44.772 1000 0 955.228 0 900V100C0 44.772 44.772 0 100 0zm362.5 462.5H275c-20.71 0-37.5 16.79-37.5 37.5s16.79 37.5 37.5 37.5h187.5V725c0 20.71 16.79 37.5 37.5 37.5s37.5-16.79 37.5-37.5V537.5H725c20.71 0 37.5-16.79 37.5-37.5s-16.79-37.5-37.5-37.5H537.5V275c0-20.71-16.79-37.5-37.5-37.5s-37.5 16.79-37.5 37.5v187.5z" fill="#3283FA" fill-rule="evenodd"/></svg>