<svg width="1000" height="1000" xmlns="http://www.w3.org/2000/svg"><path d="M472.222 472.442V250.72a.5.5 0 0 1 .5-.5h54.556a.5.5 0 0 1 .5.5v221.722H749.5a.5.5 0 0 1 .5.5v54.556a.5.5 0 0 1-.5.5H527.778V749.72a.5.5 0 0 1-.5.5h-54.556a.5.5 0 0 1-.5-.5V527.998H250.5a.5.5 0 0 1-.5-.5v-54.556a.5.5 0 0 1 .5-.5h221.722zM500 944.444C254.54 944.444 55.556 745.46 55.556 500S254.54 55.556 500 55.556 944.444 254.54 944.444 500 745.46 944.444 500 944.444zm0-55.555c214.777 0 388.889-174.112 388.889-388.889 0-214.777-174.112-388.889-388.889-388.889-214.777 0-388.889 174.112-388.889 388.889 0 214.777 174.112 388.889 388.889 388.889z" fill="#323233" fill-rule="evenodd"/></svg>