<svg width="890" height="890" xmlns="http://www.w3.org/2000/svg"><path d="M639.667 472.778h-166.89v166.889c0 15.277-12.444 27.777-27.777 27.777s-27.778-12.5-27.778-27.777v-166.89H250.333c-15.277 0-27.777-12.444-27.777-27.777s12.5-27.778 27.777-27.778h166.89V250.333c0-15.277 12.444-27.777 27.777-27.777s27.778 12.5 27.778 27.777v166.89h166.889c15.277 0 27.777 12.444 27.777 27.777s-12.5 27.778-27.777 27.778M445 .556C199.556.556.556 199.556.556 445c0 245.444 199 444.444 444.444 444.444 245.444 0 444.444-199 444.444-444.444C889.444 199.556 690.444.556 445 .556" fill="#323233" fill-rule="evenodd"/></svg>