<svg width="1000" height="1000" xmlns="http://www.w3.org/2000/svg"><path d="M869.56 682.975c-33.556 69.928-87.815 130.822-160.056 172.53-190.784 110.149-434.737 44.782-544.886-146.001C54.469 518.72 119.836 274.767 310.62 164.618 501.403 54.469 745.356 119.836 855.505 310.62l-48.112 27.777c-94.808-164.211-304.784-220.474-468.996-125.666-164.211 94.807-220.474 304.783-125.666 468.995C307.538 845.937 517.514 902.2 681.726 807.393c61.424-35.464 109.178-87.858 138.734-150.525l-58.623-31.17 137.432-52.768 33.105 143.443-62.813-33.398zM589.814 430.608h90.795v55.555H541.719v55.556h138.889v55.556H541.719v138.888h-55.556V597.275H347.275v-55.556h138.888v-55.556H347.275v-55.555h85.136l-71.248-138.889h68.381l68.442 138.889h26.252l68.441-138.889h68.381l-71.247 138.889z" fill="#333" fill-rule="nonzero"/></svg>