<svg width="1000" height="1000" xmlns="http://www.w3.org/2000/svg"><g fill="none" fill-rule="evenodd"><path d="M852.486 654.407l-50.595-22.947c-29.361 64.737-77.951 118.86-140.897 155.201C496.783 881.468 286.806 825.206 192 660.994 97.19 496.783 153.454 286.806 317.666 192 481.877 97.19 691.854 153.454 786.66 317.666l48.113-27.778C724.624 99.105 480.67 33.738 289.888 143.886 99.105 254.036 33.738 497.99 143.886 688.772c110.15 190.783 354.103 256.15 544.886 146.002 74.927-43.26 130.51-107.157 163.714-180.367zM688.772 834.774c74.927-43.26 130.51-107.157 163.714-180.367l-50.595-22.947c-29.361 64.737-77.951 118.86-140.897 155.201C496.783 881.468 286.806 825.206 192 660.994 97.19 496.783 153.454 286.806 317.666 192 481.877 97.19 691.854 153.454 786.66 317.666l48.113-27.778C724.624 99.105 480.67 33.738 289.888 143.886 99.105 254.036 33.738 497.99 143.886 688.772c110.15 190.783 354.103 256.15 544.886 146.002zm122.625-502.115c15.341 0 27.778-12.437 27.778-27.778s-12.437-27.778-27.778-27.778-27.778 12.437-27.778 27.778 12.437 27.778 27.778 27.778z" fill="#333" fill-rule="nonzero"/><path d="M738.7 604.349l175.56 78.164a.25.25 0 0 0 .341-.3l-42.747-140.23a.25.25 0 0 0-.345-.153l-132.813 62.064a.25.25 0 0 0 .004.455z" fill="#333"/><path d="M326.543 437.654c0-15.341 12.436-27.778 27.778-27.778h277.777c15.342 0 27.778 12.437 27.778 27.778s-12.436 27.778-27.778 27.778H354.321c-15.342 0-27.778-12.437-27.778-27.778z" fill="#323233" fill-rule="nonzero"/><path d="M465.432 437.654h55.555v250c0 15.341-12.436 27.778-27.777 27.778-15.342 0-27.778-12.437-27.778-27.778v-250z" fill="#323233"/><path d="M326.543 548.765c0-15.341 12.436-27.778 27.778-27.778h277.777c15.342 0 27.778 12.437 27.778 27.778s-12.436 27.778-27.778 27.778H354.321c-15.342 0-27.778-12.437-27.778-27.778zM607.39 291.667c13.286 7.67 17.838 24.659 10.167 37.945l-69.444 120.281L500 422.115l69.444-120.281c7.671-13.286 24.66-17.838 37.946-10.167zM357.39 291.667c-13.286 7.67-17.838 24.659-10.168 37.945l69.445 120.281 48.112-27.778-69.444-120.281c-7.67-13.286-24.66-17.838-37.945-10.167z" fill="#323233"/></g></svg>