<?xml version="1.0" encoding="UTF-8"?>
<svg width="1000px" height="1000px" viewBox="0 0 1000 1000" version="1.1" xmlns="http://www.w3.org/2000/svg" xmlns:xlink="http://www.w3.org/1999/xlink">
    <!-- Generator: sketchtool 52.4 (67378) - http://www.bohemiancoding.com/sketch -->
    <title>aim</title>
    <desc>Created with sketchtool.</desc>
    <g id="旧版图标(剩余)" stroke="none" stroke-width="1" fill="none" fill-rule="evenodd">
        <g id="aim" fill="#000000">
            <path d="M499.5,849 C692.52352,849 849,692.52352 849,499.5 C849,306.47648 692.52352,150 499.5,150 C306.47648,150 150,306.47648 150,499.5 C150,692.52352 306.47648,849 499.5,849 Z M499.5,899 C278.862242,899 100,720.137758 100,499.5 C100,278.862242 278.862242,100 499.5,100 C720.137758,100 899,278.862242 899,499.5 C899,720.137758 720.137758,899 499.5,899 Z" id="Oval-3" fill-rule="nonzero"></path>
            <path d="M500,550 C472.385763,550 450,527.614237 450,500 C450,472.385763 472.385763,450 500,450 C527.614237,450 550,472.385763 550,500 C550,527.614237 527.614237,550 500,550 Z M498.5,0 C512.030976,4.61982732e-15 523,10.9690236 523,24.5 L523,275.5 C523,289.030976 512.030976,300 498.5,300 C484.969024,300 474,289.030976 474,275.5 L474,24.5 C474,10.9690236 484.969024,1.31437411e-14 498.5,1.0658141e-14 Z M724.5,474 L975.5,474 C989.030976,474 1000,484.969024 1000,498.5 C1000,512.030976 989.030976,523 975.5,523 L724.5,523 C710.969024,523 700,512.030976 700,498.5 C700,484.969024 710.969024,474 724.5,474 Z M24.5,474 L275.5,474 C289.030976,474 300,484.969024 300,498.5 C300,512.030976 289.030976,523 275.5,523 L24.5,523 C10.9690236,523 1.23152077e-14,512.030976 1.0658141e-14,498.5 C5.44836067e-15,484.969024 10.9690236,474 24.5,474 Z M498.5,700 C512.030976,700 523,710.969024 523,724.5 L523,975.5 C523,989.030976 512.030976,1000 498.5,1000 C484.969024,1000 474,989.030976 474,975.5 L474,724.5 C474,710.969024 484.969024,700 498.5,700 Z" id="Combined-Shape"></path>
        </g>
    </g>
</svg>