<svg width="1000" height="1000" xmlns="http://www.w3.org/2000/svg"><g fill="#000" fill-rule="evenodd"><path d="M499.5 849C692.524 849 849 692.524 849 499.5S692.524 150 499.5 150 150 306.476 150 499.5 306.476 849 499.5 849zm0 50C278.862 899 100 720.138 100 499.5S278.862 100 499.5 100 899 278.862 899 499.5 720.138 899 499.5 899z" fill-rule="nonzero"/><path d="M500 550c-27.614 0-50-22.386-50-50s22.386-50 50-50 50 22.386 50 50-22.386 50-50 50zM498.5 0C512.031 0 523 10.969 523 24.5v251c0 13.531-10.969 24.5-24.5 24.5S474 289.031 474 275.5v-251C474 10.969 484.969 0 498.5 0zm226 474h251c13.531 0 24.5 10.969 24.5 24.5S989.031 523 975.5 523h-251c-13.531 0-24.5-10.969-24.5-24.5s10.969-24.5 24.5-24.5zm-700 0h251c13.531 0 24.5 10.969 24.5 24.5S289.031 523 275.5 523h-251C10.969 523 0 512.031 0 498.5S10.969 474 24.5 474zm474 226c13.531 0 24.5 10.969 24.5 24.5v251c0 13.531-10.969 24.5-24.5 24.5S474 989.031 474 975.5v-251c0-13.531 10.969-24.5 24.5-24.5z"/></g></svg>