<svg width="1000" height="1000" xmlns="http://www.w3.org/2000/svg"><path d="M708.333 166.667c-69.035 0-125 55.964-125 125 0 69.035 55.965 125 125 125 69.036 0 125-55.965 125-125 0-69.036-55.964-125-125-125zm0-55.556c99.718 0 180.556 80.838 180.556 180.556 0 99.718-80.838 180.555-180.556 180.555-99.718 0-180.555-80.837-180.555-180.555S608.615 111.11 708.333 111.11zm-541.666 55.556v250h250v-250h-250zm0-55.556h305.555v361.111h-361.11V166.667c0-30.683 24.872-55.556 55.555-55.556zm0 472.222v250h250v-250h-250zm-55.556-55.555h361.111v361.11H166.667c-30.683 0-55.556-24.872-55.556-55.555V527.778zm472.222 55.555v250h250v-250h-250zm-55.555-55.555h361.11v305.555c0 30.683-24.872 55.556-55.555 55.556H527.778V527.778z" fill="#323233" fill-rule="nonzero"/></svg>