<svg width="1000" height="1000" xmlns="http://www.w3.org/2000/svg"><path d="M708.333 166.667c-69.035 0-125 55.964-125 125 0 69.035 55.965 125 125 125 69.036 0 125-55.965 125-125 0-69.036-55.964-125-125-125zm0-55.556c99.718 0 180.556 80.838 180.556 180.556 0 99.718-80.838 180.555-180.556 180.555-99.718 0-180.555-80.837-180.555-180.555S608.615 111.11 708.333 111.11zm-541.666 55.556v250h250v-250h-250zM112.11 111.11h360.111v361.111h-361.11v-360.11a1 1 0 0 1 1-1zm54.556 472.222v250h250v-250h-250zm-55.556-55.555h361.111v361.11h-360.11a1 1 0 0 1-1-1v-360.11zm472.222 55.555v250h250v-250h-250zm-55.555-55.555h361.11v360.11a1 1 0 0 1-1 1h-360.11v-361.11z" fill="#323233" fill-rule="nonzero"/></svg>