<?xml version="1.0" encoding="UTF-8"?>
<svg width="1000px" height="1000px" viewBox="0 0 1000 1000" version="1.1" xmlns="http://www.w3.org/2000/svg" xmlns:xlink="http://www.w3.org/1999/xlink">
    <!-- Generator: sketchtool 52.4 (67378) - http://www.bohemiancoding.com/sketch -->
    <title>arrow-left</title>
    <desc>Created with sketchtool.</desc>
    <g id="新版图标" stroke="none" stroke-width="1" fill="none" fill-rule="evenodd">
        <g id="arrow-left" fill="#323233">
            <g id="圆角-左箭头" transform="translate(277.000000, 105.000000)">
                <path d="M452.179123,393.664146 C452.163766,393.832672 452.09158,393.996995 451.962566,394.126009 L60.1861252,785.902449 C59.893232,786.195342 59.4183582,786.195342 59.125465,785.902449 L1.26056009,728.037544 C0.967666872,727.744651 0.967666872,727.269777 1.26056009,726.976884 L334.767051,393.470394 L1.30810786,60.0114507 C1.01521464,59.7185575 1.01521464,59.2436838 1.30810786,58.9507906 L59.1730128,1.08588564 C59.465906,0.792992423 59.9407797,0.792992423 60.233673,1.08588564 L452.010113,392.862326 C452.226888,393.079101 452.283225,393.395559 452.179123,393.664146 Z" id="Combined-Shape" transform="translate(226.635337, 393.494167) scale(-1, 1) translate(-226.635337, -393.494167) "></path>
            </g>
        </g>
    </g>
</svg>