<?xml version="1.0" encoding="UTF-8"?>
<svg width="1000px" height="1000px" viewBox="0 0 1000 1000" version="1.1" xmlns="http://www.w3.org/2000/svg" xmlns:xlink="http://www.w3.org/1999/xlink">
    <!-- Generator: sketchtool 52.4 (67378) - http://www.bohemiancoding.com/sketch -->
    <title>award</title>
    <desc>Created with sketchtool.</desc>
    <g id="新版图标" stroke="none" stroke-width="1" fill="none" fill-rule="evenodd">
        <g id="award" fill="#323233">
            <g id="直角-邀请奖励-面">
                <path d="M500,722.222222 C315.905083,722.222222 166.666667,572.983805 166.666667,388.888889 C166.666667,204.793972 315.905083,55.5555556 500,55.5555556 C684.094917,55.5555556 833.333333,204.793972 833.333333,388.888889 C833.333333,572.983805 684.094917,722.222222 500,722.222222 Z M500,500 C561.364972,500 611.111111,450.253861 611.111111,388.888889 C611.111111,327.523917 561.364972,277.777778 500,277.777778 C438.635028,277.777778 388.888889,327.523917 388.888889,388.888889 C388.888889,450.253861 438.635028,500 500,500 Z" id="Combined-Shape"></path>
                <path d="M666.666667,740.353824 L666.666667,944.444444 L500,873.845107 L333.333333,944.444444 L333.333333,740.353824 C383.847521,764.350497 440.355706,777.777778 500,777.777778 C559.644294,777.777778 616.152479,764.350497 666.666667,740.353824 Z" id="Combined-Shape"></path>
            </g>
        </g>
    </g>
</svg>