<svg width="1000" height="1000" xmlns="http://www.w3.org/2000/svg"><path d="M500 750c-184.095 0-333.333-149.238-333.333-333.333 0-184.095 149.238-333.334 333.333-333.334 184.095 0 333.333 149.239 333.333 333.334S684.095 750 500 750zm0-222.222c61.365 0 111.111-49.746 111.111-111.111S561.365 305.556 500 305.556s-111.111 49.746-111.111 111.11c0 61.366 49.746 111.112 111.111 111.112zm128.054 421.068L521.67 903.78a55.556 55.556 0 0 0-43.338 0l-106.385 45.065c-14.126 5.983-30.429-.617-36.413-14.743a27.778 27.778 0 0 1-2.2-10.835V761.111c50.515 23.997 107.023 37.424 166.667 37.424 59.644 0 116.152-13.427 166.667-37.424v162.157c0 15.341-12.437 27.778-27.778 27.778-3.723 0-7.407-.748-10.835-2.2z" fill="#323233" fill-rule="evenodd"/></svg>