<svg width="1000" height="1000" xmlns="http://www.w3.org/2000/svg"><g fill="#323233" fill-rule="evenodd"><path d="M500 722.222c-184.095 0-333.333-149.238-333.333-333.333 0-184.095 149.238-333.333 333.333-333.333 184.095 0 333.333 149.238 333.333 333.333 0 184.095-149.238 333.333-333.333 333.333zM500 500c61.365 0 111.111-49.746 111.111-111.111S561.365 277.778 500 277.778s-111.111 49.746-111.111 111.11C388.889 450.255 438.635 500 500 500zM666.667 740.354v204.09L500 873.845l-166.667 70.6V740.353C383.848 764.35 440.356 777.778 500 777.778c59.644 0 116.152-13.428 166.667-37.424z"/></g></svg>