<svg width="1000" height="1000" xmlns="http://www.w3.org/2000/svg"><g fill="#323233" fill-rule="nonzero"><path d="M500 666.667c153.412 0 277.778-124.366 277.778-277.778 0-153.413-124.366-277.778-277.778-277.778-153.412 0-277.778 124.365-277.778 277.778 0 153.412 124.366 277.778 277.778 277.778zm0 55.555c-184.095 0-333.333-149.238-333.333-333.333 0-184.095 149.238-333.333 333.333-333.333 184.095 0 333.333 149.238 333.333 333.333 0 184.095-149.238 333.333-333.333 333.333z"/><path d="M500 458.333c38.353 0 69.444-31.091 69.444-69.444s-31.09-69.445-69.444-69.445c-38.353 0-69.444 31.092-69.444 69.445 0 38.353 31.09 69.444 69.444 69.444zm0 55.556c-69.036 0-125-55.965-125-125 0-69.036 55.964-125 125-125s125 55.964 125 125c0 69.035-55.964 125-125 125zM388.889 860.577L500 813.511l111.111 47.066V702.358c-36.5 13.446-73.458 20.274-110.733 20.274-37.456 0-74.664-6.894-111.49-20.467v158.412zM333.333 611.45c55.922 37.084 111.603 55.626 167.045 55.626 55.441 0 110.87-18.542 166.289-55.626v332.994L500 873.845l-166.667 70.6V611.45z"/></g></svg>