<?xml version="1.0" encoding="UTF-8"?>
<svg width="1000px" height="1000px" viewBox="0 0 1000 1000" version="1.1" xmlns="http://www.w3.org/2000/svg" xmlns:xlink="http://www.w3.org/1999/xlink">
    <!-- Generator: sketchtool 52.4 (67378) - http://www.bohemiancoding.com/sketch -->
    <title>balance-list-o</title>
    <desc>Created with sketchtool.</desc>
    <g id="新版图标" stroke="none" stroke-width="1" fill="none" fill-rule="evenodd">
        <g id="balance-list-o" fill="#323233">
            <g id="圆角-余额明细-线" transform="translate(166.000000, 111.000000)">
                <path d="M56.2222222,0.111111111 L611.777778,0.111111111 L666.333333,0.111111111 C666.885618,0.111111111 667.333333,0.558826361 667.333333,1.11111111 L667.333333,332.944444 C667.333333,333.220587 667.109476,333.444444 666.833333,333.444444 L612.277778,333.444444 C612.001635,333.444444 611.777778,333.220587 611.777778,332.944444 L611.777778,55.6666667 L56.2222222,55.6666667 L56.2222222,722.333333 L250.666667,722.333333 C266.00791,722.333333 278.444444,734.769868 278.444444,750.111111 C278.444444,765.452354 266.00791,777.888889 250.666667,777.888889 L56.2222222,777.888889 C25.5397361,777.888889 0.666666667,753.015819 0.666666667,722.333333 L0.666666667,1.11111111 C0.666666667,0.558826361 1.11438192,0.111111111 1.66666667,0.111111111 L56.2222222,0.111111111 Z M556.222222,777.888889 C648.269681,777.888889 722.888889,703.269681 722.888889,611.222222 C722.888889,519.174764 648.269681,444.555556 556.222222,444.555556 C464.174764,444.555556 389.555556,519.174764 389.555556,611.222222 C389.555556,703.269681 464.174764,777.888889 556.222222,777.888889 Z M556.222222,833.444444 C433.492278,833.444444 334,733.952167 334,611.222222 C334,488.492278 433.492278,389 556.222222,389 C678.952167,389 778.444444,488.492278 778.444444,611.222222 C778.444444,733.952167 678.952167,833.444444 556.222222,833.444444 Z M556.592367,563.057049 L597.961164,521.688252 L627.423947,551.151035 L596.982378,581.592603 L629.138889,581.592603 L629.138889,618.62964 L577.055556,618.62964 L577.055556,637.148159 L629.138889,637.148159 L629.138889,674.185196 L577.055556,674.185196 L577.055556,711.222233 L535.388889,711.222233 L535.388889,674.185196 L483.305556,674.185196 L483.305556,637.148159 L535.388889,637.148159 L535.388889,618.62964 L483.305556,618.62964 L483.305556,581.592603 L516.202356,581.592603 L485.760787,551.151035 L515.22357,521.688252 L556.592367,563.057049 Z M112.277778,166.777778 L500.166667,166.777778 C500.442809,166.777778 500.666667,167.001635 500.666667,167.277778 L500.666667,221.833333 C500.666667,222.109476 500.442809,222.333333 500.166667,222.333333 L112.277778,222.333333 C112.001635,222.333333 111.777778,222.109476 111.777778,221.833333 L111.777778,167.277778 C111.777778,167.001635 112.001635,166.777778 112.277778,166.777778 Z M112.277778,277.888889 L389.055556,277.888889 C389.331698,277.888889 389.555556,278.112747 389.555556,278.388889 L389.555556,332.944444 C389.555556,333.220587 389.331698,333.444444 389.055556,333.444444 L112.277778,333.444444 C112.001635,333.444444 111.777778,333.220587 111.777778,332.944444 L111.777778,278.388889 C111.777778,278.112747 112.001635,277.888889 112.277778,277.888889 Z M112.277778,389 L277.944444,389 C278.220587,389 278.444444,389.223858 278.444444,389.5 L278.444444,444.055556 C278.444444,444.331698 278.220587,444.555556 277.944444,444.555556 L112.277778,444.555556 C112.001635,444.555556 111.777778,444.331698 111.777778,444.055556 L111.777778,389.5 C111.777778,389.223858 112.001635,389 112.277778,389 Z" id="Combined-Shape"></path>
            </g>
        </g>
    </g>
</svg>