<svg width="1000" height="1000" xmlns="http://www.w3.org/2000/svg"><g fill="#323233" fill-rule="evenodd"><path d="M833.333 529.73C800.647 510.821 762.7 500 722.223 500 599.492 500 500 599.492 500 722.222c0 66.372 29.097 125.948 75.232 166.667H167.667a1 1 0 0 1-1-1V112.11a1 1 0 0 1 1-1h664.666a1 1 0 0 1 1 1V529.73zM278.278 277.777a.5.5 0 0 0-.5.5v54.555a.5.5 0 0 0 .5.5h387.889a.5.5 0 0 0 .5-.5v-54.555a.5.5 0 0 0-.5-.5h-387.89zm0 111.11a.5.5 0 0 0-.5.5v54.556a.5.5 0 0 0 .5.5h276.778a.5.5 0 0 0 .5-.5V389.39a.5.5 0 0 0-.5-.5H278.278zm0 111.112a.5.5 0 0 0-.5.5v54.556a.5.5 0 0 0 .5.5h165.666a.5.5 0 0 0 .5-.5V500.5a.5.5 0 0 0-.5-.5H278.278z"/><path d="M722.592 674.057l-41.368-41.369-29.463 29.463 30.441 30.442h-32.896v37.037h52.083v18.518h-52.083v37.037h52.083v37.037h41.667v-37.037h52.083v-37.037h-52.083V729.63h52.083v-37.037h-32.157l30.442-30.442-29.463-29.463-41.369 41.369zm-.37 214.832c-92.047 0-166.666-74.62-166.666-166.667s74.619-166.666 166.666-166.666c92.048 0 166.667 74.619 166.667 166.666 0 92.048-74.62 166.667-166.667 166.667z"/></g></svg>