<svg width="1000" height="1000" xmlns="http://www.w3.org/2000/svg"><g fill="#323233" fill-rule="evenodd"><path d="M222.222 111.111h610.111a1 1 0 0 1 1 1v331.833a.5.5 0 0 1-.5.5h-54.555a.5.5 0 0 1-.5-.5V166.667H222.222v666.666h194.445c15.34 0 27.777 12.437 27.777 27.778s-12.436 27.778-27.777 27.778H222.222c-30.682 0-55.555-24.873-55.555-55.556V112.111a1 1 0 0 1 1-1h54.555z"/><path d="M722.222 888.889c92.048 0 166.667-74.62 166.667-166.667s-74.62-166.666-166.667-166.666-166.666 74.619-166.666 166.666c0 92.048 74.619 166.667 166.666 166.667zm0 55.555C599.492 944.444 500 844.952 500 722.222S599.492 500 722.222 500s222.222 99.492 222.222 222.222-99.492 222.222-222.222 222.222z" fill-rule="nonzero"/><path d="M781.746 724.635c13.143 0 23.81-10.667 23.81-23.81 0-13.142-10.667-23.81-23.81-23.81H763.46l25.238-25.237c9.334-9.334 9.334-24.381 0-33.667-9.285-9.333-24.333-9.333-33.666 0l-32.81 32.81-32.81-32.81c-9.333-9.333-24.38-9.333-33.666 0-9.333 9.286-9.333 24.333 0 33.667l25.238 25.238h-18.286c-13.142 0-23.81 10.667-23.81 23.81 0 13.142 10.668 23.809 23.81 23.809h35.715v23.81h-35.715c-13.142 0-23.81 10.666-23.81 23.809s10.668 23.81 23.81 23.81h35.715v23.809c0 13.143 10.666 23.81 23.81 23.81 13.142 0 23.809-10.667 23.809-23.81v-23.81h35.714c13.143 0 23.81-10.666 23.81-23.809s-10.667-23.81-23.81-23.81h-35.714v-23.81h35.714z"/><rect x="277.778" y="277.778" width="388.889" height="55.556" rx="27.778"/><rect x="277.778" y="388.889" width="277.778" height="55.556" rx="27.778"/><rect x="277.778" y="500" width="166.667" height="55.556" rx="27.778"/></g></svg>