<svg width="1000" height="1000" xmlns="http://www.w3.org/2000/svg"><path d="M222.222 111.111h610.111a1 1 0 0 1 1 1v331.833a.5.5 0 0 1-.5.5h-54.555a.5.5 0 0 1-.5-.5V166.667H222.222v666.666h194.445c15.34 0 27.777 12.437 27.777 27.778s-12.436 27.778-27.777 27.778H222.222c-30.682 0-55.555-24.873-55.555-55.556V112.111a1 1 0 0 1 1-1h54.555zm500 777.778c92.048 0 166.667-74.62 166.667-166.667s-74.62-166.666-166.667-166.666-166.666 74.619-166.666 166.666c0 92.048 74.619 166.667 166.666 166.667zm0 55.555C599.492 944.444 500 844.952 500 722.222S599.492 500 722.222 500s222.222 99.492 222.222 222.222-99.492 222.222-222.222 222.222zm.37-270.387l41.37-41.369 29.462 29.463-30.442 30.442h32.157v37.037h-52.083v18.518h52.083v37.037h-52.083v37.037h-41.667v-37.037h-52.083v-37.037h52.083V729.63h-52.083v-37.037h32.896l-30.441-30.442 29.463-29.463 41.368 41.369zm-444.314-396.28h387.889a.5.5 0 0 1 .5.5v54.556a.5.5 0 0 1-.5.5h-387.89a.5.5 0 0 1-.5-.5v-54.555a.5.5 0 0 1 .5-.5zm0 111.112h276.778a.5.5 0 0 1 .5.5v54.555a.5.5 0 0 1-.5.5H278.278a.5.5 0 0 1-.5-.5V389.39a.5.5 0 0 1 .5-.5zm0 111.111h165.666a.5.5 0 0 1 .5.5v54.556a.5.5 0 0 1-.5.5H278.278a.5.5 0 0 1-.5-.5V500.5a.5.5 0 0 1 .5-.5z" fill="#323233" fill-rule="evenodd"/></svg>