<?xml version="1.0" encoding="UTF-8"?>
<svg width="1000px" height="1000px" viewBox="0 0 1000 1000" version="1.1" xmlns="http://www.w3.org/2000/svg" xmlns:xlink="http://www.w3.org/1999/xlink">
    <!-- Generator: sketchtool 52.4 (67378) - http://www.bohemiancoding.com/sketch -->
    <title>balance-o</title>
    <desc>Created with sketchtool.</desc>
    <g id="新版图标" stroke="none" stroke-width="1" fill="none" fill-rule="evenodd">
        <g id="balance-o" fill="#323233">
            <g id="圆角-会员余额-线">
                <path d="M771.735356,831.444444 C740.790911,867.944444 695.6798,888.888889 647.846467,888.888889 L384.6798,888.888889 C336.846467,888.888889 291.6798,867.944444 260.790911,831.444444 C229.846467,794.944444 216.624245,746.944444 224.457578,699.777778 L247.568689,560.944444 C269.568689,429.055556 382.568689,333.333333 516.235356,333.333333 C649.957578,333.333333 762.957578,429.055556 784.902022,560.944444 L808.013134,699.777778 C815.902022,746.944444 802.6798,794.944444 771.735356,831.444444 Z M482.624245,277.777778 C427.402022,277.777778 379.402022,237.444444 368.402022,181.888889 C367.346467,176.388889 369.6798,172.611111 371.124245,170.777778 C372.6798,168.888889 375.402022,166.666667 379.513134,166.666667 L652.957578,166.666667 C657.124245,166.666667 659.790911,168.888889 661.402022,170.777778 C662.846467,172.611111 665.1798,176.388889 664.124245,181.888889 C653.124245,237.444444 605.124245,277.777778 549.902022,277.777778 L482.624245,277.777778 Z M862.846467,690.611111 L839.735356,551.777778 C820.790911,438.166667 744.346467,347.111111 643.513134,304.5 C681.1798,279.444444 709.235356,240.111111 718.624245,192.611111 C726.846467,150.444444 695.1798,111.111111 652.957578,111.111111 L379.513134,111.111111 C337.346467,111.111111 305.624245,150.444444 313.902022,192.611111 C323.290911,240.111111 351.346467,279.444444 388.957578,304.5 C288.235356,347.111111 211.735356,438.166667 192.790911,551.777778 L169.6798,690.611111 C147.568689,823.444444 249.957578,944.444444 384.6798,944.444444 L647.846467,944.444444 C782.513134,944.444444 884.957578,823.444444 862.846467,690.611111 Z M585.702022,638.9 C601.035356,638.9 613.4798,626.455556 613.4798,611.122222 C613.4798,595.788889 601.035356,583.344444 585.702022,583.344444 L564.368689,583.344444 L593.813134,553.9 C604.702022,543.011111 604.702022,525.455556 593.813134,514.622222 C582.9798,503.733333 565.424245,503.733333 554.535356,514.622222 L516.257578,552.9 L477.9798,514.622222 C467.090911,503.733333 449.535356,503.733333 438.702022,514.622222 C427.813134,525.455556 427.813134,543.011111 438.702022,553.9 L468.146467,583.344444 L446.813134,583.344444 C431.4798,583.344444 419.035356,595.788889 419.035356,611.122222 C419.035356,626.455556 431.4798,638.9 446.813134,638.9 L488.4798,638.9 L488.4798,666.677778 L446.813134,666.677778 C431.4798,666.677778 419.035356,679.122222 419.035356,694.455556 C419.035356,709.788889 431.4798,722.233333 446.813134,722.233333 L488.4798,722.233333 L488.4798,750.011111 C488.4798,765.344444 500.924245,777.788889 516.257578,777.788889 C531.590911,777.788889 544.035356,765.344444 544.035356,750.011111 L544.035356,722.233333 L585.702022,722.233333 C601.035356,722.233333 613.4798,709.788889 613.4798,694.455556 C613.4798,679.122222 601.035356,666.677778 585.702022,666.677778 L544.035356,666.677778 L544.035356,638.9 L585.702022,638.9 Z" id="Fill-1"></path>
            </g>
        </g>
    </g>
</svg>