<?xml version="1.0" encoding="UTF-8"?>
<svg width="1000px" height="1000px" viewBox="0 0 1000 1000" version="1.1" xmlns="http://www.w3.org/2000/svg" xmlns:xlink="http://www.w3.org/1999/xlink">
    <!-- Generator: sketchtool 52.4 (67378) - http://www.bohemiancoding.com/sketch -->
    <title>bar-chart-o</title>
    <desc>Created with sketchtool.</desc>
    <g id="新版图标" stroke="none" stroke-width="1" fill="none" fill-rule="evenodd">
        <g id="bar-chart-o" fill="#323233" fill-rule="nonzero">
            <g id="直角--数据分析" transform="translate(111.000000, 111.000000)">
                <path d="M55.6666667,333.444444 L55.6666667,750.111111 L166.777778,750.111111 L166.777778,333.444444 L55.6666667,333.444444 Z M0.111111111,277.888889 L222.333333,277.888889 L222.333333,805.666667 L0.111111111,805.666667 L0.111111111,277.888889 Z M333.444444,222.333333 L333.444444,750.111111 L444.555556,750.111111 L444.555556,222.333333 L333.444444,222.333333 Z M277.888889,166.777778 L500.111111,166.777778 L500.111111,805.666667 L277.888889,805.666667 L277.888889,166.777778 Z M611.222222,55.6666667 L611.222222,750.111111 L722.333333,750.111111 L722.333333,55.6666667 L611.222222,55.6666667 Z M555.666667,0.111111111 L777.888889,0.111111111 L777.888889,805.666667 L555.666667,805.666667 L555.666667,0.111111111 Z" id="Combined-Shape"></path>
            </g>
        </g>
    </g>
</svg>