<svg width="1000" height="1000" xmlns="http://www.w3.org/2000/svg"><path d="M194.444 277.778c-30.682 0-55.555-24.873-55.555-55.556 0-30.682 24.873-55.555 55.555-55.555 30.683 0 55.556 24.873 55.556 55.555 0 30.683-24.873 55.556-55.556 55.556zm112.112-97.222H860.11a1 1 0 0 1 1 1v81.333a1 1 0 0 1-1 1H306.556a1 1 0 0 1-1-1v-81.333a1 1 0 0 1 1-1zm0 277.777H860.11a1 1 0 0 1 1 1v81.334a1 1 0 0 1-1 1H306.556a1 1 0 0 1-1-1v-81.334a1 1 0 0 1 1-1zm0 277.778H860.11a1 1 0 0 1 1 1v81.333a1 1 0 0 1-1 1H306.556a1 1 0 0 1-1-1v-81.333a1 1 0 0 1 1-1zM194.444 555.556c-30.682 0-55.555-24.874-55.555-55.556s24.873-55.556 55.555-55.556C225.127 444.444 250 469.318 250 500s-24.873 55.556-55.556 55.556zm0 277.777c-30.682 0-55.555-24.873-55.555-55.555 0-30.683 24.873-55.556 55.555-55.556 30.683 0 55.556 24.873 55.556 55.556 0 30.682-24.873 55.555-55.556 55.555z" fill="#323233" fill-rule="nonzero"/></svg>