<svg width="1000" height="1000" xmlns="http://www.w3.org/2000/svg"><path d="M527.778 167.808C698.876 181.923 833.333 325.259 833.333 500v277.778h83.334c15.34 0 27.777 12.436 27.777 27.778 0 15.34-12.436 27.777-27.777 27.777H83.333c-15.34 0-27.777-12.436-27.777-27.777 0-15.342 12.436-27.778 27.777-27.778h83.334V500c0-174.74 134.457-318.077 305.555-332.192v-28.92c0-15.34 12.437-27.777 27.778-27.777s27.778 12.437 27.778 27.778v28.919zM416.667 861.11h166.666c0 46.024-37.31 83.333-83.333 83.333-46.024 0-83.333-37.31-83.333-83.333z" fill="#323233" fill-rule="evenodd"/></svg>