<?xml version="1.0" encoding="UTF-8"?>
<svg width="1000px" height="1000px" viewBox="0 0 1000 1000" version="1.1" xmlns="http://www.w3.org/2000/svg" xmlns:xlink="http://www.w3.org/1999/xlink">
    <!-- Generator: sketchtool 52.4 (67378) - http://www.bohemiancoding.com/sketch -->
    <title>bell</title>
    <desc>Created with sketchtool.</desc>
    <g id="新版图标" stroke="none" stroke-width="1" fill="none" fill-rule="evenodd">
        <g id="bell" fill="#323233">
            <g id="直角-交易和物流通知">
                <path d="M578.591511,833.333333 L421.408489,833.333333 L55.5555556,833.333333 L55.5555556,777.777778 L166.666667,777.777778 L166.666667,172.666667 C166.666667,169.352958 169.352958,166.666667 172.666667,166.666667 L472.222222,166.666667 L472.222222,111.111111 L527.777778,111.111111 L527.777778,166.666667 L827.333333,166.666667 C830.647042,166.666667 833.333333,169.352958 833.333333,172.666667 L833.333333,777.777778 L944.444444,777.777778 L944.444444,833.333333 L578.591511,833.333333 Z M416.666667,861.111111 L583.333333,861.111111 C583.333333,907.13484 546.023729,944.444444 500,944.444444 C453.976271,944.444444 416.666667,907.13484 416.666667,861.111111 Z" id="Combined-Shape"></path>
            </g>
        </g>
    </g>
</svg>