<?xml version="1.0" encoding="UTF-8"?>
<svg width="1000px" height="1000px" viewBox="0 0 1000 1000" version="1.1" xmlns="http://www.w3.org/2000/svg" xmlns:xlink="http://www.w3.org/1999/xlink">
    <!-- Generator: sketchtool 52.4 (67378) - http://www.bohemiancoding.com/sketch -->
    <title>bill</title>
    <desc>Created with sketchtool.</desc>
    <g id="新版图标" stroke="none" stroke-width="1" fill="none" fill-rule="evenodd">
        <g id="bill" fill="#323233">
            <g id="圆角-兑换记录-面">
                <g transform="translate(166.666667, 111.111111)">
                    <path d="M333.82686,333.128908 L334.040101,333.342149 C333.900646,333.338667 333.760935,333.336212 333.620976,333.334792 L333.82686,333.128908 Z M333.82686,332.141855 L295.036676,293.351671 C284.188779,282.503774 266.600863,282.503774 255.752966,293.351671 C244.905069,304.199568 244.905069,321.787485 255.752966,332.635382 L284.228696,361.111111 L263.888889,361.111111 C248.547646,361.111111 236.111111,373.547646 236.111111,388.888889 C236.111111,404.230132 248.547646,416.666667 263.888889,416.666667 L305.555556,416.666667 L305.555556,444.444444 L263.888889,444.444444 C248.547646,444.444444 236.111111,456.880979 236.111111,472.222222 C236.111111,487.563465 248.547646,500 263.888889,500 L305.555556,500 L305.555556,527.777778 C305.555556,543.119021 317.99209,555.555556 333.333333,555.555556 C348.674576,555.555556 361.111111,543.119021 361.111111,527.777778 L361.111111,500 L402.777778,500 C418.119021,500 430.555556,487.563465 430.555556,472.222222 C430.555556,456.880979 418.119021,444.444444 402.777778,444.444444 L361.111111,444.444444 L361.111111,416.666667 L402.777778,416.666667 C418.119021,416.666667 430.555556,404.230132 430.555556,388.888889 C430.555556,373.547646 418.119021,361.111111 402.777778,361.111111 L383.425024,361.111111 L411.900753,332.635382 C422.74865,321.787485 422.74865,304.199568 411.900753,293.351671 C401.052856,282.503774 383.46494,282.503774 372.617043,293.351671 L333.82686,332.141855 Z M361.102295,360.404343 L361.809063,361.111111 L361.111111,361.111111 C361.111111,360.874821 361.108161,360.63922 361.102295,360.404343 Z M166.666667,0 L166.666667,55.5555556 C166.666667,86.2380417 191.539736,111.111111 222.222222,111.111111 L444.444444,111.111111 C475.126931,111.111111 500,86.2380417 500,55.5555556 L500,0 L611.111111,0 C641.793597,0 666.666667,24.8730695 666.666667,55.5555556 L666.666667,777.777778 C666.666667,808.460264 641.793597,833.333333 611.111111,833.333333 L55.5555556,833.333333 C24.8730695,833.333333 0,808.460264 0,777.777778 L0,55.5555556 C0,24.8730695 24.8730695,0 55.5555556,0 L166.666667,0 Z" id="Combined-Shape"></path>
                    <path d="M250,0 L416.666667,0 C432.00791,0 444.444444,12.4365347 444.444444,27.7777778 C444.444444,43.1190208 432.00791,55.5555556 416.666667,55.5555556 L250,55.5555556 C234.658757,55.5555556 222.222222,43.1190208 222.222222,27.7777778 C222.222222,12.4365347 234.658757,0 250,0 Z" id="Rectangle-62"></path>
                </g>
            </g>
        </g>
    </g>
</svg>