<svg width="1000" height="1000" xmlns="http://www.w3.org/2000/svg"><g fill="#323233" fill-rule="evenodd"><path d="M388.889 111.111v55.556H611.11V111.11H388.89zm388.889 55.556H666.667c0 30.682-24.873 55.555-55.556 55.555H388.89c-30.683 0-55.556-24.873-55.556-55.555h-111.11v722.222h555.555V166.667zm55.555 0v722.222c0 30.682-24.873 55.555-55.555 55.555H222.222c-30.682 0-55.555-24.873-55.555-55.555V166.667c0-30.683 24.873-55.556 55.555-55.556h111.111c0-30.682 24.873-55.555 55.556-55.555H611.11c30.683 0 55.556 24.873 55.556 55.555h111.11c30.683 0 55.556 24.873 55.556 55.556z" fill-rule="nonzero"/><path d="M500.494 444.24l-.205.204h.409l-.204-.204zm0-.987l38.79-38.79c10.848-10.848 28.436-10.848 39.283 0 10.848 10.848 10.848 28.436 0 39.283l-28.475 28.476h46.63a.5.5 0 0 1 .5.5v54.556a.5.5 0 0 1-.5.5h-68.944v27.778h68.944a.5.5 0 0 1 .5.5v54.555a.5.5 0 0 1-.5.5h-68.944v55.056a.5.5 0 0 1-.5.5h-54.556a.5.5 0 0 1-.5-.5V611.11h-68.944a.5.5 0 0 1-.5-.5v-54.555a.5.5 0 0 1 .5-.5h68.944v-27.778h-68.944a.5.5 0 0 1-.5-.5v-54.556a.5.5 0 0 1 .5-.5h47.617l-28.475-28.476c-10.848-10.847-10.848-28.435 0-39.283 10.848-10.848 28.435-10.848 39.283 0l38.79 38.79zm27.284 28.271v.698h.698l-.698-.698z"/></g></svg>