<?xml version="1.0" encoding="UTF-8"?>
<svg width="1000px" height="1000px" viewBox="0 0 1000 1000" version="1.1" xmlns="http://www.w3.org/2000/svg" xmlns:xlink="http://www.w3.org/1999/xlink">
    <!-- Generator: sketchtool 52.4 (67378) - http://www.bohemiancoding.com/sketch -->
    <title>bill-o</title>
    <desc>Created with sketchtool.</desc>
    <g id="新版图标" stroke="none" stroke-width="1" fill="none" fill-rule="evenodd">
        <g id="bill-o" fill="#323233">
            <g id="圆角-兑换记录-线">
                <g transform="translate(166.666667, 55.555556)">
                    <path d="M222.222222,55.5555556 L222.222222,111.111111 L444.444444,111.111111 L444.444444,55.5555556 L222.222222,55.5555556 Z M611.111111,111.111111 L500,111.111111 C500,141.793597 475.126931,166.666667 444.444444,166.666667 L222.222222,166.666667 C191.539736,166.666667 166.666667,141.793597 166.666667,111.111111 L55.5555556,111.111111 L55.5555556,833.333333 L611.111111,833.333333 L611.111111,111.111111 Z M666.666667,111.111111 L666.666667,833.333333 C666.666667,864.015819 641.793597,888.888889 611.111111,888.888889 L55.5555556,888.888889 C24.8730695,888.888889 3.75752084e-15,864.015819 0,833.333333 L0,111.111111 C-3.75752084e-15,80.428625 24.8730695,55.5555556 55.5555556,55.5555556 L166.666667,55.5555556 C166.666667,24.8730695 191.539736,0 222.222222,0 L444.444444,0 C475.126931,-6.16790569e-15 500,24.8730695 500,55.5555556 L611.111111,55.5555556 C641.793597,55.5555556 666.666667,80.428625 666.666667,111.111111 Z" id="Combined-Shape" fill-rule="nonzero"></path>
                    <g id="Group-2" transform="translate(222.222222, 333.333333)">
                        <path d="M111.604638,55.3511302 L111.400212,55.5555556 L111.809063,55.5555556 L111.604638,55.3511302 Z M111.604638,54.3640773 L150.394821,15.5738937 C161.242718,4.72599667 178.830634,4.72599667 189.678531,15.5738937 C200.526428,26.4217907 200.526428,44.0097067 189.678531,54.8576037 L161.202802,83.3333333 L207.833333,83.3333333 C208.109476,83.3333333 208.333333,83.557191 208.333333,83.8333333 L208.333333,138.388889 C208.333333,138.665031 208.109476,138.888889 207.833333,138.888889 L138.888889,138.888889 L138.888889,166.666667 L207.833333,166.666667 C208.109476,166.666667 208.333333,166.890524 208.333333,167.166667 L208.333333,221.722222 C208.333333,221.998365 208.109476,222.222222 207.833333,222.222222 L138.888889,222.222222 L138.888889,277.277778 C138.888889,277.55392 138.665031,277.777778 138.388889,277.777778 L83.8333333,277.777778 C83.557191,277.777778 83.3333333,277.55392 83.3333333,277.277778 L83.3333333,222.222222 L14.3888889,222.222222 C14.1127465,222.222222 13.8888889,221.998365 13.8888889,221.722222 L13.8888889,167.166667 C13.8888889,166.890524 14.1127465,166.666667 14.3888889,166.666667 L83.3333333,166.666667 L83.3333333,138.888889 L14.3888889,138.888889 C14.1127465,138.888889 13.8888889,138.665031 13.8888889,138.388889 L13.8888889,83.8333333 C13.8888889,83.557191 14.1127465,83.3333333 14.3888889,83.3333333 L62.0064735,83.3333333 L33.5307439,54.8576037 C22.6828469,44.0097067 22.6828469,26.4217907 33.5307439,15.5738937 C44.3786409,4.72599667 61.966557,4.72599667 72.814454,15.5738937 L111.604638,54.3640773 Z M138.888889,82.6353815 L138.888889,83.3333333 L139.586841,83.3333333 L138.888889,82.6353815 Z" id="Combined-Shape"></path>
                    </g>
                </g>
            </g>
        </g>
    </g>
</svg>