<svg width="1000" height="1000" xmlns="http://www.w3.org/2000/svg"><path d="M527.778 333.333h194.444c30.683 0 55.556 24.873 55.556 55.556V500h55.555c30.683 0 55.556 24.873 55.556 55.556v277.777c0 30.683-24.873 55.556-55.556 55.556H166.667c-30.683 0-55.556-24.873-55.556-55.556V555.556c0-30.683 24.873-55.556 55.556-55.556h55.555V388.889c0-30.683 24.873-55.556 55.556-55.556h194.444v-110.61a.5.5 0 0 1 .5-.5h54.556a.5.5 0 0 1 .5.5v110.61zm-.5 55.556h-249.5V500h444.444V388.889H527.278zm194.944 166.667H166.667v277.777h666.666V555.556h-111.11zm-193.11-423.13c0 30.175-15.226 54.647-34 54.647-18.776 0-34-24.472-34-54.648 0-30.176 15.224-54.647 34-54.647 18.774 0 34 24.471 34 54.647zm-306.39 534.24h554.556a.5.5 0 0 1 .5.5v54.556a.5.5 0 0 1-.5.5H222.722a.5.5 0 0 1-.5-.5v-54.555a.5.5 0 0 1 .5-.5z" fill="#323233" fill-rule="nonzero"/></svg>