<?xml version="1.0" encoding="UTF-8"?>
<svg width="1000px" height="1000px" viewBox="0 0 1000 1000" version="1.1" xmlns="http://www.w3.org/2000/svg" xmlns:xlink="http://www.w3.org/1999/xlink">
    <!-- Generator: sketchtool 52.4 (67378) - http://www.bohemiancoding.com/sketch -->
    <title>birthday-cake-o</title>
    <desc>Created with sketchtool.</desc>
    <g id="新版图标" stroke="none" stroke-width="1" fill="none" fill-rule="evenodd">
        <g id="birthday-cake-o" fill="#323233" fill-rule="nonzero">
            <g id="圆角-生日特权" transform="translate(111.000000, 77.000000)">
                <path d="M416.777778,256.333333 L611.222222,256.333333 C641.904708,256.333333 666.777778,281.206403 666.777778,311.888889 L666.777778,423 L722.333333,423 C753.015819,423 777.888889,447.873069 777.888889,478.555556 L777.888889,756.333333 C777.888889,787.015819 753.015819,811.888889 722.333333,811.888889 L55.6666667,811.888889 C24.9841806,811.888889 0.111111111,787.015819 0.111111111,756.333333 L0.111111111,478.555556 C0.111111111,447.873069 24.9841806,423 55.6666667,423 L111.222222,423 L111.222222,311.888889 C111.222222,281.206403 136.095292,256.333333 166.777778,256.333333 L361.222222,256.333333 L361.222222,145.722222 C361.222222,145.44608 361.44608,145.222222 361.722222,145.222222 L416.277778,145.222222 C416.55392,145.222222 416.777778,145.44608 416.777778,145.722222 L416.777778,256.333333 Z M416.277778,311.888889 L361.722222,311.888889 L166.777778,311.888889 L166.777778,423 L611.222222,423 L611.222222,311.888889 L416.277778,311.888889 Z M611.222222,478.555556 L166.777778,478.555556 L55.6666667,478.555556 L55.6666667,756.333333 L722.333333,756.333333 L722.333333,478.555556 L611.222222,478.555556 Z M418.111122,55.4252765 C418.111122,85.6013278 402.886122,110.072776 384.111122,110.072776 C365.336122,110.072776 350.111122,85.6013278 350.111122,55.4252765 C350.111122,25.2492251 365.336122,0.777776453 384.111122,0.777776453 C402.886122,0.777776453 418.111122,25.2492251 418.111122,55.4252765 Z M111.722222,589.666667 L666.277778,589.666667 C666.55392,589.666667 666.777778,589.890524 666.777778,590.166667 L666.777778,644.722222 C666.777778,644.998365 666.55392,645.222222 666.277778,645.222222 L111.722222,645.222222 C111.44608,645.222222 111.222222,644.998365 111.222222,644.722222 L111.222222,590.166667 C111.222222,589.890524 111.44608,589.666667 111.722222,589.666667 Z" id="Combined-Shape"></path>
            </g>
        </g>
    </g>
</svg>