<?xml version="1.0" encoding="UTF-8"?>
<svg width="1000px" height="1000px" viewBox="0 0 1000 1000" version="1.1" xmlns="http://www.w3.org/2000/svg" xmlns:xlink="http://www.w3.org/1999/xlink">
    <!-- Generator: sketchtool 52.4 (67378) - http://www.bohemiancoding.com/sketch -->
    <title>bookmark</title>
    <desc>Created with sketchtool.</desc>
    <g id="新版图标" stroke="none" stroke-width="1" fill="none" fill-rule="evenodd">
        <g id="bookmark" fill="#323233">
            <g id="圆角-售后-面">
                <g transform="translate(166.666667, 55.555556)" id="Combined-Shape">
                    <path d="M166.666667,333.333333 C166.666667,425.380792 241.285875,500 333.333333,500 C425.380792,500 500,425.380792 500,333.333333 C500,317.99209 487.563465,305.555556 472.222222,305.555556 C456.880979,305.555556 444.444444,317.99209 444.444444,333.333333 C444.444444,394.698306 394.698306,444.444444 333.333333,444.444444 C271.968361,444.444444 222.222222,394.698306 222.222222,333.333333 C222.222222,317.99209 209.785687,305.555556 194.444444,305.555556 C179.103201,305.555556 166.666667,317.99209 166.666667,333.333333 Z M55.5555556,6.16790569e-15 L611.111111,0 C641.793597,-6.01393253e-14 666.666667,24.8730695 666.666667,55.5555556 L666.666667,831.707501 C666.666667,862.389987 641.793597,887.263057 611.111111,887.263057 C598.325664,887.263057 585.931502,882.853124 576.019522,874.777214 L368.518923,705.713496 C348.091225,689.069773 318.781875,689.06525 298.349041,705.702667 L90.6338489,874.83458 C66.8411227,894.207787 31.8482202,890.625058 12.4750137,866.832332 C4.40588008,856.922424 1.14557909e-13,844.5336 1.35693925e-13,831.754038 L0,55.5555556 C-3.75752084e-15,24.8730695 24.8730695,5.63628126e-15 55.5555556,6.16790569e-15 Z"></path>
                </g>
            </g>
        </g>
    </g>
</svg>