<?xml version="1.0" encoding="UTF-8"?>
<svg width="1000px" height="1000px" viewBox="0 0 1000 1000" version="1.1" xmlns="http://www.w3.org/2000/svg" xmlns:xlink="http://www.w3.org/1999/xlink">
    <!-- Generator: sketchtool 52.4 (67378) - http://www.bohemiancoding.com/sketch -->
    <title>bookmark-o</title>
    <desc>Created with sketchtool.</desc>
    <g id="新版图标" stroke="none" stroke-width="1" fill="none" fill-rule="evenodd">
        <g id="bookmark-o" fill="#323233" fill-rule="nonzero">
            <g id="圆角-售后-线">
                <g transform="translate(166.666667, 55.555556)">
                    <path d="M55.5555556,55.5555556 L55.5555556,831.754038 L263.270748,662.622125 C304.136416,629.347291 362.755116,629.356337 403.610512,662.643784 L611.111111,831.707501 L611.111111,55.5555556 L55.5555556,55.5555556 Z M55.5555556,6.16790569e-15 L611.111111,0 C641.793597,-6.16790569e-14 666.666667,24.8730695 666.666667,55.5555556 L666.666667,831.707501 C666.666667,862.389987 641.793597,887.263057 611.111111,887.263057 C598.325664,887.263057 585.931502,882.853124 576.019522,874.777214 L368.518923,705.713496 C348.091225,689.069773 318.781875,689.06525 298.349041,705.702667 L90.6338489,874.83458 C66.8411227,894.207787 31.8482202,890.625058 12.4750137,866.832332 C4.40588008,856.922424 1.23358114e-13,844.5336 1.48029737e-13,831.754038 L0,55.5555556 C0,24.8730695 24.8730695,6.16790569e-15 55.5555556,6.16790569e-15 Z" id="Rectangle-7"></path>
                    <path d="M444.444444,333.333333 L500,333.333333 C500,425.380792 425.380792,500 333.333333,500 C241.285875,500 166.666667,425.380792 166.666667,333.333333 L222.222222,333.333333 C222.222222,394.698306 271.968361,444.444444 333.333333,444.444444 C394.698306,444.444444 444.444444,394.698306 444.444444,333.333333 Z M166.666667,333.333333 C166.666667,317.99209 179.103201,305.555556 194.444444,305.555556 C209.785687,305.555556 222.222222,317.99209 222.222222,333.333333 C222.222222,394.698306 271.968361,444.444444 333.333333,444.444444 C394.698306,444.444444 444.444444,394.698306 444.444444,333.333333 C444.444444,317.99209 456.880979,305.555556 472.222222,305.555556 C487.563465,305.555556 500,317.99209 500,333.333333 C500,425.380792 425.380792,500 333.333333,500 C241.285875,500 166.666667,425.380792 166.666667,333.333333 Z" id="Combined-Shape"></path>
                </g>
            </g>
        </g>
    </g>
</svg>