<svg width="1000" height="1000" xmlns="http://www.w3.org/2000/svg"><g fill="#323233" fill-rule="nonzero"><path d="M222.222 111.111V887.31l207.715-169.132c40.866-33.275 99.485-33.266 140.34.021l207.5 169.064V111.111H222.223zm0-55.555h555.556c30.682 0 55.555 24.873 55.555 55.555v776.152c0 30.683-24.873 55.556-55.555 55.556a55.556 55.556 0 0 1-35.092-12.486l-207.5-169.064c-20.428-16.644-49.737-16.648-70.17-.01L257.3 930.39c-23.793 19.373-58.786 15.79-78.16-8.002a55.556 55.556 0 0 1-12.474-35.078V111.11c0-30.682 24.873-55.555 55.555-55.555z"/><path d="M611.111 388.889h55.556c0 92.047-74.62 166.667-166.667 166.667s-166.667-74.62-166.667-166.667h55.556C388.889 450.254 438.635 500 500 500s111.111-49.746 111.111-111.111zm-277.778 0c0-15.341 12.437-27.778 27.778-27.778s27.778 12.437 27.778 27.778C388.889 450.254 438.635 500 500 500s111.111-49.746 111.111-111.111c0-15.341 12.437-27.778 27.778-27.778s27.778 12.437 27.778 27.778c0 92.047-74.62 166.667-166.667 166.667s-166.667-74.62-166.667-166.667z"/></g></svg>