<?xml version="1.0" encoding="UTF-8"?>
<svg width="1000px" height="1000px" viewBox="0 0 1000 1000" version="1.1" xmlns="http://www.w3.org/2000/svg" xmlns:xlink="http://www.w3.org/1999/xlink">
    <!-- Generator: sketchtool 52.4 (67378) - http://www.bohemiancoding.com/sketch -->
    <title>browsing-history-o</title>
    <desc>Created with sketchtool.</desc>
    <g id="新版图标" stroke="none" stroke-width="1" fill="none" fill-rule="evenodd">
        <g id="browsing-history-o" fill="#323233">
            <g id="浏览记录">
                <path d="M500,888.888889 C714.777403,888.888889 888.888889,714.777403 888.888889,500 C888.888889,285.222597 714.777403,111.111111 500,111.111111 C285.222597,111.111111 111.111111,285.222597 111.111111,500 C111.111111,714.777403 285.222597,888.888889 500,888.888889 Z M500,944.444444 C254.540111,944.444444 55.5555556,745.459889 55.5555556,500 C55.5555556,254.540111 254.540111,55.5555556 500,55.5555556 C745.459889,55.5555556 944.444444,254.540111 944.444444,500 C944.444444,745.459889 745.459889,944.444444 500,944.444444 Z" id="Combined-Shape" fill-rule="nonzero"></path>
                <path d="M500.002466,333.333333 C687.473206,333.333333 777.777778,492.232068 777.777778,500 C777.777778,507.776388 689.88601,666.666667 500.002466,666.666667 C310.114976,666.666667 222.222222,507.776388 222.222222,500 C222.222222,492.232068 312.526794,333.333333 500.002466,333.333333 Z M326.846225,544.755729 C373.650779,586.425602 431.089392,611.111111 500.002466,611.111111 C568.913589,611.111111 626.350804,586.425746 673.154427,544.756026 C689.130531,530.532346 702.808863,515.156259 713.572489,500.262049 C702.565863,485.245331 688.61114,469.719241 672.384763,455.367065 C625.166334,413.602526 567.851983,388.888889 500.002466,388.888889 C432.150563,388.888889 374.834768,413.602657 327.615577,455.36731 C311.389101,469.71938 297.434335,485.245337 286.427683,500.261941 C297.191435,515.156087 310.869922,530.532101 326.846225,544.755729 Z M500,555.555556 C469.317514,555.555556 444.444444,530.682486 444.444444,500 C444.444444,469.317514 469.317514,444.444444 500,444.444444 C530.682486,444.444444 555.555556,469.317514 555.555556,500 C555.555556,530.682486 530.682486,555.555556 500,555.555556 Z" id="Combined-Shape"></path>
            </g>
        </g>
    </g>
</svg>