<?xml version="1.0" encoding="UTF-8"?>
<svg width="1000px" height="1000px" viewBox="0 0 1000 1000" version="1.1" xmlns="http://www.w3.org/2000/svg" xmlns:xlink="http://www.w3.org/1999/xlink">
    <!-- Generator: sketchtool 52.4 (67378) - http://www.bohemiancoding.com/sketch -->
    <title>brush-o</title>
    <desc>Created with sketchtool.</desc>
    <g id="新版图标" stroke="none" stroke-width="1" fill="none" fill-rule="evenodd">
        <g id="brush-o" fill="#323233">
            <g id="直角-店铺装修-线" transform="translate(166.000000, 55.000000)">
                <path d="M0.666666667,445 L0.666666667,56.1111111 C0.666666667,19.0740741 19.1851852,0.555555556 56.2222222,0.555555556 L611.777778,0.555555556 C648.814815,0.555555556 667.333333,19.0740741 667.333333,56.1111111 L667.333333,445 C667.333333,500.555556 472.888889,472.777778 445.111111,528.333333 C417.333333,583.888889 445.111111,722.777778 445.111111,750.555556 C445.111111,778.333333 445.111111,889.444444 334,889.444444 C222.888889,889.444444 222.888889,778.333333 222.888889,750.555556 C222.888889,722.777778 250.666667,583.888889 222.888889,528.333333 C195.111111,472.777778 0.666666667,500.555556 0.666666667,445 Z M56.2222222,222.777778 L56.2222222,422.967633 C66.9443221,425.643798 82.0325215,428.042314 108.70354,431.59845 C114.714003,432.398463 114.714003,432.398463 120.854434,433.222649 C212.357735,445.576313 249.224253,456.778062 272.579288,503.488134 C288.781374,535.892304 292.773875,578.06764 290.037794,633.131273 C289.020551,653.603291 287.111764,674.518087 284.251114,699.310393 C283.288065,707.656818 280.336191,731.862182 279.997811,734.757213 C278.937581,743.828066 278.444444,749.299536 278.444444,750.555556 C278.444444,806.595226 290.574961,833.888889 334,833.888889 C363.683923,833.888889 375.820135,823.69447 383.47428,799.881576 C388.201428,785.174892 389.555556,770.693253 389.555556,750.555556 C389.555556,749.299536 389.062419,743.828066 388.002189,734.757213 C387.663809,731.862182 384.711935,707.656818 383.748886,699.310393 C380.888236,674.518087 378.979449,653.603291 377.962206,633.131273 C375.226125,578.06764 379.218626,535.892304 395.420712,503.488134 C418.775747,456.778062 455.642265,445.576313 547.145566,433.222649 C553.285997,432.398463 553.285997,432.398463 559.29646,431.59845 C585.967479,428.042314 601.055678,425.643798 611.777778,422.967633 L611.777778,222.777778 L56.2222222,222.777778 Z M56.2222222,167.222222 L611.777778,167.222222 L611.777778,56.1111111 L56.2222222,56.1111111 L56.2222222,167.222222 Z M56.2222222,167.222222 L56.2222222,222.777778 L611.777778,222.777778 L611.777778,167.222222 L56.2222222,167.222222 Z" id="Combined-Shape"></path>
            </g>
        </g>
    </g>
</svg>