<?xml version="1.0" encoding="UTF-8"?>
<svg width="1000px" height="1000px" viewBox="0 0 1000 1000" version="1.1" xmlns="http://www.w3.org/2000/svg" xmlns:xlink="http://www.w3.org/1999/xlink">
    <!-- Generator: sketchtool 52.4 (67378) - http://www.bohemiancoding.com/sketch -->
    <title>bulb-o</title>
    <desc>Created with sketchtool.</desc>
    <g id="新版图标" stroke="none" stroke-width="1" fill="none" fill-rule="evenodd">
        <g id="bulb-o" fill="#323233" fill-rule="nonzero">
            <g id="直角-消息类型－库存预警">
                <path d="M663.358145,652.555556 L663.358145,522.439091 C663.358145,450.027356 584.570348,374.777778 496.691478,374.777778 C408.812608,374.777778 330.024812,450.027356 330.024812,522.439091 L330.024812,652.555556 L663.358145,652.555556 Z M718.913701,522.439091 L718.913701,708.111111 L274.469256,708.111111 L274.469256,522.439091 C274.469256,423.272231 373.961534,319.222222 496.691478,319.222222 C619.421423,319.222222 718.913701,423.272231 718.913701,522.439091 Z M468.913701,97 L524.469256,97 L524.469256,208.111111 L468.913701,208.111111 L468.913701,97 Z M639.301884,138.666667 L687.414406,166.444444 L631.858851,262.669489 L583.746328,234.891712 L639.301884,138.666667 Z M777.839266,244.024812 L817.122976,283.308522 L738.555556,361.875942 L699.271845,322.592232 L777.839266,244.024812 Z M218.913701,902.555556 L218.913701,847 L774.469256,847 L774.469256,902.555556 L218.913701,902.555556 Z M346.63804,138.666667 L402.193595,234.891712 L354.081073,262.669489 L298.525517,166.444444 L346.63804,138.666667 Z M222.28371,244.024812 L300.85113,322.592232 L261.56742,361.875942 L183,283.308522 L222.28371,244.024812 Z" id="直角-消息类型－库存预警-线"></path>
            </g>
        </g>
    </g>
</svg>