<svg width="1000" height="1000" xmlns="http://www.w3.org/2000/svg"><path d="M663.358 652.556V522.439c0-72.412-78.788-147.661-166.667-147.661-87.878 0-166.666 75.25-166.666 147.661v130.117h333.333zm55.556-130.117v185.672H274.469V522.44c0-99.167 99.493-203.217 222.222-203.217 122.73 0 222.223 104.05 222.223 203.217zM468.914 97h55.555v111.111h-55.555V97zm170.388 41.667l48.112 27.777-55.555 96.225-48.113-27.777 55.556-96.225zm138.537 105.358l39.284 39.284-78.567 78.567-39.284-39.284 78.567-78.567zm-558.925 658.53V847h555.555v55.556H218.914zm127.724-763.888l55.556 96.225-48.113 27.777-55.555-96.225 48.112-27.777zM222.284 244.025l78.567 78.567-39.284 39.284L183 283.309l39.284-39.284z" fill="#323233" fill-rule="nonzero"/></svg>