<svg width="1000" height="1000" xmlns="http://www.w3.org/2000/svg"><g fill="#323233" fill-rule="nonzero"><path d="M777.778 151.288l-318.58 182.045H222.222v333.334h236.976l318.58 182.045V151.288zm55.555 0v697.424c0 30.683-24.873 55.556-55.555 55.556a55.556 55.556 0 0 1-27.563-7.32l-305.77-174.726H222.221c-30.682 0-55.555-24.873-55.555-55.555V333.333c0-30.682 24.873-55.555 55.555-55.555h222.222l305.77-174.726c26.64-15.223 60.577-5.967 75.8 20.672a55.556 55.556 0 0 1 7.32 27.564z"/><path d="M378.878 888.889h53.355L398.9 722.222h-53.355l33.333 166.667zm65.566-222.222v-388.89H500v444.445h-44.444l31.154 155.772c6.017 30.086-13.495 59.354-43.582 65.372a55.556 55.556 0 0 1-10.895 1.078h-53.355c-26.482 0-49.283-18.692-54.477-44.66l-46.623-233.117h166.666z"/></g></svg>