<svg width="1000" height="1000" xmlns="http://www.w3.org/2000/svg"><path d="M413.65 759.188c0 9.83-8.074 17.896-17.944 17.896H100.563c-9.876 0-17.95-8.06-17.95-17.896V692.88c0-9.846 8.074-17.902 17.95-17.902h295.138c9.875 0 17.945 8.056 17.945 17.902v66.308h.005zm565.255-348.912H15.938C0 410.276 0 422.893 0 422.893v390.119c0 27.763 22.782 50.478 50.624 50.478h898.752c27.841 0 50.624-22.715 50.624-50.478V430.85c.005 0 0-20.575-21.095-20.575zM15.434 302.874h969.96c14.6 0 14.6-11.247 14.6-11.247V188.473c0-27.758-22.782-50.473-50.628-50.473H50.624C22.782 138 0 160.715 0 188.473v96.196c0 18.205 15.434 18.205 15.434 18.205z" fill="#323233" fill-rule="evenodd"/></svg>