<?xml version="1.0" encoding="UTF-8"?>
<svg width="1000px" height="1000px" viewBox="0 0 1000 1000" version="1.1" xmlns="http://www.w3.org/2000/svg" xmlns:xlink="http://www.w3.org/1999/xlink">
    <!-- Generator: sketchtool 52.4 (67378) - http://www.bohemiancoding.com/sketch -->
    <title>card</title>
    <desc>Created with sketchtool.</desc>
    <g id="旧版图标(剩余)" stroke="none" stroke-width="1" fill="none" fill-rule="evenodd">
        <path d="M413.650895,759.187576 C413.650895,769.018539 405.57642,777.084444 395.705901,777.084444 L100.562985,777.084444 C90.6873198,777.084444 82.6128444,769.02367 82.6128444,759.187576 L82.6128444,692.879884 C82.6128444,683.033528 90.6873198,674.977884 100.562985,674.977884 L395.700755,674.977884 C405.57642,674.977884 413.645749,683.033528 413.645749,692.879884 L413.645749,759.187576 L413.650895,759.187576 Z M978.90534,410.275608 L15.9379542,410.275608 C0,410.275608 0,422.892695 0,422.892695 L0,813.011586 C0,840.775335 22.7824744,863.490196 50.6237184,863.490196 L949.376125,863.490196 C977.217368,863.490196 999.999843,840.775335 999.999843,813.011586 L999.999843,430.850849 C1000.00499,430.850849 1000,410.275608 978.90534,410.275608 Z M15.4336212,302.873874 L985.394769,302.873874 C999.994697,302.873874 999.994697,291.626759 999.994697,291.626759 L999.994697,188.473479 C999.994697,160.714861 977.212222,138 949.365832,138 L50.6237184,138 C22.7824744,138 0,160.714861 0,188.473479 L0,284.669146 C0,302.873874 15.4336212,302.873874 15.4336212,302.873874 Z" id="Fill-1" fill="#323233"></path>
    </g>
</svg>