<svg width="1000" height="1000" xmlns="http://www.w3.org/2000/svg"><path d="M423.322 729.615c0 8.73-7.17 15.892-15.935 15.892H145.3c-8.77 0-15.94-7.158-15.94-15.892v-58.882c0-8.743 7.17-15.897 15.94-15.897h262.082c8.77 0 15.935 7.154 15.935 15.897v58.882h.005zM925.268 419.78H70.153C56 419.78 56 430.985 56 430.985V777.41c0 24.654 20.23 44.825 44.954 44.825h798.092c24.723 0 44.954-20.17 44.954-44.825V438.052c.004 0 0-18.271-18.732-18.271zM69.705 324.408h861.326c12.964 0 12.964-9.987 12.964-9.987v-91.6c0-24.65-20.23-44.821-44.958-44.821H100.954C76.23 178 56 198.17 56 222.82v85.422c0 16.166 13.705 16.166 13.705 16.166z" fill="#323233" fill-rule="evenodd"/></svg>