<?xml version="1.0" encoding="UTF-8"?>
<svg width="1000px" height="1000px" viewBox="0 0 1000 1000" version="1.1" xmlns="http://www.w3.org/2000/svg" xmlns:xlink="http://www.w3.org/1999/xlink">
    <!-- Generator: sketchtool 52.4 (67378) - http://www.bohemiancoding.com/sketch -->
    <title>cart-o</title>
    <desc>Created with sketchtool.</desc>
    <g id="新版图标" stroke="none" stroke-width="1" fill="none" fill-rule="evenodd">
        <g id="cart-o" fill="#323233">
            <g id="圆角-购物车2-线">
                <g id="圆角-编辑资料-面" transform="translate(0.000000, 111.111111)">
                    <g id="Group-2">
                        <circle id="Oval" cx="333.333333" cy="722.222222" r="55.5555556"></circle>
                        <circle id="Oval-Copy" cx="722.222222" cy="722.222222" r="55.5555556"></circle>
                        <path d="M226.922062,167.013048 L268.684317,531.219166 C270.292516,545.244168 282.164356,555.832498 296.281259,555.832498 L785.202472,555.832498 C798.644856,555.832498 810.158366,546.207021 812.54058,532.977405 L872.55033,199.71351 C875.269054,184.61509 865.233327,170.171442 850.134907,167.452718 C848.510336,167.160187 846.862922,167.013048 845.212223,167.013048 L226.922062,167.013048 Z M220.551699,111.457492 L845.212223,111.457492 C850.16432,111.457492 855.106561,111.89891 859.980276,112.776504 C905.275536,120.932674 935.382716,164.26362 927.226545,209.558879 L867.216794,542.822774 C860.070152,582.511621 825.529623,611.388054 785.202472,611.388054 L296.281259,611.388054 C253.930549,611.388054 218.315028,579.623062 213.490433,537.548058 L161.054245,80.2552128 C159.446047,66.2302114 147.574206,55.6418809 133.457303,55.6418809 L55.5555556,55.6418809 C40.2143125,55.6418809 27.7777778,43.2053462 27.7777778,27.8641031 C27.7777778,12.5228601 40.2143125,0.0863253649 55.5555556,0.0863253649 L133.457303,0.0863253649 C175.808013,0.0863253649 211.423534,31.8513168 216.248129,73.9263211 L220.551699,111.457492 Z" id="Path-3" fill-rule="nonzero"></path>
                    </g>
                </g>
            </g>
        </g>
    </g>
</svg>