<svg width="1000" height="1000" xmlns="http://www.w3.org/2000/svg"><g fill="#323233" fill-rule="evenodd"><path d="M500 944.444c244.444 0 444.444-200 444.444-444.444 0-244.444-200-444.444-444.444-444.444-244.444 0-444.444 200-444.444 444.444 0 244.444 200 444.444 444.444 444.444zm0 55.556C222.222 1000 0 777.778 0 500S222.222 0 500 0s500 222.222 500 500-222.222 500-500 500z" fill-rule="nonzero"/><g transform="translate(277.778 722.222)"><circle cx="44.444" cy="44.444" r="33.333"/><circle cx="416.667" cy="44.444" r="33.333"/></g><path d="M722.222 277.778c27.778 0 55.556 22.222 55.556 55.555v11.111l-38.89 166.667c-5.555 27.778-27.777 44.445-55.555 44.445h-350v55.555h372.223c16.666 0 27.777 11.111 27.777 27.778 0 16.667-11.11 27.778-27.777 27.778H333.333c-33.333 0-55.555-22.223-55.555-55.556V277.778h-55.556c-16.666 0-27.778-11.111-27.778-27.778 0-16.667 11.112-27.778 27.778-27.778h55.556c33.333 0 55.555 22.222 55.555 55.556h388.89z" fill-rule="nonzero"/></g></svg>