<svg width="1000" height="1000" xmlns="http://www.w3.org/2000/svg"><g fill="#323233" fill-rule="evenodd"><path d="M500 944.444c244.444 0 444.444-200 444.444-444.444 0-244.444-200-444.444-444.444-444.444-244.444 0-444.444 200-444.444 444.444 0 244.444 200 444.444 444.444 444.444zm0 55.556C222.222 1000 0 777.778 0 500S222.222 0 500 0s500 222.222 500 500-222.222 500-500 500z" fill-rule="nonzero"/><g transform="translate(277.778 722.222)"><circle cx="44.444" cy="44.444" r="33.333"/><circle cx="416.667" cy="44.444" r="33.333"/></g><path d="M722.222 277.778H333.333c0-33.334-22.222-55.556-55.555-55.556h-55.556c-16.666 0-27.778 11.111-27.778 27.778 0 16.667 11.112 27.778 27.778 27.778h55.556V611.11c0 33.333 22.222 55.556 55.555 55.556h372.223c16.666 0 27.777-11.111 27.777-27.778 0-16.667-11.11-27.778-27.777-27.778H333.333v-55.555h350c27.778 0 50-16.667 55.556-44.445l38.889-166.667v-11.11c0-33.334-27.778-55.556-55.556-55.556zM683.333 500h-350V333.333h388.89L683.332 500z" fill-rule="nonzero"/></g></svg>