<?xml version="1.0" encoding="UTF-8"?>
<svg width="1000px" height="1000px" viewBox="0 0 1000 1000" version="1.1" xmlns="http://www.w3.org/2000/svg" xmlns:xlink="http://www.w3.org/1999/xlink">
    <!-- Generator: sketchtool 52.4 (67378) - http://www.bohemiancoding.com/sketch -->
    <title>cash-back-record</title>
    <desc>Created with sketchtool.</desc>
    <g id="新版图标" stroke="none" stroke-width="1" fill="none" fill-rule="evenodd">
        <g id="cash-back-record">
            <g id="圆角-返现记录-面">
                <g transform="translate(55.555556, 55.555556)">
                    <path d="M796.930529,598.85163 L746.335574,575.904509 C716.974291,640.641727 668.384129,694.763802 605.438558,731.105445 C441.227154,825.912943 231.250847,769.649961 136.44335,605.438558 C41.6358516,441.227154 97.8988335,231.250847 262.110237,136.44335 C426.32164,41.6358516 636.297947,97.8988335 731.105445,262.110237 L779.217967,234.332459 C669.069226,43.5492433 425.115675,-21.8179139 234.332459,88.3308271 C43.5492433,198.479568 -21.8179139,442.43312 88.3308271,633.216335 C198.479568,823.999551 442.43312,889.366708 633.216335,779.217967 C708.143658,735.958657 763.726671,672.061146 796.930529,598.85163 Z M633.216335,779.217967 C708.143658,735.958657 763.726671,672.061146 796.930529,598.85163 L746.335574,575.904509 C716.974291,640.641727 668.384129,694.763802 605.438558,731.105445 C441.227154,825.912943 231.250847,769.649961 136.44335,605.438558 C41.6358516,441.227154 97.8988335,231.250847 262.110237,136.44335 C426.32164,41.6358516 636.297947,97.8988335 731.105445,262.110237 L779.217967,234.332459 C669.069226,43.5492433 425.115675,-21.8179139 234.332459,88.3308271 C43.5492433,198.479568 -21.8179139,442.43312 88.3308271,633.216335 C198.479568,823.999551 442.43312,889.366708 633.216335,779.217967 Z" id="Oval-8" fill="#333333" fill-rule="nonzero"></path>
                    <path d="M819.153951,416.666667 L819.153951,346.865749 L930.503923,443.501012 L819.153951,540.136274 L819.153951,472.222222 L666.666667,472.222222 L666.666667,416.666667 L819.153951,416.666667 Z" id="Combined-Shape" fill="#333333"></path>
                    <polygon id="Combined-Shape" fill="#323233" fill-rule="nonzero" points="270.98733 409.876219 270.98733 354.320663 604.320663 354.320663 604.320663 409.876219"></polygon>
                    <polygon id="Path-32-Copy-3" fill="#323233" points="409.876219 382.098441 465.431774 382.098441 465.431774 659.876219 409.876219 659.876219"></polygon>
                    <polygon id="Path-32-Copy-2" fill="#323233" points="270.98733 520.98733 270.98733 465.431774 604.320663 465.431774 604.320663 520.98733"></polygon>
                    <polygon id="Path-40-Copy" fill="#323233" points="332.248646 409.876219 284.876219 375.216574 363.614344 215.431774 431.995365 215.431774"></polygon>
                    <polygon id="Path-40-Copy-2" fill="#323233" points="485.026424 409.876219 437.653997 375.216574 516.392122 215.431774 584.773143 215.431774"></polygon>
                </g>
            </g>
        </g>
    </g>
</svg>