<svg width="1000" height="1000" xmlns="http://www.w3.org/2000/svg"><g fill="#323233" fill-rule="evenodd"><path d="M166.667 277.778v555.555h666.666V277.778H166.667zm-55.556-55.556l40.2-80.4a55.556 55.556 0 0 1 49.69-30.71h597.997a55.556 55.556 0 0 1 49.69 30.71l40.2 80.4v611.111c0 30.683-24.872 55.556-55.555 55.556H166.667c-30.683 0-55.556-24.873-55.556-55.556v-611.11zm62.113 0h653.552l-27.778-55.555H201.002l-27.778 55.555z" fill-rule="nonzero"/><path d="M500.494 444.24l-.205.204h.409l-.204-.204zm0-.987l38.79-38.79c10.848-10.848 28.436-10.848 39.283 0 10.848 10.848 10.848 28.436 0 39.283l-28.475 28.476h46.63a.5.5 0 0 1 .5.5v54.556a.5.5 0 0 1-.5.5h-68.944v27.778h68.944a.5.5 0 0 1 .5.5v54.555a.5.5 0 0 1-.5.5h-68.944v55.056a.5.5 0 0 1-.5.5h-54.556a.5.5 0 0 1-.5-.5V611.11h-68.944a.5.5 0 0 1-.5-.5v-54.555a.5.5 0 0 1 .5-.5h68.944v-27.778h-68.944a.5.5 0 0 1-.5-.5v-54.556a.5.5 0 0 1 .5-.5h47.617l-28.475-28.476c-10.848-10.847-10.848-28.435 0-39.283 10.848-10.848 28.435-10.848 39.283 0l38.79 38.79zm27.284 28.271v.698h.698l-.698-.698z"/></g></svg>