<svg width="1000" height="1000" xmlns="http://www.w3.org/2000/svg"><g fill="none" fill-rule="evenodd"><path d="M852.486 654.407l-50.595-22.947c-29.361 64.737-77.951 118.86-140.897 155.201C496.783 881.468 286.806 825.206 192 660.994 97.19 496.783 153.454 286.806 317.666 192 481.877 97.19 691.854 153.454 786.66 317.666l48.113-27.778C724.624 99.105 480.67 33.738 289.888 143.886 99.105 254.036 33.738 497.99 143.886 688.772c110.15 190.783 354.103 256.15 544.886 146.002 74.927-43.26 130.51-107.157 163.714-180.367zM688.772 834.774c74.927-43.26 130.51-107.157 163.714-180.367l-50.595-22.947c-29.361 64.737-77.951 118.86-140.897 155.201C496.783 881.468 286.806 825.206 192 660.994 97.19 496.783 153.454 286.806 317.666 192 481.877 97.19 691.854 153.454 786.66 317.666l48.113-27.778C724.624 99.105 480.67 33.738 289.888 143.886 99.105 254.036 33.738 497.99 143.886 688.772c110.15 190.783 354.103 256.15 544.886 146.002z" fill="#333" fill-rule="nonzero"/><path d="M874.71 472.222v-69.8l111.35 96.635-111.35 96.635v-67.914H722.222v-55.556H874.71z" fill="#333"/><path fill="#323233" fill-rule="nonzero" d="M326.543 465.432v-55.556h333.333v55.556z"/><path fill="#323233" d="M465.432 437.654h55.555v277.778h-55.555z"/><path fill="#323233" d="M326.543 576.543v-55.556h333.333v55.556zM387.804 465.432l-47.372-34.66 78.738-159.785h68.38zM540.582 465.432l-47.372-34.66 78.738-159.785h68.38z"/></g></svg>