<?xml version="1.0" encoding="UTF-8"?>
<svg width="1000px" height="1000px" viewBox="0 0 1000 1000" version="1.1" xmlns="http://www.w3.org/2000/svg" xmlns:xlink="http://www.w3.org/1999/xlink">
    <!-- Generator: sketchtool 52.4 (67378) - http://www.bohemiancoding.com/sketch -->
    <title>cashier-o</title>
    <desc>Created with sketchtool.</desc>
    <g id="新版图标" stroke="none" stroke-width="1" fill="none" fill-rule="evenodd">
        <g id="cashier-o" fill="#333333" fill-rule="nonzero">
            <g id="直角-收银开单" transform="translate(55.000000, 111.000000)">
                <path d="M56.1111111,55.6666667 L56.1111111,555.666667 L833.888889,555.666667 L833.888889,55.6666667 L56.1111111,55.6666667 Z M472.777778,611.222222 L472.777778,722.333333 L667.222222,722.333333 L667.222222,777.888889 L222.777778,777.888889 L222.777778,722.333333 L417.222222,722.333333 L417.222222,611.222222 L56.1111111,611.222222 C25.428625,611.222222 0.555555556,586.349153 0.555555556,555.666667 L0.555555556,55.6666667 C0.555555556,24.9841806 25.428625,0.111111111 56.1111111,0.111111111 L833.888889,0.111111111 C864.571375,0.111111111 889.444444,24.9841806 889.444444,55.6666667 L889.444444,555.666667 C889.444444,586.349153 864.571375,611.222222 833.888889,611.222222 L472.777778,611.222222 Z M508.226242,226.962963 L583.888889,226.962963 L583.888889,273.259259 L468.148148,273.259259 L468.148148,319.555556 L583.888889,319.555556 L583.888889,365.851852 L468.148148,365.851852 L468.148148,481.592593 L421.851852,481.592593 L421.851852,365.851852 L306.111111,365.851852 L306.111111,319.555556 L421.851852,319.555556 L421.851852,273.259259 L306.111111,273.259259 L306.111111,226.962963 L377.058232,226.962963 L317.685185,111.222222 L374.669369,111.222222 L431.703636,226.962963 L453.580837,226.962963 L510.615104,111.222222 L567.599288,111.222222 L508.226242,226.962963 Z" id="Combined-Shape"></path>
            </g>
        </g>
    </g>
</svg>