<svg width="1000" height="1000" xmlns="http://www.w3.org/2000/svg"><path d="M111.111 166.667v500H888.89v-500H111.11zm416.667 555.555v111.111h194.444v55.556H277.778v-55.556h194.444v-111.11h-361.11c-30.683 0-55.556-24.874-55.556-55.556v-500c0-30.683 24.873-55.556 55.555-55.556H888.89c30.682 0 55.555 24.873 55.555 55.556v500c0 30.682-24.873 55.555-55.555 55.555H527.778zm35.448-384.259h75.663v46.296h-115.74v46.297h115.74v46.296h-115.74v115.74h-46.297v-115.74h-115.74v-46.296h115.74v-46.297h-115.74v-46.296h70.946l-59.373-115.74h56.984l57.035 115.74h21.877l57.034-115.74H622.6l-59.373 115.74z" fill="#333" fill-rule="nonzero"/></svg>