<svg width="1000" height="1000" xmlns="http://www.w3.org/2000/svg"><path d="M817.897 555.543a32.49 32.49 0 0 1 1.763-7.498c6.122-16.82 24.719-25.491 41.537-19.37 16.819 6.122 25.49 24.719 19.37 41.538-3.458 21.172-9.134 42.15-16.687 62.9C790.422 834.939 567.26 939 365.436 865.543 163.611 792.084 59.55 568.922 133.008 367.098 206.466 165.273 429.627 61.212 631.452 134.67c16.818 6.121 25.49 24.718 19.369 41.537-6.122 16.819-24.719 25.49-41.537 19.369-168.188-61.215-354.155 25.503-415.37 193.69-61.215 168.187 25.503 354.155 193.69 415.37 168.187 61.215 354.155-25.503 415.37-193.69a326.704 326.704 0 0 0 14.287-52.363c.19-1.023.401-2.037.636-3.04zM339.34 462.257c-7.021-7.01-8.156-17.911-1.968-25.713l14.47-18.242c5.931-7.478 17.026-9.356 24.868-4.122l125.243 83.593c6.606 4.41 17.976 3.836 24.144-1.169L857.04 228.111c7.439-6.035 19.09-5.52 25.61.99l8.152 8.14c7.094 7.083 6.579 18.328-.858 25.754l-355.2 354.674c-11.05 11.035-29.195 10.552-40.57-.807L339.338 462.257z" fill="#323233" fill-rule="nonzero"/></svg>