<?xml version="1.0" encoding="UTF-8"?>
<svg width="1000px" height="1000px" viewBox="0 0 1000 1000" version="1.1" xmlns="http://www.w3.org/2000/svg" xmlns:xlink="http://www.w3.org/1999/xlink">
    <!-- Generator: sketchtool 52.4 (67378) - http://www.bohemiancoding.com/sketch -->
    <title>certificate</title>
    <desc>Created with sketchtool.</desc>
    <g id="新版图标" stroke="none" stroke-width="1" fill="none" fill-rule="evenodd">
        <g id="certificate" fill="#323233" fill-rule="nonzero">
            <g id="圆角-服务保障">
                <path d="M817.897287,555.543283 C818.178434,553.035498 818.759031,550.520766 819.660291,548.044574 C825.781808,531.225846 844.378551,522.554042 861.197279,528.675559 C878.016007,534.797075 886.687811,553.393818 880.566295,570.212546 C877.108975,591.385272 871.432771,612.362251 863.879872,633.11367 C790.421674,834.938411 567.26076,939.000054 365.436019,865.541856 C163.611279,792.083658 59.5496355,568.922744 133.007834,367.098003 C206.466032,165.273263 429.626946,61.2116196 631.451686,134.669818 C648.270415,140.791334 656.942218,159.388077 650.820702,176.206805 C644.699185,193.025534 626.102442,201.697337 609.283714,195.575821 C441.09643,134.360656 255.129002,221.078692 193.913837,389.265976 C132.698672,557.453259 219.416708,743.420688 387.603991,804.635853 C555.791275,865.851018 741.758704,779.132982 802.973869,610.945698 C809.228464,593.761338 813.990953,576.26688 817.260808,558.583469 C817.45009,557.559829 817.662462,556.546287 817.897287,555.543283 Z M339.338691,462.257001 C332.317814,455.246501 331.182561,444.345763 337.371157,436.543891 L351.841175,418.301752 C357.772393,410.824353 368.867406,408.946323 376.709444,414.180482 L501.95183,497.773365 C508.558268,502.182824 519.927964,501.608556 526.096125,496.604332 L857.039029,228.110631 C864.477511,222.075798 876.129405,222.590142 882.649223,229.100323 L890.801138,237.240191 C897.895424,244.323991 897.379698,255.56866 889.942785,262.994582 L534.743621,617.668777 C523.692443,628.703622 505.54816,628.22082 494.172069,616.861543 L339.338691,462.257001 Z" id="Combined-Shape"></path>
            </g>
        </g>
    </g>
</svg>