<svg width="1000" height="1000" xmlns="http://www.w3.org/2000/svg"><g fill="#323233" fill-rule="nonzero"><path d="M125.403 468.264L96.82 420.625l288.112-172.867 191.355 54.673L814.88 90.35l36.909 41.522-261.409 232.364-197.533-56.438z"/><path d="M805.556 138.889h-83.334V83.333h138.89v138.89h-55.556zM166.667 583.333v277.778h111.11V583.333h-111.11zm-55.556-55.555h222.222v388.889H111.111v-388.89zM444.444 472.222v388.89h111.112v-388.89H444.444zm-55.555-55.555H611.11v500H388.89v-500zM722.222 361.111v500h111.111v-500h-111.11zm-55.555-55.555h222.222v611.11H666.667v-611.11z"/></g></svg>