<?xml version="1.0" encoding="UTF-8"?>
<svg width="1000px" height="1000px" viewBox="0 0 1000 1000" version="1.1" xmlns="http://www.w3.org/2000/svg" xmlns:xlink="http://www.w3.org/1999/xlink">
    <!-- Generator: sketchtool 52.4 (67378) - http://www.bohemiancoding.com/sketch -->
    <title>chart-trending-o</title>
    <desc>Created with sketchtool.</desc>
    <g id="新版图标" stroke="none" stroke-width="1" fill="none" fill-rule="evenodd">
        <g id="chart-trending-o" fill="#323233" fill-rule="nonzero">
            <g id="直角--业绩目标" transform="translate(96.000000, 83.000000)">
                <polygon id="Path-2" points="29.4026599 385.263692 0.819562349 337.625197 288.931798 164.757855 480.287473 219.430905 718.878782 7.34974115 755.787884 48.8724811 494.379194 281.235761 296.84598 224.7977"></polygon>
                <polygon id="Rectangle-23" transform="translate(695.666667, 69.777778) rotate(-180.000000) translate(-695.666667, -69.777778) " points="681.777778 83.6666667 765.111111 83.6666667 765.111111 139.222222 626.222222 139.222222 626.222222 0.333333333 681.777778 0.333333333"></polygon>
                <path d="M70.6666667,500.333333 L70.6666667,778.111111 L181.777778,778.111111 L181.777778,500.333333 L70.6666667,500.333333 Z M15.1111111,444.777778 L237.333333,444.777778 L237.333333,833.666667 L15.1111111,833.666667 L15.1111111,444.777778 Z" id="Rectangle"></path>
                <path d="M348.444444,389.222222 L348.444444,778.111111 L459.555556,778.111111 L459.555556,389.222222 L348.444444,389.222222 Z M292.888889,333.666667 L515.111111,333.666667 L515.111111,833.666667 L292.888889,833.666667 L292.888889,333.666667 Z" id="Rectangle-Copy"></path>
                <path d="M626.222222,278.111111 L626.222222,778.111111 L737.333333,778.111111 L737.333333,278.111111 L626.222222,278.111111 Z M570.666667,222.555556 L792.888889,222.555556 L792.888889,833.666667 L570.666667,833.666667 L570.666667,222.555556 Z" id="Rectangle-Copy-2"></path>
            </g>
        </g>
    </g>
</svg>