<?xml version="1.0" encoding="UTF-8"?>
<svg width="1000px" height="1000px" viewBox="0 0 1000 1000" version="1.1" xmlns="http://www.w3.org/2000/svg" xmlns:xlink="http://www.w3.org/1999/xlink">
    <!-- Generator: sketchtool 52.4 (67378) - http://www.bohemiancoding.com/sketch -->
    <title>chat-o</title>
    <desc>Created with sketchtool.</desc>
    <g id="新版图标" stroke="none" stroke-width="1" fill="none" fill-rule="evenodd">
        <g id="chat-o" fill="#323233">
            <g id="圆角-消息">
                <path d="M152.318765,799.258507 L261.412735,764.026746 L282.806794,776.42097 C346.439795,813.285486 421.372525,833.333333 500,833.333333 C716.304907,833.333333 888.888889,682.322349 888.888889,500 C888.888889,317.677651 716.304907,166.666667 500,166.666667 C283.695093,166.666667 111.111111,317.677651 111.111111,500 C111.111111,564.355103 132.446551,626.043612 172.284971,679.335626 L191.127838,704.541805 L152.318765,799.258507 Z M500,888.888889 C409.440254,888.888889 325.206546,865.189522 254.957665,824.492227 L112.473828,870.507204 C106.230918,872.523344 99.4758977,872.264846 93.4053251,869.777499 C79.2095078,863.960927 72.4167873,847.73768 78.2333592,833.541863 L127.788243,712.599134 C82.1116341,651.49735 55.5555556,578.462271 55.5555556,500 C55.5555556,285.222597 254.540111,111.111111 500,111.111111 C745.459889,111.111111 944.444444,285.222597 944.444444,500 C944.444444,714.777403 745.459889,888.888889 500,888.888889 Z" id="Oval-3" fill-rule="nonzero"></path>
                <circle id="Oval-16" cx="500" cy="500" r="55.5555556"></circle>
                <circle id="Oval-16-Copy" cx="277.777778" cy="500" r="55.5555556"></circle>
                <circle id="Oval-16-Copy-2" cx="722.222222" cy="500" r="55.5555556"></circle>
            </g>
        </g>
    </g>
</svg>