<svg width="1000" height="1000" xmlns="http://www.w3.org/2000/svg"><path d="M500 888.889c-90.56 0-174.793-23.7-245.042-64.397l-142.484 46.015a27.778 27.778 0 0 1-19.069-.73c-14.195-5.816-20.988-22.04-15.172-36.235l49.555-120.943C82.112 651.497 55.556 578.462 55.556 500c0-214.777 198.984-388.889 444.444-388.889S944.444 285.223 944.444 500c0 214.777-198.984 388.889-444.444 388.889zm0-333.333c30.682 0 55.556-24.874 55.556-55.556S530.682 444.444 500 444.444 444.444 469.318 444.444 500s24.874 55.556 55.556 55.556zm-222.222 0c30.682 0 55.555-24.874 55.555-55.556s-24.873-55.556-55.555-55.556c-30.683 0-55.556 24.874-55.556 55.556s24.873 55.556 55.556 55.556zm444.444 0c30.683 0 55.556-24.874 55.556-55.556s-24.873-55.556-55.556-55.556c-30.682 0-55.555 24.874-55.555 55.556s24.873 55.556 55.555 55.556z" fill="#323233" fill-rule="nonzero"/></svg>