<svg width="1000" height="1000" xmlns="http://www.w3.org/2000/svg" xmlns:xlink="http://www.w3.org/1999/xlink"><defs><path d="M500.445 944.89C254.985 944.89 56 745.905 56 500.445 56 254.985 254.985 56 500.445 56c245.46 0 444.445 198.985 444.445 444.445 0 245.46-198.985 444.445-444.445 444.445zM283.561 531.54l137.63 128.264c10.112 9.424 26.24 9.825 36.063.67l315.733-294.249c6.61-6.16 7.07-15.49.763-21.366l-7.246-6.753c-5.796-5.401-16.153-5.828-22.765-.822L449.567 560.035c-5.482 4.152-15.589 4.628-21.461.97l-111.327-69.351c-6.97-4.343-16.833-2.785-22.105 3.419l-12.862 15.134c-5.501 6.473-4.492 15.516 1.749 21.333z" id="a"/></defs><g fill="none" fill-rule="evenodd"><use fill="#323233" xlink:href="#a"/></g></svg>