<?xml version="1.0" encoding="UTF-8"?>
<svg width="1000px" height="1000px" viewBox="0 0 1000 1000" version="1.1" xmlns="http://www.w3.org/2000/svg" xmlns:xlink="http://www.w3.org/1999/xlink">
    <!-- Generator: sketchtool 52.4 (67378) - http://www.bohemiancoding.com/sketch -->
    <title>checked</title>
    <desc>Created with sketchtool.</desc>
    <g id="新版图标" stroke="none" stroke-width="1" fill="none" fill-rule="evenodd">
        <g id="checked" fill="#323233">
            <g id="圆角-已选择">
                <path d="M500,944.444444 C254.540111,944.444444 55.5555556,745.459889 55.5555556,500 C55.5555556,254.540111 254.540111,55.5555556 500,55.5555556 C745.459889,55.5555556 944.444444,254.540111 944.444444,500 C944.444444,745.459889 745.459889,944.444444 500,944.444444 Z M283.115873,503.316689 L420.745543,631.581198 C430.857623,641.00519 446.985875,641.405738 456.809144,632.250903 L772.541735,338.002682 C779.152324,331.841917 779.610747,322.513006 773.304716,316.636076 L766.058569,309.883001 C760.263175,304.481961 749.905935,304.055246 743.293952,309.061923 L449.122481,531.812253 C443.639672,535.963905 433.533275,536.440335 427.660886,532.782117 L316.334321,463.430984 C309.363621,459.088571 299.501386,460.64664 294.229193,466.850112 L281.366955,481.984331 C275.86598,488.456995 276.875094,497.50057 283.115873,503.316689 Z" id="Combined-Shape"></path>
            </g>
        </g>
    </g>
</svg>