<svg width="1000" height="1000" xmlns="http://www.w3.org/2000/svg"><path d="M500 944.444C254.54 944.444 55.556 745.46 55.556 500S254.54 55.556 500 55.556 944.444 254.54 944.444 500 745.46 944.444 500 944.444zM283.116 503.317l137.63 128.264c10.112 9.424 26.24 9.825 36.063.67l315.733-294.248c6.61-6.161 7.069-15.49.763-21.367l-7.246-6.753c-5.796-5.401-16.153-5.828-22.765-.821l-294.172 222.75c-5.482 4.152-15.589 4.628-21.461.97l-111.327-69.351c-6.97-4.342-16.833-2.784-22.105 3.42l-12.862 15.133c-5.501 6.473-4.492 15.517 1.749 21.333z" fill="#323233" fill-rule="evenodd"/></svg>