<svg width="1000" height="1000" xmlns="http://www.w3.org/2000/svg"><path d="M499.665 539.504l156.78 156.781a.5.5 0 0 0 .708 0l38.577-38.577a.5.5 0 0 0 0-.707l-156.782-156.78L695.73 343.438a.5.5 0 0 0 0-.707l-38.577-38.577a.5.5 0 0 0-.707 0L499.665 460.936l-156.782-156.78a.5.5 0 0 0-.707 0L303.6 342.731a.5.5 0 0 0 0 .707L460.38 500.22 303.6 657.001a.5.5 0 0 0 0 .707l38.576 38.577a.5.5 0 0 0 .707 0l156.782-156.781zm.335 404.94C254.54 944.444 55.556 745.46 55.556 500S254.54 55.556 500 55.556 944.444 254.54 944.444 500 745.46 944.444 500 944.444z" fill="#323233" fill-rule="evenodd"/></svg>