<svg width="1000" height="1000" xmlns="http://www.w3.org/2000/svg"><path d="M500 944.444C254.54 944.444 55.556 745.46 55.556 500S254.54 55.556 500 55.556 944.444 254.54 944.444 500 745.46 944.444 500 944.444zm-.335-483.508L362.172 323.443c-10.848-10.848-28.436-10.848-39.284 0-10.848 10.848-10.848 28.436 0 39.284L460.38 500.22 322.888 637.713c-10.848 10.848-10.848 28.436 0 39.284 10.848 10.848 28.436 10.848 39.284 0l137.493-137.493 137.492 137.493c10.848 10.848 28.436 10.848 39.284 0 10.848-10.848 10.848-28.436 0-39.284L538.948 500.22l137.493-137.493c10.848-10.848 10.848-28.436 0-39.284-10.848-10.848-28.436-10.848-39.284 0L499.665 460.936z" fill="#323233" fill-rule="evenodd"/></svg>