<?xml version="1.0" encoding="UTF-8"?>
<svg width="1000px" height="1000px" viewBox="0 0 1000 1000" version="1.1" xmlns="http://www.w3.org/2000/svg" xmlns:xlink="http://www.w3.org/1999/xlink">
    <!-- Generator: sketchtool 52.4 (67378) - http://www.bohemiancoding.com/sketch -->
    <title>clock-o</title>
    <desc>Created with sketchtool.</desc>
    <g id="新版图标" stroke="none" stroke-width="1" fill="none" fill-rule="evenodd">
        <g id="clock-o" fill="#323233" fill-rule="nonzero">
            <g id="圆角-进行中-线">
                <path d="M500,888.888889 C714.777403,888.888889 888.888889,714.777403 888.888889,500 C888.888889,285.222597 714.777403,111.111111 500,111.111111 C285.222597,111.111111 111.111111,285.222597 111.111111,500 C111.111111,714.777403 285.222597,888.888889 500,888.888889 Z M500,944.444444 C254.540111,944.444444 55.5555556,745.459889 55.5555556,500 C55.5555556,254.540111 254.540111,55.5555556 500,55.5555556 C745.459889,55.5555556 944.444444,254.540111 944.444444,500 C944.444444,745.459889 745.459889,944.444444 500,944.444444 Z M500,527.777778 L500,305.555556 C500,290.214313 487.563465,277.777778 472.222222,277.777778 C456.880979,277.777778 444.444444,290.214313 444.444444,305.555556 L444.444444,555.555556 C444.444444,570.896799 456.880979,583.333333 472.222222,583.333333 L722.222222,583.333333 C737.563465,583.333333 750,570.896799 750,555.555556 C750,540.214313 737.563465,527.777778 722.222222,527.777778 L500,527.777778 Z" id="Combined-Shape"></path>
            </g>
        </g>
    </g>
</svg>