<svg width="1000" height="1000" xmlns="http://www.w3.org/2000/svg"><g fill="#323233" fill-rule="evenodd"><path d="M499.665 460.936l157.134-157.134 39.284 39.283L538.948 500.22l157.135 157.135-39.284 39.284-157.134-157.135L342.53 696.639l-39.284-39.284L460.381 500.22 303.246 343.085l39.284-39.283z"/><path d="M500 888.889c214.777 0 388.889-174.112 388.889-388.889 0-214.777-174.112-388.889-388.889-388.889-214.777 0-388.889 174.112-388.889 388.889 0 214.777 174.112 388.889 388.889 388.889zm0 55.555C254.54 944.444 55.556 745.46 55.556 500S254.54 55.556 500 55.556 944.444 254.54 944.444 500 745.46 944.444 500 944.444z" fill-rule="nonzero"/></g></svg>