<svg width="1000" height="1000" xmlns="http://www.w3.org/2000/svg"><path d="M871.714 395.885c17.925 35.235 35.843 70.45 53.77 105.665 17.874 35.118-34.04 66.188-51.945 31.008-17.331-34.103-34.687-68.162-52.029-102.233-35.622 22.484-72.73 41.84-110.975 57.36l43.495 113.343c14.18 36.944-44.013 52.78-57.995 16.334l-42.15-109.817c-41.198 12.182-83.464 19.759-126.397 21.911.045.743.068 1.501.068 2.274v129.024c0 39.624-60.145 39.624-60.145 0V531.73c0-.974.036-1.924.107-2.85-40.305-2.82-81.025-10.632-121.84-24.088a709.2 709.2 0 0 1-2.83-.94l-45.92 119.668c-13.987 36.452-72.166 20.6-57.995-16.336l46.095-120.118a35.844 35.844 0 0 1 2.079-4.486c-35.25-15.167-69.874-33.444-102.41-54.718-23.578 31.224-47.152 62.45-70.733 93.658-9.99 13.25-25.63 20.312-41.14 11.03-12.787-7.656-20.832-28.742-10.79-42.03l74.059-98.056c-18.085-14.681-35.135-30.431-50.832-47.226-26.769-28.64 15.7-72.148 42.531-43.446 58.156 62.228 138.743 110.914 217.855 138.336 199.438 69.118 391.397-.516 545.582-138.336 29.055-25.968 71.77 17.314 42.523 43.446-19.976 17.858-40.684 34.799-62.038 50.647z" fill="#323233" fill-rule="evenodd"/></svg>