<?xml version="1.0" encoding="UTF-8"?>
<svg width="1000px" height="1000px" viewBox="0 0 1000 1000" version="1.1" xmlns="http://www.w3.org/2000/svg" xmlns:xlink="http://www.w3.org/1999/xlink">
    <!-- Generator: sketchtool 52.4 (67378) - http://www.bohemiancoding.com/sketch -->
    <title>closed-eye</title>
    <desc>Created with sketchtool.</desc>
    <g id="新版图标" stroke="none" stroke-width="1" fill="none" fill-rule="evenodd">
        <g id="closed-eye" fill="#323233">
            <g id="暗文">
                <path d="M871.713677,395.885478 C889.639456,431.119627 907.556771,466.334909 925.484092,501.55019 C943.357807,536.66819 891.443955,567.73819 873.538913,532.55819 C856.208026,498.454753 838.852165,464.395958 821.510351,430.324864 C785.88773,452.809171 748.780478,472.165757 710.534961,487.684368 L754.030348,601.02819 C768.209496,637.97219 710.016642,653.80819 696.035242,617.36219 L653.885392,507.545162 C612.686594,519.726601 570.420752,527.303557 527.487755,529.456023 C527.532657,530.198993 527.555556,530.957049 527.555556,531.73019 L527.555556,660.75419 C527.555556,700.37819 467.410671,700.37819 467.410671,660.75419 L467.410671,531.73019 C467.410671,530.756055 467.447022,529.805868 467.517937,528.87963 C427.212926,526.059108 386.4933,518.247914 345.677925,504.79219 C344.734503,504.481051 343.790956,504.167671 342.847314,503.852053 L296.928047,623.52019 C282.940773,659.97219 224.761625,644.12019 238.932942,607.18419 L285.0279,487.06619 C285.639651,485.47179 286.335904,483.977422 287.106913,482.580478 C251.856184,467.413201 217.233456,449.13628 184.697889,427.862328 C161.119394,459.085723 137.544878,490.312202 113.963779,521.52019 C103.974547,534.77019 88.3348018,541.83219 72.824278,532.55019 C60.0372002,524.89419 51.9921684,503.80819 62.0342633,490.52019 L136.092615,392.464259 C118.008421,377.782862 100.957826,362.032606 85.2608908,345.23819 C58.4924131,316.59819 100.961331,273.09019 127.792462,301.79219 C185.948116,364.02019 266.535487,412.70619 345.646598,440.12819 C545.084679,509.24619 737.043563,439.61219 891.228585,301.79219 C920.283896,275.82419 962.999511,319.10619 933.752325,345.23819 C913.776081,363.096306 893.068224,380.036784 871.713681,395.885475 Z" id="Combined-Shape"></path>
            </g>
        </g>
    </g>
</svg>