<?xml version="1.0" encoding="UTF-8"?>
<svg width="1000px" height="1000px" viewBox="0 0 1000 1000" version="1.1" xmlns="http://www.w3.org/2000/svg" xmlns:xlink="http://www.w3.org/1999/xlink">
    <!-- Generator: sketchtool 52.4 (67378) - http://www.bohemiancoding.com/sketch -->
    <title>cluster</title>
    <desc>Created with sketchtool.</desc>
    <g id="新版图标" stroke="none" stroke-width="1" fill="none" fill-rule="evenodd">
        <g id="cluster" fill="#323233">
            <g id="直角-分销市场-线">
                <g transform="translate(55.555556, 111.111111)" id="Combined-Shape">
                    <path d="M472.222222,222.222222 L472.222222,306.608045 C620.652762,317.899355 744.000838,418.924367 788.138923,555.555555 L887.888889,555.555556 C888.441174,555.555556 888.888889,556.003271 888.888889,556.555556 L888.888889,776.777778 C888.888889,777.330063 888.441174,777.777778 887.888889,777.777778 L667.666667,777.777778 C667.114382,777.777778 666.666667,777.330063 666.666667,776.777778 L666.666667,556.555556 C666.666667,556.003271 667.114382,555.555556 667.666667,555.555556 L729.169998,555.555556 C687.934212,449.966139 589.657864,372.939443 472.222222,362.35675 L472.222222,555.555556 L554.555556,555.555556 C555.10784,555.555556 555.555556,556.003271 555.555556,556.555556 L555.555556,776.777778 C555.555556,777.330063 555.10784,777.777778 554.555556,777.777778 L334.333333,777.777778 C333.781049,777.777778 333.333333,777.330063 333.333333,776.777778 L333.333333,556.555556 C333.333333,556.003271 333.781049,555.555556 334.333333,555.555556 L416.666667,555.555556 L416.666667,362.35675 C299.231024,372.939443 200.954677,449.966139 159.718907,555.555553 L221.222222,555.555556 C221.774507,555.555556 222.222222,556.003271 222.222222,556.555556 L222.222222,776.777778 C222.222222,777.330063 221.774507,777.777778 221.222222,777.777778 L1,777.777778 C0.44771525,777.777778 6.76353751e-17,777.330063 0,776.777778 L0,556.555556 C-6.76353751e-17,556.003271 0.44771525,555.555556 1,555.555556 L100.74996,555.555556 C144.888051,418.924367 268.236127,317.899355 416.666667,306.608045 L416.666667,222.222222 L334.333333,222.222222 C333.781049,222.222222 333.333333,221.774507 333.333333,221.222222 L333.333333,1 C333.333333,0.44771525 333.781049,1.01453063e-16 334.333333,0 L554.555556,0 C555.10784,-1.01453063e-16 555.555556,0.44771525 555.555556,1 L555.555556,221.222222 C555.555556,221.774507 555.10784,222.222222 554.555556,222.222222 L472.222222,222.222222 Z"></path>
                </g>
            </g>
        </g>
    </g>
</svg>