<svg width="1000" height="1000" xmlns="http://www.w3.org/2000/svg"><path d="M527.778 333.333v84.386c148.43 11.291 271.778 112.316 315.916 248.948h99.75a1 1 0 0 1 1 1v220.222a1 1 0 0 1-1 1H723.222a1 1 0 0 1-1-1V667.667a1 1 0 0 1 1-1h61.504c-41.236-105.59-139.513-182.616-256.948-193.2v193.2h82.333a1 1 0 0 1 1 1v220.222a1 1 0 0 1-1 1H389.89a1 1 0 0 1-1-1V667.667a1 1 0 0 1 1-1h82.333v-193.2c-117.435 10.584-215.712 87.61-256.948 193.2h61.504a1 1 0 0 1 1 1v220.222a1 1 0 0 1-1 1H56.556a1 1 0 0 1-1-1V667.667a1 1 0 0 1 1-1h99.75c44.138-136.632 167.486-237.657 315.916-248.948v-84.386H389.89a1 1 0 0 1-1-1V112.111a1 1 0 0 1 1-1H610.11a1 1 0 0 1 1 1v220.222a1 1 0 0 1-1 1h-82.333z" fill="#323233" fill-rule="evenodd"/></svg>