<?xml version="1.0" encoding="UTF-8"?>
<svg width="890px" height="778px" viewBox="0 0 890 778" version="1.1" xmlns="http://www.w3.org/2000/svg" xmlns:xlink="http://www.w3.org/1999/xlink">
    <!-- Generator: sketchtool 52.4 (67378) - http://www.bohemiancoding.com/sketch -->
    <title>Combined Shape</title>
    <desc>Created with sketchtool.</desc>
    <g id="新版图标" stroke="none" stroke-width="1" fill="none" fill-rule="evenodd">
        <g id="chat" transform="translate(-55.000000, -111.000000)" fill="#323233" fill-rule="nonzero">
            <g id="直角-消息-面">
                <path d="M500,888.888889 C409.440254,888.888889 325.206546,865.189522 254.957665,824.492227 L112.473828,870.507204 C106.230918,872.523344 99.4758977,872.264846 93.4053251,869.777499 C79.2095078,863.960927 72.4167873,847.73768 78.2333592,833.541863 L127.788243,712.599134 C82.1116341,651.49735 55.5555556,578.462271 55.5555556,500 C55.5555556,285.222597 254.540111,111.111111 500,111.111111 C745.459889,111.111111 944.444444,285.222597 944.444444,500 C944.444444,714.777403 745.459889,888.888889 500,888.888889 Z M500,555.555556 C530.682486,555.555556 555.555556,530.682486 555.555556,500 C555.555556,469.317514 530.682486,444.444444 500,444.444444 C469.317514,444.444444 444.444444,469.317514 444.444444,500 C444.444444,530.682486 469.317514,555.555556 500,555.555556 Z M277.777778,555.555556 C308.460264,555.555556 333.333333,530.682486 333.333333,500 C333.333333,469.317514 308.460264,444.444444 277.777778,444.444444 C247.095292,444.444444 222.222222,469.317514 222.222222,500 C222.222222,530.682486 247.095292,555.555556 277.777778,555.555556 Z M722.222222,555.555556 C752.904708,555.555556 777.777778,530.682486 777.777778,500 C777.777778,469.317514 752.904708,444.444444 722.222222,444.444444 C691.539736,444.444444 666.666667,469.317514 666.666667,500 C666.666667,530.682486 691.539736,555.555556 722.222222,555.555556 Z" id="Combined-Shape"></path>
            </g>
        </g>
    </g>
</svg>