<svg width="1000" height="1000" xmlns="http://www.w3.org/2000/svg"><path d="M500 788.735l81.379-122.068h307.51v-500H111.11v500h307.51L500 788.735zm46.225 30.816a55.556 55.556 0 0 1-15.408 15.409c-25.53 17.02-60.022 10.12-77.042-15.409l-64.886-97.329H111.11c-30.682 0-55.555-24.873-55.555-55.555v-500c0-30.683 24.873-55.556 55.555-55.556H888.89c30.682 0 55.555 24.873 55.555 55.556v500c0 30.682-24.873 55.555-55.555 55.555H611.11l-64.886 97.33zM278.278 277.778h443.444a.5.5 0 0 1 .5.5v54.555a.5.5 0 0 1-.5.5H278.278a.5.5 0 0 1-.5-.5v-54.555a.5.5 0 0 1 .5-.5zm0 166.666h443.444a.5.5 0 0 1 .5.5V499.5a.5.5 0 0 1-.5.5H278.278a.5.5 0 0 1-.5-.5v-54.556a.5.5 0 0 1 .5-.5z" fill="#323233" fill-rule="nonzero"/></svg>