<svg width="1000" height="1000" xmlns="http://www.w3.org/2000/svg"><path d="M500 944.444C254.54 944.444 55.556 745.46 55.556 500S254.54 55.556 500 55.556 944.444 254.54 944.444 500 745.46 944.444 500 944.444zm194.444-328.683h-300.06l-26.328 50.726-26.33-50.726h-36.17V333.333h388.888v282.428zM395.792 733.642l32.35-62.325H718.75c17.259 0 31.25-13.991 31.25-31.25v-331.04c0-17.258-13.991-31.25-31.25-31.25h-437.5c-17.259 0-31.25 13.992-31.25 31.25v331.04c0 17.259 13.991 31.25 31.25 31.25h26.72l32.35 62.325c7.95 15.318 26.814 21.29 42.132 13.34a31.25 31.25 0 0 0 13.34-13.34z" fill="#323233" fill-rule="evenodd"/></svg>