<svg width="1000" height="1000" xmlns="http://www.w3.org/2000/svg"><path d="M500 888.889c214.777 0 388.889-174.112 388.889-388.889 0-214.777-174.112-388.889-388.889-388.889-214.777 0-388.889 174.112-388.889 388.889 0 214.777 174.112 388.889 388.889 388.889zm0 55.555C254.54 944.444 55.556 745.46 55.556 500S254.54 55.556 500 55.556 944.444 254.54 944.444 500 745.46 944.444 500 944.444zm194.444-328.683V333.333H305.556v282.428h36.17l26.33 50.726 26.329-50.726h300.06zM395.792 733.642a31.25 31.25 0 0 1-13.34 13.34c-15.318 7.95-34.182 1.978-42.133-13.34l-32.35-62.325H281.25c-17.259 0-31.25-13.991-31.25-31.25v-331.04c0-17.258 13.991-31.25 31.25-31.25h437.5c17.259 0 31.25 13.992 31.25 31.25v331.04c0 17.259-13.991 31.25-31.25 31.25H428.142l-32.35 62.325z" fill="#323233" fill-rule="nonzero"/></svg>