<svg width="1000" height="1000" xmlns="http://www.w3.org/2000/svg"><path d="M611.111 722.222L500.832 887.641a1 1 0 0 1-1.664 0l-110.28-165.419H56.557a1 1 0 0 1-1-1v-609.11a1 1 0 0 1 1-1h886.888a1 1 0 0 1 1 1v609.11a1 1 0 0 1-1 1H611.111zM278.278 277.778a.5.5 0 0 0-.5.5v54.555a.5.5 0 0 0 .5.5h443.444a.5.5 0 0 0 .5-.5v-54.555a.5.5 0 0 0-.5-.5H278.278zm0 166.666a.5.5 0 0 0-.5.5V499.5a.5.5 0 0 0 .5.5h443.444a.5.5 0 0 0 .5-.5v-54.556a.5.5 0 0 0-.5-.5H278.278z" fill="#323233" fill-rule="evenodd"/></svg>