<?xml version="1.0" encoding="UTF-8"?>
<svg width="1000px" height="1000px" viewBox="0 0 1000 1000" version="1.1" xmlns="http://www.w3.org/2000/svg" xmlns:xlink="http://www.w3.org/1999/xlink">
    <!-- Generator: sketchtool 52.4 (67378) - http://www.bohemiancoding.com/sketch -->
    <title>comment</title>
    <desc>Created with sketchtool.</desc>
    <g id="新版图标" stroke="none" stroke-width="1" fill="none" fill-rule="evenodd">
        <g id="comment" fill="#323233">
            <g id="圆角-待评价-面">
                <g transform="translate(55.555556, 111.111111)" id="Combined-Shape">
                    <path d="M555.555556,611.111111 L445.276495,776.529702 C445.20326,776.639555 445.108997,776.733818 444.999145,776.807052 C444.539616,777.113405 443.918747,776.989231 443.612394,776.529702 L333.333333,611.111111 L1,611.111111 C0.44771525,611.111111 6.76353751e-17,610.663396 0,610.111111 L0,1 C-6.76353751e-17,0.44771525 0.44771525,1.01453063e-16 1,0 L887.888889,0 C888.441174,6.26860537e-14 888.888889,0.44771525 888.888889,1 L888.888889,610.111111 C888.888889,610.663396 888.441174,611.111111 887.888889,611.111111 L555.555556,611.111111 Z M222.722222,166.666667 C222.44608,166.666667 222.222222,166.890524 222.222222,167.166667 L222.222222,221.722222 C222.222222,221.998365 222.44608,222.222222 222.722222,222.222222 L666.166667,222.222222 C666.442809,222.222222 666.666667,221.998365 666.666667,221.722222 L666.666667,167.166667 C666.666667,166.890524 666.442809,166.666667 666.166667,166.666667 L222.722222,166.666667 Z M222.722222,333.333333 C222.44608,333.333333 222.222222,333.557191 222.222222,333.833333 L222.222222,388.388889 C222.222222,388.665031 222.44608,388.888889 222.722222,388.888889 L666.166667,388.888889 C666.442809,388.888889 666.666667,388.665031 666.666667,388.388889 L666.666667,333.833333 C666.666667,333.557191 666.442809,333.333333 666.166667,333.333333 L222.722222,333.333333 Z"></path>
                </g>
            </g>
        </g>
    </g>
</svg>