<?xml version="1.0" encoding="UTF-8"?>
<svg width="1000px" height="1000px" viewBox="0 0 1000 1000" version="1.1" xmlns="http://www.w3.org/2000/svg" xmlns:xlink="http://www.w3.org/1999/xlink">
    <!-- Generator: sketchtool 52.4 (67378) - http://www.bohemiancoding.com/sketch -->
    <title>comment-o</title>
    <desc>Created with sketchtool.</desc>
    <g id="新版图标" stroke="none" stroke-width="1" fill="none" fill-rule="evenodd">
        <g id="comment-o" fill="#323233" fill-rule="nonzero">
            <g id="圆角-待评价-线" transform="translate(55.000000, 111.000000)">
                <g transform="translate(0.555556, 0.111111)" id="Combined-Shape">
                    <path d="M444.444444,677.623576 L525.823125,555.555556 L833.333333,555.555556 L833.333333,55.5555556 L55.5555556,55.5555556 L55.5555556,555.555556 L363.065764,555.555556 L444.444444,677.623576 Z M490.669461,708.440253 C486.600858,714.543158 481.364027,719.779989 475.261122,723.848592 C449.73175,740.868173 415.239009,733.969625 398.219428,708.440253 L333.333333,611.111111 L55.5555556,611.111111 C24.8730695,611.111111 -1.13686838e-13,586.238042 -1.13686838e-13,555.555556 L-1.13686838e-13,55.5555556 C-1.19854743e-13,24.8730695 24.8730695,-5.68434189e-14 55.5555556,-5.68434189e-14 L833.333333,-5.68434189e-14 C864.015819,-5.68434189e-14 888.888889,24.8730695 888.888889,55.5555556 L888.888889,555.555556 C888.888889,586.238042 864.015819,611.111111 833.333333,611.111111 L555.555556,611.111111 L490.669461,708.440253 Z M222.722222,166.666667 L666.166667,166.666667 C666.442809,166.666667 666.666667,166.890524 666.666667,167.166667 L666.666667,221.722222 C666.666667,221.998365 666.442809,222.222222 666.166667,222.222222 L222.722222,222.222222 C222.44608,222.222222 222.222222,221.998365 222.222222,221.722222 L222.222222,167.166667 C222.222222,166.890524 222.44608,166.666667 222.722222,166.666667 Z M222.722222,333.333333 L666.166667,333.333333 C666.442809,333.333333 666.666667,333.557191 666.666667,333.833333 L666.666667,388.388889 C666.666667,388.665031 666.442809,388.888889 666.166667,388.888889 L222.722222,388.888889 C222.44608,388.888889 222.222222,388.665031 222.222222,388.388889 L222.222222,333.833333 C222.222222,333.557191 222.44608,333.333333 222.722222,333.333333 Z"></path>
                </g>
            </g>
        </g>
    </g>
</svg>