<svg width="890" height="734" xmlns="http://www.w3.org/2000/svg"><path d="M556.111 611.778l-64.886 97.329a55.556 55.556 0 0 1-15.408 15.408c-25.53 17.02-60.022 10.121-77.042-15.408l-64.886-97.33H56.11c-30.682 0-55.555-24.872-55.555-55.555v-500C.556 25.54 25.429.667 56.11.667H833.89c30.682 0 55.555 24.873 55.555 55.555v500c0 30.683-24.873 55.556-55.555 55.556H556.11zM250.556 167.333c-15.342 0-27.778 12.437-27.778 27.778s12.436 27.778 27.778 27.778h388.888c15.342 0 27.778-12.437 27.778-27.778s-12.436-27.778-27.778-27.778H250.556zm0 166.667c-15.342 0-27.778 12.437-27.778 27.778s12.436 27.778 27.778 27.778h388.888c15.342 0 27.778-12.437 27.778-27.778S654.786 334 639.444 334H250.556z" fill="#323233" fill-rule="evenodd"/></svg>