<?xml version="1.0" encoding="UTF-8"?>
<svg width="1000px" height="1000px" viewBox="0 0 1000 1000" version="1.1" xmlns="http://www.w3.org/2000/svg" xmlns:xlink="http://www.w3.org/1999/xlink">
    <!-- Generator: sketchtool 52.4 (67378) - http://www.bohemiancoding.com/sketch -->
    <title>comment-circle-o</title>
    <desc>Created with sketchtool.</desc>
    <g id="新版图标" stroke="none" stroke-width="1" fill="none" fill-rule="evenodd">
        <g id="comment-circle-o" fill="#323233" fill-rule="nonzero">
            <g id="直角-在线咨询">
                <path d="M500,888.888889 C714.777403,888.888889 888.888889,714.777403 888.888889,500 C888.888889,285.222597 714.777403,111.111111 500,111.111111 C285.222597,111.111111 111.111111,285.222597 111.111111,500 C111.111111,714.777403 285.222597,888.888889 500,888.888889 Z M500,944.444444 C254.540111,944.444444 55.5555556,745.459889 55.5555556,500 C55.5555556,254.540111 254.540111,55.5555556 500,55.5555556 C745.459889,55.5555556 944.444444,254.540111 944.444444,500 C944.444444,745.459889 745.459889,944.444444 500,944.444444 Z M694.444444,615.761448 L694.444444,333.333333 L305.555556,333.333333 L305.555556,615.761448 L341.726605,615.761448 L368.055556,666.486503 L394.384506,615.761448 L694.444444,615.761448 Z M395.791833,733.642056 C392.825655,739.356661 388.166737,744.015579 382.452131,746.981758 C367.133808,754.932767 348.270287,748.960379 340.319278,733.642056 L307.969323,671.317003 L281.25,671.317003 C263.991102,671.317003 250,657.325902 250,640.067003 L250,309.027778 C250,291.768879 263.991102,277.777778 281.25,277.777778 L718.75,277.777778 C736.008898,277.777778 750,291.768879 750,309.027778 L750,640.067003 C750,657.325902 736.008898,671.317003 718.75,671.317003 L428.141788,671.317003 L395.791833,733.642056 Z" id="Combined-Shape"></path>
            </g>
        </g>
    </g>
</svg>