<svg width="1000" height="1000" xmlns="http://www.w3.org/2000/svg"><path d="M611.111 777.778l-64.886 97.329a55.556 55.556 0 0 1-15.408 15.408c-25.53 17.02-60.022 10.121-77.042-15.408l-64.886-97.33H111.11c-30.682 0-55.555-24.872-55.555-55.555v-500c0-30.682 24.873-55.555 55.555-55.555H888.89c30.682 0 55.555 24.873 55.555 55.555v500c0 30.683-24.873 55.556-55.555 55.556H611.11zM305.556 333.333c-15.342 0-27.778 12.437-27.778 27.778s12.436 27.778 27.778 27.778h388.888c15.342 0 27.778-12.437 27.778-27.778s-12.436-27.778-27.778-27.778H305.556zm0 166.667c-15.342 0-27.778 12.437-27.778 27.778s12.436 27.778 27.778 27.778h388.888c15.342 0 27.778-12.437 27.778-27.778S709.786 500 694.444 500H305.556z" fill="#323233" fill-rule="evenodd"/></svg>