<svg width="1000" height="1000" xmlns="http://www.w3.org/2000/svg"><path d="M222.222 111.111V888.89h555.556V111.11c30.682 0 55.555 24.873 55.555 55.556v722.222c0 30.682-24.873 55.555-55.555 55.555H222.222c-30.682 0-55.555-24.873-55.555-55.555V166.667c0-30.683 24.873-55.556 55.555-55.556zm111.37 435.385a3.001 3.001 0 0 1-.224-1.652 12.777 12.777 0 0 1 2.757-8.931l10.004-12.612c4.1-5.17 11.771-6.468 17.193-2.85l86.587 57.793c4.567 3.049 12.428 2.652 16.692-.808l228.8-185.625c4.38-3.553 10.872-3.823 15.487-1.044l1.608-1.335c.91-.756 2.779-.672 3.376-.062l5.967 6.096c.61.623.557 1.797-.629 3.008l-1.161 1.187c3.48 4.877 2.732 11.643-1.9 16.267L472.58 661.135c-4.32 4.314-10.21 6.082-15.934 5.383-3.013.554-6.37-.443-8.894-3.021l-.883-.902a21.197 21.197 0 0 1-2.339-2.018L337.485 553.69c-2.044-2.041-3.367-4.56-3.893-7.194zM222.222 111.11H388.89v55.556H222.222V111.11zm388.89 0h166.666v55.556H611.11V111.11zm-194.445 0c-15.342 0-27.778 12.437-27.778 27.778s12.436 27.778 27.778 27.778h166.666c15.342 0 27.778-12.437 27.778-27.778s-12.436-27.778-27.778-27.778H416.667zm0-55.555h166.666c46.024 0 83.334 37.31 83.334 83.333 0 46.024-37.31 83.333-83.334 83.333H416.667c-46.024 0-83.334-37.31-83.334-83.333 0-46.024 37.31-83.333 83.334-83.333z" fill="#323233" fill-rule="nonzero"/></svg>