<svg width="1000" height="1000" xmlns="http://www.w3.org/2000/svg"><path d="M620.003 670.518c0 10.057-9.27 18.2-20.006 18.2-11.044 0-19.99-7.88-19.99-18.2V329.452c0-10.057 9.269-18.2 19.99-18.2 11.059 0 20.006 7.88 20.006 18.2v341.066zm-199.995 0c0 10.057-9.284 18.2-20.005 18.2-11.044 0-20.006-7.88-20.006-18.2V329.452c0-10.057 9.284-18.2 20.006-18.2 11.044 0 20.005 7.88 20.005 18.2v341.066zm359.993-170.526c0-91.315 68.714-167.472 159.999-184.964v-79.461C940 214.849 922.063 198 899.813 198H100.201C77.952 198 60 214.85 60 235.567v79.461c91.285 17.492 160.013 93.649 160.013 184.964 0 91.301-68.728 167.458-160.013 184.95v79.461c0 20.718 17.952 37.567 40.201 37.567h799.612c22.25 0 40.187-16.85 40.187-37.567v-79.461c-91.285-17.492-159.999-93.649-159.999-184.95z" fill="#323233" fill-rule="evenodd"/></svg>