<?xml version="1.0" encoding="UTF-8"?>
<svg width="1000px" height="1000px" viewBox="0 0 1000 1000" version="1.1" xmlns="http://www.w3.org/2000/svg" xmlns:xlink="http://www.w3.org/1999/xlink">
    <!-- Generator: sketchtool 52.4 (67378) - http://www.bohemiancoding.com/sketch -->
    <title>credit-pay</title>
    <desc>Created with sketchtool.</desc>
    <g id="新版图标" stroke="none" stroke-width="1" fill="none" fill-rule="evenodd">
        <g id="credit-pay" fill="#323233">
            <g id="圆角-信用卡支付-线">
                <path d="M888.888889,166.666667 C919.555556,166.666667 944.444444,191.555556 944.444444,222.222222 L944.444444,277.777778 L944.444444,333.333333 L944.444444,777.777778 C944.444444,808.5 919.555556,833.333333 888.888889,833.333333 L111.111111,833.333333 C80.4444444,833.333333 55.5555556,808.5 55.5555556,777.777778 L55.5555556,333.333333 L55.5555556,277.777778 L55.5555556,222.222222 C55.5555556,191.555556 80.4444444,166.666667 111.111111,166.666667 L888.888889,166.666667 Z M111.111111,277.777778 L888.888889,277.777778 L888.888889,222.222222 L111.111111,222.222222 L111.111111,277.777778 Z M111.111111,777.777778 L888.888889,777.777778 L888.888889,333.333333 L111.111111,333.333333 L111.111111,777.777778 Z M583.044444,667.088889 L749.711111,667.088889 C765.044444,667.088889 777.488889,654.644444 777.488889,639.311111 C777.488889,623.977778 765.044444,611.533333 749.711111,611.533333 L583.044444,611.533333 C567.711111,611.533333 555.266667,623.977778 555.266667,639.311111 C555.266667,654.644444 567.711111,667.088889 583.044444,667.088889" id="Fill-1"></path>
            </g>
        </g>
    </g>
</svg>