<?xml version="1.0" encoding="UTF-8"?>
<svg width="1000px" height="1000px" viewBox="0 0 1000 1000" version="1.1" xmlns="http://www.w3.org/2000/svg" xmlns:xlink="http://www.w3.org/1999/xlink">
    <!-- Generator: sketchtool 52.4 (67378) - http://www.bohemiancoding.com/sketch -->
    <title>cross</title>
    <desc>Created with sketchtool.</desc>
    <g id="新版图标" stroke="none" stroke-width="1" fill="none" fill-rule="evenodd">
        <g id="cross" fill="#323233" fill-rule="nonzero">
            <g id="圆角-关闭" transform="translate(157.000000, 157.000000)">
                <path d="M403.148859,344.223294 L687.425427,628.499862 C687.71832,628.792755 687.71832,629.267629 687.425427,629.560522 L629.560522,687.425427 C629.267629,687.71832 628.792755,687.71832 628.499862,687.425427 L344.223294,403.148859 L59.9467261,687.425427 C59.6538329,687.71832 59.1789592,687.71832 58.886066,687.425427 L1.02116103,629.560522 C0.728267815,629.267629 0.728267815,628.792755 1.02116103,628.499862 L285.297729,344.223294 L1.02116103,59.9467261 C0.728267815,59.6538329 0.728267815,59.1789592 1.02116103,58.886066 L58.886066,1.02116103 C59.1789592,0.728267815 59.6538329,0.728267815 59.9467261,1.02116103 L344.223294,285.297729 L628.499862,1.02116103 C628.792755,0.728267815 629.267629,0.728267815 629.560522,1.02116103 L687.425427,58.886066 C687.71832,59.1789592 687.71832,59.6538329 687.425427,59.9467261 L403.148859,344.223294 Z" id="Combined-Shape"></path>
            </g>
        </g>
    </g>
</svg>