<svg width="1000" height="1000" xmlns="http://www.w3.org/2000/svg"><path d="M888.889 166.667c30.667 0 55.555 24.833 55.555 55.555v555.556c0 30.722-24.888 55.555-55.555 55.555H111.11c-30.667 0-55.555-24.833-55.555-55.555V222.222c0-30.722 24.888-55.555 55.555-55.555H888.89zM111.11 277.777H888.89v-55.555H111.11v55.556zm0 500H888.89V333.334H111.11v444.445zm357.461-79.971c10.834 10.833 28.445 10.833 39.278 0l39.278-39.278c10.833-10.834 10.833-28.445 0-39.278-10.834-10.833-28.445-10.833-39.278 0l-39.278 39.278c-10.833 10.833-10.833 28.444 0 39.278m150.39 0l39.277-39.278c10.833-10.834 10.833-28.445 0-39.278-10.833-10.833-28.445-10.833-39.278 0l-39.278 39.278c-10.833 10.833-10.833 28.444 0 39.278 10.834 10.833 28.445 10.833 39.278 0m111.111 0l39.278-39.278c10.833-10.834 10.833-28.445 0-39.278-10.833-10.833-28.444-10.833-39.278 0l-39.278 39.278c-10.833 10.833-10.833 28.444 0 39.278 10.834 10.833 28.445 10.833 39.278 0" fill="#323233" fill-rule="evenodd"/></svg>