<svg width="1000" height="1000" xmlns="http://www.w3.org/2000/svg"><path d="M777.778 555.556H222.223V111.11h555.555v444.445zm-388.89 111.11h222.223v-55.555H388.89v55.556zm333.334 55.556V888.89H277.778V722.222h444.444zm55.556-666.666H222.222c-30.722 0-55.555 24.888-55.555 55.555v444.445c0 30.722 24.833 55.555 55.555 55.555h111.111v55.556h-55.555c-30.722 0-55.556 24.889-55.556 55.555V888.89c0 30.722 24.834 55.555 55.556 55.555h444.444c30.722 0 55.556-24.833 55.556-55.555V722.222c0-30.666-24.834-55.555-55.556-55.555h-55.555V611.11h111.11c30.723 0 55.556-24.833 55.556-55.555V111.11c0-30.667-24.833-55.555-55.555-55.555zM555.556 833.36h111.11v-55.555h-111.11v55.555z" fill="#323233" fill-rule="evenodd"/></svg>