<svg width="1000" height="1000" xmlns="http://www.w3.org/2000/svg"><path d="M593.197 621.638c-20.285.354-37.026-15.857-37.38-36.142-.325-20.315 15.855-37.057 36.17-37.381h1.24c20.284.354 36.465 17.096 36.14 37.381-.354 19.843-16.328 35.817-36.17 36.142m0-119.054c-45.441 0-82.29 36.85-82.29 82.292 0 45.472 36.849 82.293 82.32 82.293 45.441 0 82.29-36.85 82.29-82.293-.03-45.442-36.849-82.292-82.32-82.292M409.896 364.69c20.285-.325 37.026 15.856 37.38 36.171.296 20.285-15.885 37.027-36.17 37.382h-1.24c-20.284-.355-36.465-17.097-36.14-37.411.354-19.813 16.328-35.787 36.17-36.142m-.03 119.143c45.471.03 82.32-36.791 82.35-82.263 0-45.443-36.82-82.293-82.261-82.322h-.089c-45.441.03-82.26 36.88-82.26 82.322.029 45.442 36.848 82.263 82.26 82.263M666.04 328.727c-12.637-12.608-33.07-12.608-45.707 0L337.054 612.012c-12.372 12.874-11.959 33.336.885 45.708 12.52 12.018 32.303 12.018 44.792 0L666.04 374.406c12.608-12.579 12.638-33.012.03-45.62-.03-.03-.03-.03-.03-.059M499.982 0c-5.7 0-11.398 2.687-15.738 8.031l-71.455 88.316c-6.318 7.825-17.42 12.431-27.961 12.431-3.868 0-7.677-.62-11.161-1.948l-106.03-40.748a22.618 22.618 0 0 0-8.15-1.594c-9.507 0-17.45 6.673-19.103 17.332l-17.746 112.233c-2.155 13.583-15.029 26.457-28.64 28.612L81.825 240.381c-13.612 2.156-20.699 14.44-15.768 27.284l40.747 106.062c4.931 12.814.207 30.413-10.482 39.064L8.04 484.277c-10.719 8.651-10.719 22.824 0 31.476l88.284 71.456c10.689 8.651 15.413 26.28 10.482 39.123L66.058 732.365c-4.96 12.844 2.156 25.128 15.768 27.254l112.171 17.745c13.582 2.156 26.486 15.03 28.641 28.642l17.746 112.203c1.683 10.66 9.596 17.303 19.103 17.303 2.628 0 5.374-.502 8.15-1.564l106.03-40.748c3.602-1.329 7.352-2.008 11.16-1.978 10.542 0 21.644 4.635 27.962 12.46l71.484 88.287c4.311 5.374 10.01 8.031 15.738 8.031 5.699 0 11.397-2.657 15.738-8.031l71.454-88.287c6.348-7.825 17.42-12.46 27.932-12.46 3.898 0 7.707.65 11.161 1.978l106.06 40.748c2.776 1.062 5.492 1.564 8.12 1.564 9.537 0 17.45-6.643 19.133-17.303l17.746-112.203c2.155-13.583 15.029-26.457 28.61-28.612l112.232-17.746c13.582-2.155 20.668-14.41 15.737-27.283l-40.747-106.033c-4.96-12.844-.236-30.442 10.482-39.094l88.315-71.485c10.688-8.652 10.688-22.795 0-31.476L903.64 412.79c-10.718-8.651-15.413-26.25-10.482-39.064l40.747-106.062c4.96-12.845-2.126-25.128-15.738-27.254l-112.201-17.746c-13.612-2.155-26.456-15.03-28.641-28.612L759.609 81.82c-1.683-10.66-9.596-17.303-19.133-17.303-2.628 0-5.344.502-8.15 1.565l-106.03 40.748c-3.572 1.328-7.352 2.008-11.16 1.948-10.512 0-21.614-4.606-27.933-12.43L515.72 8.06C511.38 2.687 505.68 0 499.982 0m0 84.33l27.46 33.956c22.941 28.317 59.112 45.206 96.817 45.206 14.911 0 29.29-2.598 42.784-7.824l40.776-15.65 6.821 43.14c8.09 51.14 51.081 94.103 102.162 102.194l43.168 6.82-15.679 40.777c-18.542 48.307-2.834 107.007 37.41 139.576l33.956 27.49-33.955 27.49c-40.245 32.568-55.953 91.268-37.41 139.575l15.678 40.777-43.168 6.821c-51.11 8.09-94.072 51.053-102.191 102.164l-6.792 43.17-40.776-15.68a118.45 118.45 0 0 0-42.784-7.824c-37.705 0-73.876 16.919-96.818 45.206l-27.46 33.956-27.489-33.956c-22.912-28.287-59.112-45.206-96.788-45.206-14.881 0-29.29 2.627-42.784 7.824l-40.776 15.68-6.85-43.17c-8.061-51.111-51.052-94.074-102.192-102.164l-43.138-6.82 15.678-40.778c18.572-48.307 2.805-107.007-37.41-139.575l-33.926-27.49 33.926-27.49c40.245-32.54 56.012-91.269 37.44-139.576l-15.708-40.777 43.138-6.82c51.14-8.09 94.13-51.053 102.192-102.194l6.85-43.14 40.776 15.68c13.494 5.196 27.903 7.824 42.754 7.824 37.706 0 73.906-16.92 96.789-45.236l27.519-33.956" fill="#7C6D4E" fill-rule="evenodd"/></svg>