<svg width="1000" height="1000" xmlns="http://www.w3.org/2000/svg" xmlns:xlink="http://www.w3.org/1999/xlink"><defs><path d="M743.82 256.67l-78.59-78.59-39.295 39.296 78.59 78.59 39.295-39.295zm58.942 19.648l-98.237 98.237-157.18-157.18 98.238-98.237c10.85-10.85 28.444-10.85 39.295 0l117.884 117.885c10.851 10.851 10.851 28.444 0 39.295zm-663.976 557.11h722.428c15.346 0 27.786 12.44 27.786 27.786C889 876.56 876.56 889 861.214 889H138.786C123.44 889 111 876.56 111 861.214c0-15.345 12.44-27.785 27.786-27.785zM508.05 256.672l157.18 157.18L350.87 728.21l-155.605 31.12c-15.047 3.01-29.686-6.748-32.695-21.796a27.786 27.786 0 0 1 0-10.899l31.12-155.605 314.36-314.36zM244.883 598.427l-19.647 98.238 98.237-19.648L586.64 413.85l-78.59-78.59-263.167 263.167z" id="a"/></defs><g fill="none" fill-rule="evenodd"><use fill="#000" xlink:href="#a"/></g></svg>