<svg width="1000" height="1000" xmlns="http://www.w3.org/2000/svg"><path d="M767.103 300.316l-78.567-78.567-39.284 39.284 78.567 78.567 39.284-39.284zm39.284 39.284l-39.284 39.284-39.284 39.283-157.135-157.134 39.284-39.284 39.284-39.284 38.93-38.93a.5.5 0 0 1 .707 0l156.428 156.428a.5.5 0 0 1 0 .707l-38.93 38.93zM531.4 300.316l157.135 157.135L413.55 732.437l-155.561 31.112c-15.044 3.009-29.678-6.747-32.686-21.79-.72-3.597-.72-7.3 0-10.896l31.112-155.56L531.4 300.315zM307.593 602.692L287.95 700.9l98.21-19.642 223.807-223.808-78.567-78.567-223.808 223.808zM111.61 833.333H888.39a.5.5 0 0 1 .5.5v54.556a.5.5 0 0 1-.5.5H111.61a.5.5 0 0 1-.5-.5v-54.556a.5.5 0 0 1 .5-.5z" fill="#323233" fill-rule="nonzero"/></svg>