<svg width="1000" height="1000" xmlns="http://www.w3.org/2000/svg"><path d="M767.103 300.316l-78.567-78.567-39.284 39.284 78.567 78.567 39.284-39.284zm58.926 19.642l-98.21 98.21-157.135-157.135 98.21-98.21c10.848-10.848 28.436-10.848 39.283 0L826.03 280.674c10.847 10.848 10.847 28.436 0 39.284zM531.4 300.316l157.135 157.135L413.55 732.437l-155.561 31.112c-15.044 3.009-29.678-6.747-32.686-21.79-.72-3.597-.72-7.3 0-10.896l31.112-155.56L531.4 300.315zM307.593 602.692L287.95 700.9l98.21-19.642 223.807-223.808-78.567-78.567-223.808 223.808zM138.889 833.333H861.11c15.341 0 27.778 12.437 27.778 27.778s-12.437 27.778-27.778 27.778H138.89c-15.341 0-27.778-12.437-27.778-27.778s12.437-27.778 27.778-27.778z" fill="#323233" fill-rule="nonzero"/></svg>