<svg width="1000" height="1000" xmlns="http://www.w3.org/2000/svg"><path d="M180.556 555.556c-38.354 0-69.445-31.092-69.445-69.445 0-38.353 31.091-69.444 69.445-69.444 38.353 0 69.444 31.091 69.444 69.444s-31.091 69.445-69.444 69.445zm319.444 0c-38.353 0-69.444-31.092-69.444-69.445 0-38.353 31.09-69.444 69.444-69.444 38.353 0 69.444 31.091 69.444 69.444s-31.09 69.445-69.444 69.445zm319.444 0c-38.353 0-69.444-31.092-69.444-69.445 0-38.353 31.091-69.444 69.444-69.444 38.354 0 69.445 31.091 69.445 69.444s-31.091 69.445-69.445 69.445z" fill="#323233" fill-rule="evenodd"/></svg>