<?xml version="1.0" encoding="UTF-8"?>
<svg width="1000px" height="1000px" viewBox="0 0 1000 1000" version="1.1" xmlns="http://www.w3.org/2000/svg" xmlns:xlink="http://www.w3.org/1999/xlink">
    <!-- Generator: sketchtool 52.4 (67378) - http://www.bohemiancoding.com/sketch -->
    <title>envelop-o</title>
    <desc>Created with sketchtool.</desc>
    <g id="新版图标" stroke="none" stroke-width="1" fill="none" fill-rule="evenodd">
        <g id="envelop-o" fill="#333333" fill-rule="nonzero">
            <g id="直角-消息类型－有赞私信">
                <path d="M111.111111,222.222222 L111.111111,777.777778 L888.888889,777.777778 L888.888889,222.222222 L111.111111,222.222222 Z M111.111111,166.666667 L888.888889,166.666667 C919.571375,166.666667 944.444444,191.539736 944.444444,222.222222 L944.444444,777.777778 C944.444444,808.460264 919.571375,833.333333 888.888889,833.333333 L111.111111,833.333333 C80.428625,833.333333 55.5555556,808.460264 55.5555556,777.777778 L55.5555556,222.222222 C55.5555556,191.539736 80.428625,166.666667 111.111111,166.666667 Z M66.0069337,243.933989 L100.659733,200.510456 L483.62184,506.121445 C493.776638,514.225166 508.192033,514.207709 518.327174,506.079417 L899.287732,200.552484 L934.045602,243.891961 L553.085044,549.418894 C522.679619,573.80377 479.433436,573.856141 448.96904,549.544979 L66.0069337,243.933989 Z" id="直角-消息类型－有赞私信-线"></path>
            </g>
        </g>
    </g>
</svg>