<?xml version="1.0" encoding="UTF-8"?>
<svg width="1000px" height="1000px" viewBox="0 0 1000 1000" version="1.1" xmlns="http://www.w3.org/2000/svg" xmlns:xlink="http://www.w3.org/1999/xlink">
    <!-- Generator: sketchtool 52.4 (67378) - http://www.bohemiancoding.com/sketch -->
    <title>exchange</title>
    <desc>Created with sketchtool.</desc>
    <g id="新版图标" stroke="none" stroke-width="1" fill="none" fill-rule="evenodd">
        <g id="exchange" fill="#323233">
            <g id="直角-切换店铺-线">
                <path d="M368.355802,666.666667 L888.888889,666.666667 C904.230132,666.666667 916.666667,679.103201 916.666667,694.444444 C916.666667,709.785687 904.230132,722.222222 888.888889,722.222222 L372.275911,722.222222 L457.604308,807.550618 C468.452205,818.398515 468.452205,835.986431 457.604308,846.834328 C446.756411,857.682225 429.168495,857.682225 418.320598,846.834328 L287.540885,716.054616 C274.523409,703.03714 274.523409,681.93164 287.540885,668.914164 L420.541348,535.913701 C431.389245,525.065804 448.977161,525.065804 459.825058,535.913701 C470.672955,546.761598 470.672955,564.349514 459.825058,575.197411 L368.355802,666.666667 Z" id="Combined-Shape" transform="translate(597.222222, 691.374014) scale(-1, 1) translate(-597.222222, -691.374014) "></path>
                <path d="M173.911358,222.222222 L694.444444,222.222222 C709.785687,222.222222 722.222222,234.658757 722.222222,250 C722.222222,265.341243 709.785687,277.777778 694.444444,277.777778 L177.831467,277.777778 L263.159863,363.106174 C274.00776,373.954071 274.00776,391.541987 263.159863,402.389884 C252.311966,413.237781 234.72405,413.237781 223.876153,402.389884 L93.0964406,271.610171 C80.0789642,258.592695 80.0789642,237.487196 93.0964406,224.469719 L226.096904,91.4692561 C236.944801,80.6213591 254.532717,80.6213591 265.380614,91.4692561 C276.228511,102.317153 276.228511,119.905069 265.380614,130.752966 L173.911358,222.222222 Z" id="Combined-Shape"></path>
            </g>
        </g>
    </g>
</svg>