<svg width="1000" height="1000" xmlns="http://www.w3.org/2000/svg"><path d="M292.145 364.243h355.528L531.389 221.81c-9.967-12.209-8.15-30.186 4.059-40.154 12.209-9.967 30.186-8.15 40.154 4.059l154.316 189.018c15.217 18.639 1.955 46.586-22.106 46.586H292.145c-15.761 0-28.538-12.777-28.538-28.538 0-15.761 12.777-28.538 28.538-28.538zm415.667 272.685H352.284l116.283 142.433c9.968 12.209 8.15 30.187-4.058 40.154-12.21 9.968-30.187 8.15-40.154-4.058L270.038 626.438c-15.216-18.639-1.955-46.586 22.107-46.586h415.667c15.761 0 28.538 12.777 28.538 28.538 0 15.761-12.777 28.538-28.538 28.538zm235.112-136.982c0-244.591-198.342-442.87-442.978-442.87-244.614 0-442.87 198.256-442.87 442.87 0 244.636 198.279 442.978 442.87 442.978 244.614 0 442.978-198.364 442.978-442.978zm57.076 0C1000 776.082 776.082 1000 499.946 1000 223.828 1000 0 776.1 0 499.946 0 223.81 223.81 0 499.946 0 776.1 0 1000 223.828 1000 499.946z" fill="#F6A623" fill-rule="nonzero"/></svg>