<svg width="1000" height="1000" xmlns="http://www.w3.org/2000/svg"><g fill="#323233" fill-rule="evenodd"><path d="M826.089 666.667H305.556c-15.342 0-27.778 12.436-27.778 27.777 0 15.342 12.436 27.778 27.778 27.778h516.613l-85.329 85.329c-10.848 10.848-10.848 28.435 0 39.283 10.848 10.848 28.436 10.848 39.284 0l130.78-130.78c13.017-13.017 13.017-34.122 0-47.14l-133-133c-10.849-10.848-28.437-10.848-39.285 0-10.848 10.848-10.848 28.436 0 39.283l91.47 91.47zM173.911 222.222h520.533c15.342 0 27.778 12.437 27.778 27.778s-12.436 27.778-27.778 27.778H177.831l85.329 85.328c10.848 10.848 10.848 28.436 0 39.284-10.848 10.848-28.436 10.848-39.284 0L93.096 271.61c-13.017-13.017-13.017-34.123 0-47.14l133-133c10.849-10.849 28.437-10.849 39.285 0 10.848 10.847 10.848 28.435 0 39.283l-91.47 91.47z"/></g></svg>