<?xml version="1.0" encoding="UTF-8"?>
<svg width="1000px" height="1000px" viewBox="0 0 1000 1000" version="1.1" xmlns="http://www.w3.org/2000/svg" xmlns:xlink="http://www.w3.org/1999/xlink">
    <!-- Generator: sketchtool 52.4 (67378) - http://www.bohemiancoding.com/sketch -->
    <title>exchange-record</title>
    <desc>Created with sketchtool.</desc>
    <g id="旧版图标(剩余)" stroke="none" stroke-width="1" fill="none" fill-rule="evenodd">
        <g id="icon_liulanjilu-copy-6" fill="#F6A623" fill-rule="nonzero">
            <path d="M292.144631,364.24303 L647.67252,364.24303 L531.389227,221.810296 C521.421677,209.601273 523.23875,191.623608 535.447773,181.656057 C547.656796,171.688507 565.634461,173.50558 575.602012,185.714603 L729.918384,374.733181 C745.135072,393.371752 731.873245,421.319026 707.811992,421.319026 L292.144631,421.319026 C276.383529,421.319026 263.606632,408.542129 263.606632,392.781028 C263.606632,377.019927 276.383529,364.24303 292.144631,364.24303 Z M707.811992,636.92817 L352.284102,636.92817 L468.567395,779.360903 C478.534946,791.569927 476.717873,809.547592 464.508849,819.515142 C452.299826,829.482693 434.322161,827.66562 424.35461,815.456596 L270.038238,626.438018 C254.821551,607.799447 268.083378,579.852173 292.144631,579.852173 L707.811992,579.852173 C723.573093,579.852173 736.34999,592.62907 736.34999,608.390172 C736.34999,624.151273 723.573093,636.92817 707.811992,636.92817 Z M942.924003,499.945778 C942.924003,255.354601 744.582383,57.0759967 499.945778,57.0759967 C255.33189,57.0759967 57.0759967,255.33189 57.0759967,499.945778 C57.0759967,744.582383 255.354601,942.924003 499.945778,942.924003 C744.559666,942.924003 942.924003,744.559666 942.924003,499.945778 Z M1000,499.945778 C1000,776.081868 776.081868,1000 499.945778,1000 C223.828338,1000 0,776.100526 0,499.945778 C0,223.809687 223.809687,0 499.945778,0 C776.100526,0 1000,223.828338 1000,499.945778 Z" id="Stroke-8"></path>
        </g>
    </g>
</svg>