<?xml version="1.0" encoding="UTF-8"?>
<svg width="1000px" height="1000px" viewBox="0 0 1000 1000" version="1.1" xmlns="http://www.w3.org/2000/svg" xmlns:xlink="http://www.w3.org/1999/xlink">
    <!-- Generator: sketchtool 52.4 (67378) - http://www.bohemiancoding.com/sketch -->
    <title>expand-o</title>
    <desc>Created with sketchtool.</desc>
    <g id="新版图标" stroke="none" stroke-width="1" fill="none" fill-rule="evenodd">
        <g id="expand-o" fill="#323233" fill-rule="nonzero">
            <g id="圆角-全屏-线" transform="translate(111.000000, 111.000000)">
                <path d="M55.6666667,55.6666667 L55.6666667,722.333333 L722.333333,722.333333 L722.333333,55.6666667 L55.6666667,55.6666667 Z M55.6666667,0.111111111 L722.333333,0.111111111 C753.015819,0.111111111 777.888889,24.9841806 777.888889,55.6666667 L777.888889,722.333333 C777.888889,753.015819 753.015819,777.888889 722.333333,777.888889 L55.6666667,777.888889 C24.9841806,777.888889 0.111111111,753.015819 0.111111111,722.333333 L0.111111111,55.6666667 C0.111111111,24.9841806 24.9841806,0.111111111 55.6666667,0.111111111 Z M571.938512,166.777778 L445.055556,166.777778 C444.779413,166.777778 444.555556,166.55392 444.555556,166.277778 L444.555556,111.722222 C444.555556,111.44608 444.779413,111.222222 445.055556,111.222222 L666.277778,111.222222 C666.55392,111.222222 666.777778,111.44608 666.777778,111.722222 L666.777778,166.277778 L666.777778,332.944444 C666.777778,333.220587 666.55392,333.444444 666.277778,333.444444 L611.722222,333.444444 C611.44608,333.444444 611.222222,333.220587 611.222222,332.944444 L611.222222,206.061488 L491.975188,325.308522 C481.127291,336.156419 463.539375,336.156419 452.691478,325.308522 C441.843581,314.460625 441.843581,296.872709 452.691478,286.024812 L571.938512,166.777778 Z M206.061488,611.222222 L332.944444,611.222222 C333.220587,611.222222 333.444444,611.44608 333.444444,611.722222 L333.444444,666.277778 C333.444444,666.55392 333.220587,666.777778 332.944444,666.777778 L111.722222,666.777778 C111.44608,666.777778 111.222222,666.55392 111.222222,666.277778 L111.222222,611.722222 L111.222222,445.055556 C111.222222,444.779413 111.44608,444.555556 111.722222,444.555556 L166.277778,444.555556 C166.55392,444.555556 166.777778,444.779413 166.777778,445.055556 L166.777778,571.938512 L286.024812,452.691478 C296.872709,441.843581 314.460625,441.843581 325.308522,452.691478 C336.156419,463.539375 336.156419,481.127291 325.308522,491.975188 L206.061488,611.222222 Z" id="Combined-Shape"></path>
            </g>
        </g>
    </g>
</svg>