<svg width="1000" height="1000" xmlns="http://www.w3.org/2000/svg"><path d="M166.667 166.667v666.666h666.666V166.667H166.667zm0-55.556h666.666c30.683 0 55.556 24.873 55.556 55.556v666.666c0 30.683-24.873 55.556-55.556 55.556H166.667c-30.683 0-55.556-24.873-55.556-55.556V166.667c0-30.683 24.873-55.556 55.556-55.556zm516.272 166.667H556.056a.5.5 0 0 1-.5-.5v-54.556a.5.5 0 0 1 .5-.5h221.222a.5.5 0 0 1 .5.5V443.944a.5.5 0 0 1-.5.5h-54.556a.5.5 0 0 1-.5-.5V317.061L602.975 436.31c-10.848 10.847-28.436 10.847-39.284 0-10.847-10.848-10.847-28.436 0-39.284L682.94 277.778zM317.06 722.222h126.883a.5.5 0 0 1 .5.5v54.556a.5.5 0 0 1-.5.5H222.722a.5.5 0 0 1-.5-.5V556.056a.5.5 0 0 1 .5-.5h54.556a.5.5 0 0 1 .5.5v126.883L397.025 563.69c10.848-10.847 28.436-10.847 39.284 0 10.847 10.848 10.847 28.436 0 39.284L317.06 722.222z" fill="#323233" fill-rule="nonzero"/></svg>