<svg width="1000" height="1000" xmlns="http://www.w3.org/2000/svg"><path d="M315.811 722.222L436.118 603.5c10.691-10.551 11.147-28.133 1.018-39.27-10.128-11.137-27.007-11.612-37.698-1.06l-121.66 120.058V556.056a.5.5 0 0 0-.5-.5h-54.556a.5.5 0 0 0-.5.5v221.222a.5.5 0 0 0 .5.5H443.944a.5.5 0 0 0 .5-.5v-54.556a.5.5 0 0 0-.5-.5H315.811zm435.353-500H556.056a.5.5 0 0 0-.5.5v54.556a.5.5 0 0 0 .5.5h128.133L563.882 396.5c-10.691 10.551-11.147 28.133-1.018 39.27 10.128 11.137 27.007 11.612 37.698 1.061l121.66-120.06v127.172a.5.5 0 0 0 .5.5h54.556a.5.5 0 0 0 .5-.5V222.722a.498.498 0 0 0-.5-.5h-26.114zM112.11 111.112H887.89a1 1 0 0 1 1 1v775.777a1 1 0 0 1-1 1H112.11a1 1 0 0 1-1-1V112.11a1 1 0 0 1 1-1z" fill="#323233" fill-rule="evenodd"/></svg>