<?xml version="1.0" encoding="UTF-8"?>
<svg width="1000px" height="1000px" viewBox="0 0 1000 1000" version="1.1" xmlns="http://www.w3.org/2000/svg" xmlns:xlink="http://www.w3.org/1999/xlink">
    <!-- Generator: sketchtool 52.4 (67378) - http://www.bohemiancoding.com/sketch -->
    <title>eye-o</title>
    <desc>Created with sketchtool.</desc>
    <g id="新版图标" stroke="none" stroke-width="1" fill="none" fill-rule="evenodd">
        <g id="eye-o" fill="#323233" fill-rule="nonzero">
            <g id="直角-预览店铺-线">
                <path d="M789.018178,367.496671 C708.123008,293.955607 609.222892,250 500,250 C390.777108,250 291.876992,293.955607 210.981822,367.496671 C154.266129,419.056392 112.087888,484.647705 111.12784,499.503504 C111.262245,497.420254 112.18453,500.226249 114.528796,505.133871 C118.987278,514.467516 126.04542,526.174801 135.178443,539.068481 C156.555461,569.247801 186.336512,601.996722 220.482151,631.688582 C305.408923,705.537949 403.066642,750 500,750 C596.933358,750 694.591077,705.537949 779.517849,631.688582 C813.663488,601.996722 843.444539,569.247801 864.821557,539.068481 C873.95458,526.174801 881.012722,514.467516 885.471204,505.133871 C887.638349,500.597044 888.590271,497.856265 888.827387,499.010756 C887.010437,483.249683 845.128758,418.506288 789.018178,367.496671 Z M500,805.555556 C250,805.555556 55.5555556,555.555556 55.5555556,500 C55.5555556,444.444444 222.222222,194.444444 500,194.444444 C777.777778,194.444444 944.444444,444.444444 944.444444,500 C944.444444,555.555556 750,805.555556 500,805.555556 Z M500,666.666667 C592.047458,666.666667 666.666667,592.047458 666.666667,500 C666.666667,407.952542 592.047458,333.333333 500,333.333333 C407.952542,333.333333 333.333333,407.952542 333.333333,500 C333.333333,592.047458 407.952542,666.666667 500,666.666667 Z M500,611.111111 C438.635028,611.111111 388.888889,561.364972 388.888889,500 C388.888889,438.635028 438.635028,388.888889 500,388.888889 C561.364972,388.888889 611.111111,438.635028 611.111111,500 C611.111111,561.364972 561.364972,611.111111 500,611.111111 Z" id="Combined-Shape"></path>
            </g>
        </g>
    </g>
</svg>