<?xml version="1.0" encoding="UTF-8"?>
<svg width="1000px" height="1000px" viewBox="0 0 1000 1000" version="1.1" xmlns="http://www.w3.org/2000/svg" xmlns:xlink="http://www.w3.org/1999/xlink">
    <!-- Generator: sketchtool 52.4 (67378) - http://www.bohemiancoding.com/sketch -->
    <title>eye</title>
    <desc>Created with sketchtool.</desc>
    <g id="新版图标" stroke="none" stroke-width="1" fill="none" fill-rule="evenodd">
        <g id="eye" fill="#323233">
            <g id="圆角-明文">
                <path d="M500.003946,166.666667 C200.04287,166.666667 55.5555556,457.981013 55.5555556,472.222222 C55.5555556,486.478933 196.183962,777.777778 500.003946,777.777778 C803.817616,777.777778 944.444444,486.478933 944.444444,472.222222 C944.444444,457.981013 799.95713,166.666667 500.003946,166.666667 Z M500.003514,638.888889 C407.954052,638.888889 333.333333,564.26817 333.333333,472.220114 C333.333333,380.170651 407.954052,305.555556 500.003514,305.555556 C592.045948,305.555556 666.666667,380.170651 666.666667,472.220114 C666.666667,564.26817 592.045948,638.888889 500.003514,638.888889 Z M500.003514,388.888889 C453.971875,388.888889 416.666667,426.19972 416.666667,472.218708 C416.666667,518.248941 453.971875,555.55415 500.003514,555.55415 C546.022502,555.55415 583.333333,518.248941 583.333333,472.218708 C583.333333,426.19972 546.022502,388.888889 500.003514,388.888889 Z" id="Fill-1"></path>
            </g>
        </g>
    </g>
</svg>