<?xml version="1.0" encoding="UTF-8"?>
<svg width="1000px" height="1000px" viewBox="0 0 1000 1000" version="1.1" xmlns="http://www.w3.org/2000/svg" xmlns:xlink="http://www.w3.org/1999/xlink">
    <!-- Generator: sketchtool 52.4 (67378) - http://www.bohemiancoding.com/sketch -->
    <title>fail</title>
    <desc>Created with sketchtool.</desc>
    <g id="新版图标" stroke="none" stroke-width="1" fill="none" fill-rule="evenodd">
        <g id="fail" fill="#323233">
            <g id="失败">
                <path d="M444.129023,111.377456 C444.125736,111.230358 444.249297,111.111111 444.386887,111.111111 L555.613222,111.111111 C555.758924,111.111111 555.874486,111.225314 555.871085,111.377456 L543.465884,666.400322 C543.462596,666.54742 543.341294,666.666667 543.194937,666.666667 L456.805172,666.666667 C456.65882,666.666667 456.537625,666.552464 456.534225,666.400322 L444.129023,111.377456 Z M500,833.333333 C469.317514,833.333333 444.444444,808.460264 444.444444,777.777778 C444.444444,747.095292 469.317514,722.222222 500,722.222222 C530.682486,722.222222 555.555556,747.095292 555.555556,777.777778 C555.555556,808.460264 530.682486,833.333333 500,833.333333 Z" id="Combined-Shape"></path>
            </g>
        </g>
    </g>
</svg>