<svg width="1000" height="1000" xmlns="http://www.w3.org/2000/svg"><path d="M777.778 111.111c30.682 0 55.555 24.873 55.555 55.556v722.222c0 30.682-24.873 55.555-55.555 55.555H222.222c-30.682 0-55.555-24.873-55.555-55.555V166.667c0-30.683 24.873-55.556 55.555-55.556H388.89v55.556H222.222v722.222h555.556V166.667H611.11V111.11h166.667zm-361.111 0c-15.342 0-27.778 12.437-27.778 27.778s12.436 27.778 27.778 27.778h166.666c15.342 0 27.778-12.437 27.778-27.778s-12.436-27.778-27.778-27.778H416.667zM541.044 500l80.674 80.674a2 2 0 0 1 0 2.829l-38.215 38.215a2 2 0 0 1-2.829 0L500 541.044l-81.735 81.735a.5.5 0 0 1-.707 0l-40.337-40.337a.5.5 0 0 1 0-.707L458.956 500l-80.674-80.674a2 2 0 0 1 0-2.829l38.215-38.215a2 2 0 0 1 2.829 0L500 458.956l81.735-81.735a.5.5 0 0 1 .707 0l40.337 40.337a.5.5 0 0 1 0 .707L541.044 500zM416.667 55.556h166.666c46.024 0 83.334 37.31 83.334 83.333 0 46.024-37.31 83.333-83.334 83.333H416.667c-46.024 0-83.334-37.31-83.334-83.333 0-46.024 37.31-83.333 83.334-83.333z" fill="#323233" fill-rule="nonzero"/></svg>