<?xml version="1.0" encoding="UTF-8"?>
<svg width="1000px" height="1000px" viewBox="0 0 1000 1000" version="1.1" xmlns="http://www.w3.org/2000/svg" xmlns:xlink="http://www.w3.org/1999/xlink">
    <!-- Generator: sketchtool 52.4 (67378) - http://www.bohemiancoding.com/sketch -->
    <title>fire</title>
    <desc>Created with sketchtool.</desc>
    <g id="新版图标" stroke="none" stroke-width="1" fill="none" fill-rule="evenodd">
        <g id="fire" fill="#323233" fill-rule="nonzero">
            <g id="圆角-hot2-面">
                <path d="M569.512592,944.444444 C635.169157,849.40601 637.904848,771.139064 577.719662,709.643606 C446.406532,583.857442 503.856026,500 503.856026,500 C503.856026,500 364.859427,567.460759 337.849726,693.140922 C323.350474,760.608099 341.122698,844.852471 429.99239,944.444444 L416.666667,944.444444 C250,888.888889 111.111111,778.825996 111.111111,611.111111 C111.111111,297.705723 421.791687,350.041405 444.444444,55.5555556 C444.444444,55.5555556 741.161616,147.798742 675.50505,432.914046 C675.505051,432.914046 708.333333,407.756813 741.161616,357.442348 C741.161616,357.442348 888.888889,474.842767 888.888889,642.557653 C888.888889,759.958071 790.40404,860.587002 593.434343,944.444444 L569.512592,944.444444 Z" id="Shape-Copy-2"></path>
            </g>
        </g>
    </g>
</svg>