<?xml version="1.0" encoding="UTF-8"?>
<svg width="1000px" height="1000px" viewBox="0 0 1000 1000" version="1.1" xmlns="http://www.w3.org/2000/svg" xmlns:xlink="http://www.w3.org/1999/xlink">
    <!-- Generator: sketchtool 52.4 (67378) - http://www.bohemiancoding.com/sketch -->
    <title>fire-o</title>
    <desc>Created with sketchtool.</desc>
    <g id="新版图标" stroke="none" stroke-width="1" fill="none" fill-rule="evenodd">
        <g id="fire-o" fill="#323233" fill-rule="nonzero">
            <g id="圆角-hot2-线">
                <path d="M861.111111,642.557653 C861.111111,575.82345 835.57857,512.051801 792.632448,453.543683 C777.707564,433.210605 761.71183,414.983629 745.729086,399.161575 C725.736049,425.423646 706.723752,443.986517 692.401223,454.962272 C671.734087,470.800078 642.592657,452.054212 648.435734,426.680504 C676.926999,302.956461 635.59216,210.84438 547.709087,142.784503 C523.159617,123.772492 496.727933,108.203868 470.309109,95.9085915 C469.520368,95.5415124 468.740965,95.1814508 467.971142,94.8283759 C452.197968,198.402416 404.250808,256.223409 295.508883,341.009885 L292.779403,343.137898 C175.722063,434.402252 138.888889,487.369821 138.888889,611.111111 C138.888889,730.703415 218.878326,827.447821 354.091611,889.976348 C310.345726,819.27238 296.92036,751.386074 310.692016,687.304507 C322.734605,631.268549 354.551737,582.301971 399.635664,540.199824 C419.63481,521.52339 440.969963,505.427012 462.323956,491.870474 C475.258401,483.659069 485.4967,478.033989 491.727352,475.009998 C517.364905,462.567041 542.878004,492.189653 526.771882,515.699314 C526.470522,516.139202 525.211,518.519024 523.704733,522.659826 C508.848833,563.499436 523.31414,619.062141 597.571872,690.214384 C654.012387,747.883647 663.260227,818.78313 627.629885,898.565027 C784.938605,823.338544 861.111111,737.565823 861.111111,642.557653 Z M717.897724,342.263539 C726.839924,328.558222 745.632466,325.514068 758.444026,335.69555 C763.794372,339.947526 772.603829,347.662878 783.726091,358.606376 C802.045512,376.631355 820.32866,397.388227 837.418058,420.670154 C886.801481,487.948199 916.666667,562.54133 916.666667,642.557653 C916.666667,773.684 810.399657,882.264515 604.31533,970.002399 L593.434343,972.222222 L569.512592,972.222222 C547.117853,972.222222 533.929207,947.081111 546.658257,928.655704 C605.408494,843.614239 607.634696,779.923539 558.504496,729.703075 C494.141713,668.049321 465.588547,609.946479 463.191141,559.040334 C454.439159,565.801961 445.843948,573.061357 437.553695,580.803305 C400.107942,615.772455 374.37924,655.368937 365.007435,698.977337 C350.56529,766.178791 375.167287,841.283706 450.718226,925.949995 C466.692968,943.852117 453.985688,972.222222 429.99239,972.222222 L416.666667,972.222222 L407.882562,970.796758 C209.636072,904.714595 83.3333333,778.70974 83.3333333,611.111111 C83.3333333,466.32018 129.403457,400.069512 258.620365,299.324888 L261.348523,297.197905 C371.262551,211.497536 408.400238,161.952324 416.748487,53.4250973 C418.116659,35.6388505 435.656072,23.734306 452.690683,29.0300116 C461.333974,31.7170306 475.636812,37.1106545 493.750275,45.5406304 C523.709323,59.4835217 553.65551,77.1222362 581.725387,98.8605787 C663.37287,162.091387 712.21715,245.55668 712.953819,349.646474 C714.614362,347.230092 716.262945,344.769093 717.897724,342.263539 Z" id="Combined-Shape"></path>
            </g>
        </g>
    </g>
</svg>