<svg width="1000" height="1000" xmlns="http://www.w3.org/2000/svg"><path d="M569.513 944.444c65.656-95.038 68.392-173.305 8.207-234.8C446.407 583.857 503.856 500 503.856 500S364.859 567.46 337.85 693.14c-14.5 67.468 3.273 151.712 92.142 251.304h-13.325C250 888.89 111.11 778.826 111.11 611.111c0-313.405 310.68-261.07 333.333-555.555 0 0 296.718 92.243 231.061 377.358 0 0 32.828-25.157 65.657-75.472 0 0 147.727 117.4 147.727 285.116 0 117.4-98.485 218.029-295.455 301.886h-23.921z" fill="#323233" fill-rule="nonzero"/></svg>