<svg width="1000" height="1000" xmlns="http://www.w3.org/2000/svg"><path d="M288.595 458.443c7.303 77.307 69.953 137.701 147.476 142.165l57.432 3.308 71.827-3.79c79.64-4.201 143.517-67.369 148.607-146.957 5.038-78.76 7.704-138.816 8.059-179.248-23.565 12.497-34.333 17.553-49.16 21.962-34.187 10.166-68.027 5.319-90.452-26.608-1.669-2.377-14.162-20.38-18.345-26.316-8.003-11.358-15.118-21.11-22.176-30.284-13.794-17.932-26.308-32.202-37.241-42.196-7.407-6.77-12.16-9.805-11.16-10.665.287 1.815-11.507 11.764-25.341 29.467-16.582 21.22-33.538 49.431-44.206 71.895-18.298 38.529-55.178 47.882-91.898 38.099-15.968-4.255-26.486-9.16-54.175-23.52-.498 36.853 2.92 99.778 10.753 182.688zm204.867-298.629c.192-.165.597-.25 1.238-.265.165-.004.185.093.071.293l-1.31-.028zm34.12 497.937v250.266h-55.556v-249.69l-39.15-2.255c-104.917-6.042-189.707-87.779-199.59-192.404-13.004-137.651-14.744-219-5.221-244.044 19.731-51.895 125.398 60.398 145.666 17.719C394 194.664 448.555 105.083 493.37 104.009c44.814-1.074 107.107 94.365 134.478 133.334 27.37 38.969 143.015-89.638 148.726-8.819 2.59 36.65.192 112.714-7.193 228.19-6.89 107.714-93.34 193.205-201.123 198.89l-40.675 2.147zM418.67 881.63l-52.512 18.137c-37.514-108.614-78.153-158.295-117.338-156.826-10.457-.004-24.077 7.617-38.24 21.312-5.414 5.235-10.466 10.913-15.093 16.735-2.51 3.158-7.373 9.78-7.707 10.18l-42.618-35.639c-17.593 21.038 14.428-19.25 26.8-31.214 23.538-22.76 48.88-36.94 75.813-36.91 71.053-2.7 126.137 64.641 170.895 194.225zm165.774 0c44.758-129.584 99.842-196.926 170.895-194.224 26.934-.031 52.275 14.148 75.814 36.91 12.372 11.962 44.392 52.25 26.8 31.213l-42.619 35.639c-.334-.4-5.197-7.022-7.707-10.18-4.627-5.822-9.679-11.5-15.093-16.735-14.162-13.695-27.783-21.316-38.24-21.312-39.185-1.47-79.823 48.212-117.338 156.826l-52.512-18.137z" fill="#323233" fill-rule="nonzero"/></svg>