<svg width="1000" height="1000" xmlns="http://www.w3.org/2000/svg"><path d="M418.991 623.732h59.6c9.845 0 16.967-6.79 16.967-13.577v-62.627h-76.567v76.204zm-50 0v-76.204h-67.877v62.627c0 6.774 7.136 13.577 16.966 13.577h50.911zm50-194.445v68.241h76.567V442.89c0-6.811-7.12-13.603-16.967-13.603h-59.6zm-50 0h-50.91c-9.833 0-16.967 6.804-16.967 13.603v54.638h67.877v-68.24zm0-55.555v-59.724c0-13.807 11.193-25 25-25 13.808 0 25 11.193 25 25v59.724h59.6c39.96 0 72.523 31.065 72.523 69.158v167.265c0 38.074-32.569 69.132-72.523 69.132h-160.51c-39.934 0-72.523-31.065-72.523-69.132V442.89c0-38.087 32.582-69.158 72.522-69.158h50.911zM500 888.889c214.777 0 388.889-174.112 388.889-388.889 0-214.777-174.112-388.889-388.889-388.889-214.777 0-388.889 174.112-388.889 388.889 0 214.777 174.112 388.889 388.889 388.889zm0 55.555C254.54 944.444 55.556 745.46 55.556 500S254.54 55.556 500 55.556 944.444 254.54 944.444 500 745.46 944.444 500 944.444zm190.141-446.462h19.95v-55.45c0-10.597-7.732-18.8-16.3-18.8h-48.575c-8.577 0-16.325 8.213-16.325 18.8v182.775c0 13.807-11.193 25-25 25s-25-11.193-25-25V442.532c0-37.57 29.46-68.8 66.325-68.8h48.575c36.866 0 66.3 31.229 66.3 68.8v80.45c0 13.807-11.193 25-25 25h-44.95c-13.807 0-25-11.193-25-25s11.193-25 25-25z" fill="#323233" fill-rule="nonzero"/></svg>