<svg width="1000" height="1000" xmlns="http://www.w3.org/2000/svg"><path d="M694.936 481.76c143.52 37.174 249.508 167.562 249.508 322.705 0 15.34-12.436 27.777-27.777 27.777H305.556c-15.342 0-27.778-12.436-27.778-27.777 0-155.84 106.942-286.701 251.443-323.2-65.667-31.218-111.062-98.162-111.062-175.71 0-107.388 87.055-194.444 194.444-194.444 107.389 0 194.445 87.056 194.445 194.445 0 77.96-45.88 145.203-112.112 176.204zm-278.16-303.836c-25.382 36.117-40.284 80.134-40.284 127.632 0 65.806 28.871 126.406 76.44 167.757-120.97 52.686-205.464 168.815-215.761 303.374H134.259c-12.784 0-23.148-10.364-23.148-23.148 0-129.866 89.119-238.918 209.536-269.334-54.722-26.014-92.552-81.801-92.552-146.424 0-89.49 72.547-162.037 162.037-162.037 9.075 0 17.976.746 26.645 2.18z" fill="#323233" fill-rule="evenodd"/></svg>