<?xml version="1.0" encoding="UTF-8"?>
<svg width="1000px" height="1000px" viewBox="0 0 1000 1000" version="1.1" xmlns="http://www.w3.org/2000/svg" xmlns:xlink="http://www.w3.org/1999/xlink">
    <!-- Generator: sketchtool 52.4 (67378) - http://www.bohemiancoding.com/sketch -->
    <title>friends-o</title>
    <desc>Created with sketchtool.</desc>
    <g id="新版图标" stroke="none" stroke-width="1" fill="none" fill-rule="evenodd">
        <g id="friends-o" fill="#323233" fill-rule="nonzero">
            <g id="圆角-好友参团-线">
                <path d="M55.6274729,707.766773 L55.5555556,707.766773 C55.5555556,557.341209 169.431576,433.512815 315.679261,417.785946 L315.679261,473.744336 C200.541197,489.115698 111.649671,587.464633 111.113549,706.682274 C111.153056,707.288451 111.173117,707.89993 111.173117,708.516096 C111.173117,723.857339 98.7365827,736.293874 83.3953397,736.293874 C68.0540966,736.293874 55.6175619,723.857339 55.6175619,708.516096 C55.6175619,708.265533 55.6208794,708.015745 55.6274729,707.766773 Z M313.629184,195.699469 C328.970427,195.699469 341.406962,208.136003 341.406962,223.477247 C341.406962,238.81849 328.970427,251.255024 313.629184,251.255024 C267.605455,251.255024 230.29585,288.564628 230.29585,334.588358 C230.29585,380.612087 267.605455,417.921691 313.629184,417.921691 L313.629184,473.477247 C236.922969,473.477247 174.740295,411.294573 174.740295,334.588358 C174.740295,257.882142 236.922969,195.699469 313.629184,195.699469 Z M313.629184,473.477247 C298.287941,473.477247 285.851406,461.040712 285.851406,445.699469 C285.851406,430.358226 298.287941,417.921691 313.629184,417.921691 C328.970427,417.921691 341.406962,430.358226 341.406962,445.699469 C341.406962,461.040712 328.970427,473.477247 313.629184,473.477247 Z M275.454154,804.464518 L219.898598,804.464518 C219.898598,620.369601 369.137015,471.131184 553.231932,471.131184 C737.326848,471.131184 886.565265,620.369601 886.565265,804.464518 L831.00971,804.464518 C831.00971,651.052087 706.644362,526.68674 553.231932,526.68674 C399.819501,526.68674 275.454154,651.052087 275.454154,804.464518 Z M247.676376,832.242296 C232.335133,832.242296 219.898598,819.805761 219.898598,804.464518 C219.898598,789.123275 232.335133,776.68674 247.676376,776.68674 C263.017619,776.68674 275.454154,789.123275 275.454154,804.464518 C275.454154,819.805761 263.017619,832.242296 247.676376,832.242296 Z M858.787487,832.242296 C843.446244,832.242296 831.00971,819.805761 831.00971,804.464518 C831.00971,789.123275 843.446244,776.68674 858.787487,776.68674 C874.12873,776.68674 886.565265,789.123275 886.565265,804.464518 C886.565265,819.805761 874.12873,832.242296 858.787487,832.242296 Z M554.724,444.444444 C631.430216,444.444444 693.612889,382.261771 693.612889,305.555556 C693.612889,228.84934 631.430216,166.666667 554.724,166.666667 C478.017785,166.666667 415.835112,228.84934 415.835112,305.555556 C415.835112,382.261771 478.017785,444.444444 554.724,444.444444 Z M554.724,500 C447.335299,500 360.279556,412.944257 360.279556,305.555556 C360.279556,198.166854 447.335299,111.111111 554.724,111.111111 C662.112702,111.111111 749.168445,198.166854 749.168445,305.555556 C749.168445,412.944257 662.112702,500 554.724,500 Z" id="Oval-4"></path>
            </g>
        </g>
    </g>
</svg>