<svg width="1000" height="1000" xmlns="http://www.w3.org/2000/svg"><path d="M55.627 707.767h-.071c0-150.426 113.876-274.254 260.123-289.981v55.958c-115.138 15.372-204.03 113.72-204.565 232.938.04.606.06 1.218.06 1.834 0 15.341-12.437 27.778-27.779 27.778-15.34 0-27.777-12.437-27.777-27.778 0-.25.003-.5.01-.75zM313.63 195.699c15.341 0 27.778 12.437 27.778 27.778s-12.437 27.778-27.778 27.778c-46.024 0-83.333 37.31-83.333 83.333 0 46.024 37.31 83.334 83.333 83.334v55.555c-76.706 0-138.889-62.182-138.889-138.889 0-76.706 62.183-138.889 138.89-138.889zm0 277.778c-15.341 0-27.778-12.436-27.778-27.778 0-15.34 12.437-27.777 27.778-27.777s27.778 12.436 27.778 27.777c0 15.342-12.437 27.778-27.778 27.778zm-38.175 330.988H219.9c0-184.095 149.238-333.334 333.333-333.334 184.095 0 333.333 149.239 333.333 333.334H831.01c0-153.413-124.366-277.778-277.778-277.778-153.412 0-277.778 124.365-277.778 277.778zm-27.778 27.777c-15.34 0-27.777-12.436-27.777-27.777 0-15.342 12.436-27.778 27.777-27.778 15.342 0 27.778 12.436 27.778 27.778 0 15.34-12.436 27.777-27.778 27.777zm611.111 0c-15.34 0-27.777-12.436-27.777-27.777 0-15.342 12.436-27.778 27.777-27.778 15.342 0 27.778 12.436 27.778 27.778 0 15.34-12.436 27.777-27.778 27.777zM554.724 444.444c76.706 0 138.889-62.182 138.889-138.888 0-76.707-62.183-138.89-138.889-138.89-76.706 0-138.889 62.183-138.889 138.89 0 76.706 62.183 138.888 138.889 138.888zm0 55.556c-107.389 0-194.444-87.056-194.444-194.444 0-107.39 87.055-194.445 194.444-194.445 107.389 0 194.444 87.056 194.444 194.445C749.168 412.944 662.113 500 554.724 500z" fill="#323233" fill-rule="nonzero"/></svg>