<?xml version="1.0" encoding="UTF-8"?>
<svg width="1000px" height="1000px" viewBox="0 0 1000 1000" version="1.1" xmlns="http://www.w3.org/2000/svg" xmlns:xlink="http://www.w3.org/1999/xlink">
    <!-- Generator: sketchtool 52.4 (67378) - http://www.bohemiancoding.com/sketch -->
    <title>gem-o</title>
    <desc>Created with sketchtool.</desc>
    <g id="新版图标" stroke="none" stroke-width="1" fill="none" fill-rule="evenodd">
        <g id="gem-o" fill="#323233" fill-rule="nonzero">
            <g id="圆角—积分商城2-线">
                <path d="M626.490123,361.111111 L556.547403,166.666667 L419.808812,166.666667 L363.201257,361.111111 L626.490123,361.111111 Z M627.19232,416.666667 L361.590226,416.666667 L499.085341,756.698096 L627.19232,416.666667 Z M685.530494,361.111111 L876.332756,361.111111 L799.04485,166.666667 L615.587774,166.666667 L685.530494,361.111111 Z M686.559894,416.666667 L562.142529,746.904839 L854.371065,416.666667 L686.559894,416.666667 Z M301.66468,416.666667 L146.419874,416.666667 L433.971818,743.868002 L301.66468,416.666667 Z M305.339312,361.111111 L361.946868,166.666667 L200.198506,166.666667 L124.413984,361.111111 L305.339312,361.111111 Z M181.211865,111.111111 L817.895383,111.111111 C829.275868,111.111111 839.505139,118.052891 843.708767,128.628568 L942.70019,377.675714 C946.570236,387.412153 944.632605,398.49781 937.689304,406.344214 L519.905967,878.467872 C509.739411,889.956774 492.184193,891.028747 480.695291,880.86219 C479.8255,880.092511 479.004838,879.269037 478.238138,878.396619 L63.29434,406.237875 C56.4446367,398.443694 54.5101053,387.481617 58.2781799,377.813664 L155.330373,128.801604 C159.487756,118.134783 169.763507,111.111111 181.211865,111.111111 Z" id="Combined-Shape"></path>
            </g>
        </g>
    </g>
</svg>