<svg width="1000" height="1000" xmlns="http://www.w3.org/2000/svg"><path d="M626.49 361.111l-69.943-194.444H419.81L363.2 361.11h263.29zm.702 55.556H361.59l137.495 340.031 128.107-340.031zm58.338-55.556h190.803l-77.288-194.444H615.588L685.53 361.11zm1.03 55.556L562.143 746.905 854.37 416.667H686.56zm-384.895 0H146.42l287.552 327.201-132.307-327.201zm3.674-55.556l56.608-194.444H200.199L124.414 361.11h180.925zm-124.127-250h636.683c11.38 0 21.61 6.942 25.814 17.518L942.7 377.676a27.778 27.778 0 0 1-5.01 28.668L519.905 878.468c-10.167 11.489-27.722 12.56-39.21 2.394-.87-.77-1.691-1.593-2.458-2.465L63.294 406.237a27.778 27.778 0 0 1-5.016-28.423l97.052-249.012a27.778 27.778 0 0 1 25.882-17.69z" fill="#323233" fill-rule="nonzero"/></svg>