<?xml version="1.0" encoding="UTF-8"?>
<svg width="1000px" height="1000px" viewBox="0 0 1000 1000" version="1.1" xmlns="http://www.w3.org/2000/svg" xmlns:xlink="http://www.w3.org/1999/xlink">
    <!-- Generator: sketchtool 52.4 (67378) - http://www.bohemiancoding.com/sketch -->
    <title>gem</title>
    <desc>Created with sketchtool.</desc>
    <g id="新版图标" stroke="none" stroke-width="1" fill="none" fill-rule="evenodd">
        <g id="gem" fill="#323233">
            <g id="圆角-积分商城2-面">
                <g transform="translate(55.555556, 111.111111)" id="Group-2">
                    <g>
                        <path d="M544.855049,-1.20112152e-14 L780.851051,-1.84852134e-14 C781.0559,-1.85228435e-14 781.240027,0.124952039 781.315692,0.31531423 L880.560525,250 L630.337574,250 L544.855049,-3.55271368e-15 Z M486.141574,2.84217094e-14 L571.624099,250 L307.646937,250 L380.435121,5.32907052e-15 L486.141574,-1.04005484e-14 Z M322.572738,-2.84217094e-14 L249.784555,250 L9.23242718,250 L106.545562,0.318428875 C106.620394,0.126426095 106.805358,1.14807755e-15 107.011428,1.11022302e-15 L322.572738,-5.91342016e-15 Z M523.197929,700.855053 L632.732064,305.555556 L872.999385,305.555556 L523.197929,700.855053 Z M360.974644,697.068908 L16.9038426,305.555556 L244.99726,305.555556 L360.974644,697.068908 Z M302.939102,305.555556 L575.083177,305.555556 L443.553104,780.236547 L302.939102,305.555556 Z" id="Combined-Shape"></path>
                    </g>
                </g>
            </g>
        </g>
    </g>
</svg>