<svg width="1000" height="1000" xmlns="http://www.w3.org/2000/svg"><g fill="#323233" fill-rule="evenodd"><path d="M444.444 833.333h111.112V277.778H444.444V833.333zm0 55.556H222.222c-30.682 0-55.555-24.873-55.555-55.556V500c-30.683 0-55.556-24.873-55.556-55.556V277.778c0-30.683 24.873-55.556 55.556-55.556h86.111c12.869-63.395 68.918-111.11 136.11-111.11 45.434 0 85.772 21.814 111.112 55.541 25.34-33.727 65.678-55.542 111.111-55.542 67.193 0 123.242 47.716 136.11 111.111h86.112c30.683 0 55.556 24.873 55.556 55.556v166.666c0 30.683-24.873 55.556-55.556 55.556v333.333c0 30.683-24.873 55.556-55.555 55.556H444.444zm88.076-666.667h157.183c-11.44-32.366-42.308-55.555-78.592-55.555s-67.151 23.189-78.591 55.555zm-65.04 0c-11.44-32.366-42.307-55.555-78.591-55.555-36.284 0-67.152 23.189-78.592 55.555H467.48zM611.111 500v333.333h166.667V500H611.11zm0-55.556h222.222V277.778H611.111v166.666zM388.89 500H222.222v333.333H388.89V500zm-166.667-55.556H388.89V277.778H166.667v166.666h55.555z" fill-rule="nonzero"/><path d="M388.889 222.222h55.555V888.89H388.89V222.222zm166.667 0h55.555V888.89h-55.555V222.222z"/></g></svg>