<?xml version="1.0" encoding="UTF-8"?>
<svg width="1000px" height="1000px" viewBox="0 0 1000 1000" version="1.1" xmlns="http://www.w3.org/2000/svg" xmlns:xlink="http://www.w3.org/1999/xlink">
    <!-- Generator: sketchtool 52.4 (67378) - http://www.bohemiancoding.com/sketch -->
    <title>gift-o</title>
    <desc>Created with sketchtool.</desc>
    <g id="新版图标" stroke="none" stroke-width="1" fill="none" fill-rule="evenodd">
        <g id="gift-o" fill="#323233">
            <g id="圆角-送礼-线">
                <path d="M750,250 L694.444444,250 C694.444444,203.976271 657.13484,166.666667 611.111111,166.666667 C565.087382,166.666667 527.777778,203.976271 527.777778,250 L472.222222,250 C472.222222,173.293785 534.404896,111.111111 611.111111,111.111111 C687.817326,111.111111 750,173.293785 750,250 Z" id="Oval-Copy" fill-rule="nonzero"></path>
                <path d="M527.777778,250 L472.222222,250 C472.222222,203.976271 434.912618,166.666667 388.888889,166.666667 C342.86516,166.666667 305.555556,203.976271 305.555556,250 L250,250 C250,173.293785 312.182674,111.111111 388.888889,111.111111 C465.595104,111.111111 527.777778,173.293785 527.777778,250 Z" id="Oval-Copy" fill-rule="nonzero"></path>
                <rect id="Rectangle-35" x="388.888889" y="222.222222" width="55.5555556" height="666.666667"></rect>
                <rect id="Rectangle-35-Copy" x="555.555556" y="222.222222" width="55.5555556" height="666.666667"></rect>
                <path d="M388.888889,444.444444 L388.888889,277.777778 L166.666667,277.777778 L166.666667,444.444444 L388.888889,444.444444 Z M166.666667,222.222222 L444.444444,222.222222 L444.444444,500 L166.666667,500 C135.984181,500 111.111111,475.126931 111.111111,444.444444 L111.111111,277.777778 C111.111111,247.095292 135.984181,222.222222 166.666667,222.222222 Z" id="Rectangle-14" fill-rule="nonzero"></path>
                <path d="M388.888889,833.333333 L388.888889,500 L222.222222,500 L222.222222,833.333333 L388.888889,833.333333 Z M222.222222,444.444444 L444.444444,444.444444 L444.444444,888.888889 L222.222222,888.888889 C191.539736,888.888889 166.666667,864.015819 166.666667,833.333333 L166.666667,500 C166.666667,469.317514 191.539736,444.444444 222.222222,444.444444 Z" id="Rectangle-14-Copy-2" fill-rule="nonzero"></path>
                <path d="M777.777778,833.333333 L777.777778,500 L611.111111,500 L611.111111,833.333333 L777.777778,833.333333 Z M611.111111,444.444444 L833.333333,444.444444 L833.333333,888.888889 L611.111111,888.888889 C580.428625,888.888889 555.555556,864.015819 555.555556,833.333333 L555.555556,500 C555.555556,469.317514 580.428625,444.444444 611.111111,444.444444 Z" id="Rectangle-14-Copy-3" fill-rule="nonzero" transform="translate(694.444444, 666.666667) scale(-1, 1) translate(-694.444444, -666.666667) "></path>
                <path d="M833.333333,444.444444 L833.333333,277.777778 L611.111111,277.777778 L611.111111,444.444444 L833.333333,444.444444 Z M611.111111,222.222222 L888.888889,222.222222 L888.888889,500 L611.111111,500 C580.428625,500 555.555556,475.126931 555.555556,444.444444 L555.555556,277.777778 C555.555556,247.095292 580.428625,222.222222 611.111111,222.222222 Z" id="Rectangle-14-Copy" fill-rule="nonzero" transform="translate(722.222222, 361.111111) scale(-1, 1) translate(-722.222222, -361.111111) "></path>
                <rect id="Rectangle-10" x="388.888889" y="222.222222" width="222.222222" height="55.5555556"></rect>
                <rect id="Rectangle-15" x="444.444444" y="833.333333" width="111.111111" height="55.5555556"></rect>
            </g>
        </g>
    </g>
</svg>