<svg width="1000" height="1000" xmlns="http://www.w3.org/2000/svg"><g fill="#323233" fill-rule="evenodd"><path d="M750 250h-55.556c0-46.024-37.31-83.333-83.333-83.333-46.024 0-83.333 37.31-83.333 83.333h-55.556c0-76.706 62.183-138.889 138.89-138.889C687.816 111.111 750 173.294 750 250z" fill-rule="nonzero"/><path d="M527.778 250h-55.556c0-46.024-37.31-83.333-83.333-83.333-46.024 0-83.333 37.31-83.333 83.333H250c0-76.706 62.183-138.889 138.889-138.889 76.706 0 138.889 62.183 138.889 138.889z" fill-rule="nonzero"/><path d="M388.889 222.222h55.556v666.667h-55.556zM555.556 222.222h55.556v666.667h-55.556z"/><path d="M388.889 444.444V277.778H166.667v166.666h222.222zM166.667 222.222h277.777V500H166.667c-30.683 0-55.556-24.873-55.556-55.556V277.778c0-30.683 24.873-55.556 55.556-55.556z" fill-rule="nonzero"/><path d="M388.889 833.333V500H222.222v333.333H388.89zM222.222 444.444h222.222V888.89H222.222c-30.682 0-55.555-24.873-55.555-55.556V500c0-30.682 24.873-55.556 55.555-55.556zM611.111 833.333V500h166.667v333.333H611.11zm166.667-388.889H555.556V888.89h222.222c30.682 0 55.555-24.873 55.555-55.556V500c0-30.682-24.873-55.556-55.555-55.556z" fill-rule="nonzero"/><path d="M611.111 444.444V277.778h222.222v166.666H611.111zm222.222-222.222H555.556V500h277.777c30.683 0 55.556-24.873 55.556-55.556V277.778c0-30.683-24.873-55.556-55.556-55.556z" fill-rule="nonzero"/><path d="M388.889 222.222h222.222v55.556H388.889zM444.444 833.333h111.111v55.556H444.444z"/></g></svg>