<?xml version="1.0" encoding="UTF-8"?>
<svg width="1000px" height="1000px" viewBox="0 0 1000 1000" version="1.1" xmlns="http://www.w3.org/2000/svg" xmlns:xlink="http://www.w3.org/1999/xlink">
    <!-- Generator: sketchtool 52.4 (67378) - http://www.bohemiancoding.com/sketch -->
    <title>gift</title>
    <desc>Created with sketchtool.</desc>
    <g id="新版图标" stroke="none" stroke-width="1" fill="none" fill-rule="evenodd">
        <g id="gift" fill="#323233">
            <g id="圆角-送礼-面">
                <g id="Group-2" transform="translate(111.000000, 111.000000)">
                    <path d="M356.471106,111.142857 C345.027937,78.7671546 314.151366,55.5714286 277.857143,55.5714286 C241.56292,55.5714286 210.686349,78.7671546 199.24318,111.142857 L356.471109,111.142857 Z M141.707646,111.142857 C154.579943,47.7291796 210.644669,0 277.857143,0 C323.303428,0 363.653071,21.821319 389,55.5578843 C414.346929,21.821319 454.696572,0 500.142857,0 C567.355331,0 623.420057,47.7291796 636.292354,111.142857 L777,111.142857 C777.552285,111.142857 778,111.590572 778,112.142857 L778,388 C778,388.552285 777.552285,389 777,389 L722.428571,389 L722.428571,777 C722.428571,777.552285 721.980856,778 721.428571,778 L56.5714286,778 C56.0191438,778 55.5714286,777.552285 55.5714286,777 L55.5714286,389 L1,389 C0.44771525,389 -6.76353751e-17,388.552285 0,388 L0,112.142857 C3.14613887e-14,111.590572 0.44771525,111.142857 1,111.142857 L141.707646,111.142857 Z M421.528891,111.142857 L578.756823,111.142857 C567.313651,78.7671546 536.43708,55.5714286 500.142857,55.5714286 C463.848634,55.5714286 432.972063,78.7671546 421.528894,111.142857 Z M333.428571,166.714286 L333.428571,722.428571 L444.571429,722.428571 L444.571429,166.714286 L333.428571,166.714286 Z" id="Combined-Shape"></path>
                </g>
            </g>
        </g>
    </g>
</svg>