<svg width="1000" height="1000" xmlns="http://www.w3.org/2000/svg"><path d="M728.099 333.333c23.982-30.197 30.283-65.538 3.671-98.205-3.76-4.616-8.123-9.017-13.083-13.208-57.461-48.563-119.783-27.752-183.153 36.489a23221.676 23221.676 0 0 0-34.673 35.213c-9.03-9.733-20.987-22.215-36.426-37.867-60.168-60.995-134.593-82.212-185.294-32.282-35.55 35.121-32.85 75.525-8.06 109.86H167.666a1 1 0 0 0-1 1v498a1 1 0 0 0 1 1h664.666a1 1 0 0 0 1-1v-498a1 1 0 0 0-1-1H728.1zm-67.91 0H539.728c8.706-8.866 20.32-20.665 35.357-35.91 45.58-46.207 78.996-57.365 107.742-33.071 2.397 2.025 4.34 3.985 5.87 5.864 7.09 8.703 5.249 17.52-5.547 30.33-4.554 5.405-9.16 9.484-11.645 11.31-7.14 5.246-11.042 13.26-11.316 21.477zm-323.006 0c-.259-7.825-3.808-15.495-10.398-20.773-1.957-1.567-5.789-5.296-9.626-10.35-11.364-14.964-12.35-26 1.095-39.283 22.67-22.326 65.138-10.22 106.63 31.843 16.43 16.656 28.537 29.34 37.055 38.563H337.183zM2 0h996a2 2 0 0 1 2 2v996a2 2 0 0 1-2 2H2a2 2 0 0 1-2-2V2a2 2 0 0 1 2-2zm164.667 666.667h666.666v55.555H166.667v-55.555z" fill="#333" fill-rule="evenodd"/></svg>