<svg width="1000" height="1000" xmlns="http://www.w3.org/2000/svg"><g fill="#323233" fill-rule="nonzero"><path d="M500 888.889c214.777 0 388.889-174.112 388.889-388.889 0-214.777-174.112-388.889-388.889-388.889-214.777 0-388.889 174.112-388.889 388.889 0 214.777 174.112 388.889 388.889 388.889zm0 55.555C254.54 944.444 55.556 745.46 55.556 500S254.54 55.556 500 55.556 944.444 254.54 944.444 500 745.46 944.444 500 944.444z"/><path d="M575.871 416.667h90.796v55.555h-138.89v55.556h138.89v55.555h-138.89v138.89h-55.555v-138.89H333.333v-55.555h138.89v-55.556h-138.89v-55.555h85.137l-71.248-138.89h68.381l68.441 138.89h26.253l68.441-138.89h68.381z"/></g></svg>