<?xml version="1.0" encoding="UTF-8"?>
<svg width="1000px" height="1000px" viewBox="0 0 1000 1000" version="1.1" xmlns="http://www.w3.org/2000/svg" xmlns:xlink="http://www.w3.org/1999/xlink">
    <!-- Generator: sketchtool 52.4 (67378) - http://www.bohemiancoding.com/sketch -->
    <title>gold-coin</title>
    <desc>Created with sketchtool.</desc>
    <g id="新版图标" stroke="none" stroke-width="1" fill="none" fill-rule="evenodd">
        <g id="gold-coin" fill="#323233">
            <g id="直角-支付方式">
                <path d="M444.049623,416.666667 L333.333333,416.666667 L333.333333,472.222222 L472.222222,472.222222 L472.222222,555.555556 L333.333333,555.555556 L333.333333,611.111111 L472.222222,611.111111 L472.222222,750 L527.777778,750 L527.777778,611.111111 L666.666667,611.111111 L666.666667,555.555556 L527.777778,555.555556 L527.777778,472.222222 L666.666667,472.222222 L666.666667,416.666667 L557.924483,416.666667 L657.529661,317.061488 L618.245951,277.777778 L500.987053,395.036676 L383.728155,277.777778 L344.444444,317.061488 L444.049623,416.666667 Z M500,944.444444 C254.540111,944.444444 55.5555556,745.459889 55.5555556,500 C55.5555556,254.540111 254.540111,55.5555556 500,55.5555556 C745.459889,55.5555556 944.444444,254.540111 944.444444,500 C944.444444,745.459889 745.459889,944.444444 500,944.444444 Z" id="Combined-Shape"></path>
            </g>
        </g>
    </g>
</svg>