<svg width="1000" height="1000" xmlns="http://www.w3.org/2000/svg"><g fill="#333" fill-rule="nonzero"><path d="M718.526 833.225l-3.465.108c1.156 0 2.312-.036 3.465-.108zm0 0c-1.153.072-2.309.108-3.465.108l3.465-.108zM749.98 500l-10.72-225.688c-1.83-29.28-26.111-52.09-55.448-52.09H253.472c-29.337 0-53.617 22.81-55.447 52.09l-31.25 500a55.556 55.556 0 0 0-.108 3.466c0 30.682 24.873 55.555 55.555 55.555H500v-55.555H222.222l31.25-500h430.339l10.675 224.858L749.979 500zm0 0l-10.72-225.688c-1.83-29.28-26.111-52.09-55.448-52.09H253.472c-29.337 0-53.617 22.81-55.447 52.09l-31.25 500a55.556 55.556 0 0 0-.108 3.466c0 30.682 24.873 55.555 55.555 55.555H500v-55.555H222.222l31.25-500h430.339l10.675 224.858L749.979 500z"/><path d="M355.903 227.43h-55.556c0-94.923 76.951-171.874 171.875-171.874s171.875 76.95 171.875 171.875h-55.555c0-64.242-52.078-116.32-116.32-116.32-64.241 0-116.32 52.078-116.32 116.32zM500 833.334c-15.341 0-27.778-12.436-27.778-27.777 0-15.342 12.437-27.778 27.778-27.778s27.778 12.436 27.778 27.778c0 15.34-12.437 27.777-27.778 27.777zm222.222-305.555c-15.341 0-27.778-12.437-27.778-27.778s12.437-27.778 27.778-27.778S750 484.66 750 500s-12.437 27.778-27.778 27.778zM860.997 702.43h27.778c0 10.965-2.292 22.106-6.514 33.416-1.64 4.743-3.674 9.489-8.947 18.795 1.406-1.979 1.406-1.979 1.603-2.336-.023.04-.023.04.887-1.628l-.623 1.192c.124-.199.124-.199-.435.93-1.306 2.59-2.598 4.987-3.458 6.24a201.646 201.646 0 0 1-6.382 10.427c-12.522 19.168-29.597 38.916-50.17 59.053-14.38 14.077-29.668 27.564-45.158 40.234-9.203 7.527-26.452 20.89-21.763 17.142-7.402 5.865-16.474 9.036-25.826 9.036-9.27 0-18.264-3.06-25.804-8.99 4.86 3.87-12.567-9.589-21.748-17.079-15.46-12.612-30.703-26.037-45.044-40.066-21.208-20.746-38.687-41.104-51.294-60.89-5.743-9.013-10.44-17.866-14.048-26.72-.249-.632-.249-.632-.398-1.032-5.165-13.031-7.883-25.638-7.883-37.75-.158-2.117-.214-3.482-.214-5.355 0-62.376 48.365-113.716 108.712-113.716 20.736 0 40.776 6.301 57.948 17.725 17.15-11.424 37.201-17.725 57.96-17.725 60.331 0 108.713 51.362 108.713 113.716-.042 2.533-.043 2.63-.133 4.178l.02 1.203h-27.779zm-31.019 14.641c2.269-6.09 3.242-10.817 3.242-14.641h27.777-27.777c.004.266.004.266-.014-2.938.05-.87.05-.87.084-1.42.04-.729.04-.729.043-1.023 0-32.39-24.275-58.16-53.157-58.16-13.857 0-27.34 6.173-37.37 17.22l-20.513 22.593-20.57-22.543c-10.12-11.088-23.627-17.27-37.455-17.27-28.899 0-53.157 25.75-53.157 58.16 0 .104.052 2.363.156 6.779.03-.316.031-.339.053-1.202.006 4.383 1.254 10.17 3.964 16.999.256.67.346.904.397 1.042 2.206 5.344 5.31 11.171 9.27 17.386 9.995 15.685 24.868 33.007 43.291 51.03 13.038 12.754 27.063 25.105 41.314 36.732 3.4 2.774 8.18 6.555 12.402 9.86 4.223-3.317 9.017-7.12 12.446-9.924 14.296-11.694 28.38-24.118 41.47-36.932 17.929-17.55 32.513-34.417 42.521-49.737 1.686-2.58 3.229-5.1 5.42-8.86.267-.412.414-.684 1.238-2.243.507-1.084.507-1.084.993-2.014l.922-1.688a61.703 61.703 0 0 0 3.01-7.206z"/></g></svg>