<svg width="1000" height="1000" xmlns="http://www.w3.org/2000/svg"><path d="M619.096 888.889H222.222c-30.682 0-55.555-24.873-55.555-55.556 0-1.156.036-2.311.108-3.465L199.76 302.09c1.83-29.28 26.11-52.09 55.447-52.09h49.93c15.383-79.143 85.07-138.889 168.712-138.889S627.179 170.857 642.563 250h67.29c29.336 0 53.617 22.81 55.447 52.09l19.407 310.512c-13.349 2.036-26.245 6.12-38.299 12.036-17.895-8.78-37.63-13.527-57.943-13.527-76.07 0-136.49 64.135-136.49 141.494 0 2.297.058 4.075.217 6.128.11 15.612 3.554 31.37 9.816 47.144-.428-1.117-.428-1.117-.206-.52.237.637.237.637.672 1.743 4.33 10.628 9.8 20.939 16.396 31.289 10.692 16.78 24.26 33.585 40.226 50.5zM362.274 250h223.152c-14.22-48.175-58.792-83.333-111.576-83.333-52.784 0-97.356 35.158-111.576 83.333zm517.932 532.324c-1.2 3.47-2.729 7.052-4.674 10.886-.084.11-.24.37-.467.78-.278.503-.505 1.006-.745 1.508-.834 1.597-1.743 3.445-2.968 5.343-32.17 56.446-113.13 116.072-116.59 118.838-2.539 2.011-5.545 3.03-8.576 3.03-3.019 0-5.974-.956-8.5-2.942-4.042-3.219-98.997-72.852-123.664-133.383-.126-.314-.24-.654-.378-1.006-3.903-9.83-5.899-19.033-5.899-27.418 0-.415.025-.78.063-1.182a32.004 32.004 0 0 1-.278-4.173c0-47.407 36.325-85.938 80.935-85.938 22.002 0 42.842 9.743 57.973 26.324 15.056-16.581 35.896-26.324 57.935-26.324 44.598 0 80.935 38.556 80.935 85.938 0 1.571-.113 2.891-.164 3.872.025.415.05.943.05 1.508 0 7.443-1.654 15.388-4.988 24.339z" fill="#323233" fill-rule="evenodd"/></svg>