<svg width="1000" height="1000" xmlns="http://www.w3.org/2000/svg"><path d="M646.143 194.444h118.543a1 1 0 0 1 .998.938l22.604 361.665c-13.349 2.035-26.245 6.12-38.299 12.035-17.895-8.779-37.631-13.526-57.943-13.526-76.07 0-136.49 64.134-136.49 141.493 0 2.298.057 4.075.217 6.128.11 15.613 3.553 31.37 9.61 46.625.236.637.236.637.671 1.743 4.33 10.627 9.801 20.938 16.396 31.288 10.693 16.781 24.26 33.585 40.227 50.5H167.731a1 1 0 0 1-.998-1.062l39.806-636.889a1 1 0 0 1 .998-.938h101.18c15.385-79.143 85.072-138.888 168.714-138.888 83.641 0 153.328 59.745 168.712 138.888zm-57.136 0c-14.22-48.175-58.793-83.333-111.576-83.333-52.784 0-97.356 35.158-111.576 83.333h223.152zm294.78 532.324c-1.2 3.47-2.729 7.053-4.674 10.887-.084.109-.24.369-.467.78-.278.502-.505 1.005-.745 1.508-.834 1.596-1.743 3.444-2.969 5.343-32.169 56.445-113.129 116.071-116.59 118.837-2.538 2.012-5.544 3.03-8.576 3.03-3.018 0-5.974-.956-8.5-2.942-4.042-3.218-98.996-72.851-123.663-133.382-.126-.315-.24-.654-.379-1.006-3.903-9.831-5.898-19.033-5.898-27.418 0-.415.025-.78.063-1.182a32.004 32.004 0 0 1-.278-4.174c0-47.407 36.325-85.938 80.935-85.938 22.002 0 42.842 9.743 57.973 26.325 15.055-16.582 35.895-26.325 57.935-26.325 44.598 0 80.935 38.557 80.935 85.938 0 1.572-.114 2.892-.164 3.872.025.415.05.943.05 1.509 0 7.442-1.654 15.387-4.989 24.338z" fill="#323233" fill-rule="evenodd"/></svg>