<svg width="1000" height="1000" xmlns="http://www.w3.org/2000/svg"><g fill="#323233" fill-rule="nonzero"><path d="M111.111 444.444c-9.984-11.647-8.635-29.184 3.013-39.168l349.72-299.76c20.806-17.833 51.506-17.833 72.311 0l349.721 299.76c11.648 9.984 12.997 27.52 3.013 39.168s-27.52 12.997-39.168 3.013L500 147.697l-349.72 299.76c-11.649 9.984-29.185 8.635-39.169-3.013z"/><path d="M222.222 637.132v140.646h555.556V637.132L500 405.65 222.222 637.132zm-55.555 0a55.556 55.556 0 0 1 19.99-42.679l277.777-231.481c20.603-17.17 50.53-17.17 71.132 0l277.778 231.481a55.556 55.556 0 0 1 19.99 42.679v140.646c0 30.682-24.874 55.555-55.556 55.555H222.222c-30.682 0-55.555-24.873-55.555-55.555V637.132z"/></g></svg>