<?xml version="1.0" encoding="UTF-8"?>
<svg width="1000px" height="1000px" viewBox="0 0 1000 1000" version="1.1" xmlns="http://www.w3.org/2000/svg" xmlns:xlink="http://www.w3.org/1999/xlink">
    <!-- Generator: sketchtool 52.4 (67378) - http://www.bohemiancoding.com/sketch -->
    <title>home-o</title>
    <desc>Created with sketchtool.</desc>
    <g id="新版图标" stroke="none" stroke-width="1" fill="none" fill-rule="evenodd">
        <g id="home-o" fill="#323233" fill-rule="nonzero">
            <g id="圆角-首页">
                <path d="M240.740741,631.791896 L240.740741,792.022792 L759.259259,792.022792 L759.259259,631.796119 L499.969199,426.665803 L240.740741,631.791896 Z M200.521619,580.96491 L459.750078,375.838817 C483.317597,357.189965 516.613465,357.188207 540.182954,375.83457 L799.473014,580.964887 C815.011638,593.257849 824.074074,611.982847 824.074074,631.796119 L824.074074,792.022792 C824.074074,827.819026 795.055493,856.837607 759.259259,856.837607 L240.740741,856.837607 C204.944507,856.837607 175.925926,827.819026 175.925926,792.022792 L175.925926,631.791896 C175.925926,611.981025 184.986176,593.258023 200.521619,580.96491 Z" id="Rectangle-23"></path>
                <path d="M237.605555,213.204052 C219.816947,211.227184 206.998999,195.204099 208.975867,177.415491 C210.952735,159.626883 226.97582,146.808935 244.764428,148.785803 L710.904667,200.588498 C725.939095,202.259291 737.817822,214.108923 739.525479,229.139209 L791.903759,690.157027 C793.924245,707.940734 781.14563,723.995204 763.361923,726.01569 C745.578216,728.036176 729.523746,715.25756 727.50326,697.473854 L678.044243,262.150504 L237.605555,213.204052 Z" id="Rectangle-22" transform="translate(500.444300, 437.405233) rotate(-45.000000) translate(-500.444300, -437.405233) "></path>
            </g>
        </g>
    </g>
</svg>