<svg width="1000" height="1000" xmlns="http://www.w3.org/2000/svg"><g fill="#323233" fill-rule="nonzero"><path d="M240.74 631.792v160.23h518.52V631.797l-259.29-205.13-259.23 205.126zm-40.218-50.827L459.75 375.839c23.568-18.649 56.863-18.65 80.433-.004l259.29 205.13a64.815 64.815 0 0 1 24.601 50.831v160.227c0 35.796-29.019 64.815-64.815 64.815H240.741c-35.796 0-64.815-29.019-64.815-64.815V631.792c0-19.811 9.06-38.534 24.596-50.827z"/><path d="M156.055 464.726c-13.976 11.18-34.37 8.914-45.55-5.062-11.181-13.976-8.915-34.37 5.062-45.55l366.24-292.981c11.813-9.45 28.591-9.47 40.427-.05L885.26 410.035c14.003 11.146 16.32 31.534 5.174 45.538-11.147 14.003-31.535 16.32-45.538 5.174L502.103 187.899 156.055 464.726z"/></g></svg>