<?xml version="1.0" encoding="UTF-8"?>
<svg width="1000px" height="1000px" viewBox="0 0 1000 1000" version="1.1" xmlns="http://www.w3.org/2000/svg" xmlns:xlink="http://www.w3.org/1999/xlink">
    <!-- Generator: sketchtool 52.4 (67378) - http://www.bohemiancoding.com/sketch -->
    <title>home-o</title>
    <desc>Created with sketchtool.</desc>
    <g id="新版图标" stroke="none" stroke-width="1" fill="none" fill-rule="evenodd">
        <g id="home-o" fill="#323233">
            <g id="直角-门店" transform="translate(62.000000, 55.000000)">
                <path d="M299.111111,833.888889 L299.111111,556.111111 C299.111111,525.428625 323.984181,500.555556 354.666667,500.555556 L521.333333,500.555556 C552.015819,500.555556 576.888889,525.428625 576.888889,556.111111 L576.888889,833.888889 L743.555556,833.888889 L743.555556,307.927572 L438.310372,69.4438974 L132.444444,308.41255 L132.444444,833.888889 L299.111111,833.888889 Z M799.111111,351.332329 L799.111111,833.888889 C799.111111,864.571375 774.238042,889.444444 743.555556,889.444444 L132.444444,889.444444 C101.761958,889.444444 76.8888889,864.571375 76.8888889,833.888889 L76.8888889,351.817307 L33.844285,385.447437 L0.427852217,342.676354 L438.211604,0.642200927 L438.252007,0.69391439 L438.336655,0.58557014 L876.120407,342.619723 L842.703974,385.390807 L799.111111,351.332329 Z M354.666667,833.888889 L521.333333,833.888889 L521.333333,556.111111 L354.666667,556.111111 L354.666667,833.888889 Z" id="Combined-Shape"></path>
            </g>
        </g>
    </g>
</svg>