<?xml version="1.0" encoding="UTF-8"?>
<svg width="1000px" height="1000px" viewBox="0 0 1000 1000" version="1.1" xmlns="http://www.w3.org/2000/svg" xmlns:xlink="http://www.w3.org/1999/xlink">
    <!-- Generator: sketchtool 52.4 (67378) - http://www.bohemiancoding.com/sketch -->
    <title>hot-sale-o</title>
    <desc>Created with sketchtool.</desc>
    <g id="新版图标" stroke="none" stroke-width="1" fill="none" fill-rule="evenodd">
        <g id="hot-sale-o" fill="#323233" fill-rule="nonzero">
            <g id="圆角-热卖-线">
                <path d="M470.172438,865.550326 C488.384716,853.960069 511.662185,853.969407 529.865158,865.574273 C562.212532,886.19656 586.377656,892.049656 603.799654,887.381446 C621.221652,882.713236 639.222716,865.561743 656.92522,831.528632 C666.898201,812.355549 687.085079,800.706074 708.675561,801.664462 C746.970958,803.364373 770.813591,796.35413 783.585929,783.581792 C796.358267,770.809454 803.36851,746.96682 801.6686,708.671423 C800.71021,687.080912 812.359718,666.894012 831.532841,656.921045 C865.565886,639.218638 882.717349,621.217605 887.385584,603.795517 C892.053818,586.373428 886.200732,562.208345 865.578454,529.861088 C853.973561,511.658132 853.964189,488.380663 865.55442,470.168368 C886.18149,437.756047 892.040235,413.567602 887.385584,396.196208 C882.730933,378.824814 865.562888,360.806378 831.493162,343.05002 C812.371064,333.084022 800.743103,312.953118 801.664711,291.409526 C803.307959,252.996856 796.284179,229.108182 783.585929,216.409933 C770.88768,203.711683 746.999007,196.687904 708.586336,198.331151 C687.042715,199.252761 666.911788,187.624767 656.945805,168.502629 C639.189544,134.432969 621.17114,117.264954 603.799654,112.610279 C586.428169,107.955603 562.239766,113.814338 529.827562,134.441399 C511.622086,146.027327 488.354473,146.022662 470.153645,134.429434 C437.773852,113.80475 413.59709,107.948835 396.200346,112.610279 C378.803602,117.271722 360.793869,134.431475 343.064488,168.482871 C333.095001,187.630461 312.936127,199.269193 291.369084,198.329226 C253.015019,196.657622 229.149371,203.674632 216.414071,216.409933 C203.67877,229.145233 196.66176,253.010882 198.333364,291.364946 C199.273683,312.940074 187.625943,333.105172 168.467159,343.070679 C134.434114,360.773086 117.282651,378.774119 112.614416,396.196208 C107.946182,413.618297 113.799268,437.78338 134.421546,470.130637 C146.026439,488.333593 146.035811,511.611062 134.44558,529.823357 C113.81851,562.235677 107.959765,586.424122 112.614416,603.795517 C117.269067,621.166911 134.437112,639.185346 168.506838,656.941705 C187.628936,666.907702 199.256897,687.038606 198.335289,708.582198 C196.692041,746.994869 203.715821,770.883542 216.414071,783.581792 C229.11232,796.280041 253.000993,803.303821 291.413664,801.660574 C312.957285,800.738964 333.088212,812.366958 343.054195,831.489095 C360.810456,865.558756 378.82886,882.72677 396.200346,887.381446 C413.571831,892.036121 437.760234,886.177387 470.172438,865.550326 Z M500,912.419679 C455.555311,940.70419 416.162481,950.245627 381.82151,941.043992 C347.480539,931.842356 318.136066,903.882814 293.788092,857.165365 C241.13527,859.417788 202.24936,847.984501 177.130361,822.865502 C152.011362,797.746503 140.578074,758.860592 142.830497,706.207771 C96.1130215,681.859696 68.1534792,652.515224 58.9518705,618.174352 C49.7502618,583.833481 59.2916993,544.440651 87.5761831,499.995862 C59.276812,455.606634 49.7353744,416.213804 58.9518705,381.817372 C68.1683665,347.420941 96.1279089,318.076468 142.830497,293.783954 C140.537474,241.171732 151.970762,202.285822 177.130361,177.126223 C202.28996,151.966624 241.17587,140.533336 293.788092,142.82636 C318.108386,96.1163275 347.452858,68.1567851 381.82151,58.9477328 C416.190161,49.7386804 455.582991,59.2801179 500,87.5720454 C544.444689,59.2875349 583.837519,49.7460973 618.17849,58.9477328 C652.519461,68.1493682 681.863934,96.1089105 706.211908,142.82636 C758.86473,140.573936 797.75064,152.007224 822.869639,177.126223 C847.988638,202.245222 859.421926,241.131132 857.169503,293.783954 C903.886978,318.132028 931.846521,347.476501 941.04813,381.817372 C950.249738,416.158243 940.708301,455.551073 912.423817,499.995862 C940.723188,544.385091 950.264626,583.777921 941.04813,618.174352 C931.831633,652.570784 903.872091,681.915257 857.169503,706.207771 C859.503126,758.779392 848.069838,797.665303 822.869639,822.865502 C797.66944,848.065701 758.78353,859.498988 706.211908,857.165365 C681.919295,903.86798 652.574822,931.827522 618.17849,941.043992 C583.782158,950.260461 544.389328,940.719024 500,912.419679 Z M484.950899,562.309627 C474.683121,564.773293 465.287014,562.977322 456.834472,557.190026 C441.846104,547.402464 428.610017,521.616238 417.538314,480.296077 L410.205107,452.928179 L382.837209,460.261385 C387.189388,478.650439 389.572219,496.129295 389.841915,512.161326 C403.143351,517.799672 416.051949,524.118432 428.979812,531.582337 L419.619837,559.972239 C408.589427,553.15022 397.774701,547.133139 387.24755,542.189309 C383.353929,563.075395 375.109511,581.676353 362.782611,597.920288 L337.161833,584.942562 C349.632521,569.235252 357.143894,551.11829 359.964265,530.51978 C350.941731,526.89825 342.134879,524.081658 333.471816,521.801691 L342.333694,495.845867 C348.562678,497.627736 354.791663,499.409606 360.752335,501.263369 C359.898545,490.564226 358.024135,479.275827 355.469311,467.594592 L328.101412,474.927798 L320.768206,447.559899 L348.136104,440.226693 L339.508803,408.029166 L366.876701,400.695959 L375.504003,432.893487 L430.2398,418.227074 L444.906212,472.962871 C452.455101,501.135708 459.241358,520.022859 465.873504,529.74885 C468.777475,534.147114 470.766086,536.202458 471.839337,535.914881 C473.180901,535.55541 473.444052,531.171248 472.504266,523.370915 C471.368061,515.910789 469.747861,507.717619 467.447248,499.131611 L491.447826,503.916168 C496.43295,527.887159 497.579479,543.97182 494.887411,552.170152 C492.889859,557.594199 489.780529,561.015532 484.950899,562.309627 Z M220.328087,473.034865 L255.208742,463.688621 L247.012805,433.10097 L275.185642,425.552081 L283.381578,456.139733 L312.895979,448.231373 L320.229185,475.599271 L290.714785,483.507631 L299.342086,515.705159 L324.553159,500.32257 L331.742577,527.153843 C323.338886,532.281373 314.863301,537.140589 306.387716,541.999806 L316.165324,578.490337 C321.054128,596.735603 314.912523,608.158849 297.740508,612.760077 L271.982486,619.661918 L258.353563,594.556105 C266.422209,593.544425 274.150648,592.336326 281.126779,590.467078 C285.956408,589.172982 287.776805,585.234288 286.123239,579.063095 L280.012234,556.256513 C268.853521,561.834672 257.963121,567.340936 246.732515,572.650782 L233.050961,548.421801 C246.768276,542.733221 260.073491,536.579909 272.966604,529.961866 L262.541948,491.05652 L227.661293,500.402763 L220.328087,473.034865 Z M288.517777,621.270411 L314.88054,626.284752 C311.025446,649.461129 304.76964,670.11743 296.381434,688.181763 L268.777206,677.46096 C277.596777,661.006504 284.355842,642.228392 288.517777,621.270411 Z M357.949203,611.006042 C367.341532,624.593671 376.288393,639.738546 385.254519,656.028567 L358.879036,670.285274 C350.554797,652.0978 341.804354,636.612718 333.092439,623.417926 L357.949203,611.006042 Z M412.48342,592.367568 C424.309827,606.453295 435.618873,621.827955 446.554345,639.028174 L420.447176,653.212987 C410.225483,634.383628 399.309275,618.328554 387.69855,605.047765 L412.48342,592.367568 Z M461.162225,570.121667 C482.581158,585.663158 499.256458,599.599935 511.796645,612.056521 L492.838983,634.678391 C479.671012,620.952135 462.780029,606.21042 442.166034,590.453247 L461.162225,570.121667 Z M544.544159,479.91144 C566.124761,481.030776 586.526852,484.191354 605.606644,488.856547 L598.617794,509.996844 L642.889394,498.134304 C643.094753,490.314707 642.691592,482.370586 641.483494,474.642147 L629.764742,430.907172 L656.864328,423.64586 L668.583079,467.380835 C670.131385,475.305692 671.071171,483.106025 671.330543,490.513521 L756.117366,467.794961 L763.23489,494.357921 L667.983871,519.880355 C667.341985,521.777808 666.896518,523.335054 666.45105,524.8923 C702.578332,525.564786 736.525745,528.834403 767.953084,534.504732 L758.665003,563.162947 C723.888226,554.6516 689.509447,549.772107 655.18846,548.328049 C640.327383,570.139819 612.117402,591.502343 570.558516,612.415621 L549.134421,592.561862 C591.301826,571.773109 618.208772,553.060346 630.31999,536.011472 L634.444779,528.867127 L536.778946,555.036608 L529.661422,528.473648 L590.836725,512.081775 C572.489977,506.932586 554.450071,504.001793 536.64511,503.021084 L544.544159,479.91144 Z M559.605434,445.967805 C581.166772,445.941996 601.549599,447.957428 620.610126,451.477477 L612.337505,476.41268 C592.112568,471.76675 571.854266,469.142798 551.634491,468.809136 L559.605434,445.967805 Z M506.371487,429.748666 L602.964069,403.866761 L598.147159,385.889808 L521.409719,406.451544 L514.651666,381.230147 L591.389107,360.668412 L586.500302,342.423146 L613.868201,335.08994 L618.757005,353.335206 L693.884569,333.204835 L700.642622,358.426232 L625.515058,378.556602 L630.331968,396.533555 L724.241423,371.370592 L728.914545,388.81092 C729.778658,408.134598 729.229313,427.549435 727.266511,447.055429 L698.958827,446.588302 C701.37742,434.149597 702.487816,420.048385 702.630221,404.481085 L513.201434,455.238375 L506.371487,429.748666 Z" id="Combined-Shape"></path>
            </g>
        </g>
    </g>
</svg>