<svg width="1000" height="1000" xmlns="http://www.w3.org/2000/svg"><path d="M470.172 865.55a55.556 55.556 0 0 1 59.693.024c32.348 20.623 56.513 26.476 73.935 21.807 17.422-4.668 35.423-21.82 53.125-55.852a55.556 55.556 0 0 1 51.75-29.865c38.296 1.7 62.139-5.31 74.91-18.082 12.773-12.773 19.784-36.615 18.084-74.91a55.556 55.556 0 0 1 29.864-51.751c34.033-17.702 51.184-35.703 55.853-53.125 4.668-17.423-1.185-41.588-21.808-73.935a55.556 55.556 0 0 1-.024-59.693c20.627-32.412 26.486-56.6 21.832-73.972-4.655-17.371-21.823-35.39-55.893-53.146a55.556 55.556 0 0 1-29.828-51.64c1.643-38.413-5.38-62.302-18.08-75-12.697-12.698-36.586-19.722-74.999-18.079a55.556 55.556 0 0 1-51.64-29.828c-17.756-34.07-35.775-51.238-53.146-55.893-17.372-4.654-41.56 1.204-73.972 21.831a55.556 55.556 0 0 1-59.674-.012c-32.38-20.624-56.557-26.48-73.954-21.819-17.396 4.662-35.406 21.821-53.136 55.873a55.556 55.556 0 0 1-51.695 29.846c-38.354-1.671-62.22 5.346-74.955 18.08-12.735 12.736-19.752 36.602-18.08 74.956a55.556 55.556 0 0 1-29.867 51.706c-34.033 17.702-51.184 35.703-55.853 53.125-4.668 17.422 1.185 41.587 21.808 73.935a55.556 55.556 0 0 1 .024 59.692c-20.627 32.413-26.486 56.601-21.832 73.973 4.655 17.37 21.823 35.39 55.893 53.146a55.556 55.556 0 0 1 29.828 51.64c-1.643 38.413 5.38 62.302 18.08 75 12.697 12.698 36.586 19.722 74.999 18.079a55.556 55.556 0 0 1 51.64 29.828c17.756 34.07 35.775 51.238 53.146 55.892 17.372 4.655 41.56-1.204 73.972-21.83zM500 912.42c-44.445 28.284-83.838 37.826-118.178 28.624-34.341-9.202-63.686-37.161-88.034-83.879-52.653 2.253-91.539-9.18-116.658-34.3-25.119-25.118-36.552-64.004-34.3-116.657-46.717-24.348-74.677-53.693-83.878-88.034-9.202-34.34.34-73.733 28.624-118.178-28.3-44.39-37.84-83.782-28.624-118.179 9.216-34.396 37.176-63.74 83.878-88.033-2.293-52.612 9.14-91.498 34.3-116.658 25.16-25.16 64.046-36.593 116.658-34.3 24.32-46.71 53.665-74.67 88.034-83.878 34.368-9.21 73.761.332 118.178 28.624 44.445-28.284 83.838-37.826 118.178-28.624 34.341 9.201 63.686 37.16 88.034 83.878 52.653-2.252 91.539 9.181 116.658 34.3 25.119 25.12 36.552 64.005 34.3 116.658 46.717 24.348 74.677 53.693 83.878 88.033 9.202 34.341-.34 73.734-28.624 118.179 28.3 44.39 37.84 83.782 28.624 118.178-9.216 34.397-37.176 63.741-83.878 88.034 2.333 52.571-9.1 91.457-34.3 116.658-25.2 25.2-64.086 36.633-116.658 34.3-24.293 46.702-53.637 74.662-88.034 83.878-34.396 9.216-73.789-.325-118.178-28.624zm-15.05-350.11c-10.267 2.463-19.663.667-28.116-5.12-14.988-9.788-28.224-35.574-39.296-76.894l-7.333-27.368-27.368 7.333c4.352 18.39 6.735 35.868 7.005 51.9 13.301 5.639 26.21 11.957 39.138 19.421l-9.36 28.39c-11.03-6.822-21.845-12.839-32.372-17.783-3.894 20.886-12.138 39.487-24.465 55.731l-25.621-12.977c12.47-15.708 19.982-33.825 22.802-54.423-9.022-3.622-17.83-6.438-26.492-8.718l8.862-25.956c6.229 1.782 12.458 3.564 18.418 5.417-.853-10.699-2.728-21.987-5.283-33.668l-27.368 7.333-7.333-27.368 27.368-7.333-8.627-32.198 27.368-7.333 8.627 32.197 54.736-14.666 14.666 54.736c7.55 28.173 14.335 47.06 20.968 56.786 2.903 4.398 4.892 6.453 5.965 6.166 1.342-.36 1.605-4.744.665-12.544a224.405 224.405 0 0 0-5.057-24.24l24 4.785c4.986 23.971 6.132 40.056 3.44 48.254-1.997 5.424-5.106 8.846-9.936 10.14zm-264.622-89.275l34.88-9.346-8.195-30.588 28.173-7.549 8.196 30.588 29.514-7.909 7.333 27.368-29.514 7.909 8.627 32.197 25.211-15.382 7.19 26.83c-8.404 5.128-16.88 9.988-25.355 14.847l9.777 36.49c4.89 18.246-1.252 29.669-18.424 34.27l-25.759 6.902-13.628-25.106c8.068-1.012 15.797-2.22 22.773-4.089 4.83-1.294 6.65-5.233 4.996-11.404l-6.11-22.806c-11.16 5.578-22.05 11.084-33.28 16.394l-13.682-24.23a542.139 542.139 0 0 0 39.916-18.46l-10.425-38.904-34.88 9.346-7.334-27.368zm68.19 148.235l26.363 5.015c-3.856 23.176-10.111 43.832-18.5 61.897l-27.604-10.721c8.82-16.454 15.579-35.233 19.74-56.19zm69.431-10.264c9.393 13.588 18.34 28.733 27.306 45.023l-26.376 14.256c-8.324-18.187-17.075-33.672-25.787-46.867l24.857-12.412zm54.534-18.638c11.827 14.085 23.136 29.46 34.071 46.66l-26.107 14.185c-10.222-18.83-21.138-34.884-32.748-48.165l24.784-12.68zm48.68-22.246c21.418 15.541 38.093 29.478 50.634 41.935l-18.958 22.621c-13.168-13.726-30.059-28.468-50.673-44.225l18.996-20.331zm83.381-90.21a328.513 328.513 0 0 1 61.063 8.945l-6.99 21.14 44.272-11.863c.206-7.82-.197-15.763-1.406-23.492l-11.718-43.735 27.1-7.261 11.718 43.735c1.548 7.925 2.488 15.725 2.748 23.133l84.786-22.719 7.118 26.563-95.251 25.522c-.642 1.898-1.087 3.455-1.533 5.012 36.127.673 70.075 3.942 101.502 9.613l-9.288 28.658c-34.777-8.511-69.156-13.39-103.477-14.835-14.86 21.812-43.07 43.174-84.63 64.088l-21.424-19.854c42.168-20.789 69.075-39.502 81.186-56.55l4.125-7.145-97.666 26.17-7.118-26.563 61.176-16.392c-18.347-5.15-36.387-8.08-54.192-9.06l7.9-23.11zm15.061-33.944c21.562-.026 41.945 1.99 61.005 5.51l-8.272 24.935c-20.225-4.646-40.484-7.27-60.704-7.604l7.971-22.841zm-53.234-16.22l96.593-25.881-4.817-17.977-76.737 20.562-6.758-25.222 76.737-20.562-4.889-18.245 27.368-7.333 4.889 18.245 75.128-20.13 6.758 25.221-75.128 20.13 4.817 17.978 93.91-25.163 4.673 17.44c.864 19.324.314 38.738-1.648 58.244l-28.308-.467c2.418-12.438 3.529-26.54 3.671-42.107l-189.429 50.757-6.83-25.49z" fill="#323233" fill-rule="nonzero"/></svg>