<svg width="1000" height="1000" xmlns="http://www.w3.org/2000/svg"><path d="M596.068 858.53c-32.048 34.942-64.071 52.412-96.068 52.412-31.998 0-64.02-17.47-96.07-52.412-45.247 14.223-81.716 13.342-109.403-2.644-27.688-15.986-46.686-47.127-56.992-93.425-46.285-10.284-77.427-29.281-93.425-56.992-15.999-27.71-16.88-64.178-2.644-109.404-34.942-31.997-52.412-64.02-52.412-96.069 0-32.048 17.47-64.071 52.412-96.068-14.249-45.204-13.368-81.672 2.644-109.405 16.011-27.732 47.153-46.73 93.425-56.992 10.262-46.271 29.259-77.413 56.992-93.424 27.732-16.012 64.2-16.893 109.404-2.644C435.979 106.52 468.002 89.05 500 89.05c31.997 0 64.02 17.471 96.068 52.413 45.249-14.223 81.717-13.342 109.404 2.644 27.688 15.985 46.686 47.127 56.992 93.424 46.285 10.285 77.427 29.282 93.425 56.992 15.999 27.71 16.88 64.179 2.644 109.405 34.942 31.997 52.412 64.02 52.412 96.068 0 32.05-17.47 64.072-52.412 96.07 14.275 45.158 13.393 81.626-2.644 109.403-16.037 27.778-47.179 46.775-93.425 56.992-10.24 46.259-29.236 77.4-56.991 93.425-27.756 16.024-64.224 16.906-109.405 2.644zM470.813 543.117c4.346-1.165 7.145-4.244 8.943-9.125 2.422-7.379 1.39-21.855-3.096-43.429l-21.6-4.306a201.964 201.964 0 0 1 4.55 21.815c.847 7.02.61 10.966-.598 11.29-.966.259-2.755-1.591-5.369-5.55-5.969-8.753-12.077-25.751-18.87-51.107l-13.2-49.262-49.263 13.2-7.764-28.978-24.631 6.6 7.764 28.977-24.63 6.6 6.6 24.631 24.63-6.6c2.3 10.514 3.987 20.673 4.755 30.303-5.365-1.669-10.97-3.273-16.577-4.876l-7.975 23.36c7.796 2.052 15.722 4.587 23.843 7.846-2.539 18.539-9.299 34.844-20.522 48.98l23.058 11.68c11.094-14.619 18.514-31.36 22.019-50.157 9.474 4.45 19.207 9.865 29.135 16.004l8.424-25.55c-11.635-6.718-23.253-12.405-35.224-17.48-.243-14.428-2.388-30.16-6.305-46.71l24.631-6.6 6.6 24.632c9.965 37.188 21.877 60.396 35.367 69.204 7.607 5.21 16.064 6.825 25.305 4.608zm-238.16-80.347l6.599 24.631 31.393-8.412 9.382 35.015a487.925 487.925 0 0 1-35.924 16.614l12.313 21.806c10.108-4.779 19.91-9.734 29.952-14.755l5.5 20.526c1.488 5.554-.15 9.1-4.497 10.264-6.279 1.682-13.234 2.77-20.496 3.68l12.266 22.595 23.182-6.211c15.455-4.142 20.983-14.422 16.583-30.843l-8.8-32.842c7.628-4.373 15.256-8.746 22.82-13.361l-6.471-24.148-22.69 13.844L296 472.195l26.563-7.117-6.6-24.631-26.563 7.117-7.376-27.529-25.356 6.794 7.377 27.53-31.393 8.41zm61.37 133.412c-3.746 18.862-9.829 35.762-17.767 50.571l24.844 9.65c7.55-16.259 13.18-34.85 16.65-55.708l-23.727-4.513zm62.488-9.238l-22.37 11.17c7.84 11.876 15.715 25.812 23.207 42.181l23.738-12.83c-8.07-14.662-16.122-28.292-24.575-40.521zm49.081-16.775l-22.306 11.412c10.45 11.953 20.274 26.403 29.473 43.35l23.497-12.767c-9.842-15.48-20.02-29.318-30.664-41.995zm43.81-20.021l-17.096 18.298c18.553 14.182 33.755 27.45 45.606 39.803l17.062-20.36c-11.286-11.21-26.294-23.754-45.571-37.741zm75.045-81.19l-7.11 20.8c16.025.882 32.26 3.52 48.773 8.154l-55.058 14.753 6.406 23.906 87.9-23.552-3.713 6.43c-10.9 15.344-35.116 32.185-73.067 50.895l19.282 17.869c37.403-18.822 62.792-38.049 76.166-57.68 30.89 1.3 61.83 5.692 93.13 13.352l8.359-25.792c-28.285-5.104-58.838-8.046-91.352-8.651.4-1.402.802-2.804 1.38-4.511l85.725-22.97-6.405-23.907-76.309 20.447c-.233-6.667-1.079-13.687-2.472-20.82l-10.547-39.361-24.39 6.535 10.547 39.361c1.087 6.956 1.45 14.106 1.265 21.143l-39.844 10.677 6.29-19.027a295.662 295.662 0 0 0-54.956-8.05zm13.555-30.549l-7.174 20.558c18.198.3 36.43 2.662 54.633 6.843l7.445-22.442c-17.154-3.168-35.499-4.982-54.904-4.959zm-47.91-14.597l6.146 22.941 170.486-45.682c-.128 14.011-1.127 26.702-3.304 37.897l25.477.42c1.766-17.555 2.26-35.028 1.483-52.42l-4.206-15.696-84.518 22.647-4.336-16.18 67.615-18.117-6.082-22.7-67.615 18.118-4.4-16.42-24.63 6.6 4.4 16.42-69.065 18.506 6.083 22.699 69.063-18.506 4.336 16.18-86.934 23.293z" fill="#323233" fill-rule="evenodd"/></svg>