<svg width="1000" height="1000" xmlns="http://www.w3.org/2000/svg"><path d="M470.172 865.55a55.556 55.556 0 0 1 59.693.024c32.348 20.623 56.513 26.476 73.935 21.807 17.422-4.668 35.423-21.82 53.125-55.852a55.556 55.556 0 0 1 51.75-29.865c38.296 1.7 62.139-5.31 74.91-18.082 12.773-12.773 19.784-36.615 18.084-74.91a55.556 55.556 0 0 1 29.864-51.751c34.033-17.702 51.184-35.703 55.853-53.125 4.668-17.423-1.185-41.588-21.808-73.935a55.556 55.556 0 0 1-.024-59.693c20.627-32.412 26.486-56.6 21.832-73.972-4.655-17.371-21.823-35.39-55.893-53.146a55.556 55.556 0 0 1-29.828-51.64c1.643-38.413-5.38-62.302-18.08-75-12.697-12.698-36.586-19.722-74.999-18.079a55.556 55.556 0 0 1-51.64-29.828c-17.756-34.07-35.775-51.238-53.146-55.893-17.372-4.654-41.56 1.204-73.972 21.831a55.556 55.556 0 0 1-59.674-.012c-32.38-20.624-56.557-26.48-73.954-21.819-17.396 4.662-35.406 21.821-53.136 55.873a55.556 55.556 0 0 1-51.695 29.846c-38.354-1.671-62.22 5.346-74.955 18.08-12.735 12.736-19.752 36.602-18.08 74.956a55.556 55.556 0 0 1-29.867 51.706c-34.033 17.702-51.184 35.703-55.853 53.125-4.668 17.422 1.185 41.587 21.808 73.935a55.556 55.556 0 0 1 .024 59.692c-20.627 32.413-26.486 56.601-21.832 73.973 4.655 17.37 21.823 35.39 55.893 53.146a55.556 55.556 0 0 1 29.828 51.64c-1.643 38.413 5.38 62.302 18.08 75 12.697 12.698 36.586 19.722 74.999 18.079a55.556 55.556 0 0 1 51.64 29.828c17.756 34.07 35.775 51.238 53.146 55.892 17.372 4.655 41.56-1.204 73.972-21.83zM500 912.42c-44.445 28.284-83.838 37.826-118.178 28.624-34.341-9.202-63.686-37.161-88.034-83.879-52.653 2.253-91.539-9.18-116.658-34.3-25.119-25.118-36.552-64.004-34.3-116.657-46.717-24.348-74.677-53.693-83.878-88.034-9.202-34.34.34-73.733 28.624-118.178-28.3-44.39-37.84-83.782-28.624-118.179 9.216-34.396 37.176-63.74 83.878-88.033-2.293-52.612 9.14-91.498 34.3-116.658 25.16-25.16 64.046-36.593 116.658-34.3 24.32-46.71 53.665-74.67 88.034-83.878 34.368-9.21 73.761.332 118.178 28.624 44.445-28.284 83.838-37.826 118.178-28.624 34.341 9.201 63.686 37.16 88.034 83.878 52.653-2.252 91.539 9.181 116.658 34.3 25.119 25.12 36.552 64.005 34.3 116.658 46.717 24.348 74.677 53.693 83.878 88.033 9.202 34.341-.34 73.734-28.624 118.179 28.3 44.39 37.84 83.782 28.624 118.178-9.216 34.397-37.176 63.741-83.878 88.034 2.333 52.571-9.1 91.457-34.3 116.658-25.2 25.2-64.086 36.633-116.658 34.3-24.293 46.702-53.637 74.662-88.034 83.878-34.396 9.216-73.789-.325-118.178-28.624zM225.28 486.649l31.394-8.412 21.424 79.958 97.13-26.026-21.425-79.957 31.392-8.412 51.333 191.575-31.393 8.412L382.417 559l-97.13 26.026 22.719 84.787-31.393 8.411-51.332-191.575zm270.795-76.585c29.246-7.837 54.837-4.629 76.846 9.892 20.915 13.664 35.363 35.387 43.272 64.901 7.908 29.514 6.185 55.283-5.097 77.573-11.87 23.312-32.43 38.885-61.675 46.722-29.515 7.908-55.178 4.432-76.846-9.893-20.987-13.931-35.095-35.458-42.86-64.436-7.836-29.246-6.382-54.942 4.828-77.501 11.46-23.776 32.018-39.35 61.532-47.258zm7.405 27.636c-19.855 5.32-33.351 16.126-40.757 32.49-7.014 15.682-7.51 34.22-1.615 56.222 5.823 21.733 15.523 37.54 29.438 47.614 14.255 10.272 31.614 12.81 51.47 7.49 19.855-5.32 33.423-15.858 40.777-31.344 7.085-15.415 7.778-34.293 1.739-56.831-6.04-22.539-16.15-38.81-30.066-48.885-14.183-10.003-31.13-12.076-50.986-6.756zm91-49.977l156.962-42.058 7.19 26.83-62.786 16.824 44.143 164.744-31.392 8.412-44.143-164.744-62.785 16.823-7.19-26.831z" fill="#323233" fill-rule="nonzero"/></svg>