<?xml version="1.0" encoding="UTF-8"?>
<svg width="1000px" height="1000px" viewBox="0 0 1000 1000" version="1.1" xmlns="http://www.w3.org/2000/svg" xmlns:xlink="http://www.w3.org/1999/xlink">
    <!-- Generator: sketchtool 52.4 (67378) - http://www.bohemiancoding.com/sketch -->
    <title>hot-sale</title>
    <desc>Created with sketchtool.</desc>
    <g id="新版图标" stroke="none" stroke-width="1" fill="none" fill-rule="evenodd">
        <g id="hot-sale" fill="#323233">
            <g id="圆角-热卖-面">
                <path d="M500,871.177711 C459.99978,896.633771 424.546233,905.221065 393.639359,896.939593 C362.732485,888.658121 336.32246,863.494533 314.409282,821.448828 C267.021743,823.47601 232.024424,813.186051 209.417325,790.578952 C186.810225,767.971852 176.520266,732.974533 178.547448,685.586994 C136.501719,663.673727 111.338131,637.263701 103.056683,606.356917 C94.7752356,575.450133 103.362529,539.996586 128.818565,499.996276 C103.349131,460.04597 94.761837,424.592423 103.056683,393.635635 C111.35153,362.678846 136.515118,336.268821 178.547448,314.405558 C176.483726,267.054559 186.773685,232.05724 209.417325,209.413601 C232.060964,186.769961 267.058283,176.480003 314.409282,178.543724 C336.297547,136.504695 362.707573,111.341107 393.639359,103.052959 C424.571145,94.7648123 460.024692,103.352106 500,128.814841 C540.00022,103.358781 575.453767,94.7714876 606.360641,103.052959 C637.267515,111.334431 663.67754,136.498019 685.590718,178.543724 C732.978257,176.516542 767.975576,186.806501 790.582675,209.413601 C813.189775,232.0207 823.479734,267.018019 821.452552,314.405558 C863.498281,336.318825 888.661869,362.728851 896.943317,393.635635 C905.224764,424.542419 896.637471,459.995966 871.181435,499.996276 C896.650869,539.946582 905.238163,575.400129 896.943317,606.356917 C888.64847,637.313706 863.484882,663.723731 821.452552,685.586994 C823.552813,732.901453 813.262855,767.898772 790.582675,790.578952 C767.902496,813.259131 732.905177,823.54909 685.590718,821.448828 C663.727365,863.481182 637.31734,888.64477 606.360641,896.939593 C575.403942,905.234415 539.950395,896.647121 500,871.177711 Z M460.647208,534.093659 C465.147208,534.093659 468.647208,531.843659 471.647208,527.593659 C475.897208,521.093659 478.647208,506.843659 479.897208,484.843659 L460.147208,475.093659 C460.147208,483.093659 459.647208,490.593659 458.897208,497.343659 C457.897208,504.343659 456.647208,508.093659 455.397208,508.093659 C454.397208,508.093659 453.147208,505.843659 451.647208,501.343659 C448.147208,491.343659 446.647208,473.343659 446.647208,447.093659 L446.647208,396.093659 L395.647208,396.093659 L395.647208,366.093659 L370.147208,366.093659 L370.147208,396.093659 L344.647208,396.093659 L344.647208,421.593659 L370.147208,421.593659 C369.647208,432.343659 368.647208,442.593659 366.897208,452.093659 C362.147208,449.093659 357.147208,446.093659 352.147208,443.093659 L338.397208,463.593659 C345.397208,467.593659 352.397208,472.093659 359.397208,477.343659 C352.147208,494.593659 341.397208,508.593659 326.897208,519.343659 L346.147208,536.593659 C360.647208,525.343659 372.147208,511.093659 380.397208,493.843659 C388.397208,500.593659 396.397208,508.343659 404.397208,516.843659 L419.147208,494.343659 C409.647208,484.843659 399.897208,476.343659 389.647208,468.343659 C393.147208,454.343659 395.147208,438.593659 395.647208,421.593659 L421.147208,421.593659 L421.147208,447.093659 C421.147208,485.593659 426.647208,511.093659 437.397208,523.093659 C443.397208,530.093659 451.147208,533.843659 460.647208,534.093659 Z M251.397208,394.843659 L251.397208,420.343659 L283.897208,420.343659 L283.897208,456.593659 C271.147208,459.343659 258.147208,461.593659 244.897208,463.343659 L251.147208,487.593659 C262.147208,485.593659 272.897208,483.343659 283.897208,481.093659 L283.897208,502.343659 C283.897208,508.093659 281.397208,511.093659 276.897208,511.093659 C270.397208,511.093659 263.397208,510.343659 256.147208,509.343659 L262.147208,534.343659 L286.147208,534.343659 C302.147208,534.343659 310.147208,525.843659 310.147208,508.843659 L310.147208,474.843659 C318.647208,472.593659 327.147208,470.343659 335.647208,467.843659 L335.647208,442.843659 L310.147208,450.343659 L310.147208,420.343659 L337.647208,420.343659 L337.647208,394.843659 L310.147208,394.843659 L310.147208,366.343659 L283.897208,366.343659 L283.897208,394.843659 L251.397208,394.843659 Z M276.147208,539.593659 C267.647208,556.843659 257.397208,571.593659 245.897208,583.843659 L267.397208,599.593659 C278.897208,585.843659 289.147208,569.343659 297.897208,550.093659 L276.147208,539.593659 Z M338.897208,546.843659 L314.397208,551.843659 C318.897208,565.343659 322.897208,580.843659 325.897208,598.593659 L352.147208,592.343659 C348.147208,576.093659 343.897208,560.843659 338.897208,546.843659 Z M390.647208,543.343659 L366.147208,548.593659 C373.147208,562.843659 378.897208,579.343659 383.397208,598.093659 L409.397208,591.843659 C403.897208,574.343659 397.647208,558.343659 390.647208,543.343659 Z M438.147208,535.343659 L416.897208,548.593659 C431.147208,567.093659 442.397208,583.843659 450.647208,598.843659 L472.397208,583.593659 C464.397208,569.843659 453.147208,553.843659 438.147208,535.343659 Z M531.647208,476.343659 L519.397208,494.593659 C534.647208,499.593659 549.647208,506.343659 564.397208,515.093659 L507.397208,515.093659 L507.397208,539.843659 L598.397208,539.843659 L593.147208,545.093659 C578.647208,557.093659 550.897208,567.093659 509.397208,575.343659 L523.397208,597.593659 C564.397208,589.093659 593.897208,577.093659 611.897208,561.593659 C641.397208,570.843659 670.147208,583.093659 698.397208,598.593659 L713.147208,575.843659 C687.147208,563.593659 658.397208,552.843659 627.147208,543.843659 C627.897208,542.593659 628.647208,541.343659 629.647208,539.843659 L718.397208,539.843659 L718.397208,515.093659 L639.397208,515.093659 C640.897208,508.593659 641.897208,501.593659 642.397208,494.343659 L642.397208,453.593659 L617.147208,453.593659 L617.147208,494.343659 C616.397208,501.343659 614.897208,508.343659 612.897208,515.093659 L571.647208,515.093659 L582.647208,498.343659 C567.147208,489.843659 550.147208,482.343659 531.647208,476.343659 Z M552.647208,450.343659 L540.397208,468.343659 C557.897208,473.343659 574.897208,480.343659 591.397208,489.093659 L604.397208,469.343659 C588.647208,461.843659 571.397208,455.343659 552.647208,450.343659 Z M510.147208,423.843659 L510.147208,447.593659 L686.647208,447.593659 C682.897208,461.093659 678.647208,473.093659 673.647208,483.343659 L698.147208,490.343659 C704.397208,473.843659 709.397208,457.093659 713.147208,440.093659 L713.147208,423.843659 L625.647208,423.843659 L625.647208,407.093659 L695.647208,407.093659 L695.647208,383.593659 L625.647208,383.593659 L625.647208,366.593659 L600.147208,366.593659 L600.147208,383.593659 L528.647208,383.593659 L528.647208,407.093659 L600.147208,407.093659 L600.147208,423.843659 L510.147208,423.843659 Z" id="热卖" transform="translate(500.000000, 499.998131) rotate(-15.000000) translate(-500.000000, -499.998131) "></path>
            </g>
        </g>
    </g>
</svg>