<svg width="1000" height="1000" xmlns="http://www.w3.org/2000/svg"><g fill="#323233" fill-rule="evenodd"><path d="M185.915 185.915v185.05L56.936 499.944l128.979 128.978v183.5h183.499l130.53 130.53 130.53-130.53h181.948V630.473l130.53-130.53-130.53-130.529v-183.5h-183.5L499.944 56.937 370.965 185.915h-185.05zm162.038-55.556L462.688 15.624c20.576-20.576 53.936-20.576 74.511 0l114.735 114.735H815.29c29.099 0 52.688 23.589 52.688 52.687v163.356l116.285 116.286c20.576 20.576 20.576 53.936 0 74.511L867.978 653.485V815.29c0 29.099-23.59 52.688-52.688 52.688H653.485L537.199 984.263c-20.575 20.576-53.935 20.576-74.51 0L346.401 867.978H183.046c-29.098 0-52.687-23.59-52.687-52.688V651.934L15.624 537.2c-20.576-20.575-20.576-53.935 0-74.51l114.735-114.736V183.046c0-29.098 23.589-52.687 52.687-52.687h164.907z" fill-rule="nonzero"/><path d="M214.79 611.111V412.272h40.147v78.26h78.668v-78.26h40.147v198.84h-40.147V524.17h-78.668v86.941H214.79zm192.328-98.199c0-20.254 3.03-37.254 9.088-50.998 4.52-10.127 10.692-19.215 18.514-27.262 7.821-8.048 16.389-14.016 25.702-17.904 12.388-5.244 26.675-7.867 42.86-7.867 29.297 0 52.74 9.088 70.326 27.263 17.588 18.175 26.381 43.447 26.381 75.819 0 32.1-8.726 57.215-26.177 75.344-17.452 18.13-40.78 27.195-69.987 27.195-29.568 0-53.078-9.02-70.53-27.059-17.451-18.04-26.177-42.883-26.177-74.53zm41.368-1.356c0 22.515 5.2 39.582 15.598 51.202 10.399 11.619 23.6 17.429 39.605 17.429 16.005 0 29.139-5.765 39.402-17.294 10.263-11.529 15.394-28.822 15.394-51.88 0-22.786-4.996-39.785-14.987-50.998-9.992-11.212-23.261-16.818-39.809-16.818-16.547 0-29.884 5.674-40.012 17.022-10.127 11.348-15.19 28.46-15.19 51.337zm227.594 99.555V445.91h-59.001v-33.637h158.013v33.637h-58.865v165.202H676.08z"/></g></svg>