<svg width="1000" height="1000" xmlns="http://www.w3.org/2000/svg"><path d="M500 912.42c-44.445 28.284-83.838 37.826-118.178 28.624-34.341-9.202-63.686-37.161-88.034-83.879-52.653 2.253-91.539-9.18-116.658-34.3-25.119-25.118-36.552-64.004-34.3-116.657-46.717-24.348-74.677-53.693-83.878-88.034-9.202-34.34.34-73.733 28.624-118.178-28.3-44.39-37.84-83.782-28.624-118.179 9.216-34.396 37.176-63.74 83.878-88.033-2.293-52.612 9.14-91.498 34.3-116.658 25.16-25.16 64.046-36.593 116.658-34.3 24.32-46.71 53.665-74.67 88.034-83.878 34.368-9.21 73.761.332 118.178 28.624 44.445-28.284 83.838-37.826 118.178-28.624 34.341 9.201 63.686 37.16 88.034 83.878 52.653-2.252 91.539 9.181 116.658 34.3 25.119 25.12 36.552 64.005 34.3 116.658 46.717 24.348 74.677 53.693 83.878 88.033 9.202 34.341-.34 73.734-28.624 118.179 28.3 44.39 37.84 83.782 28.624 118.178-9.216 34.397-37.176 63.741-83.878 88.034 2.333 52.571-9.1 91.457-34.3 116.658-25.2 25.2-64.086 36.633-116.658 34.3-24.293 46.702-53.637 74.662-88.034 83.878-34.396 9.216-73.789-.325-118.178-28.624zM225.28 486.649l51.333 191.575 31.393-8.411-22.719-84.787L382.417 559l22.718 84.787 31.393-8.412L385.195 443.8l-31.392 8.412 21.424 79.957-97.129 26.026-21.424-79.958-31.393 8.412zm270.795-76.585c-29.514 7.908-50.073 23.482-61.532 47.258-11.21 22.559-12.664 48.255-4.828 77.501 7.765 28.978 21.873 50.505 42.86 64.436 21.668 14.325 47.331 17.801 76.846 9.893 29.246-7.837 49.804-23.41 61.675-46.722 11.282-22.29 13.005-48.059 5.097-77.573-7.909-29.514-22.357-51.237-43.272-64.9-22.009-14.522-47.6-17.73-76.846-9.893zm7.405 27.636c19.855-5.32 36.803-3.247 50.986 6.756 13.915 10.076 24.027 26.346 30.066 48.885 6.039 22.538 5.346 41.416-1.74 56.83-7.353 15.487-20.921 26.025-40.776 31.345-19.856 5.32-37.215 2.782-51.47-7.49-13.915-10.075-23.615-25.88-29.438-47.614-5.895-22.002-5.399-40.54 1.615-56.223 7.406-16.363 20.902-27.169 40.757-32.489zm91-49.977l7.189 26.83 62.785-16.822 44.143 164.744 31.392-8.412-44.143-164.744 62.786-16.823-7.19-26.831-156.963 42.058z" fill="#323233" fill-rule="nonzero"/></svg>