<svg width="1000" height="1000" xmlns="http://www.w3.org/2000/svg"><path d="M347.953 130.359L462.688 15.624c20.576-20.576 53.936-20.576 74.511 0l114.735 114.735H815.29c29.099 0 52.688 23.589 52.688 52.687v163.356l116.285 116.286c20.576 20.576 20.576 53.936 0 74.511L867.978 653.485V815.29c0 29.099-23.59 52.688-52.688 52.688H653.485L537.199 984.263c-20.575 20.576-53.935 20.576-74.51 0L346.401 867.978H183.046c-29.098 0-52.687-23.59-52.687-52.688V651.934L15.624 537.2c-20.576-20.575-20.576-53.935 0-74.51l114.735-114.736V183.046c0-29.098 23.589-52.687 52.687-52.687h164.907zm-178.547 256.33V611.55h64.779v-90.957h70.784v90.957h65.064V386.688h-65.064v78.687h-70.784v-78.687h-64.779zm235.518 112.584c0 26.28 4.815 48.162 14.443 65.648 9.629 17.486 22.189 30.268 37.68 38.346 15.492 8.079 35.058 12.118 58.7 12.118 23.262 0 42.686-4.679 58.273-14.035 15.587-9.357 27.503-22.445 35.75-39.267 8.246-16.82 12.369-38.371 12.369-64.651 0-36.199-9.438-64.345-28.314-84.438-18.876-20.094-45.76-30.14-80.651-30.14-34.034 0-60.583 10.225-79.65 30.677-19.067 20.45-28.6 49.031-28.6 85.742zm64.779.306c0-22.905 3.956-39.317 11.868-49.236 7.913-9.92 18.4-14.878 31.46-14.878 13.633 0 24.429 4.882 32.39 14.648 7.96 9.765 11.94 25.231 11.94 46.399 0 25.155-3.814 42.59-11.44 52.304-7.627 9.714-18.4 14.571-32.318 14.571-13.537 0-24.238-4.96-32.103-14.878-7.865-9.919-11.797-26.229-11.797-48.93zm165.02-112.89v55.524h66.065V611.55h64.778V442.213h66.065v-55.525H634.722z" fill="#323233" fill-rule="evenodd"/></svg>