<?xml version="1.0" encoding="UTF-8"?>
<svg width="1000px" height="1000px" viewBox="0 0 1000 1000" version="1.1" xmlns="http://www.w3.org/2000/svg" xmlns:xlink="http://www.w3.org/1999/xlink">
    <!-- Generator: sketchtool 52.4 (67378) - http://www.bohemiancoding.com/sketch -->
    <title>hot</title>
    <desc>Created with sketchtool.</desc>
    <g id="新版图标" stroke="none" stroke-width="1" fill="none" fill-rule="evenodd">
        <g id="hot" fill="#323233" fill-rule="nonzero">
            <g id="圆角-hot1-线" transform="translate(55.000000, 55.000000)">
                <path d="M445,857.419679 C400.555311,885.70419 361.162481,895.245627 326.82151,886.043992 C292.480539,876.842356 263.136066,848.882814 238.788092,802.165365 C186.13527,804.417788 147.24936,792.984501 122.130361,767.865502 C97.0113615,742.746503 85.5780738,703.860592 87.8304975,651.207771 C41.1130215,626.859696 13.1534792,597.515224 3.95187048,563.174352 C-5.24973823,528.833481 4.29169932,489.440651 32.5761831,444.995862 C4.27681196,400.606634 -5.26462559,361.213804 3.95187048,326.817372 C13.1683665,292.420941 41.1279089,263.076468 87.8304975,238.783954 C85.5374739,186.171732 96.9707616,147.285822 122.130361,122.126223 C147.28996,96.9666239 186.17587,85.5333362 238.788092,87.8263597 C263.108386,41.1163275 292.452858,13.1567851 326.82151,3.94773275 C361.190161,-5.26131964 400.582991,4.28011791 445,32.5720454 C489.444689,4.28753486 528.837519,-5.25390269 563.17849,3.94773275 C597.519461,13.1493682 626.863934,41.1089105 651.211908,87.8263597 C703.86473,85.5739361 742.75064,97.0072238 767.869639,122.126223 C792.988638,147.245222 804.421926,186.131132 802.169503,238.783954 C848.886978,263.132028 876.846521,292.476501 886.04813,326.817372 C895.249738,361.158243 885.708301,400.551073 857.423817,444.995862 C885.723188,489.385091 895.264626,528.777921 886.04813,563.174352 C876.831633,597.570784 848.872091,626.915257 802.169503,651.207771 C804.503126,703.779392 793.069838,742.665303 767.869639,767.865502 C742.66944,793.065701 703.78353,804.498988 651.211908,802.165365 C626.919295,848.86798 597.574822,876.827522 563.17849,886.043992 C528.782158,895.260461 489.389328,885.719024 445,857.419679 Z M170.280925,431.649043 L221.613368,623.224332 L253.005958,614.812713 L230.287397,530.02589 L327.416605,504.000197 L350.135166,588.78702 L381.527755,580.375401 L330.195311,388.800112 L298.802722,397.211731 L320.227187,477.168924 L223.097979,503.194617 L201.673514,423.237424 L170.280925,431.649043 Z M441.075201,355.063861 C411.560801,362.972221 391.002202,378.546066 379.543194,402.322021 C368.333234,424.880938 366.878853,450.577389 374.715318,479.823477 C382.47989,508.801251 396.587647,530.32784 417.575215,544.259455 C439.243196,558.583907 464.906282,562.060266 494.420682,554.151906 C523.666769,546.315441 544.225368,530.741596 556.096477,507.430371 C567.378331,485.139768 569.101025,459.371422 561.192665,429.857022 C553.284306,400.342622 538.836342,378.619614 517.920668,364.956312 C495.912479,350.435442 470.321288,347.227395 441.075201,355.063861 Z M448.480301,382.700072 C468.335443,377.379903 485.282835,379.453127 499.466265,389.456371 C513.381382,399.531509 523.492652,415.802266 529.531763,438.340535 C535.570874,460.878804 534.877741,479.757015 527.792571,495.171587 C520.439089,510.658052 506.870723,521.195526 487.015581,526.515695 C467.160439,531.835864 449.800947,529.297909 435.545623,519.026352 C421.630506,508.951214 411.931336,493.145189 406.107908,471.411858 C400.212585,449.410214 400.709299,430.87221 407.722575,415.189326 C415.128688,398.826028 428.625159,388.020241 448.480301,382.700072 Z M539.47924,332.722652 L546.668658,359.553925 L609.453837,342.730687 L653.596863,507.474703 L684.989452,499.063084 L640.846426,334.319068 L703.631605,317.49583 L696.442187,290.664557 L539.47924,332.722652 Z" id="Star"></path>
            </g>
        </g>
    </g>
</svg>