<?xml version="1.0" encoding="UTF-8"?>
<svg width="1000px" height="1000px" viewBox="0 0 1000 1000" version="1.1" xmlns="http://www.w3.org/2000/svg" xmlns:xlink="http://www.w3.org/1999/xlink">
    <!-- Generator: sketchtool 52.4 (67378) - http://www.bohemiancoding.com/sketch -->
    <title>hotel-o</title>
    <desc>Created with sketchtool.</desc>
    <g id="新版图标" stroke="none" stroke-width="1" fill="none" fill-rule="evenodd">
        <g id="hotel-o" fill="#323233" fill-rule="nonzero">
            <g id="直角-酒店" transform="translate(111.000000, 111.000000)">
                <path d="M55.6666667,277.888889 L55.6666667,722.333333 L222.333333,722.333333 L222.333333,277.888889 L55.6666667,277.888889 Z M55.6666667,222.333333 L222.333333,222.333333 C253.015819,222.333333 277.888889,247.206403 277.888889,277.888889 L277.888889,722.333333 C277.888889,753.015819 253.015819,777.888889 222.333333,777.888889 L55.6666667,777.888889 C24.9841806,777.888889 0.111111111,753.015819 0.111111111,722.333333 L0.111111111,277.888889 C0.111111111,247.206403 24.9841806,222.333333 55.6666667,222.333333 Z" id="Rectangle-11"></path>
                <path d="M389,55.6666667 L389,722.333333 L722.333333,722.333333 L722.333333,55.6666667 L389,55.6666667 Z M389,0.111111111 L722.333333,0.111111111 C753.015819,0.111111111 777.888889,24.9841806 777.888889,55.6666667 L777.888889,722.333333 C777.888889,753.015819 753.015819,777.888889 722.333333,777.888889 L389,777.888889 C358.317514,777.888889 333.444444,753.015819 333.444444,722.333333 L333.444444,55.6666667 C333.444444,24.9841806 358.317514,0.111111111 389,0.111111111 Z" id="Rectangle-11-Copy"></path>
                <polygon id="Path-29" points="472.333333 139 527.888889 139 527.888889 230.25332 472.333333 230.25332"></polygon>
                <polygon id="Path-29-Copy-3" points="583.444444 250.111111 639 250.111111 639 341.364431 583.444444 341.364431"></polygon>
                <polygon id="Path-29-Copy" points="472.333333 361.222222 527.888889 361.222222 527.888889 452.475542 472.333333 452.475542"></polygon>
                <polygon id="Path-29-Copy-4" points="583.444444 472.333333 639 472.333333 639 563.586653 583.444444 563.586653"></polygon>
            </g>
        </g>
    </g>
</svg>