<svg width="1000" height="1000" xmlns="http://www.w3.org/2000/svg"><g fill="#323233" fill-rule="nonzero"><path d="M166.667 388.889v444.444h166.666V388.89H166.667zm0-55.556h166.666c30.683 0 55.556 24.873 55.556 55.556v444.444c0 30.683-24.873 55.556-55.556 55.556H166.667c-30.683 0-55.556-24.873-55.556-55.556V388.89c0-30.683 24.873-55.556 55.556-55.556zM500 166.667v666.666h333.333V166.667H500zm0-55.556h333.333c30.683 0 55.556 24.873 55.556 55.556v666.666c0 30.683-24.873 55.556-55.556 55.556H500c-30.682 0-55.556-24.873-55.556-55.556V166.667c0-30.683 24.874-55.556 55.556-55.556z"/><path d="M583.333 250h55.556v91.253h-55.556zM694.444 361.111H750v91.253h-55.556zM583.333 472.222h55.556v91.254h-55.556zM694.444 583.333H750v91.254h-55.556z"/></g></svg>