<svg width="1000" height="1000" xmlns="http://www.w3.org/2000/svg"><g fill="#333" fill-rule="evenodd"><path d="M71.429 142.417v714.166H928.57V142.417H71.43zm0-71.417H928.57c39.45 0 71.429 31.974 71.429 71.417v714.166c0 39.443-31.98 71.417-71.429 71.417H71.43C31.979 928 0 896.026 0 856.583V142.417C0 102.974 31.98 71 71.429 71z" fill-rule="nonzero"/><path d="M178.5 571h643c19.606 0 35.5 15.894 35.5 35.5S841.106 642 821.5 642h-643c-19.606 0-35.5-15.894-35.5-35.5s15.894-35.5 35.5-35.5zm0-214h358c19.606 0 35.5 15.894 35.5 35.5S556.106 428 536.5 428h-358c-19.606 0-35.5-15.894-35.5-35.5s15.894-35.5 35.5-35.5z"/></g></svg>