<svg width="1000" height="1000" xmlns="http://www.w3.org/2000/svg"><path d="M888.889 166.667c30.667 0 55.555 24.889 55.555 55.555v555.556c0 30.722-24.888 55.555-55.555 55.555H111.11c-30.667 0-55.555-24.833-55.555-55.555V222.222c0-30.666 24.888-55.555 55.555-55.555H888.89zM111.11 277.777H888.89v-55.555H111.11v55.556zm0 500H888.89V333.334H111.11v444.445zm194.445-166.666h388.888c15.342 0 27.778 12.437 27.778 27.778s-12.436 27.778-27.778 27.778H305.556c-15.342 0-27.778-12.437-27.778-27.778s12.436-27.778 27.778-27.778z" fill="#323233" fill-rule="evenodd"/></svg>