<?xml version="1.0" encoding="UTF-8"?>
<svg width="1000px" height="1000px" viewBox="0 0 1000 1000" version="1.1" xmlns="http://www.w3.org/2000/svg" xmlns:xlink="http://www.w3.org/1999/xlink">
    <!-- Generator: sketchtool 52.4 (67378) - http://www.bohemiancoding.com/sketch -->
    <title>info-o</title>
    <desc>Created with sketchtool.</desc>
    <g id="新版图标" stroke="none" stroke-width="1" fill="none" fill-rule="evenodd">
        <g id="info-o" fill="#323233" fill-rule="nonzero">
            <g id="直角-警告提示-线" transform="translate(55.000000, 55.000000)">
                <path d="M445,833.888889 C659.777403,833.888889 833.888889,659.777403 833.888889,445 C833.888889,230.222597 659.777403,56.1111111 445,56.1111111 C230.222597,56.1111111 56.1111111,230.222597 56.1111111,445 C56.1111111,659.777403 230.222597,833.888889 445,833.888889 Z M445,889.444444 C199.540111,889.444444 0.555555556,690.459889 0.555555556,445 C0.555555556,199.540111 199.540111,0.555555556 445,0.555555556 C690.459889,0.555555556 889.444444,199.540111 889.444444,445 C889.444444,690.459889 690.459889,889.444444 445,889.444444 Z" id="Oval-7"></path>
                <polygon id="Rectangle-27" points="403.333333 222.777778 486.666667 222.777778 472.777778 556.111111 417.222222 556.111111"></polygon>
                <circle id="Oval" cx="445" cy="653.333333" r="41.6666667"></circle>
            </g>
        </g>
    </g>
</svg>