<?xml version="1.0" encoding="UTF-8"?>
<svg width="1000px" height="1000px" viewBox="0 0 1000 1000" version="1.1" xmlns="http://www.w3.org/2000/svg" xmlns:xlink="http://www.w3.org/1999/xlink">
    <!-- Generator: sketchtool 52.4 (67378) - http://www.bohemiancoding.com/sketch -->
    <title>info</title>
    <desc>Created with sketchtool.</desc>
    <g id="新版图标" stroke="none" stroke-width="1" fill="none" fill-rule="evenodd">
        <g id="info" fill="#323233">
            <g id="直角-详细信息-面" transform="translate(55.000000, 55.000000)">
                <path d="M445,889.444444 C199.540111,889.444444 0.555555556,690.459889 0.555555556,445 C0.555555556,199.540111 199.540111,0.555555556 445,0.555555556 C690.459889,0.555555556 889.444444,199.540111 889.444444,445 C889.444444,690.459889 690.459889,889.444444 445,889.444444 Z M445,278.333333 C468.011865,278.333333 486.666667,259.678531 486.666667,236.666667 C486.666667,213.654802 468.011865,195 445,195 C421.988135,195 403.333333,213.654802 403.333333,236.666667 C403.333333,259.678531 421.988135,278.333333 445,278.333333 Z M472.777778,639.444444 L472.777778,333.888889 L375.555556,333.888889 L375.555556,389.444444 L417.222222,389.444444 L417.222222,639.444444 L361.666667,639.444444 L361.666667,695 L528.333333,695 L528.333333,639.444444 L472.777778,639.444444 Z" id="Combined-Shape"></path>
            </g>
        </g>
    </g>
</svg>