<svg width="1000" height="1000" xmlns="http://www.w3.org/2000/svg"><path d="M297.009 456.832l187.747 143.595h22.116l196.12-146.151V217.949c0-12.981-10.524-23.505-23.505-23.505H320.513c-12.981 0-23.504 10.524-23.504 23.505v238.883zm535.234-98.877l1.09-.812v428.571c0 26.3-21.32 47.62-47.619 47.62H214.286c-26.3 0-47.62-21.32-47.62-47.62V357.143l1.087.83c4.654-21.418 23.72-37.46 46.533-37.46h54.945V217.949c0-28.323 22.96-51.282 51.282-51.282h358.974c28.322 0 51.282 22.96 51.282 51.282v102.564h54.945c22.807 0 41.868 16.033 46.53 37.442zm-229.679-27.117c0 1.122-.082 2.065-.123 2.767.02.3.041.681.041 1.083 0 5.333-1.226 11.03-3.68 17.446-.899 2.488-2.023 5.054-3.454 7.802-.102.12-.184.26-.266.401l-.082.16c-.204.361-.367.722-.552 1.083-.612 1.144-1.287 2.466-2.187 3.83-23.752 40.47-83.543 83.206-86.098 85.19a10.34 10.34 0 0 1-6.337 2.167c-2.228 0-4.415-.682-6.275-2.106-2.985-2.307-73.099-52.221-91.311-95.618-.103-.22-.185-.462-.287-.722-2.882-7.04-4.353-13.637-4.353-19.654 0-.3.02-.56.04-.842a23.868 23.868 0 0 1-.204-2.987c0-33.993 26.82-61.607 59.77-61.607 16.25 0 31.644 6.979 42.804 18.871 11.12-11.892 26.512-18.871 42.783-18.871 32.932 0 59.771 27.634 59.771 61.607z" fill="#323233" fill-rule="evenodd"/></svg>