<svg width="668" height="890" xmlns="http://www.w3.org/2000/svg"><path d="M472.633 278.333H194.856c-15.334 0-27.778-12.444-27.778-27.777 0-15.334 12.444-27.778 27.778-27.778h277.777c15.334 0 27.778 12.444 27.778 27.778 0 15.333-12.444 27.777-27.778 27.777m0 166.667H194.856c-15.334 0-27.778-12.444-27.778-27.778 0-15.333 12.444-27.778 27.778-27.778h277.777c15.334 0 27.778 12.445 27.778 27.778 0 15.334-12.444 27.778-27.778 27.778M611.523.556H55.966C25.244.556.41 25.389.41 56.11v805.5c0 20.667 21.778 34.111 40.222 24.833l268.278-134.11c15.611-7.778 34.056-7.778 49.667 0l268.278 134.11c18.444 9.278 40.222-4.166 40.222-24.833v-805.5c0-30.722-24.834-55.555-55.556-55.555" fill="#323233" fill-rule="evenodd"/></svg>