<?xml version="1.0" encoding="UTF-8"?>
<svg width="1000px" height="1000px" viewBox="0 0 1000 1000" version="1.1" xmlns="http://www.w3.org/2000/svg" xmlns:xlink="http://www.w3.org/1999/xlink">
    <!-- Generator: sketchtool 52.4 (67378) - http://www.bohemiancoding.com/sketch -->
    <title>location-o</title>
    <desc>Created with sketchtool.</desc>
    <g id="新版图标" stroke="none" stroke-width="1" fill="none" fill-rule="evenodd">
        <g id="location-o" fill="#323233" fill-rule="nonzero">
            <g id="圆角-其他分店-线">
                <g transform="translate(111.111111, 0.000000)" id="Group-3">
                    <g>
                        <g id="Group-4">
                            <path d="M101.611792,621.305257 C101.068561,620.669331 100.537494,619.999157 100.019834,619.293883 C53.394847,555.770742 27.7777778,478.544995 27.7777778,397.435897 C27.7777778,193.434548 189.293129,27.7777778 388.888889,27.7777778 C588.484649,27.7777778 750,193.434548 750,397.435897 C750,478.544995 724.382931,555.770742 677.757944,619.293883 C677.240281,619.99916 676.709213,620.669337 676.165977,621.305269 L463.358551,894.135302 C431.278353,935.26376 371.931011,942.598825 330.802552,910.518627 C324.689731,905.750627 319.187227,900.248122 314.419227,894.135302 L101.611792,621.305257 Z M633.495117,585.681932 C633.589961,585.557489 633.684564,585.43572 633.780014,585.314932 C672.938368,531.47712 694.444444,466.17607 694.444444,397.435897 C694.444444,223.806649 557.482962,83.3333333 388.888889,83.3333333 C220.294816,83.3333333 83.3333333,223.806649 83.3333333,397.435897 C83.3333333,466.17607 104.83941,531.47712 143.997764,585.314932 C144.096618,585.440027 144.194563,585.566175 144.291584,585.693373 L358.22491,859.966868 C360.188205,862.483912 362.453942,864.749649 364.970986,866.712944 C381.906233,879.922437 406.343374,876.902116 419.552867,859.966868 L633.495117,585.681932 Z" id="Combined-Shape"></path>
                        </g>
                        <path d="M388.888889,561.965812 C299.750079,561.965812 227.777778,488.148067 227.777778,397.435897 C227.777778,306.723728 299.750079,232.905983 388.888889,232.905983 C478.027699,232.905983 550,306.723728 550,397.435897 C550,488.148067 478.027699,561.965812 388.888889,561.965812 Z M388.888889,506.410256 C447.026012,506.410256 494.444444,457.775967 494.444444,397.435897 C494.444444,337.095828 447.026012,288.461538 388.888889,288.461538 C330.751766,288.461538 283.333333,337.095828 283.333333,397.435897 C283.333333,457.775967 330.751766,506.410256 388.888889,506.410256 Z" id="Oval-5"></path>
                    </g>
                </g>
            </g>
        </g>
    </g>
</svg>