<svg width="1000" height="1000" xmlns="http://www.w3.org/2000/svg"><path d="M460.263 927.81l.001-.001.349.358c21.206 21.79 56.061 22.264 77.851 1.058.337-.328.67-.66.998-.996C735.055 727.876 832.833 545.64 832.833 381.537c0-179.756-149.012-325.481-332.833-325.481-183.821 0-332.833 145.725-332.833 325.481 0 163.286 97.686 345.382 293.096 546.273zM500 500.5c-61.641 0-111.611-49.97-111.611-111.611 0-61.641 49.97-111.611 111.611-111.611 61.641 0 111.611 49.97 111.611 111.61 0 61.642-49.97 111.612-111.611 111.612z" fill="#323233" stroke="#323233" fill-rule="evenodd"/></svg>