<svg width="1000" height="1000" xmlns="http://www.w3.org/2000/svg" xmlns:xlink="http://www.w3.org/1999/xlink"><defs><path d="M778.114 380.983c0-149.072-124.092-270.427-277.779-270.427s-277.78 121.355-277.78 270.427c0 146.484 91.26 316.508 277.846 508.235 186.503-191.041 277.713-361.035 277.713-508.235zm-237.96 547.044c-.33.34-.666.674-1.006 1.005-21.988 21.399-57.16 20.921-78.559-1.067C264.863 726.848 167 544.52 167 380.983 167 200.948 316.24 55 500.335 55 684.431 55 833.67 200.948 833.67 380.983c0 164.257-97.838 346.605-293.515 547.044zm-39.819-373.024c-76.707 0-138.89-62.183-138.89-138.89s62.183-138.89 138.89-138.89 138.89 62.183 138.89 138.89-62.183 138.89-138.89 138.89zm0-55.556c46.024 0 83.334-37.31 83.334-83.334s-37.31-83.334-83.334-83.334-83.334 37.31-83.334 83.334 37.31 83.334 83.334 83.334z" id="a"/></defs><g fill="none" fill-rule="evenodd"><use fill="#323233" fill-rule="nonzero" xlink:href="#a"/></g></svg>