<svg width="1000" height="1000" xmlns="http://www.w3.org/2000/svg"><g fill="#323233" fill-rule="nonzero"><path d="M212.723 621.305a34.773 34.773 0 0 1-1.592-2.011c-46.625-63.523-72.242-140.749-72.242-221.858 0-204.001 161.515-369.658 361.111-369.658s361.111 165.657 361.111 369.658c0 81.109-25.617 158.335-72.242 221.858a34.774 34.774 0 0 1-1.592 2.011L574.47 894.135c-32.08 41.129-91.428 48.464-132.556 16.384a94.444 94.444 0 0 1-16.384-16.384l-212.807-272.83zm531.883-35.623c.095-.125.19-.246.285-.367 39.158-53.838 60.665-119.139 60.665-187.88 0-173.628-136.962-314.102-305.556-314.102S194.444 223.807 194.444 397.436c0 68.74 21.507 134.041 60.665 187.879.099.125.197.251.294.378l213.933 274.274a38.889 38.889 0 0 0 6.746 6.746c16.935 13.21 41.372 10.19 54.582-6.746l213.942-274.285z"/><path d="M500 561.966c-89.139 0-161.111-73.818-161.111-164.53S410.86 232.906 500 232.906s161.111 73.818 161.111 164.53S589.14 561.966 500 561.966zm0-55.556c58.137 0 105.556-48.634 105.556-108.974S558.137 288.462 500 288.462s-105.556 48.634-105.556 108.974S441.863 506.41 500 506.41z"/></g></svg>