<svg width="1000" height="1000" xmlns="http://www.w3.org/2000/svg"><path d="M388.889 555.556L500 666.666l111.111-111.11h55.33a1 1 0 0 1 .43.097L888.32 661.344a1 1 0 0 1 .569.903v281.197a1 1 0 0 1-1 1H112.11a1 1 0 0 1-1-1V662.247a1 1 0 0 1 .57-.903l221.448-105.69a1 1 0 0 1 .43-.098h55.33zM500 500c-122.73 0-222.222-99.492-222.222-222.222S377.27 55.556 500 55.556s222.222 99.492 222.222 222.222S622.73 500 500 500zm111.111 222.222v55.556h166.667v-55.556H611.11z" fill="#323233" fill-rule="evenodd"/></svg>