<svg width="1000" height="1000" xmlns="http://www.w3.org/2000/svg"><path d="M142.737 646.522l179.245-85.549a55.556 55.556 0 0 1 23.93-5.417h308.177c8.28 0 16.456 1.85 23.93 5.417l179.244 85.549a55.556 55.556 0 0 1 31.626 50.138v192.229c0 30.682-24.873 55.555-55.556 55.555H166.667c-30.683 0-55.556-24.873-55.556-55.555v-192.23a55.556 55.556 0 0 1 31.626-50.137zm412.819 75.7v55.556h166.666v-55.556H555.556zM500 500c-122.73 0-222.222-99.492-222.222-222.222S377.27 55.556 500 55.556s222.222 99.492 222.222 222.222S622.73 500 500 500z" fill="#323233" fill-rule="evenodd"/></svg>