<svg width="1000" height="1000" xmlns="http://www.w3.org/2000/svg"><path d="M345.793 611.111C420.119 696.518 500.369 750 500 750c-.369 0 79.881-53.482 154.207-138.889h92.933a55.556 55.556 0 0 1 46.162 24.645l148.8 222.223c17.072 25.494 10.243 60.001-15.252 77.072a55.556 55.556 0 0 1-30.91 9.393H103.434c-30.683 0-55.556-24.873-55.556-55.555a55.556 55.556 0 0 1 9.239-30.678l147.189-222.222a55.556 55.556 0 0 1 46.317-24.878h95.17zm-68.015 222.222h444.444v55.556H277.778v-55.556zM500 685.185S277.778 518.52 277.778 333.333c0-122.73 99.492-222.222 222.222-222.222s222.222 99.492 222.222 222.222C722.222 518.52 500 685.185 500 685.185zm0-268.518c46.024 0 83.333-37.31 83.333-83.334C583.333 287.31 546.023 250 500 250c-46.024 0-83.333 37.31-83.333 83.333 0 46.024 37.31 83.334 83.333 83.334z" fill="#323233" fill-rule="evenodd"/></svg>