<svg width="1000" height="1000" xmlns="http://www.w3.org/2000/svg"><g fill="#323233" fill-rule="evenodd"><path d="M722.222 205.343V111.11H277.778v94.379l71.4 107.782c46.174-23.454 96.793-35.27 151.163-35.27 54.172 0 104.339 11.736 149.77 35.055l72.111-107.714zM277.778 55.556h444.444c30.683 0 55.556 24.873 55.556 55.555v94.232a55.556 55.556 0 0 1-9.39 30.906l-102.189 152.64c-47.829-36.887-103.115-55.33-165.858-55.33-62.744 0-118.647 18.443-167.71 55.33L231.463 236.17a55.556 55.556 0 0 1-9.24-30.681v-94.379c0-30.682 24.872-55.555 55.555-55.555z" fill-rule="nonzero"/><path d="M388.889 111.112h55.556v222.222h-55.556zM555.556 111.112h55.556v222.222h-55.556z"/><path d="M500 888.889c153.412 0 277.778-124.365 277.778-277.778 0-153.412-124.366-277.778-277.778-277.778-153.412 0-277.778 124.366-277.778 277.778 0 153.413 124.366 277.778 277.778 277.778zm0 55.555c-184.095 0-333.333-149.238-333.333-333.333 0-184.095 149.238-333.333 333.333-333.333 184.095 0 333.333 149.238 333.333 333.333 0 184.095-149.238 333.333-333.333 333.333z" fill-rule="nonzero"/><path d="M500 532.544l-78.567 78.567L500 689.68l78.567-78.568L500 532.544zm39.284-39.284l78.567 78.567c21.696 21.696 21.696 56.872 0 78.568l-78.567 78.567c-21.696 21.696-56.872 21.696-78.568 0l-78.567-78.567c-21.696-21.696-21.696-56.872 0-78.568l78.567-78.567c21.696-21.696 56.872-21.696 78.568 0z" fill-rule="nonzero"/></g></svg>