<?xml version="1.0" encoding="UTF-8"?>
<svg width="1000px" height="1000px" viewBox="0 0 1000 1000" version="1.1" xmlns="http://www.w3.org/2000/svg" xmlns:xlink="http://www.w3.org/1999/xlink">
    <!-- Generator: sketchtool 52.4 (67378) - http://www.bohemiancoding.com/sketch -->
    <title>medel-o</title>
    <desc>Created with sketchtool.</desc>
    <g id="新版图标" stroke="none" stroke-width="1" fill="none" fill-rule="evenodd">
        <g id="medel-o" fill="#323233">
            <g id="圆角-积分商城1-线">
                <g transform="translate(166.666667, 55.555556)">
                    <path d="M555.555556,149.786998 L555.555556,55.5555556 L111.111111,55.5555556 L111.111111,149.93444 L182.511631,257.716831 C228.685213,234.26278 279.304316,222.447258 333.673963,222.447258 C387.846413,222.447258 438.013049,234.182455 483.443603,257.501934 L555.555556,149.786998 Z M111.111111,0 L555.555556,0 C586.238042,-6.16790569e-15 611.111111,24.8730695 611.111111,55.5555556 L611.111111,149.786998 C611.111111,160.79174 607.842818,171.548575 601.720748,180.693224 L499.532724,333.333333 C451.703774,296.44632 396.41752,278.002814 333.673963,278.002814 C270.930405,278.002814 215.027086,296.44632 165.964005,333.333333 L64.7961713,180.615804 C58.7694644,171.518211 55.5555556,160.847157 55.5555556,149.93444 L55.5555556,55.5555556 C55.5555556,24.8730695 80.428625,0 111.111111,0 Z" id="Rectangle-7" fill-rule="nonzero"></path>
                    <rect id="Rectangle-9" x="222.222222" y="55.5555556" width="55.5555556" height="222.222222"></rect>
                    <rect id="Rectangle-9-Copy" x="388.888889" y="55.5555556" width="55.5555556" height="222.222222"></rect>
                    <path d="M333.333333,833.333333 C486.745764,833.333333 611.111111,708.967986 611.111111,555.555556 C611.111111,402.143125 486.745764,277.777778 333.333333,277.777778 C179.920903,277.777778 55.5555556,402.143125 55.5555556,555.555556 C55.5555556,708.967986 179.920903,833.333333 333.333333,833.333333 Z M333.333333,888.888889 C149.238417,888.888889 0,739.650472 0,555.555556 C0,371.460639 149.238417,222.222222 333.333333,222.222222 C517.42825,222.222222 666.666667,371.460639 666.666667,555.555556 C666.666667,739.650472 517.42825,888.888889 333.333333,888.888889 Z" id="Oval-5" fill-rule="nonzero"></path>
                    <path d="M277.777778,500 L277.777778,611.111111 L388.888889,611.111111 L388.888889,500 L277.777778,500 Z M277.777778,444.444444 L388.888889,444.444444 C419.571375,444.444444 444.444444,469.317514 444.444444,500 L444.444444,611.111111 C444.444444,641.793597 419.571375,666.666667 388.888889,666.666667 L277.777778,666.666667 C247.095292,666.666667 222.222222,641.793597 222.222222,611.111111 L222.222222,500 C222.222222,469.317514 247.095292,444.444444 277.777778,444.444444 Z" id="Rectangle-10" fill-rule="nonzero" transform="translate(333.333333, 555.555556) rotate(-315.000000) translate(-333.333333, -555.555556) "></path>
                </g>
            </g>
        </g>
    </g>
</svg>