<svg width="1000" height="1000" xmlns="http://www.w3.org/2000/svg"><g fill="#323233" fill-rule="evenodd"><path d="M443.944 225.727V110.611h112.112v115.116c62.539 9.017 121.364 33.069 172.06 69.776l49.077-73.306a.5.5 0 0 0 .085-.279V56.556a.5.5 0 0 0-.5-.5H223.222a.5.5 0 0 0-.5.5V221.92a.5.5 0 0 0 .083.276l48.73 73.559c50.774-36.848 109.725-60.991 172.41-70.029z" stroke="#323233"/><path d="M500 944.444c-184.095 0-333.333-149.238-333.333-333.333 0-184.095 149.238-333.333 333.333-333.333 184.095 0 333.333 149.238 333.333 333.333 0 184.095-149.238 333.333-333.333 333.333zm.707-489.76a1 1 0 0 0-1.414 0l-155.72 155.72a1 1 0 0 0 0 1.414l155.72 155.72a1 1 0 0 0 1.414 0l155.72-155.72a1 1 0 0 0 0-1.414l-155.72-155.72z"/></g></svg>