<svg width="1000" height="1000" xmlns="http://www.w3.org/2000/svg"><path d="M497 1000C220.858 1000-3 776.142-3 500S220.858 0 497 0s500 223.858 500 500-223.858 500-500 500zM246.252 561.316c34.14 0 61.815-27.675 61.815-61.815 0-34.139-27.676-61.814-61.815-61.814-34.139 0-61.814 27.675-61.814 61.814 0 34.14 27.675 61.815 61.814 61.815zm250.25 0c34.139 0 61.814-27.675 61.814-61.815 0-34.139-27.675-61.814-61.815-61.814-34.139 0-61.814 27.675-61.814 61.814 0 34.14 27.675 61.815 61.814 61.815zm251.246 0c34.139 0 61.814-27.675 61.814-61.815 0-34.139-27.675-61.814-61.814-61.814-34.14 0-61.815 27.675-61.815 61.814 0 34.14 27.676 61.815 61.815 61.815z" fill="#666" fill-rule="evenodd"/></svg>