<?xml version="1.0" encoding="UTF-8"?>
<svg width="1000px" height="1000px" viewBox="0 0 1000 1000" version="1.1" xmlns="http://www.w3.org/2000/svg" xmlns:xlink="http://www.w3.org/1999/xlink">
    <!-- Generator: sketchtool 52.4 (67378) - http://www.bohemiancoding.com/sketch -->
    <title>more-o</title>
    <desc>Created with sketchtool.</desc>
    <g id="旧版图标(剩余)" stroke="none" stroke-width="1" fill="none" fill-rule="evenodd">
        <circle id="Oval-35" fill="#000000" cx="249.721393" cy="500.721393" r="55.721393"></circle>
        <circle id="Oval-35-Copy" fill="#000000" cx="500.721393" cy="500.721393" r="55.721393"></circle>
        <circle id="Oval-35-Copy-2" fill="#000000" cx="734.721393" cy="500.721393" r="55.721393"></circle>
        <path d="M500,950 C748.528137,950 950,748.528137 950,500 C950,251.471863 748.528137,50 500,50 C251.471863,50 50,251.471863 50,500 C50,748.528137 251.471863,950 500,950 Z M500,1000 C223.857625,1000 0,776.142375 0,500 C0,223.857625 223.857625,0 500,0 C776.142375,0 1000,223.857625 1000,500 C1000,776.142375 776.142375,1000 500,1000 Z" id="Oval-70" fill="#333333" fill-rule="nonzero"></path>
    </g>
</svg>