<svg width="1000" height="1000" xmlns="http://www.w3.org/2000/svg"><path d="M500 944.444C254.54 944.444 55.556 745.46 55.556 500S254.54 55.556 500 55.556 944.444 254.54 944.444 500 745.46 944.444 500 944.444zm0-388.888c30.682 0 55.556-24.874 55.556-55.556S530.682 444.444 500 444.444 444.444 469.318 444.444 500s24.874 55.556 55.556 55.556zm-222.222 0c30.682 0 55.555-24.874 55.555-55.556s-24.873-55.556-55.555-55.556c-30.683 0-55.556 24.874-55.556 55.556s24.873 55.556 55.556 55.556zm444.444 0c30.683 0 55.556-24.874 55.556-55.556s-24.873-55.556-55.556-55.556c-30.682 0-55.555 24.874-55.555 55.556s24.873 55.556 55.555 55.556z" fill="#323233" fill-rule="evenodd"/></svg>