<svg width="1000" height="1000" xmlns="http://www.w3.org/2000/svg"><path d="M222.222 111.111v777.522l226.51-117.804a111.111 111.111 0 0 1 102.536 0l226.51 117.804V111.11H222.222zm0-55.555h555.556c30.682 0 55.555 24.873 55.555 55.555v777.522c0 30.682-24.873 55.555-55.555 55.555a55.556 55.556 0 0 1-25.634-6.267l-226.51-117.804a55.556 55.556 0 0 0-51.268 0l-226.51 117.804c-27.221 14.157-60.765 3.567-74.922-23.654a55.556 55.556 0 0 1-6.267-25.634V111.11c0-30.682 24.873-55.555 55.555-55.555zM609.56 168.23l14.167 26.111c-23.611 7.778-49.722 12.5-78.333 14.167v43.055h84.166v27.5h-25.555v144.722h-28.611V279.064h-30v26.39c-1.39 49.166-12.223 88.332-32.5 117.777l-20.834-21.945c15.556-23.055 24.167-55 25.278-95.833V184.898c34.445-.556 65-6.112 92.222-16.667zm-231.944 19.444h48.055c-3.333-6.944-6.944-13.333-10.833-19.166l30-5c3.333 7.222 6.389 15.277 9.722 24.166h50.556v26.667h-127.5v-26.667zm-2.778 63.056h28.333c-3.333-9.167-7.222-17.778-11.666-25.556l25.555-9.722c4.167 10 8.056 21.667 11.945 35.278h24.444a347.6 347.6 0 0 0 10.834-35.278l25.833 9.167c-3.333 9.444-6.667 18.055-10.278 26.11h26.945v26.39h-50.278v22.5h45.555v26.389h-45.555v72.777c0 17.223-9.722 25.834-28.89 25.834H413.17l-6.388-26.667c4.166 1.111 8.055 1.945 11.388 1.945 6.112 0 9.445-2.778 9.445-8.056v-65.833h-48.333v-26.39h48.333v-22.5h-52.778v-26.388zm20 86.111l26.111 5.556c-6.389 28.333-15.278 52.777-26.944 73.61l-24.167-15.277c11.945-20 20.278-41.389 25-63.889zm90-1.667c6.667 17.223 12.222 33.056 16.111 47.5l-24.444 9.445c-4.167-17.222-9.445-34.167-15.556-50.556l23.89-6.389zm-63.889 145.556H580.67v99.167H420.948V480.73zm130.556 71.944v-44.722h-101.39v44.722h101.39zm-63.334 45.556v126.667h-28.055v-13.056h-48.333v13.056h-28.334V598.23H488.17zm-76.388 86.667h48.333v-59.445h-48.333v59.445zm206.11-86.667v126.667h-28.888v-13.056H538.17v13.056h-28.333V598.23h108.056zm-79.722 86.667h50.834v-59.445H538.17v59.445z" fill="#323233" fill-rule="nonzero"/></svg>