<svg width="1000" height="1000" xmlns="http://www.w3.org/2000/svg"><path d="M825.99 1000H174.01c-65.42 0-118.454-55.964-118.454-125V0h888.888v875c0 69.036-53.033 125-118.455 125zM111.11 611.111h61.327V480.673h1.41l108.38 130.438h51.105V388.89h-61.326v129.206h-1.41L162.744 388.89h-51.634V611.11zm416.667 0v-45.584h-104.82V520.25h98.585v-41.58h-98.585v-44.198h104.82V388.89H361.11V611.11h166.667zm152.005 0l41.752-138.753h1.375l41.752 138.753h59.45L888.89 388.89h-65.12l-33.505 150.15h-1.375l-41.408-150.15h-50.516l-41.409 150.15h-1.374l-33.506-150.15h-65.12l64.777 222.222h59.45z" fill="#323233" fill-rule="evenodd"/></svg>