<svg width="1000" height="1000" xmlns="http://www.w3.org/2000/svg"><path d="M222.222 55.556h555.556c30.682 0 55.555 24.873 55.555 55.555v777.522c0 30.682-24.873 55.555-55.555 55.555a55.556 55.556 0 0 1-25.634-6.267l-226.51-117.804a55.556 55.556 0 0 0-51.268 0l-226.51 117.804c-27.221 14.157-60.765 3.567-74.922-23.654a55.556 55.556 0 0 1-6.267-25.634V111.11c0-30.682 24.873-55.555 55.555-55.555zM609.56 168.23c-27.222 10.555-57.777 16.111-92.222 16.667v120.555c-1.111 40.833-9.722 72.778-25.278 95.833l20.834 21.945c20.277-29.445 31.11-68.611 32.5-117.778v-26.389h30v144.722h28.61V279.064h25.556v-27.5h-84.166V208.51c28.61-1.667 54.722-6.39 78.333-14.167l-14.167-26.111zm-231.944 19.444v26.667h127.5v-26.667h-50.556c-3.333-8.889-6.389-16.944-9.722-24.166l-30 5c3.889 5.833 7.5 12.222 10.833 19.166h-48.055zm-2.778 63.056v26.389h52.778v22.5h-48.333v26.389h48.333v65.833c0 5.278-3.333 8.056-9.445 8.056-3.333 0-7.222-.834-11.388-1.945l6.388 26.667h14.445c19.167 0 28.889-8.611 28.889-25.834V326.01h45.555v-26.39h-45.555v-22.5h50.278v-26.388h-26.945c3.611-8.056 6.945-16.667 10.278-26.111l-25.833-9.167a347.6 347.6 0 0 1-10.834 35.278h-24.444c-3.89-13.611-7.778-25.278-11.945-35.278l-25.555 9.722c4.444 7.778 8.333 16.39 11.666 25.556h-28.333zm20 86.111c-4.722 22.5-13.055 43.889-25 63.889l24.167 15.278c11.666-20.834 20.555-45.278 26.944-73.611l-26.11-5.556zm90-1.667l-23.889 6.39c6.111 16.388 11.39 33.333 15.556 50.555l24.444-9.445c-3.889-14.444-9.444-30.277-16.11-47.5zm-63.889 145.556v99.167H580.67V480.73H420.948zm130.556 71.944h-101.39v-44.722h101.39v44.722zm-63.334 45.556H383.448v126.667h28.334v-13.056h48.333v13.056h28.055V598.23zm-76.388 86.667v-59.445h48.333v59.445h-48.333zm206.11-86.667H509.838v126.667h28.333v-13.056h50.834v13.056h28.889V598.23zm-79.722 86.667v-59.445h50.834v59.445H538.17z" fill="#323233" fill-rule="nonzero"/></svg>