<svg width="1000" height="1000" xmlns="http://www.w3.org/2000/svg"><g fill="#323233" fill-rule="evenodd"><path d="M278.112 537.605v-148.27h29.128l60.683 99.015v-99.015h27.813v148.27h-30.038l-59.773-96.689v96.689h-27.813zm149.281 0v-148.27h109.938v25.083h-80v32.87h74.438v24.981H457.33v40.355h82.833v24.98h-112.77zm159.193 0l-35.399-148.27h30.645l22.352 101.847 27.105-101.847h35.601l25.993 103.566 22.756-103.566h30.14l-36.006 148.27h-31.757l-29.533-110.849-29.431 110.849h-32.466z"/><path d="M222.556 111.556v666.67c0 61.365 49.746 111.111 111.111 111.111h333.336c61.365 0 111.111-49.746 111.111-111.111v-666.67H222.556zM167 56h666.67v722.226c0 92.048-74.62 166.667-166.667 166.667H333.667C241.62 944.893 167 870.273 167 778.226V56z" fill-rule="nonzero"/></g></svg>