<svg width="1000" height="1000" xmlns="http://www.w3.org/2000/svg"><g fill="#323233" fill-rule="evenodd"><path d="M111.111 55.556v833.333c0 30.682 24.873 55.555 55.556 55.555h666.666c30.683 0 55.556-24.873 55.556-55.555V55.556H111.11zM55.556 0h888.888v888.889c0 61.365-49.746 111.111-111.11 111.111H166.666c-61.365 0-111.111-49.746-111.111-111.111V0z" fill-rule="nonzero"/><path d="M161.567 611.111V392.388h42.969l89.518 146.064V392.388h41.029v218.723h-44.312L202.596 468.48V611.11h-41.03zm220.215 0V392.388h162.177v37.001H425.944v48.49h109.809v36.85H425.944v59.53h122.192v36.852H381.782zm234.836 0l-52.22-218.723h45.208l32.972 150.242 39.985-150.242h52.517l38.344 152.778 33.57-152.778h44.46L798.34 611.111h-46.848l-43.566-163.52-43.416 163.52h-47.892z"/></g></svg>