<svg width="1000" height="1000" xmlns="http://www.w3.org/2000/svg"><path d="M167 56h666.67v722.226c0 92.048-74.62 166.667-166.667 166.667H333.667C241.62 944.893 167 870.273 167 778.226V56zm111.112 481.605h27.813v-96.69l59.773 96.69h30.038v-148.27h-27.813v99.015l-60.683-99.015h-29.128v148.27zm149.281 0h112.77v-24.981H457.33v-40.355h74.439v-24.981H457.33v-32.87h80.001v-25.083H427.393v148.27zm159.193 0h32.466l29.431-110.849 29.533 110.849h31.757l36.006-148.27h-30.14l-22.756 103.566-25.993-103.566h-35.6l-27.106 101.847-22.352-101.847h-30.645l35.399 148.27z" fill="#323233" fill-rule="evenodd"/></svg>