<svg width="1000" height="1000" xmlns="http://www.w3.org/2000/svg"><path d="M846 1000H158c-69.036 0-125-55.964-125-125V0h938v875c0 69.036-55.964 125-125 125zM111.567 623.405h59.763V477.948h1.374l105.615 145.457h49.802v-247.81h-59.762v144.084h-1.375l-105.1-144.084h-50.317v247.81zm423.835 0v-50.833H428.585v-50.49h100.463v-46.366H428.585v-49.288h106.817v-50.833H365.559v247.81h169.843zm148.033 0l41.731-154.73h1.374l41.73 154.73h59.42l64.743-247.81h-65.086L793.86 543.034h-1.374l-41.387-167.44h-50.49l-41.387 167.44h-1.374l-33.488-167.44h-65.087l64.744 247.81h59.42z" fill="#DC4141" fill-rule="evenodd"/></svg>