<svg width="1000" height="1000" xmlns="http://www.w3.org/2000/svg"><path d="M166.667 0h666.666v631.944c0 80.542-74.619 145.834-166.666 145.834H333.333c-92.047 0-166.666-65.292-166.666-145.834V0zm145.126 472.222v-97.828h.782l60.113 97.828h28.346V305.556h-34.015v96.904h-.782l-59.82-96.904h-28.64v166.666h34.016zm207.218-34.188h-60.797v-33.957h57.18v-31.185h-57.18v-33.148h60.797v-34.188h-96.669v166.666h96.67v-34.188zm108.008-69.877h.782l23.752 104.065h33.82l36.85-166.666h-37.046l-19.06 112.612h-.782l-23.557-112.612h-28.736l-23.557 112.612h-.782l-19.06-112.612h-37.045l36.85 166.666h33.82l23.751-104.065z" fill="#464647" fill-rule="evenodd"/></svg>