<svg width="1000" height="1000" xmlns="http://www.w3.org/2000/svg"><path d="M55.556 166.667H611.11c184.095 0 333.333 149.238 333.333 333.333 0 184.095-149.238 333.333-333.333 333.333H55.556V166.667zm406.388 210.277c-27.222 10.556-57.777 16.112-92.222 16.667v120.556C368.612 555 360 586.944 344.444 610l20.834 21.944c20.278-29.444 31.11-68.61 32.5-117.777v-26.39h30V632.5h28.61V487.778h25.556v-27.5h-84.166v-43.056c28.61-1.666 54.722-6.389 78.333-14.166l-14.167-26.112zM230 396.39v26.667h127.5v-26.667h-50.556c-3.333-8.889-6.388-16.945-9.722-24.167l-30 5c3.89 5.834 7.5 12.222 10.834 19.167H230zm-2.778 63.055v26.39H280v22.5h-48.333v26.388H280v65.834c0 5.277-3.333 8.055-9.444 8.055-3.334 0-7.223-.833-11.39-1.944l6.39 26.666H280c19.167 0 28.889-8.61 28.889-25.833v-72.778h45.555v-26.389H308.89v-22.5h50.278v-26.389h-26.945c3.611-8.055 6.945-16.666 10.278-26.11l-25.833-9.167a347.6 347.6 0 0 1-10.834 35.277H281.39c-3.889-13.61-7.778-25.277-11.945-35.277l-25.555 9.722c4.444 7.778 8.333 16.389 11.667 25.555h-28.334zm20 86.112c-4.722 22.5-13.055 43.888-25 63.888l24.167 15.278c11.667-20.833 20.555-45.278 26.944-73.61l-26.11-5.556zm90-1.667l-23.889 6.389c6.111 16.389 11.39 33.333 15.556 50.555l24.444-9.444c-3.889-14.445-9.444-30.278-16.11-47.5zm213.89-160v99.167h159.721v-99.167H551.111zm130.555 71.944h-101.39v-44.722h101.39v44.722zm-63.334 45.556H513.611v126.667h28.333V615h48.334v13.056h28.055V501.389zm-76.389 86.667V528.61h48.334v59.445h-48.334zm206.112-86.667H640v126.667h28.333V615h50.834v13.056h28.889V501.389zm-79.723 86.667V528.61h50.834v59.445h-50.834z" fill="#323233" fill-rule="nonzero"/></svg>