<svg width="1000" height="1000" xmlns="http://www.w3.org/2000/svg"><path d="M777.778 833.333h55.555V666.667h-55.555v166.666zm55.555-222.222c30.723 0 55.556 24.833 55.556 55.556v166.666c0 30.723-24.833 55.556-55.556 55.556H166.667c-30.723 0-55.556-24.833-55.556-55.556V166.667c0-30.723 24.833-55.556 55.556-55.556h555.555c30.722 0 55.556 24.833 55.556 55.556V611.11h55.555zM166.667 833.333h555.555V166.667H166.667v666.666zm111.11-222.222H388.89V444.444H277.778v166.667zm-55.555 55.556V388.889h222.222v277.778H222.222zm0-333.334v-55.555h444.445v55.555H222.222zM500 444.444V388.89h166.667v55.555H500zm0 111.112V500h166.667v55.556H500zm0 111.11v-55.61h166.667v55.61H500z" fill="#251714" fill-rule="evenodd"/></svg>