<svg width="1000" height="1000" xmlns="http://www.w3.org/2000/svg"><path d="M833.333 833.333H166.667v-611.11h111.11v55.555h55.556v-55.556h333.334v55.556h55.555v-55.556h111.111v611.111zm0-666.666h-111.11V111.11h-55.556v55.556H333.333V111.11h-55.555v55.556H166.667c-30.723 0-55.556 24.833-55.556 55.555v611.111c0 30.723 24.833 55.556 55.556 55.556h666.666c30.723 0 55.556-24.833 55.556-55.556v-611.11c0-30.723-24.833-55.556-55.556-55.556zM277.778 611.11h444.444v-55.555H277.778v55.555zm0-111.111h444.444v-55.556H277.778V500zm0 222.222H500v-55.555H277.778v55.555z" fill="#323233" fill-rule="evenodd"/></svg>