<?xml version="1.0" encoding="UTF-8"?>
<svg width="1000px" height="1000px" viewBox="0 0 1000 1000" version="1.1" xmlns="http://www.w3.org/2000/svg" xmlns:xlink="http://www.w3.org/1999/xlink">
    <!-- Generator: sketchtool 52.4 (67378) - http://www.bohemiancoding.com/sketch -->
    <title>on-shelves-o</title>
    <desc>Created with sketchtool.</desc>
    <g id="新版图标" stroke="none" stroke-width="1" fill="none" fill-rule="evenodd">
        <g id="on-shelves-o" fill="#251714">
            <g id="直角-上架-线">
                <path d="M166.666667,833.333333 L166.666667,166.666667 L833.333333,166.666667 L833.333333,833.333333 L166.666667,833.333333 Z M555.555556,722.222222 L555.555556,666.666667 L555.555556,384.111111 L645.611111,474.166667 L684.888889,434.888889 L567.055556,317.055556 L527.777778,277.777778 L370.666667,434.888889 L409.944444,474.166667 L500,384.111111 L500,666.666667 L277.777778,666.666667 L277.777778,722.222222 L500,722.222222 L555.555556,722.222222 Z M833.333333,111.111111 L166.666667,111.111111 C136,111.111111 111.111111,135.944444 111.111111,166.666667 L111.111111,833.333333 C111.111111,864.055556 136,888.888889 166.666667,888.888889 L833.333333,888.888889 C864.055556,888.888889 888.888889,864.055556 888.888889,833.333333 L888.888889,166.666667 C888.888889,135.944444 864.055556,111.111111 833.333333,111.111111 Z" id="Fill-3"></path>
            </g>
        </g>
    </g>
</svg>