<svg width="1000" height="1000" xmlns="http://www.w3.org/2000/svg" xmlns:xlink="http://www.w3.org/1999/xlink"><defs><path d="M222.556 111.556v777.781h555.558V111.557H222.556zm0-55.556h555.558c30.683 0 55.556 24.873 55.556 55.556v777.781c0 30.683-24.873 55.556-55.556 55.556H222.556c-30.683 0-55.556-24.873-55.556-55.556V111.557C167 80.873 191.873 56 222.556 56zm138.89 277.78h277.779c15.34 0 27.778 12.436 27.778 27.777 0 15.341-12.437 27.778-27.778 27.778h-277.78c-15.34 0-27.777-12.437-27.777-27.778s12.436-27.778 27.777-27.778zm0 166.667h277.779c15.34 0 27.778 12.436 27.778 27.778 0 15.34-12.437 27.778-27.778 27.778h-277.78c-15.34 0-27.777-12.437-27.777-27.778 0-15.342 12.436-27.778 27.777-27.778zm0 166.667h166.667c15.341 0 27.778 12.437 27.778 27.778s-12.437 27.778-27.778 27.778H361.445c-15.34 0-27.777-12.437-27.777-27.778s12.436-27.778 27.777-27.778z" id="a"/></defs><use fill="#000" fill-rule="nonzero" xlink:href="#a"/></svg>