<?xml version="1.0" encoding="UTF-8"?>
<svg width="1000px" height="1000px" viewBox="0 0 1000 1000" version="1.1" xmlns="http://www.w3.org/2000/svg" xmlns:xlink="http://www.w3.org/1999/xlink">
    <!-- Generator: sketchtool 52.4 (67378) - http://www.bohemiancoding.com/sketch -->
    <title>orders-o</title>
    <desc>Created with sketchtool.</desc>
    <g id="新版图标" stroke="none" stroke-width="1" fill="none" fill-rule="evenodd">
        <g id="orders-o" fill="#323233" fill-rule="nonzero">
            <g id="直角-订单管理-线">
                <path d="M222.222222,55.5555556 L777.777778,55.5555556 C808.460264,55.5555556 833.333333,80.428625 833.333333,111.111111 L833.333333,943.444444 C833.333333,943.996729 832.885618,944.444444 832.333333,944.444444 L222.222222,944.444444 C191.539736,944.444444 166.666667,919.571375 166.666667,888.888889 L166.666667,111.111111 C166.666667,80.428625 191.539736,55.5555556 222.222222,55.5555556 Z M777.777778,888.888889 L777.777778,111.111111 L222.222222,111.111111 L222.222222,888.888889 L777.777778,888.888889 Z M333.333333,361.111111 L333.333333,305.555556 L666.666667,305.555556 L666.666667,361.111111 L333.333333,361.111111 Z M333.333333,527.777778 L333.333333,472.222222 L666.666667,472.222222 L666.666667,527.777778 L333.333333,527.777778 Z M333.333333,694.444444 L333.333333,638.888889 L555.555556,638.888889 L555.555556,694.444444 L333.333333,694.444444 Z" id="Combined-Shape"></path>
            </g>
        </g>
    </g>
</svg>