<svg width="1000" height="1000" xmlns="http://www.w3.org/2000/svg"><g fill="#323233" fill-rule="evenodd"><path d="M166.667 111.111V888.89h666.666V111.11H166.667zm0-55.555h666.666c30.683 0 55.556 24.873 55.556 55.555V888.89c0 30.682-24.873 55.555-55.556 55.555H166.667c-30.683 0-55.556-24.873-55.556-55.555V111.11c0-30.682 24.873-55.555 55.556-55.555z" fill-rule="nonzero"/><path d="M305.556 277.778h388.888c15.342 0 27.778 12.436 27.778 27.778 0 15.34-12.436 27.777-27.778 27.777H305.556c-15.342 0-27.778-12.436-27.778-27.777 0-15.342 12.436-27.778 27.778-27.778zM305.556 472.222h388.888c15.342 0 27.778 12.437 27.778 27.778s-12.436 27.778-27.778 27.778H305.556c-15.342 0-27.778-12.437-27.778-27.778s12.436-27.778 27.778-27.778zM305.556 666.667h222.222c15.341 0 27.778 12.436 27.778 27.777 0 15.342-12.437 27.778-27.778 27.778H305.556c-15.342 0-27.778-12.436-27.778-27.778 0-15.34 12.436-27.777 27.778-27.777z"/></g></svg>