<svg width="1000" height="1000" xmlns="http://www.w3.org/2000/svg"><path d="M888.889 166.667c30.667 0 55.555 24.889 55.555 55.555v555.556c0 30.666-24.888 55.555-55.555 55.555H111.11c-30.667 0-55.555-24.889-55.555-55.555V222.222c0-30.666 24.888-55.555 55.555-55.555H888.89zM111.11 777.777H888.89V222.223H111.11v555.556zM333.044 537.04c23 0 41.667-18.667 41.667-41.667s-18.667-41.666-41.667-41.666-41.666 18.666-41.666 41.666c0 23 18.666 41.667 41.666 41.667m166.667 0c23 0 41.667-18.667 41.667-41.667s-18.667-41.666-41.667-41.666-41.667 18.666-41.667 41.666c0 23 18.667 41.667 41.667 41.667m166.667 0c23 0 41.666-18.667 41.666-41.667s-18.666-41.666-41.666-41.666c-23 0-41.667 18.666-41.667 41.666 0 23 18.667 41.667 41.667 41.667" fill="#323233" fill-rule="evenodd"/></svg>