<svg width="1000" height="1000" xmlns="http://www.w3.org/2000/svg"><path d="M111.111 333.333v444.445H888.89V333.333H111.11zm666.667-55.555V166.667c30.682 0 55.555 24.873 55.555 55.555v55.556h55.556c30.682 0 55.555 24.873 55.555 55.555v444.445c0 30.682-24.873 55.555-55.555 55.555H111.11c-30.682 0-55.555-24.873-55.555-55.555v-500h722.222zm-378.824-111.13l155.787-89.943c26.572-15.341 60.55-6.237 75.89 20.335l40.2 69.627h106.947v55.555h-74.872l51.944 89.97-65.68-2.651-106.65-184.723-292.068 168.625-103.849-4.193 116.126-67.046H138.89v.018c-15.341 0-27.778 12.437-27.778 27.778s12.437 27.778 27.778 27.778v55.555c-17.76 0-34.222-5.555-47.744-15.024H55.54v-69.444h.024c.598-44.756 36.478-80.995 81.093-82.169v-.047h262.298zm545.49 277.796H666.667c-61.365 0-111.111 49.747-111.111 111.112 0 61.365 49.746 111.11 111.11 111.11h277.778v55.556H666.667C574.619 722.222 500 647.603 500 555.556c0-92.048 74.62-166.667 166.667-166.667h277.777v55.555zM680.556 597.222c-23.012 0-41.667-18.655-41.667-41.666 0-23.012 18.655-41.667 41.667-41.667 23.011 0 41.666 18.655 41.666 41.667 0 23.011-18.655 41.666-41.666 41.666z" fill="#323233" fill-rule="nonzero"/></svg>