<?xml version="1.0" encoding="UTF-8"?>
<svg width="1000px" height="1000px" viewBox="0 0 1000 1000" version="1.1" xmlns="http://www.w3.org/2000/svg" xmlns:xlink="http://www.w3.org/1999/xlink">
    <!-- Generator: sketchtool 52.4 (67378) - http://www.bohemiancoding.com/sketch -->
    <title>passed</title>
    <desc>Created with sketchtool.</desc>
    <g id="新版图标" stroke="none" stroke-width="1" fill="none" fill-rule="evenodd">
        <g id="passed" fill="#323233" fill-rule="nonzero">
            <g id="圆角-认证通过-线">
                <g transform="translate(55.555556, 55.555556)">
                    <path d="M227.560318,483.145108 C221.319538,477.105293 220.310424,467.713888 225.811399,460.992275 L238.673637,445.275971 C243.945831,438.833904 253.808065,437.215909 260.778765,441.725338 L372.105331,513.743822 C377.97772,517.542741 388.084116,517.047987 393.566926,512.736655 L687.738396,281.419005 C694.35038,276.219764 704.70762,276.662891 710.503013,282.271663 L717.74916,289.284472 C724.055191,295.387438 723.596769,305.075153 716.986179,311.47287 L401.253589,617.038331 C391.430319,626.545274 375.302068,626.129322 365.189988,616.342868 L227.560318,483.145108 Z" id="Fill-"></path>
                    <path d="M444.444444,833.333333 C659.221847,833.333333 833.333333,659.221847 833.333333,444.444444 C833.333333,229.667042 659.221847,55.5555556 444.444444,55.5555556 C229.667042,55.5555556 55.5555556,229.667042 55.5555556,444.444444 C55.5555556,659.221847 229.667042,833.333333 444.444444,833.333333 Z M444.444444,888.888889 C198.984556,888.888889 0,689.904333 0,444.444444 C0,198.984556 198.984556,0 444.444444,0 C689.904333,0 888.888889,198.984556 888.888889,444.444444 C888.888889,689.904333 689.904333,888.888889 444.444444,888.888889 Z" id="Oval-4"></path>
                </g>
            </g>
        </g>
    </g>
</svg>