<?xml version="1.0" encoding="UTF-8"?>
<svg width="1000px" height="1000px" viewBox="0 0 1000 1000" version="1.1" xmlns="http://www.w3.org/2000/svg" xmlns:xlink="http://www.w3.org/1999/xlink">
    <!-- Generator: sketchtool 52.4 (67378) - http://www.bohemiancoding.com/sketch -->
    <title>peer-pay</title>
    <desc>Created with sketchtool.</desc>
    <g id="新版图标" stroke="none" stroke-width="1" fill="none" fill-rule="evenodd">
        <g id="peer-pay" fill="#323233">
            <g id="圆角-找人代付-线">
                <path d="M111.111111,277.777778 L111.111111,222.222222 L888.888889,222.222222 L888.888889,277.777778 L111.111111,277.777778 Z M111.111111,777.777778 L111.111111,333.333333 L888.888889,333.333333 L888.888889,777.777778 L111.111111,777.777778 Z M888.888889,166.666667 L111.111111,166.666667 C80.3888889,166.666667 55.5555556,191.5 55.5555556,222.222222 L55.5555556,277.777778 L55.5555556,333.333333 L55.5555556,777.777778 C55.5555556,808.5 80.3888889,833.333333 111.111111,833.333333 L888.888889,833.333333 C919.555556,833.333333 944.444444,808.5 944.444444,777.777778 L944.444444,333.333333 L944.444444,277.777778 L944.444444,222.222222 C944.444444,191.5 919.555556,166.666667 888.888889,166.666667 Z M548.838889,634.116667 L682.95,634.116667 L651.838889,665.283333 C640.95,676.116667 640.95,693.672222 651.838889,704.561111 C662.672222,715.394444 680.227778,715.394444 691.116667,704.561111 L769.672222,626.005556 C780.505556,615.116667 780.505556,597.561111 769.672222,586.672222 L691.116667,508.116667 C680.227778,497.283333 662.672222,497.283333 651.838889,508.116667 C640.95,519.005556 640.95,536.561111 651.838889,547.394444 L682.95,578.561111 L548.838889,578.561111 C533.505556,578.561111 521.061111,591.005556 521.061111,606.338889 C521.061111,621.672222 533.505556,634.116667 548.838889,634.116667" id="Fill-1"></path>
            </g>
        </g>
    </g>
</svg>