<?xml version="1.0" encoding="UTF-8"?>
<svg width="1000px" height="1000px" viewBox="0 0 1000 1000" version="1.1" xmlns="http://www.w3.org/2000/svg" xmlns:xlink="http://www.w3.org/1999/xlink">
    <!-- Generator: sketchtool 52.4 (67378) - http://www.bohemiancoding.com/sketch -->
    <title>pending-payment</title>
    <desc>Created with sketchtool.</desc>
    <g id="新版图标" stroke="none" stroke-width="1" fill="none" fill-rule="evenodd">
        <g id="pending-payment" fill="#323233" fill-rule="nonzero">
            <g id="圆角-未付款-线" transform="translate(55.000000, 166.000000)">
                <path d="M56.1111111,56.2222222 L56.1111111,611.777778 L833.888889,611.777778 L833.888889,56.2222222 L56.1111111,56.2222222 Z M56.1111111,0.666666667 L833.888889,0.666666667 C864.571375,0.666666667 889.444444,25.5397361 889.444444,56.2222222 L889.444444,611.777778 C889.444444,642.460264 864.571375,667.333333 833.888889,667.333333 L56.1111111,667.333333 C25.428625,667.333333 0.555555556,642.460264 0.555555556,611.777778 L0.555555556,56.2222222 C0.555555556,25.5397361 25.428625,0.666666667 56.1111111,0.666666667 Z M861.666667,250.666667 L556.111111,250.666667 C510.087382,250.666667 472.777778,287.976271 472.777778,334 C472.777778,380.023729 510.087382,417.333333 556.111111,417.333333 L861.666667,417.333333 L861.666667,472.888889 L556.111111,472.888889 C479.404896,472.888889 417.222222,410.706215 417.222222,334 C417.222222,257.293785 479.404896,195.111111 556.111111,195.111111 L861.666667,195.111111 L861.666667,250.666667 Z M625.555556,375.666667 C602.543691,375.666667 583.888889,357.011865 583.888889,334 C583.888889,310.988135 602.543691,292.333333 625.555556,292.333333 C648.56742,292.333333 667.222222,310.988135 667.222222,334 C667.222222,357.011865 648.56742,375.666667 625.555556,375.666667 Z" id="Combined-Shape"></path>
            </g>
        </g>
    </g>
</svg>