<?xml version="1.0" encoding="UTF-8"?>
<svg width="1000px" height="1000px" viewBox="0 0 1000 1000" version="1.1" xmlns="http://www.w3.org/2000/svg" xmlns:xlink="http://www.w3.org/1999/xlink">
    <!-- Generator: sketchtool 52.4 (67378) - http://www.bohemiancoding.com/sketch -->
    <title>phone-circle-o</title>
    <desc>Created with sketchtool.</desc>
    <g id="新版图标" stroke="none" stroke-width="1" fill="none" fill-rule="evenodd">
        <g id="phone-circle-o" fill="#323233" fill-rule="nonzero">
            <g id="直角-服务热线">
                <path d="M500,888.888889 C714.777403,888.888889 888.888889,714.777403 888.888889,500 C888.888889,285.222597 714.777403,111.111111 500,111.111111 C285.222597,111.111111 111.111111,285.222597 111.111111,500 C111.111111,714.777403 285.222597,888.888889 500,888.888889 Z M500,944.444444 C254.540111,944.444444 55.5555556,745.459889 55.5555556,500 C55.5555556,254.540111 254.540111,55.5555556 500,55.5555556 C745.459889,55.5555556 944.444444,254.540111 944.444444,500 C944.444444,745.459889 745.459889,944.444444 500,944.444444 Z" id="Oval"></path>
                <path d="M424.637396,385.957142 C418.756764,374.816278 410.587477,361.605346 401.739721,348.965694 C392.997688,336.47661 383.842601,324.832469 375.427212,316.104161 C367.473601,307.856154 363.688246,305.555556 364.085191,305.555556 C359.574496,305.555556 343.127562,320.620219 331.377988,336.28492 C316.692927,355.867726 305.555556,378.509437 305.555556,395.448935 C305.555556,413.272429 317.538522,441.711956 336.555671,472.575088 C356.912784,505.61025 385.336497,541.530777 416.149116,573.154699 L426.589485,583.598357 C458.469223,614.663503 494.38975,643.087216 527.424912,663.444329 C558.272471,682.456918 586.7242,694.444444 604.548439,694.444444 C621.493476,694.444444 644.140433,683.30504 663.712644,668.623839 C679.379781,656.872438 694.444444,640.425504 694.444444,635.914809 C694.444444,636.311692 692.144218,632.526793 683.900022,624.576914 C675.167904,616.157783 663.523842,607.002629 651.03598,598.261451 C638.384544,589.407161 625.176773,581.239678 614.047314,575.366196 C601.338066,568.658912 595.978828,566.965808 594.15317,566.931139 C594.493725,566.936361 594.426198,567.053958 592.717331,569.530601 C590.454625,572.807206 588.546538,576.709343 584.439907,586.213915 C583.086922,589.340959 583.086922,589.340959 581.335982,593.234186 C580.442352,595.16723 580.442352,595.16723 579.472411,597.170785 C577.218213,601.759411 575.222087,605.25272 572.639705,608.492589 L561.668874,622.256644 L544.538023,618.214083 C534.389959,615.81933 519.753444,608.313999 501.54198,595.911274 C483.08624,583.339769 463.257882,567.223033 447.560281,551.921057 C432.774867,536.739961 416.657977,516.910651 404.08885,498.455577 C391.688843,480.251919 384.183222,465.612294 381.786751,455.462883 L377.740888,438.328053 L391.509742,427.355812 C394.750347,424.77341 398.244815,422.777492 402.837014,420.522335 C404.83507,419.555341 404.83507,419.555341 406.763291,418.66409 C410.660799,416.911584 410.660799,416.911584 413.796977,415.55538 C423.302664,411.444904 427.199169,409.539571 430.482193,407.27565 C432.939756,405.580159 433.060624,405.510347 433.066489,405.844162 C433.031702,404.016125 431.340854,398.660651 424.637396,385.957142 Z M387.56159,623.134594 L376.61288,612.182594 C342.784492,577.467155 311.830587,538.349095 289.258568,501.719621 C265.133635,462.567013 250,426.649911 250,395.448935 C250,363.068134 265.534027,331.488246 286.933144,302.95212 C310.207673,271.922182 334.141343,250 364.085191,250 C382.427166,250 397.969271,259.445913 415.419717,277.542271 C426.20574,288.729364 436.992222,302.44844 447.252884,317.107072 C457.374908,331.567107 466.753859,346.734243 473.770151,360.026617 C484.403936,380.178362 488.622338,393.770894 488.622338,405.906142 C488.622338,425.107984 478.789841,441.442061 462.025727,453.007753 C457.062989,456.429978 452.73365,458.867911 446.442712,461.820447 C447.544737,463.522246 448.732255,465.312121 450.005196,467.180844 C460.783585,483.006603 474.86136,500.327101 486.840566,512.640771 C499.671453,525.137232 516.992099,539.215668 532.81611,549.994518 C534.685142,551.267403 536.475302,552.454902 538.177344,553.55693 C541.129921,547.26484 543.572796,542.928566 546.996604,537.970583 C558.561975,521.208979 574.891854,511.375036 594.096484,511.375036 C606.22844,511.375036 619.822517,515.596505 639.977092,526.233047 C653.256585,533.241192 668.419824,542.617906 682.89253,552.746838 C697.552073,563.008136 711.271221,573.794828 722.461922,584.58442 C740.554302,602.030901 750,617.573296 750,635.914809 C750,665.858657 728.077818,689.792327 697.048413,713.066457 C668.526421,734.460928 636.934721,750 604.548439,750 C573.347057,750 537.411689,734.859512 498.278563,710.740313 C461.650206,688.16886 422.532532,657.215204 387.56159,623.134594 Z" id="Fill-1"></path>
            </g>
        </g>
    </g>
</svg>