<?xml version="1.0" encoding="UTF-8"?>
<svg width="1000px" height="1000px" viewBox="0 0 1000 1000" version="1.1" xmlns="http://www.w3.org/2000/svg" xmlns:xlink="http://www.w3.org/1999/xlink">
    <!-- Generator: sketchtool 52.4 (67378) - http://www.bohemiancoding.com/sketch -->
    <title>phone-o</title>
    <desc>Created with sketchtool.</desc>
    <g id="新版图标" stroke="none" stroke-width="1" fill="none" fill-rule="evenodd">
        <g id="phone-o" fill="#323233">
            <g id="圆角-电话">
                <path d="M295.129336,166.636608 C294.407114,166.636608 293.740447,166.692164 293.018225,166.692164 C269.740447,167.692164 241.351558,185.136608 206.351558,220.136608 C66.6293359,359.914386 342.851558,639.414386 345.684891,642.247719 C348.518225,644.969941 627.851558,921.469941 767.796003,781.525497 C802.796003,746.525497 820.240447,718.192164 821.240447,694.914386 C822.07378,673.414386 809.57378,650.969941 780.518225,621.914386 C751.740447,593.081053 727.684891,579.469941 707.684891,581.303275 C689.407114,583.081053 669.907114,599.192164 649.740447,629.247719 C631.57378,659.692164 606.462669,668.969941 588.796003,671.136608 C542.796003,677.025497 488.407114,645.303275 415.518225,572.414386 C342.57378,499.414386 311.184891,444.35883 316.796003,399.192164 C318.962669,381.469941 328.184891,356.414386 359.851558,337.414386 C388.740447,318.025497 404.851558,298.525497 406.629336,280.247719 C408.518225,260.747719 394.851558,236.247719 365.962669,207.35883 C337.962669,179.35883 315.962669,166.636608 295.129336,166.636608 M671.296003,876.803275 C504.184891,876.803275 316.518225,691.636608 306.407114,681.525497 C293.351558,668.414386 -11.5373308,359.469941 167.07378,180.85883 C213.018225,134.914386 252.296003,112.747719 290.740447,111.192164 C342.129336,109.247719 379.907114,142.692164 405.240447,168.081053 C447.018225,209.803275 465.57378,248.303275 461.907114,285.636608 C458.351558,321.747719 434.740447,354.025497 389.57378,384.303275 C375.07378,393.025497 372.629336,400.414386 371.907114,405.969941 C370.129336,420.636608 378.462669,456.747719 454.796003,533.136608 C531.07378,609.35883 567.184891,617.469941 581.962669,616.025497 C587.518225,615.303275 594.907114,612.803275 602.851558,599.525497 C633.907114,553.192164 666.184891,529.525497 702.296003,526.025497 C739.129336,521.85883 778.018225,540.803275 819.796003,582.636608 C845.184891,608.025497 878.796003,647.525497 876.740447,697.192164 C875.129336,735.581053 853.018225,774.85883 807.07378,820.803275 C766.796003,861.081053 719.907114,876.803275 671.296003,876.803275" id="Fill-1"></path>
            </g>
        </g>
    </g>
</svg>