<?xml version="1.0" encoding="UTF-8"?>
<svg width="1000px" height="1000px" viewBox="0 0 1000 1000" version="1.1" xmlns="http://www.w3.org/2000/svg" xmlns:xlink="http://www.w3.org/1999/xlink">
    <!-- Generator: sketchtool 52.4 (67378) - http://www.bohemiancoding.com/sketch -->
    <title>phone</title>
    <desc>Created with sketchtool.</desc>
    <g id="新版图标" stroke="none" stroke-width="1" fill="none" fill-rule="evenodd">
        <g id="phone" fill="#333333">
            <g id="电话" transform="translate(118.000000, 118.000000)">
                <path d="M700.386043,512.252094 C704.019749,515.290621 707.618643,518.34628 711.132556,521.384807 C734.554549,541.635235 743.941366,552.86858 744.934517,554.084848 L744.935541,554.084848 L744.935541,554.085918 L744.935541,554.084848 C744.949875,554.103049 746.977133,556.570916 748.993128,559.060196 C750.047711,560.364257 751.101271,561.673672 751.882482,562.670455 C752.378034,563.300002 752.786557,563.831048 753.069144,564.212203 C753.694727,565.056952 754.228162,565.900631 754.678664,566.735744 L759.656708,574.307438 L759.656708,575.029062 C769.464334,595.582486 762.618756,622.686196 756.496029,636.383125 C745.694227,660.54895 725.351004,685.056314 709.915178,699.934179 C678.84899,729.871921 636.368729,764.235764 583.174717,764.235764 C577.617165,764.235764 571.958249,763.856751 566.357694,763.110503 C527.613525,758.044148 468.417602,733.67704 403.987669,696.260751 C334.049329,655.647477 266.572367,604.539611 213.986533,552.356805 C161.39558,500.160081 109.879687,433.151872 68.9280595,363.673655 C31.1278959,299.542304 6.47111917,240.484802 1.28011103,201.644538 C-2.13346315,176.207842 3.88278217,147.916772 18.6817628,119.840904 C31.9009158,94.7618087 51.6154842,70.5649352 75.6958235,49.8669725 C77.1200232,48.6421396 78.5165784,47.4376492 79.8926563,46.2492187 C98.4103236,30.2664343 114.413372,16.4517326 140.960208,6.12416443 C150.286617,2.00320134 159.061162,0 167.771202,0 C175.785013,0 183.81111,1.74731405 191.627315,5.19269187 L191.981573,5.35436125 C195.507772,7.01066935 201.331531,10.1819587 202.86426,11.0224253 C207.431733,13.3254109 232.410004,27.1047809 260.06057,65.5328421 C268.891427,77.81222 282.793499,98.5390905 292.917501,116.556125 C309.952608,146.873951 321.040069,173.071885 321.502857,174.173592 L321.820256,174.926265 L323.965258,181.668199 C331.104686,200.692723 326.910925,220.434588 312.693501,234.620808 C311.870312,235.46984 310.9089,236.483753 310.890471,236.503025 L309.709951,237.749271 L308.818163,238.374535 C308.214081,238.895946 307.016156,239.961251 306.254399,240.638977 C304.09711,242.557597 303.441835,243.136823 302.688268,243.709625 L302.030945,244.184997 C292.900095,250.454771 289.613481,252.331634 286.134379,254.318776 C283.772317,255.667805 281.330393,257.060731 276.054403,260.502897 L275.809699,260.659213 C266.804785,266.310147 258.269825,269.867944 249.233171,273.63666 C242.120363,276.601313 234.058431,279.962108 224.253876,284.959941 C210.185937,292.130138 209.688337,312.530458 212.588954,319.289522 C229.94146,359.740057 260.756799,400.674529 312.50511,452.017939 C358.125573,497.332473 402.956635,526.335531 440.794681,548.730486 C445.391846,551.451029 449.941913,552.773291 454.702897,552.773291 C468.073583,552.772221 480.902642,541.896476 486.664968,531.153492 C491.099339,522.881587 495.255217,514.228529 498.921686,506.595807 C501.912403,500.368859 504.737253,494.487734 507.422858,489.387119 L507.487361,489.267205 C514.179359,476.790826 519.085732,468.780162 522.023208,464.257702 C524.119065,461.029668 526.164752,457.879792 528.55753,455.32306 C534.327024,446.810258 543.410776,439.651837 553.069942,436.17541 C558.499511,434.218247 564.78401,433.18185 571.235399,433.18185 C579.559441,433.18185 587.524106,434.933447 593.662192,438.113302 L610.13622,446.729958 L610.124957,446.751371 C611.379195,447.424815 612.669268,448.258858 614.170258,449.229945 C615.979432,450.399104 618.613843,452.11858 621.936293,454.310218 C627.884963,458.238462 637.374166,464.574617 648.79848,472.456802 C650.703897,473.7705 652.685081,475.163426 654.729744,476.627015 L700.386043,512.252094 Z" id="Fill-1"></path>
            </g>
        </g>
    </g>
</svg>