<?xml version="1.0" encoding="UTF-8"?>
<svg width="1000px" height="1000px" viewBox="0 0 1000 1000" version="1.1" xmlns="http://www.w3.org/2000/svg" xmlns:xlink="http://www.w3.org/1999/xlink">
    <!-- Generator: sketchtool 52.4 (67378) - http://www.bohemiancoding.com/sketch -->
    <title>photograph</title>
    <desc>Created with sketchtool.</desc>
    <g id="新版图标" stroke="none" stroke-width="1" fill="none" fill-rule="evenodd">
        <g id="photograph" fill="#333333">
            <g id="圆角-照相">
                <path d="M277.777778,222.222222 L351.554985,111.556411 C351.740451,111.278212 352.052682,111.111111 352.387036,111.111111 L647.612964,111.111111 C647.947318,111.111111 648.259549,111.278212 648.445015,111.556411 L722.222222,222.222222 L943.444444,222.222222 C943.996729,222.222222 944.444444,222.669937 944.444444,223.222222 L944.444444,887.888889 C944.444444,888.441174 943.996729,888.888889 943.444444,888.888889 L56.5555556,888.888889 C56.0032708,888.888889 55.5555556,888.441174 55.5555556,887.888889 L55.5555556,223.222222 C55.5555556,222.669937 56.0032708,222.222222 56.5555556,222.222222 L277.777778,222.222222 Z M500,777.777778 C622.729944,777.777778 722.222222,678.2855 722.222222,555.555556 C722.222222,432.825611 622.729944,333.333333 500,333.333333 C377.270056,333.333333 277.777778,432.825611 277.777778,555.555556 C277.777778,678.2855 377.270056,777.777778 500,777.777778 Z M500,666.666667 C438.635028,666.666667 388.888889,616.920528 388.888889,555.555556 C388.888889,494.190583 438.635028,444.444444 500,444.444444 C561.364972,444.444444 611.111111,494.190583 611.111111,555.555556 C611.111111,616.920528 561.364972,666.666667 500,666.666667 Z" id="Combined-Shape"></path>
            </g>
        </g>
    </g>
</svg>