<svg width="1000" height="1000" xmlns="http://www.w3.org/2000/svg"><path d="M55.556 167.66a.995.995 0 0 1 1.004-.993h886.88c.555 0 1.004.453 1.004.994v664.678a.995.995 0 0 1-1.004.994H56.56a1.005 1.005 0 0 1-1.004-.994V167.661zm499.558 277.52L388.889 722.223h333.333L555.997 445.181c-.244-.407-.64-.407-.883 0zM395.665 311.404l-228.998 410.82h201.686s132.735-223.2 131.64-225.164L396.5 311.393c-.226-.406-.602-.406-.834.01zm382.113 77.486c30.682 0 55.555-24.873 55.555-55.556 0-30.682-24.873-55.555-55.555-55.555-30.683 0-55.556 24.873-55.556 55.555 0 30.683 24.873 55.556 55.556 55.556z" fill="#333" fill-rule="evenodd"/></svg>