<svg width="1000" height="1000" xmlns="http://www.w3.org/2000/svg"><path d="M277.778 222.222l57.581-86.372a55.556 55.556 0 0 1 46.225-24.739h236.832a55.556 55.556 0 0 1 46.225 24.739l57.581 86.372H888.89c30.682 0 55.555 24.873 55.555 55.556v555.555c0 30.683-24.873 55.556-55.555 55.556H111.11c-30.682 0-55.555-24.873-55.555-55.556V277.778c0-30.683 24.873-55.556 55.555-55.556h166.667zM500 777.778c122.73 0 222.222-99.493 222.222-222.222 0-122.73-99.492-222.223-222.222-222.223s-222.222 99.493-222.222 222.223c0 122.73 99.492 222.222 222.222 222.222zm0-111.111c-61.365 0-111.111-49.746-111.111-111.111S438.635 444.444 500 444.444s111.111 49.747 111.111 111.112c0 61.365-49.746 111.11-111.111 111.11z" fill="#333" fill-rule="evenodd"/></svg>