<?xml version="1.0" encoding="UTF-8"?>
<svg width="1000px" height="1000px" viewBox="0 0 1000 1000" version="1.1" xmlns="http://www.w3.org/2000/svg" xmlns:xlink="http://www.w3.org/1999/xlink">
    <!-- Generator: sketchtool 52.4 (67378) - http://www.bohemiancoding.com/sketch -->
    <title>photo</title>
    <desc>Created with sketchtool.</desc>
    <g id="新版图标" stroke="none" stroke-width="1" fill="none" fill-rule="evenodd">
        <g id="photo" fill="#333333">
            <g id="圆角-图片">
                <path d="M55.5555556,167.660546 C55.5555556,167.111641 55.9981826,166.666667 56.5595627,166.666667 L943.440437,166.666667 C943.994935,166.666667 944.444444,167.120283 944.444444,167.660546 L944.444444,832.339454 C944.444444,832.888359 944.001817,833.333333 943.440437,833.333333 L56.5595627,833.333333 C56.0050649,833.333333 55.5555556,832.879717 55.5555556,832.339454 L55.5555556,167.660546 Z M555.113703,445.180866 L388.888889,722.222222 L722.222222,722.222222 L555.997408,445.180866 C555.753272,444.773972 555.357731,444.774152 555.113703,445.180866 Z M395.665452,311.403183 L166.666667,722.222222 L368.353265,722.222222 C368.353265,722.222222 501.087933,499.022975 499.993266,497.059166 L396.498951,311.392526 C396.272646,310.986538 395.897257,310.98733 395.665452,311.403183 Z M777.777778,388.888889 C808.460264,388.888889 833.333333,364.015819 833.333333,333.333333 C833.333333,302.650847 808.460264,277.777778 777.777778,277.777778 C747.095292,277.777778 722.222222,302.650847 722.222222,333.333333 C722.222222,364.015819 747.095292,388.888889 777.777778,388.888889 Z" id="Combined-Shape"></path>
            </g>
        </g>
    </g>
</svg>