<svg width="1000" height="1000" xmlns="http://www.w3.org/2000/svg"><path d="M277.778 222.222l73.777-110.666a1 1 0 0 1 .832-.445h295.226a1 1 0 0 1 .832.445l73.777 110.666h221.222a1 1 0 0 1 1 1V887.89a1 1 0 0 1-1 1H56.556a1 1 0 0 1-1-1V223.222a1 1 0 0 1 1-1h221.222zM500 777.778c122.73 0 222.222-99.493 222.222-222.222 0-122.73-99.492-222.223-222.222-222.223s-222.222 99.493-222.222 222.223c0 122.73 99.492 222.222 222.222 222.222zm0-111.111c-61.365 0-111.111-49.746-111.111-111.111S438.635 444.444 500 444.444s111.111 49.747 111.111 111.112c0 61.365-49.746 111.11-111.111 111.11z" fill="#333" fill-rule="evenodd"/></svg>