<svg width="1000" height="1000" xmlns="http://www.w3.org/2000/svg"><path d="M55.556 222.36c0-30.759 24.701-55.693 55.604-55.693h777.68c30.71 0 55.604 25.32 55.604 55.693v555.28c0 30.759-24.701 55.693-55.604 55.693H111.16c-30.71 0-55.604-25.32-55.604-55.693V222.36zM611.11 444.444L444.444 722.222h333.334L611.11 444.444zM396.085 310.65L166.667 722.222h201.686s132.735-223.199 131.64-225.163L396.085 310.65zm381.693 78.239c30.682 0 55.555-24.873 55.555-55.556 0-30.682-24.873-55.555-55.555-55.555-30.683 0-55.556 24.873-55.556 55.555 0 30.683 24.873 55.556 55.556 55.556z" fill="#333" fill-rule="evenodd"/></svg>