<?xml version="1.0" encoding="UTF-8"?>
<svg width="1000px" height="1000px" viewBox="0 0 1000 1000" version="1.1" xmlns="http://www.w3.org/2000/svg" xmlns:xlink="http://www.w3.org/1999/xlink">
    <!-- Generator: sketchtool 52.4 (67378) - http://www.bohemiancoding.com/sketch -->
    <title>play</title>
    <desc>Created with sketchtool.</desc>
    <g id="新版图标" stroke="none" stroke-width="1" fill="none" fill-rule="evenodd">
        <g id="play" fill="#323233">
            <g id="圆角-播放-线-">
                <path d="M694.374695,500.436821 L417.897308,721.618731 C417.681677,721.791236 417.367031,721.756275 417.194526,721.540644 C417.123601,721.451988 417.08496,721.341832 417.08496,721.228297 L417.08496,278.864477 C417.08496,278.588335 417.308818,278.364477 417.58496,278.364477 C417.698496,278.364477 417.808651,278.403117 417.897308,278.474043 L694.374695,499.655952 C694.590326,499.828457 694.625287,500.143103 694.452782,500.358734 C694.429716,500.387567 694.403528,500.413755 694.374695,500.436821 Z M500,888.888889 C714.777403,888.888889 888.888889,714.777403 888.888889,500 C888.888889,285.222597 714.777403,111.111111 500,111.111111 C285.222597,111.111111 111.111111,285.222597 111.111111,500 C111.111111,714.777403 285.222597,888.888889 500,888.888889 Z M500,944.444444 C254.540111,944.444444 55.5555556,745.459889 55.5555556,500 C55.5555556,254.540111 254.540111,55.5555556 500,55.5555556 C745.459889,55.5555556 944.444444,254.540111 944.444444,500 C944.444444,745.459889 745.459889,944.444444 500,944.444444 Z" id="Triangle"></path>
            </g>
        </g>
    </g>
</svg>