<?xml version="1.0" encoding="UTF-8"?>
<svg width="1000px" height="1000px" viewBox="0 0 1000 1000" version="1.1" xmlns="http://www.w3.org/2000/svg" xmlns:xlink="http://www.w3.org/1999/xlink">
    <!-- Generator: sketchtool 52.4 (67378) - http://www.bohemiancoding.com/sketch -->
    <title>point-gift-o</title>
    <desc>Created with sketchtool.</desc>
    <g id="新版图标" stroke="none" stroke-width="1" fill="none" fill-rule="evenodd">
        <g id="point-gift-o" fill="#323233" fill-rule="nonzero">
            <g id="圆角-积分礼包" transform="translate(111.000000, 98.000000)">
                <path d="M570.883723,179.777778 L722.333333,179.777778 C753.015819,179.777778 777.888889,204.650847 777.888889,235.333333 L777.888889,346.444444 C777.888889,377.126931 753.015819,402 722.333333,402 L722.333333,735.333333 C722.333333,766.015819 697.460264,790.888889 666.777778,790.888889 L111.222222,790.888889 C80.5397361,790.888889 55.6666667,766.015819 55.6666667,735.333333 L55.6666667,402 C24.9841806,402 0.111111111,377.126931 0.111111111,346.444444 L0.111111111,235.333333 C0.111111111,204.650847 24.9841806,179.777778 55.6666667,179.777778 L243.60818,179.777778 C241.452952,177.779815 239.318926,175.725612 237.209275,173.615961 C182.96979,119.376476 165.381874,49.0248116 197.925565,16.4811207 C230.469256,-16.0625703 300.82092,1.52534576 355.060405,55.7648307 C382.180148,82.8845732 400.136998,114.032361 407.245951,142.468174 C414.354905,114.032361 432.311755,82.8845732 459.431497,55.7648307 C513.670982,1.52534576 584.022647,-16.0625703 616.566338,16.4811207 C649.110029,49.0248116 631.522113,119.376476 577.282628,173.615961 C575.172977,175.725612 573.038951,177.779815 570.883723,179.777778 Z M361.222222,235.333333 L55.6666667,235.333333 L55.6666667,346.444444 L111.222222,346.444444 L361.222222,346.444444 L361.222222,235.333333 Z M416.777778,235.333333 L416.777778,346.444444 L666.777778,346.444444 L722.333333,346.444444 L722.333333,235.333333 L416.777778,235.333333 Z M416.777778,402 L416.777778,735.333333 L666.777778,735.333333 L666.777778,402 L416.777778,402 Z M361.222222,402 L111.222222,402 L111.222222,735.333333 L361.222222,735.333333 L361.222222,402 Z M459.431497,173.615961 C464.938024,179.122488 502.632233,169.698935 537.998918,134.332251 C573.365602,98.9655663 582.789154,61.2713574 577.282628,55.7648307 C571.776101,50.258304 534.081892,59.6818562 498.715207,95.0485408 C463.348523,130.415225 453.924971,168.109434 459.431497,173.615961 Z M355.060405,173.615961 C360.566932,168.109434 351.14338,130.415225 315.776695,95.0485408 C280.410011,59.6818562 242.715802,50.258304 237.209275,55.7648307 C231.702748,61.2713574 241.126301,98.9655663 276.492985,134.332251 C311.85967,169.698935 349.553879,179.122488 355.060405,173.615961 Z" id="Combined-Shape"></path>
            </g>
        </g>
    </g>
</svg>