<svg width="1000" height="1000" xmlns="http://www.w3.org/2000/svg"><path d="M542.654 271.616c5.506 5.506 43.2-3.917 78.567-39.284 35.367-35.366 44.79-73.06 39.284-78.567-5.507-5.507-43.2 3.917-78.568 39.284-35.366 35.366-44.79 73.06-39.283 78.567zM472.222 500v388.889H167.667a1 1 0 0 1-1-1V500h305.555zm55.556 0h305.555v387.889a1 1 0 0 1-1 1H527.778V500zm0-55.556V277.778h-55.556v166.666h-360.11a1 1 0 0 1-1-1V278.778a1 1 0 0 1 1-1h242.496a234.743 234.743 0 0 1-6.399-6.162c-54.24-54.24-71.827-124.591-39.283-157.135 32.543-32.544 102.895-14.956 157.134 39.284 16.122 16.121 29.005 33.666 38.297 51.219 9.292-17.553 22.175-35.098 38.297-51.22 54.24-54.239 124.59-71.827 157.135-39.283 32.543 32.544 14.955 102.895-39.284 157.135a234.743 234.743 0 0 1-6.4 6.162H887.89a1 1 0 0 1 1 1v164.666a1 1 0 0 1-1 1H527.778zM466.06 271.616c5.507-5.507-3.917-43.2-39.283-78.567-35.367-35.367-73.061-44.79-78.568-39.284-5.506 5.506 3.917 43.2 39.284 78.567 35.367 35.367 73.06 44.79 78.567 39.284z" fill="#323233" fill-rule="nonzero"/></svg>