<?xml version="1.0" encoding="UTF-8"?>
<svg width="1000px" height="1000px" viewBox="0 0 1000 1000" version="1.1" xmlns="http://www.w3.org/2000/svg" xmlns:xlink="http://www.w3.org/1999/xlink">
    <!-- Generator: sketchtool 52.4 (67378) - http://www.bohemiancoding.com/sketch -->
    <title>points</title>
    <desc>Created with sketchtool.</desc>
    <g id="新版图标" stroke="none" stroke-width="1" fill="none" fill-rule="evenodd">
        <g id="points" fill="#323233" fill-rule="nonzero">
            <g id="圆角-积分兑换-线">
                <g transform="translate(55.555556, 55.555556)" id="Group-2">
                    <g>
                        <path d="M444.444444,416.666667 C215.892065,416.666667 27.7777778,336.046258 27.7777778,222.222222 C27.7777778,108.398187 215.892065,27.7777778 444.444444,27.7777778 C672.996824,27.7777778 861.111111,108.398187 861.111111,222.222222 C861.111111,336.046258 672.996824,416.666667 444.444444,416.666667 Z M444.444444,361.111111 C645.446871,361.111111 805.555556,292.493103 805.555556,222.222222 C805.555556,151.951341 645.446871,83.3333333 444.444444,83.3333333 C243.442018,83.3333333 83.3333333,151.951341 83.3333333,222.222222 C83.3333333,292.493103 243.442018,361.111111 444.444444,361.111111 Z" id="Oval-11"></path>
                        <path d="M143.899649,307.651776 L167.709352,357.846574 C112.221285,384.167119 83.3333333,415.704947 83.3333333,444.444444 C83.3333333,514.715325 243.442018,583.333333 444.444444,583.333333 C645.446871,583.333333 805.555556,514.715325 805.555556,444.444444 C805.555556,414.03305 773.174324,380.581425 711.925005,353.617915 L734.308977,302.771307 C813.502372,337.634256 861.111111,386.816748 861.111111,444.444444 C861.111111,558.26848 672.996824,638.888889 444.444444,638.888889 C215.892065,638.888889 27.7777778,558.26848 27.7777778,444.444444 C27.7777778,389.496792 71.1269588,342.171213 143.899649,307.651776 Z" id="Oval-11-Copy"></path>
                        <path d="M144.414146,529.630395 L168.152646,579.858907 C112.387148,606.214242 83.3333333,637.845719 83.3333333,666.666667 C83.3333333,736.937548 243.442018,805.555556 444.444444,805.555556 C645.446871,805.555556 805.555556,736.937548 805.555556,666.666667 C805.555556,636.550586 773.804835,603.43564 713.582912,576.574786 L736.213367,525.8374 C814.265385,560.651032 861.111111,609.509568 861.111111,666.666667 C861.111111,780.490702 672.996824,861.111111 444.444444,861.111111 C215.892065,861.111111 27.7777778,780.490702 27.7777778,666.666667 C27.7777778,611.587547 71.3310749,564.17019 144.414146,529.630395 Z" id="Oval-11-Copy-2"></path>
                    </g>
                </g>
            </g>
        </g>
    </g>
</svg>