<svg width="1000" height="1000" xmlns="http://www.w3.org/2000/svg"><path d="M630.833 246.217c-15.055 15.055-29.11 24-41.666 30.333h-38.223c1.445-13.833 11.945-41.055 40.556-69.666 38.056-38 73.667-44.278 78.611-39.278 4.889 4.889-1.278 40.555-39.278 78.61zM410.89 276.55c-12.556-6.333-26.611-15.278-41.611-30.278-38.056-38.11-44.167-73.722-39.278-78.61.944-.945 2.944-1.445 5.778-1.445 12.61 0 41.889 9.833 72.833 40.722 28.5 28.556 39.056 55.722 40.5 69.611H410.89zm422.5 0c30.667 0 55.555 24.834 55.555 55.556v55.555c0 30.723-24.888 55.556-55.555 55.556H527.833V276.55h-55.555v166.667H166.667c-30.667 0-55.556-24.833-55.556-55.556v-55.555c0-30.722 24.889-55.556 55.556-55.556h155.277c-49.11-54.166-63.055-116.333-31.222-148.166 33.5-33.723 101.167-16.723 157.167 39.277 26.944 26.945 44.611 56.611 52.167 83.89 7.5-27.279 25.166-56.945 52.166-83.945 56-56.056 123.722-72.834 157.167-39.278 31.778 31.889 17.778 94.111-31.278 148.222H833.39zM166.694 832.1V498.767H472.25v388.889h-250c-30.722 0-55.556-24.834-55.556-55.556zm361.112 55.556v-388.89H833.36V832.1c0 30.722-24.833 55.556-55.555 55.556h-250z" fill="#323233" fill-rule="evenodd"/></svg>