<svg width="1000" height="1000" xmlns="http://www.w3.org/2000/svg"><path d="M681.884 277.778h151.45c30.682 0 55.555 24.873 55.555 55.555v111.111c0 30.683-24.873 55.556-55.556 55.556v333.333c0 30.683-24.873 55.556-55.555 55.556H222.222c-30.682 0-55.555-24.873-55.555-55.556V500c-30.683 0-55.556-24.873-55.556-55.556v-111.11c0-30.683 24.873-55.556 55.556-55.556h187.941a234.743 234.743 0 0 1-6.399-6.162c-54.24-54.24-71.827-124.591-39.283-157.135 32.543-32.544 102.895-14.956 157.134 39.284 27.12 27.12 45.077 58.267 52.186 86.703 7.109-28.436 25.066-59.583 52.185-86.703 54.24-54.24 124.592-71.828 157.135-39.284 32.544 32.544 14.956 102.895-39.283 157.135a234.743 234.743 0 0 1-6.4 6.162zm-209.662 55.555H166.667v111.111h305.555v-111.11zm55.556 0v111.111h305.555v-111.11H527.778zm0 166.667v333.333h250V500h-250zm-55.556 0h-250v333.333h250V500zm98.21-228.384c5.506 5.506 43.2-3.917 78.567-39.284 35.367-35.366 44.79-73.06 39.284-78.567-5.507-5.507-43.201 3.917-78.568 39.284-35.366 35.366-44.79 73.06-39.284 78.567zm-104.372 0c5.507-5.507-3.917-43.2-39.283-78.567-35.367-35.367-73.061-44.79-78.568-39.284-5.506 5.506 3.917 43.2 39.284 78.567 35.367 35.367 73.06 44.79 78.567 39.284z" fill="#323233" fill-rule="nonzero"/></svg>