<svg width="1000" height="1000" xmlns="http://www.w3.org/2000/svg"><path d="M833.333 777.778V611.11H166.667v166.667H56.556a1 1 0 0 1-1-1V334.333a1 1 0 0 1 1-1h886.888a1 1 0 0 1 1 1v442.445a1 1 0 0 1-1 1h-110.11zM167.667 111.11h664.666a1 1 0 0 1 1 1v165.667H166.667V112.11a1 1 0 0 1 1-1zM819.444 500c23.012 0 41.667-18.655 41.667-41.667s-18.655-41.666-41.667-41.666c-23.011 0-41.666 18.654-41.666 41.666 0 23.012 18.655 41.667 41.666 41.667zM222.222 666.667h555.556v221.222a1 1 0 0 1-1 1H223.222a1 1 0 0 1-1-1V666.667z" fill="#323233" fill-rule="evenodd"/></svg>