<?xml version="1.0" encoding="UTF-8"?>
<svg width="1000px" height="1000px" viewBox="0 0 1000 1000" version="1.1" xmlns="http://www.w3.org/2000/svg" xmlns:xlink="http://www.w3.org/1999/xlink">
    <!-- Generator: sketchtool 52.4 (67378) - http://www.bohemiancoding.com/sketch -->
    <title>qr</title>
    <desc>Created with sketchtool.</desc>
    <g id="新版图标" stroke="none" stroke-width="1" fill="none" fill-rule="evenodd">
        <g id="qr" fill="#323233">
            <g id="圆角-二维码-线">
                <path d="M861.111111,722.222222 L694.444444,722.222222 L694.444444,666.666667 L694.444444,583.333333 L611.111111,583.333333 L611.111111,888.888889 C580.428625,888.888889 555.555556,864.015819 555.555556,833.333333 L555.555556,546.777778 L555.555556,528.777778 C555.555556,528.225493 556.003271,527.777778 556.555556,527.777778 L722.222222,527.777778 L750,527.777778 L750,666.666667 L833.333333,666.666667 L833.333333,527.777778 C864.015819,527.777778 888.888889,552.650847 888.888889,583.333333 L888.888889,722.222222 L861.111111,722.222222 Z M708.333333,861.111111 C685.321469,861.111111 666.666667,842.456309 666.666667,819.444444 C666.666667,796.43258 685.321469,777.777778 708.333333,777.777778 C731.345198,777.777778 750,796.43258 750,819.444444 C750,842.456309 731.345198,861.111111 708.333333,861.111111 Z M847.222222,861.111111 C824.210358,861.111111 805.555556,842.456309 805.555556,819.444444 C805.555556,796.43258 824.210358,777.777778 847.222222,777.777778 C870.234087,777.777778 888.888889,796.43258 888.888889,819.444444 C888.888889,842.456309 870.234087,861.111111 847.222222,861.111111 Z" id="Combined-Shape"></path>
                <path d="M166.666667,166.666667 L166.666667,416.666667 L416.666667,416.666667 L416.666667,166.666667 L166.666667,166.666667 Z M166.666667,111.111111 L416.666667,111.111111 C447.349153,111.111111 472.222222,135.984181 472.222222,166.666667 L472.222222,416.666667 C472.222222,447.349153 447.349153,472.222222 416.666667,472.222222 L166.666667,472.222222 C135.984181,472.222222 111.111111,447.349153 111.111111,416.666667 L111.111111,166.666667 C111.111111,135.984181 135.984181,111.111111 166.666667,111.111111 Z M583.333333,111.111111 L833.333333,111.111111 C864.015819,111.111111 888.888889,135.984181 888.888889,166.666667 L888.888889,416.666667 C888.888889,447.349153 864.015819,472.222222 833.333333,472.222222 L583.333333,472.222222 C552.650847,472.222222 527.777778,447.349153 527.777778,416.666667 L527.777778,166.666667 C527.777778,135.984181 552.650847,111.111111 583.333333,111.111111 Z M583.333333,166.666667 L583.333333,416.666667 L833.333333,416.666667 L833.333333,166.666667 L583.333333,166.666667 Z M166.666667,527.777778 L416.666667,527.777778 C447.349153,527.777778 472.222222,552.650847 472.222222,583.333333 L472.222222,833.333333 C472.222222,864.015819 447.349153,888.888889 416.666667,888.888889 L166.666667,888.888889 C135.984181,888.888889 111.111111,864.015819 111.111111,833.333333 L111.111111,583.333333 C111.111111,552.650847 135.984181,527.777778 166.666667,527.777778 Z M166.666667,583.333333 L166.666667,833.333333 L416.666667,833.333333 L416.666667,583.333333 L166.666667,583.333333 Z" id="Combined-Shape" fill-rule="nonzero"></path>
            </g>
        </g>
    </g>
</svg>