<svg width="1000" height="1000" xmlns="http://www.w3.org/2000/svg"><g fill="#323233" fill-rule="evenodd"><path d="M861.111 722.222H694.444V583.333h-83.333V888.89c-30.682 0-55.555-24.873-55.555-55.556V528.778a1 1 0 0 1 1-1H750v138.889h83.333v-138.89c30.683 0 55.556 24.874 55.556 55.556v138.89H861.11zm-152.778 138.89c-23.012 0-41.666-18.656-41.666-41.668 0-23.011 18.654-41.666 41.666-41.666 23.012 0 41.667 18.655 41.667 41.666 0 23.012-18.655 41.667-41.667 41.667zm138.89 0c-23.013 0-41.667-18.656-41.667-41.668 0-23.011 18.654-41.666 41.666-41.666 23.012 0 41.667 18.655 41.667 41.666 0 23.012-18.655 41.667-41.667 41.667z"/><path d="M166.667 166.667v250h250v-250h-250zm0-55.556h250c30.682 0 55.555 24.873 55.555 55.556v250c0 30.682-24.873 55.555-55.555 55.555h-250c-30.683 0-55.556-24.873-55.556-55.555v-250c0-30.683 24.873-55.556 55.556-55.556zm416.666 0h250c30.683 0 55.556 24.873 55.556 55.556v250c0 30.682-24.873 55.555-55.556 55.555h-250c-30.682 0-55.555-24.873-55.555-55.555v-250c0-30.683 24.873-55.556 55.555-55.556zm0 55.556v250h250v-250h-250zm-416.666 361.11h250c30.682 0 55.555 24.874 55.555 55.556v250c0 30.683-24.873 55.556-55.555 55.556h-250c-30.683 0-55.556-24.873-55.556-55.556v-250c0-30.682 24.873-55.555 55.556-55.555zm0 55.556v250h250v-250h-250z" fill-rule="nonzero"/></g></svg>