<?xml version="1.0" encoding="UTF-8"?>
<svg width="1000px" height="1000px" viewBox="0 0 1000 1000" version="1.1" xmlns="http://www.w3.org/2000/svg" xmlns:xlink="http://www.w3.org/1999/xlink">
    <!-- Generator: sketchtool 52.4 (67378) - http://www.bohemiancoding.com/sketch -->
    <title>question-o</title>
    <desc>Created with sketchtool.</desc>
    <g id="新版图标" stroke="none" stroke-width="1" fill="none" fill-rule="evenodd">
        <g id="question-o" fill="#323233">
            <g id="圆角-答疑-线">
                <path d="M500,888.888889 C285.611111,888.888889 111.111111,714.388889 111.111111,500 C111.111111,285.611111 285.611111,111.111111 500,111.111111 C714.388889,111.111111 888.888889,285.611111 888.888889,500 C888.888889,714.388889 714.388889,888.888889 500,888.888889 M500,55.5555556 C254.555556,55.5555556 55.5555556,254.555556 55.5555556,500 C55.5555556,745.444444 254.555556,944.444444 500,944.444444 C745.444444,944.444444 944.444444,745.444444 944.444444,500 C944.444444,254.555556 745.444444,55.5555556 500,55.5555556 M506.455556,277.777778 C461.844444,277.777778 426.455556,290.555556 400.844444,316.833333 C374.566667,342.5 361.788889,377.277778 361.788889,421.888889 L361.788889,422.888889 C361.788889,440.833333 376.233333,455.333333 394.177778,455.333333 C412.066667,455.333333 426.566667,440.833333 426.566667,422.888889 C426.566667,422.5 426.455556,421.888889 426.455556,421.888889 C426.455556,394.944444 431.9,373.666667 442.9,359 C455.122222,341.888889 475.233333,333.333333 502.788889,333.333333 C524.733333,333.333333 541.844444,339.444444 554.011111,351.666667 C565.622222,363.888889 571.788889,380.388889 571.788889,401.722222 C571.788889,417.611111 566.233333,432.222222 555.233333,446.277778 L544.844444,457.888889 C507.066667,491.444444 484.511111,516.888889 475.233333,533.555556 C461.4,558.5 463.9,581.555556 463.9,581.555556 C463.9,599.444444 478.455556,613.944444 496.344444,613.944444 C514.288889,613.944444 526.122222,601.611111 528.733333,581.555556 C528.733333,581.555556 532.066667,562.888889 538.788889,550.666667 C544.288889,539.722222 552.844444,529.277778 563.788889,519.555556 C593.177778,494.5 610.233333,478.611111 615.677778,471.888889 C630.344444,452.388889 638.233333,427.333333 638.233333,397.444444 C638.233333,360.833333 626.066667,331.5 602.288889,310.111111 C577.844444,288.166667 546.122222,277.777778 506.455556,277.777778 M496.038889,634.927778 C483.261111,634.927778 472.816667,638.594444 464.927778,647.15 C455.705556,655.038889 451.427778,665.483333 451.427778,678.261111 C451.427778,690.483333 455.705556,700.872222 464.927778,709.427778 C472.816667,717.927778 483.261111,722.205556 496.038889,722.205556 C508.316667,722.205556 519.261111,717.927778 528.427778,710.038889 C536.927778,701.427778 541.205556,691.094444 541.205556,678.261111 C541.205556,665.483333 536.927778,655.038889 528.427778,647.15 C519.872222,638.594444 508.872222,634.927778 496.038889,634.927778" id="Fill-1"></path>
            </g>
        </g>
    </g>
</svg>