<?xml version="1.0" encoding="UTF-8"?>
<svg width="778px" height="778px" viewBox="0 0 778 778" version="1.1" xmlns="http://www.w3.org/2000/svg" xmlns:xlink="http://www.w3.org/1999/xlink">
    <!-- Generator: sketchtool 52.4 (67378) - http://www.bohemiancoding.com/sketch -->
    <title>Rectangle 18 Copy</title>
    <desc>Created with sketchtool.</desc>
    <g id="新版图标" stroke="none" stroke-width="1" fill="none" fill-rule="evenodd">
        <g id="apps-o" transform="translate(-111.000000, -111.000000)" fill="#323233" fill-rule="nonzero">
            <g id="直角-营销应用-线">
                <path d="M708.333333,166.666667 C639.29774,166.666667 583.333333,222.631073 583.333333,291.666667 C583.333333,360.70226 639.29774,416.666667 708.333333,416.666667 C777.368927,416.666667 833.333333,360.70226 833.333333,291.666667 C833.333333,222.631073 777.368927,166.666667 708.333333,166.666667 Z M708.333333,111.111111 C808.051413,111.111111 888.888889,191.948587 888.888889,291.666667 C888.888889,391.384746 808.051413,472.222222 708.333333,472.222222 C608.615254,472.222222 527.777778,391.384746 527.777778,291.666667 C527.777778,191.948587 608.615254,111.111111 708.333333,111.111111 Z M166.666667,166.666667 L166.666667,416.666667 L416.666667,416.666667 L416.666667,166.666667 L166.666667,166.666667 Z M112.111111,111.111111 L472.222222,111.111111 L472.222222,472.222222 L111.111111,472.222222 L111.111111,112.111111 C111.111111,111.558826 111.558826,111.111111 112.111111,111.111111 Z M166.666667,583.333333 L166.666667,833.333333 L416.666667,833.333333 L416.666667,583.333333 L166.666667,583.333333 Z M111.111111,527.777778 L472.222222,527.777778 L472.222222,888.888889 L112.111111,888.888889 C111.558826,888.888889 111.111111,888.441174 111.111111,887.888889 L111.111111,527.777778 Z M583.333333,583.333333 L583.333333,833.333333 L833.333333,833.333333 L833.333333,583.333333 L583.333333,583.333333 Z M527.777778,527.777778 L888.888889,527.777778 L888.888889,887.888889 C888.888889,888.441174 888.441174,888.888889 887.888889,888.888889 L527.777778,888.888889 L527.777778,527.777778 Z" id="Rectangle-18-Copy"></path>
            </g>
        </g>
    </g>
</svg>