<svg width="1000" height="1000" xmlns="http://www.w3.org/2000/svg"><g fill="none" fill-rule="evenodd"><path d="M555.556 833.333c184.094 0 333.333-149.238 333.333-333.333 0-184.095-149.239-333.333-333.333-333.333-184.095 0-333.334 149.238-333.334 333.333 0 184.095 149.239 333.333 333.334 333.333zM124.058 689.717a27.712 27.712 0 0 1-7.466-6.843l-85.416-113.22c-9.239-12.247-6.8-29.666 5.446-38.905 12.247-9.24 29.665-6.801 38.905 5.446l10.108 13.398A534.07 534.07 0 0 1 83.333 500c0-82.474 18.954-162.3 54.876-234.584 6.827-13.739 23.5-19.341 37.237-12.514 13.739 6.828 19.341 23.5 12.514 37.238-32.126 64.644-49.071 136.013-49.071 209.86 0 54.301 9.156 107.312 26.863 157.41 5.112 14.464-2.469 30.334-16.933 35.447-8.61 3.043-17.72 1.588-24.76-3.14zM555.556 888.89c-214.778 0-388.89-174.112-388.89-388.889 0-214.777 174.112-388.889 388.89-388.889 214.777 0 388.888 174.112 388.888 388.889 0 214.777-174.111 388.889-388.888 388.889zm-28.399-479.013h49.354l62.378-108.042c7.67-13.286 24.66-17.838 37.945-10.167 13.286 7.67 17.838 24.659 10.167 37.945l-46.34 80.264h60.882c15.341 0 27.778 12.437 27.778 27.778s-12.437 27.778-27.778 27.778H590.432v55.555h111.11c15.342 0 27.779 12.437 27.779 27.778s-12.437 27.778-27.778 27.778H590.432v111.111c0 15.341-12.437 27.778-27.778 27.778s-27.778-12.437-27.778-27.778V576.543h-111.11c-15.342 0-27.779-12.437-27.779-27.778s12.437-27.778 27.778-27.778h111.111v-55.555h-111.11c-15.342 0-27.779-12.437-27.779-27.778s12.437-27.778 27.778-27.778h39.242l-46.34-80.264c-7.671-13.286-3.119-30.275 10.167-37.945 13.286-7.671 30.275-3.119 37.945 10.167l62.378 108.042z" fill="#323233" fill-rule="nonzero"/></g></svg>