<svg width="1000" height="1000" xmlns="http://www.w3.org/2000/svg"><g fill="#323233" fill-rule="nonzero"><path d="M555.556 833.333c184.094 0 333.333-149.238 333.333-333.333 0-184.095-149.239-333.333-333.333-333.333-184.095 0-333.334 149.238-333.334 333.333 0 184.095 149.239 333.333 333.334 333.333zM124.058 689.717a27.712 27.712 0 0 1-7.466-6.843l-85.416-113.22c-9.239-12.247-6.8-29.666 5.446-38.905 12.247-9.24 29.665-6.801 38.905 5.446l10.108 13.398A534.07 534.07 0 0 1 83.333 500c0-82.474 18.954-162.3 54.876-234.584 6.827-13.739 23.5-19.341 37.237-12.514 13.739 6.828 19.341 23.5 12.514 37.238-32.126 64.644-49.071 136.013-49.071 209.86 0 54.301 9.156 107.312 26.863 157.41 5.112 14.464-2.469 30.334-16.933 35.447-8.61 3.043-17.72 1.588-24.76-3.14zM555.556 888.89c-214.778 0-388.89-174.112-388.89-388.889 0-214.777 174.112-388.889 388.89-388.889 214.777 0 388.888 174.112 388.888 388.889 0 214.777-174.111 388.889-388.888 388.889z"/><path d="M455.556 488.889c-18.41 0-33.334-14.924-33.334-33.333 0-18.41 14.924-33.334 33.334-33.334h200c18.409 0 33.333 14.924 33.333 33.334 0 18.409-14.924 33.333-33.333 33.333h-200zM455.556 596.294c-18.41 0-33.334-14.923-33.334-33.333 0-18.41 14.924-33.333 33.334-33.333h200c18.409 0 33.333 14.924 33.333 33.333 0 18.41-14.924 33.333-33.333 33.333h-200z"/><path d="M522.222 423.353c0-8.839 3.51-17.316 9.76-23.567l101.912-101.94c13.016-13.02 34.122-13.023 47.14-.007 13.02 13.016 13.023 34.121.008 47.14l-92.153 92.179v218.398c0 44.444-66.667 44.444-66.667 0v-200c0-18.41 14.924-33.334 33.334-33.334 18.409 0 33.333 14.924 33.333 33.334v200h-66.667V423.353z"/><path d="M590.801 423.353c0-8.839-3.51-17.316-9.76-23.567L479.13 297.846c-13.016-13.02-34.121-13.023-47.14-.007-13.02 13.016-13.023 34.121-.007 47.14l92.153 92.179v218.398c0 44.444 66.666 44.444 66.666 0v-200c0-18.41-14.924-33.334-33.333-33.334-18.41 0-33.333 14.924-33.333 33.334v200H590.8V423.353z"/></g></svg>