<?xml version="1.0" encoding="UTF-8"?>
<svg width="1000px" height="1000px" viewBox="0 0 1000 1000" version="1.1" xmlns="http://www.w3.org/2000/svg" xmlns:xlink="http://www.w3.org/1999/xlink">
    <!-- Generator: sketchtool 52.4 (67378) - http://www.bohemiancoding.com/sketch -->
    <title>refund-o</title>
    <desc>Created with sketchtool.</desc>
    <g id="新版图标" stroke="none" stroke-width="1" fill="none" fill-rule="evenodd">
        <g id="refund-o" fill="#323233" fill-rule="nonzero">
            <g id="圆角-退款">
                <path d="M555.555556,833.333333 C739.650472,833.333333 888.888889,684.094917 888.888889,500 C888.888889,315.905083 739.650472,166.666667 555.555556,166.666667 C371.460639,166.666667 222.222222,315.905083 222.222222,500 C222.222222,684.094917 371.460639,833.333333 555.555556,833.333333 Z M124.058342,689.71738 C121.247896,687.964609 118.705714,685.675944 116.591705,682.873771 L31.1763945,569.653556 C21.9370607,557.406579 24.3752374,539.988482 36.6222146,530.749148 C48.8691917,521.509815 66.2872882,523.947991 75.526622,536.194968 L85.6345905,549.593344 C84.105065,533.190774 83.3333333,516.646638 83.3333333,500 C83.3333333,417.525625 102.286694,337.700259 138.209027,265.415759 C145.036381,251.677456 161.708141,246.075025 175.446444,252.90238 C189.184747,259.729734 194.787178,276.401493 187.959823,290.139797 C155.834384,354.784018 138.888889,426.152913 138.888889,500 C138.888889,554.301282 148.045165,607.31242 165.752059,657.409831 C170.864468,671.874167 163.283234,687.744254 148.818898,692.856663 C140.208189,695.900112 131.099296,694.445067 124.058342,689.71738 Z M555.555556,888.888889 C340.778153,888.888889 166.666667,714.777403 166.666667,500 C166.666667,285.222597 340.778153,111.111111 555.555556,111.111111 C770.332958,111.111111 944.444444,285.222597 944.444444,500 C944.444444,714.777403 770.332958,888.888889 555.555556,888.888889 Z" id="Combined-Shape"></path>
                <path d="M455.555556,488.888889 C437.146064,488.888889 422.222222,473.965047 422.222222,455.555556 C422.222222,437.146064 437.146064,422.222222 455.555556,422.222222 L655.555556,422.222222 C673.965047,422.222222 688.888889,437.146064 688.888889,455.555556 C688.888889,473.965047 673.965047,488.888889 655.555556,488.888889 L455.555556,488.888889 Z" id="Line-8"></path>
                <path d="M455.555556,596.294488 C437.146064,596.294488 422.222222,581.370646 422.222222,562.961155 C422.222222,544.551663 437.146064,529.627821 455.555556,529.627821 L655.555556,529.627821 C673.965047,529.627821 688.888889,544.551663 688.888889,562.961155 C688.888889,581.370646 673.965047,596.294488 655.555556,596.294488 L455.555556,596.294488 Z" id="Line-8-Copy"></path>
                <path d="M522.222222,423.353407 C522.222222,414.514471 525.732838,406.037419 531.982036,399.786475 L633.894471,297.845557 C646.910129,284.826262 668.015628,284.823313 681.034923,297.83897 C694.054218,310.854627 694.057167,331.960127 681.04151,344.979422 L588.888889,437.157798 L588.888889,655.555556 C588.888889,700 522.222222,700 522.222222,655.555556 L522.222222,455.555556 C522.222222,437.146064 537.146064,422.222222 555.555556,422.222222 C573.965047,422.222222 588.888889,437.146064 588.888889,455.555556 L588.888889,655.555556 L522.222222,655.555556 L522.222222,423.353407 Z" id="Line"></path>
                <path d="M422.222222,423.353407 C422.222222,414.514471 425.732838,406.037419 431.982036,399.786475 L533.894471,297.845557 C546.910129,284.826262 568.015628,284.823313 581.034923,297.83897 C594.054218,310.854627 594.057167,331.960127 581.04151,344.979422 L488.888889,437.157798 L488.888889,655.555556 C488.888889,700 422.222222,700 422.222222,655.555556 L422.222222,455.555556 C422.222222,437.146064 437.146064,422.222222 455.555556,422.222222 C473.965047,422.222222 488.888889,437.146064 488.888889,455.555556 L488.888889,655.555556 L422.222222,655.555556 L422.222222,423.353407 Z" id="Line-Copy" transform="translate(506.511773, 488.484022) scale(-1, 1) translate(-506.511773, -488.484022) "></path>
            </g>
        </g>
    </g>
</svg>