<?xml version="1.0" encoding="UTF-8"?>
<svg width="1000px" height="1000px" viewBox="0 0 1000 1000" version="1.1" xmlns="http://www.w3.org/2000/svg" xmlns:xlink="http://www.w3.org/1999/xlink">
    <!-- Generator: sketchtool 52.4 (67378) - http://www.bohemiancoding.com/sketch -->
    <title>scan</title>
    <desc>Created with sketchtool.</desc>
    <g id="新版图标" stroke="none" stroke-width="1" fill="none" fill-rule="evenodd">
        <g id="scan" fill="#323233" fill-rule="nonzero">
            <g id="直角-扫一扫" transform="translate(111.000000, 111.000000)">
                <path d="M0.111111111,222.333333 L0.111111111,55.6666667 C0.111111111,24.9841806 24.9841806,0.111111111 55.6666667,0.111111111 L222.333333,0.111111111 L222.333333,55.6666667 L55.6666667,55.6666667 L55.6666667,222.333333 L0.111111111,222.333333 Z M0.111111111,555.666667 L55.6666667,555.666667 L55.6666667,722.333333 L222.333333,722.333333 L222.333333,777.888889 L55.6666667,777.888889 C24.9841806,777.888889 0.111111111,753.015819 0.111111111,722.333333 L0.111111111,555.666667 Z M777.888889,222.333333 L722.333333,222.333333 L722.333333,55.6666667 L555.666667,55.6666667 L555.666667,0.111111111 L722.333333,0.111111111 C753.015819,0.111111111 777.888889,24.9841806 777.888889,55.6666667 L777.888889,222.333333 Z M777.888889,555.666667 L777.888889,722.333333 C777.888889,753.015819 753.015819,777.888889 722.333333,777.888889 L555.666667,777.888889 L555.666667,722.333333 L722.333333,722.333333 L722.333333,555.666667 L777.888889,555.666667 Z M0.111111111,361.222222 L777.888889,361.222222 L777.888889,416.777778 L0.111111111,416.777778 L0.111111111,361.222222 Z" id="Combined-Shape"></path>
            </g>
        </g>
    </g>
</svg>