<svg width="1000" height="1000" xmlns="http://www.w3.org/2000/svg"><path d="M111.111 333.333V166.667c0-30.683 24.873-55.556 55.556-55.556h166.666v55.556H166.667v166.666H111.11zm0 333.334h55.556v166.666h166.666v55.556H166.667c-30.683 0-55.556-24.873-55.556-55.556V666.667zM888.89 333.333h-55.556V166.667H666.667V111.11h166.666c30.683 0 55.556 24.873 55.556 55.556v166.666zm0 333.334v166.666c0 30.683-24.873 55.556-55.556 55.556H666.667v-55.556h166.666V666.667h55.556zM111.11 472.222H888.89v55.556H111.11v-55.556z" fill="#323233" fill-rule="nonzero"/></svg>