<?xml version="1.0" encoding="UTF-8"?>
<svg width="1000px" height="1000px" viewBox="0 0 1000 1000" version="1.1" xmlns="http://www.w3.org/2000/svg" xmlns:xlink="http://www.w3.org/1999/xlink">
    <!-- Generator: sketchtool 52.4 (67378) - http://www.bohemiancoding.com/sketch -->
    <title>send-gift-o</title>
    <desc>Created with sketchtool.</desc>
    <g id="新版图标" stroke="none" stroke-width="1" fill="none" fill-rule="evenodd">
        <g id="send-gift-o" fill="#323233" fill-rule="nonzero">
            <g id="圆角-已发货-线" transform="translate(111.000000, 111.000000)">
                <path d="M55.6666667,166.777778 L55.6666667,722.333333 L722.333333,722.333333 L722.333333,166.777778 L55.6666667,166.777778 Z M0.111111111,111.222222 L777.888889,111.222222 L777.888889,722.333333 C777.888889,753.015819 753.015819,777.888889 722.333333,777.888889 L55.6666667,777.888889 C24.9841806,777.888889 0.111111111,753.015819 0.111111111,722.333333 L0.111111111,111.222222 Z M500.111111,166.777778 L277.888889,166.777778 L277.888889,419.191311 L389,376.413223 L500.111111,419.191311 L500.111111,166.777778 Z M222.333333,111.222222 L555.666667,111.222222 L555.666667,500.111111 L389,435.94398 L222.333333,500.111111 L222.333333,111.222222 Z M62.2241105,111.222222 L0.111111111,111.222222 L40.3114888,30.8214669 C49.7221562,12.000132 68.9589961,0.111111111 90.0018883,0.111111111 L687.998112,0.111111111 C709.041004,0.111111111 728.277844,12.000132 737.688511,30.8214669 L777.888889,111.222222 L715.77589,111.222222 L687.998112,55.6666667 L90.0018883,55.6666667 L62.2241105,111.222222 Z" id="Rectangle-7-Copy"></path>
            </g>
        </g>
    </g>
</svg>