<svg width="1000" height="1000" xmlns="http://www.w3.org/2000/svg"><path d="M111.111 833.333V277.778H888.89v555.555c0 30.723-24.833 55.556-55.556 55.556H166.667c-30.723 0-55.556-24.833-55.556-55.556zm222.222-500v317.945c0 7.555 7.445 12.889 14.667 10.5l134.444-44.834a55.804 55.804 0 0 1 35.112 0L652 661.778c7.222 2.389 14.667-2.945 14.667-10.5V333.333H333.333zM848.69 141.817l40.222 80.389H111.133l40.167-80.39c9.389-18.833 28.667-30.722 49.722-30.722h597.945c21.055 0 40.333 11.89 49.722 30.723z" fill="#323233" fill-rule="evenodd"/></svg>