<svg width="1000" height="1000" xmlns="http://www.w3.org/2000/svg"><g fill="none" fill-rule="evenodd"><path d="M111.62 206.553l40.137-80.272a55.468 55.468 0 0 1 49.61-30.661h597.047a55.468 55.468 0 0 1 49.61 30.661l40.137 80.272.002 610.14c0 30.634-24.833 55.467-55.468 55.467H167.088c-30.634 0-55.467-24.833-55.467-55.468V206.553zm62.015 0h652.513l-27.734-55.467H201.369l-27.734 55.467zm159.854 55.468h-166.4v554.671h665.605V262.021h-166.4v332.804L499.89 530.758 333.49 594.825V262.02zm277.337 0H388.958v252.011l110.933-42.71 110.935 42.71V262.021z" fill="#000" fill-rule="nonzero"/></g></svg>