<?xml version="1.0" encoding="UTF-8"?>
<svg width="1000px" height="1000px" viewBox="0 0 1000 1000" version="1.1" xmlns="http://www.w3.org/2000/svg" xmlns:xlink="http://www.w3.org/1999/xlink">
    <!-- Generator: sketchtool 52.4 (67378) - http://www.bohemiancoding.com/sketch -->
    <title>service</title>
    <desc>Created with sketchtool.</desc>
    <g id="新版图标" stroke="none" stroke-width="1" fill="none" fill-rule="evenodd">
        <g id="service" fill="#323233">
            <g id="圆角-客服1-面">
                <g transform="translate(111.111111, 55.555556)" id="Group-2">
                    <g>
                        <path d="M0,388.888889 L55.5555556,388.888889 L55.5555556,722.222222 L1,722.222222 C0.44771525,722.222222 6.76353751e-17,721.774507 0,721.222222 L0,388.888889 Z" id="Rectangle-10"></path>
                        <rect id="Rectangle-10-Copy" x="722.222222" y="388.888889" width="55.5555556" height="333.333333"></rect>
                        <path d="M1,388.888889 L166.666667,388.888889 L166.666667,721.222222 C166.666667,721.774507 166.218951,722.222222 165.666667,722.222222 L1,722.222222 C0.44771525,722.222222 6.76353751e-17,721.774507 0,721.222222 L0,389.888889 C-6.76353751e-17,389.336604 0.44771525,388.888889 1,388.888889 Z" id="Rectangle-7" transform="translate(83.333333, 555.555556) scale(-1, 1) translate(-83.333333, -555.555556) "></path>
                        <path d="M722.02497,722.222222 L776.777778,722.222222 C777.123885,722.222222 777.428924,722.046391 777.608442,721.779182 C774.180206,829.612475 721.095228,889.17372 623.911209,889.17372 L416.898249,889.17372 C401.557006,889.17372 389.120471,876.737185 389.120471,861.395942 C389.120471,846.054699 401.557006,833.618164 416.898249,833.618164 L623.911209,833.618164 C688.333,833.618164 719.251383,800.055197 722.02497,722.222222 L612.111111,722.222222 C611.558826,722.222222 611.111111,721.774507 611.111111,721.222222 L611.111111,389.888889 C611.111111,389.336604 611.558826,388.888889 612.111111,388.888889 L777.777778,388.888889 L777.777778,611.111129 Z" id="Combined-Shape"></path>
                        <path d="M55.5555556,388.888889 L0,388.888889 C0,174.111486 174.111486,0 388.888889,0 C603.666292,0 777.777778,174.111486 777.777778,388.888889 L722.222222,388.888889 C722.222222,204.793972 572.983805,55.5555556 388.888889,55.5555556 C204.793972,55.5555556 55.5555556,204.793972 55.5555556,388.888889 Z" id="Oval-3" fill-rule="nonzero"></path>
                    </g>
                </g>
            </g>
        </g>
    </g>
</svg>