<svg width="1000" height="1000" xmlns="http://www.w3.org/2000/svg"><g fill="#323233" fill-rule="evenodd"><path d="M111.111 444.444h55.556v333.334H112.11a1 1 0 0 1-1-1V444.444zM833.333 444.445h55.556v333.333h-55.556z"/><path d="M276.778 444.444H111.11v332.334a1 1 0 0 0 1 1h164.667a1 1 0 0 0 1-1V445.444a1 1 0 0 0-1-1zM833.136 777.778h54.753a.999.999 0 0 0 .83-.443c-3.428 107.833-56.513 167.394-153.697 167.394H528.01c-15.34 0-27.777-12.436-27.777-27.778 0-15.34 12.436-27.777 27.777-27.777h207.013c64.422 0 95.34-33.563 98.114-111.396H723.222a1 1 0 0 1-1-1V445.444a1 1 0 0 1 1-1H888.89v222.223z"/><path d="M166.667 444.444H111.11c0-214.777 174.112-388.888 388.889-388.888 214.777 0 388.889 174.111 388.889 388.888h-55.556c0-184.094-149.238-333.333-333.333-333.333-184.095 0-333.333 149.239-333.333 333.333z" fill-rule="nonzero"/></g></svg>