<svg width="1000" height="1000" xmlns="http://www.w3.org/2000/svg"><path d="M222.222 444.444c30.683 0 55.556 24.874 55.556 55.556v222.222c0 30.683-24.873 55.556-55.556 55.556h-55.555c-30.683 0-55.556-24.873-55.556-55.556V444.444h111.111zm555.556 0h111.11v277.778c0 30.683-24.872 55.556-55.555 55.556h-55.555c-30.683 0-55.556-24.873-55.556-55.556V500c0-30.682 24.873-55.556 55.556-55.556zm55.555 222.222c0-15.34 12.437-27.777 27.778-27.777 15.342 0 27.778 12.437 27.778 27.778l-.002 102.015c-.82 113.295-54.112 176.047-153.865 176.047H528.01c-15.34 0-27.777-12.436-27.777-27.778 0-15.34 12.436-27.777 27.777-27.777h207.013c66.931 0 97.698-36.229 98.31-120.693l.001-101.815zM166.667 444.444H111.11c0-214.777 174.112-388.888 388.889-388.888 214.777 0 388.889 174.111 388.889 388.888h-55.556c0-184.094-149.238-333.333-333.333-333.333-184.095 0-333.333 149.239-333.333 333.333z" fill="#323233" fill-rule="nonzero"/></svg>