<?xml version="1.0" encoding="UTF-8"?>
<svg width="1000px" height="1000px" viewBox="0 0 1000 1000" version="1.1" xmlns="http://www.w3.org/2000/svg" xmlns:xlink="http://www.w3.org/1999/xlink">
    <!-- Generator: sketchtool 52.4 (67378) - http://www.bohemiancoding.com/sketch -->
    <title>service-o</title>
    <desc>Created with sketchtool.</desc>
    <g id="新版图标" stroke="none" stroke-width="1" fill="none" fill-rule="evenodd">
        <g id="service-o" fill="#323233">
            <g id="圆角-客服1-线">
                <g transform="translate(111.111111, 55.555556)">
                    <path d="M0,388.888889 L55.5555556,388.888889 L55.5555556,722.222222 L1,722.222222 C0.44771525,722.222222 6.76353751e-17,721.774507 0,721.222222 L0,388.888889 Z" id="Rectangle-10"></path>
                    <rect id="Rectangle-10-Copy" x="722.222222" y="388.888889" width="55.5555556" height="333.333333"></rect>
                    <path d="M111.111111,444.444444 L55.5555556,444.444444 L55.5555556,666.666667 L111.111111,666.666667 L111.111111,444.444444 Z M55.5555556,388.888889 L166.666667,388.888889 L166.666667,666.666667 C166.666667,697.349153 141.793597,722.222222 111.111111,722.222222 L55.5555556,722.222222 C24.8730695,722.222222 0,697.349153 0,666.666667 L0,444.444444 C0,413.761958 24.8730695,388.888889 55.5555556,388.888889 Z" id="Rectangle-7" fill-rule="nonzero" transform="translate(83.333333, 555.555556) scale(-1, 1) translate(-83.333333, -555.555556) "></path>
                    <path d="M722.222222,444.444444 L666.666667,444.444444 L666.666667,666.666667 L722.222222,666.666667 L722.222222,444.444444 Z M666.666667,388.888889 L777.777778,388.888889 L777.777778,666.666667 C777.777778,697.349153 752.904708,722.222222 722.222222,722.222222 L666.666667,722.222222 C635.984181,722.222222 611.111111,697.349153 611.111111,666.666667 L611.111111,444.444444 C611.111111,413.761958 635.984181,388.888889 666.666667,388.888889 Z" id="Rectangle-7-Copy" fill-rule="nonzero"></path>
                    <path d="M55.5555556,388.888889 L0,388.888889 C0,174.111486 174.111486,0 388.888889,0 C603.666292,0 777.777778,174.111486 777.777778,388.888889 L722.222222,388.888889 C722.222222,204.793972 572.983805,55.5555556 388.888889,55.5555556 C204.793972,55.5555556 55.5555556,204.793972 55.5555556,388.888889 Z" id="Oval-3" fill-rule="nonzero"></path>
                    <path d="M722.222222,611.110856 C722.222363,595.769613 734.659012,583.333192 750.000255,583.333333 C765.341498,583.333474 777.777919,595.770123 777.777778,611.111366 L777.776114,713.126419 C776.956009,826.42183 723.664303,889.17372 623.911209,889.17372 L416.898249,889.17372 C401.557006,889.17372 389.120471,876.737185 389.120471,861.395942 C389.120471,846.054699 401.557006,833.618164 416.898249,833.618164 L623.911209,833.618164 C690.842288,833.618164 721.609151,797.389659 722.221286,712.925096 L722.222222,611.110856 Z" id="Path-7" fill-rule="nonzero"></path>
                </g>
            </g>
        </g>
    </g>
</svg>