<?xml version="1.0" encoding="UTF-8"?>
<svg width="1000px" height="1000px" viewBox="0 0 1000 1000" version="1.1" xmlns="http://www.w3.org/2000/svg" xmlns:xlink="http://www.w3.org/1999/xlink">
    <!-- Generator: sketchtool 52.4 (67378) - http://www.bohemiancoding.com/sketch -->
    <title>setting-o</title>
    <desc>Created with sketchtool.</desc>
    <g id="新版图标" stroke="none" stroke-width="1" fill="none" fill-rule="evenodd">
        <g id="setting-o" fill="#323233" fill-rule="nonzero">
            <g id="圆角-设置-线">
                <path d="M227.119321,203.740207 C239.449255,246.420112 234.495515,293.20059 211.324865,333.333333 C188.134976,373.4994 150.055827,401.190631 106.888646,411.833656 C100.489433,440.507737 97.2222222,470.016296 97.2222222,500 C97.2222222,529.983704 100.489433,559.492263 106.888646,588.166344 C150.055827,598.809369 188.134976,626.5006 211.324865,666.666667 C234.495515,706.79941 239.449255,753.579888 227.119321,796.259793 C270.827396,836.548991 322.918412,866.784843 379.782063,884.544841 C410.584199,852.47177 453.612295,833.333333 500,833.333333 C546.387705,833.333333 589.415801,852.47177 620.217937,884.544841 C677.081588,866.784843 729.172604,836.548991 772.880679,796.259793 C760.550745,753.579888 765.504485,706.79941 788.675135,666.666667 C811.865024,626.5006 849.944173,598.809369 893.111354,588.166344 C899.510567,559.492263 902.777778,529.983704 902.777778,500 C902.777778,470.016296 899.510567,440.507737 893.111354,411.833656 C849.944173,401.190631 811.865024,373.4994 788.675135,333.333333 C765.504485,293.20059 760.550745,246.420112 772.880679,203.740207 C729.172604,163.451009 677.081588,133.215157 620.217937,115.455159 C589.415801,147.52823 546.387705,166.666667 500,166.666667 C453.612295,166.666667 410.584199,147.52823 379.782063,115.455159 C322.918412,133.215157 270.827396,163.451009 227.119321,203.740207 Z M401.88522,52.1924983 C420.572832,87.2495046 457.499828,111.111111 500,111.111111 C542.500172,111.111111 579.427168,87.2495046 598.11478,52.1924983 C692.444783,72.7649533 775.921953,122.38458 838.703851,191.208938 C817.735252,224.910493 815.554918,268.779372 836.787657,305.555556 C858.042634,342.370256 897.184011,362.419926 936.897477,361.06521 C950.820815,404.887697 958.333333,451.566527 958.333333,500 C958.333333,548.433473 950.820815,595.112303 936.897477,638.93479 C897.184011,637.580074 858.042634,657.629744 836.787657,694.444444 C815.554918,731.220628 817.735252,775.089507 838.703851,808.791062 C775.921953,877.61542 692.444783,927.235047 598.11478,947.807502 C579.427168,912.750495 542.500172,888.888889 500,888.888889 C457.499828,888.888889 420.572832,912.750495 401.88522,947.807502 C307.555217,927.235047 224.078047,877.61542 161.296149,808.791062 C182.264748,775.089507 184.445082,731.220628 163.212343,694.444444 C141.957366,657.629744 102.815989,637.580074 63.1025225,638.93479 C49.1791853,595.112303 41.6666667,548.433473 41.6666667,500 C41.6666667,451.566527 49.1791853,404.887697 63.1025225,361.06521 C102.815989,362.419926 141.957366,342.370256 163.212343,305.555556 C184.445082,268.779372 182.264748,224.910493 161.296149,191.208938 C224.078047,122.38458 307.555217,72.7649533 401.88522,52.1924983 Z M500,666.666667 C592.047458,666.666667 666.666667,592.047458 666.666667,500 C666.666667,407.952542 592.047458,333.333333 500,333.333333 C407.952542,333.333333 333.333333,407.952542 333.333333,500 C333.333333,592.047458 407.952542,666.666667 500,666.666667 Z M500,611.111111 C438.635028,611.111111 388.888889,561.364972 388.888889,500 C388.888889,438.635028 438.635028,388.888889 500,388.888889 C561.364972,388.888889 611.111111,438.635028 611.111111,500 C611.111111,561.364972 561.364972,611.111111 500,611.111111 Z" id="Combined-Shape"></path>
            </g>
        </g>
    </g>
</svg>