<svg width="1000" height="1000" xmlns="http://www.w3.org/2000/svg"><path d="M161.296 191.209c62.782-68.824 146.26-118.444 240.59-139.017 18.687 35.058 55.614 58.92 98.114 58.92 42.5 0 79.427-23.862 98.115-58.92 94.33 20.573 177.807 70.193 240.589 139.017-20.969 33.701-23.15 77.57-1.916 114.347 21.255 36.814 60.396 56.864 100.11 55.51 13.923 43.822 21.435 90.5 21.435 138.934 0 48.433-7.512 95.112-21.436 138.935-39.713-1.355-78.854 18.695-100.11 55.51-21.232 36.776-19.052 80.644 1.917 114.346-62.782 68.824-146.26 118.444-240.59 139.017-18.687-35.058-55.614-58.92-98.114-58.92-42.5 0-79.427 23.862-98.115 58.92-94.33-20.573-177.807-70.193-240.589-139.017 20.969-33.701 23.15-77.57 1.916-114.347-21.255-36.814-60.396-56.864-100.11-55.51C49.18 595.113 41.668 548.435 41.668 500c0-48.433 7.512-95.112 21.436-138.935 39.713 1.355 78.854-18.695 100.11-55.51 21.232-36.776 19.052-80.645-1.917-114.346zM500 611.11c61.365 0 111.111-49.746 111.111-111.111S561.365 388.889 500 388.889 388.889 438.635 388.889 500 438.635 611.111 500 611.111z" fill="#323233" fill-rule="evenodd"/></svg>