<svg width="1000" height="1000" xmlns="http://www.w3.org/2000/svg"><path d="M762.023 147.436H649.074c-17.898 0-32.407-14.35-32.407-32.051 0-17.702 14.509-32.052 32.407-32.052H843.52c17.898 0 32.407 14.35 32.407 32.052v192.307c0 17.702-14.51 32.052-32.407 32.052-17.899 0-32.408-14.35-32.408-32.052v-118.15l-301.158 297.85c-12.656 12.516-33.176 12.516-45.831 0-12.656-12.518-12.656-32.811 0-45.328l297.901-294.628zm57.126 299.672a32.49 32.49 0 0 1-.908-7.65c0-17.897 14.509-32.407 32.407-32.407 17.898 0 32.408 14.51 32.408 32.408h.456a391.519 391.519 0 0 1 5.377 64.815c0 214.777-174.112 388.888-388.889 388.888-214.777 0-388.889-174.111-388.889-388.888 0-214.778 174.112-388.89 388.889-388.89 17.898 0 32.407 14.51 32.407 32.408 0 17.898-14.509 32.407-32.407 32.407-178.981 0-324.074 145.093-324.074 324.075 0 178.98 145.093 324.074 324.074 324.074 178.981 0 324.074-145.093 324.074-324.074 0-18.288-1.508-36.356-4.484-54.091a65.904 65.904 0 0 1-.441-3.075z" fill="#323233" fill-rule="nonzero"/></svg>