<?xml version="1.0" encoding="UTF-8"?>
<svg width="1000px" height="1000px" viewBox="0 0 1000 1000" version="1.1" xmlns="http://www.w3.org/2000/svg" xmlns:xlink="http://www.w3.org/1999/xlink">
    <!-- Generator: sketchtool 52.4 (67378) - http://www.bohemiancoding.com/sketch -->
    <title>share</title>
    <desc>Created with sketchtool.</desc>
    <g id="新版图标" stroke="none" stroke-width="1" fill="none" fill-rule="evenodd">
        <g id="share" fill="#323233" fill-rule="nonzero">
            <g id="圆角-推广-线">
                <path d="M762.02302,147.435897 L649.074086,147.435897 C631.17597,147.435897 616.666679,133.08605 616.666679,115.384615 C616.666679,97.6831811 631.17597,83.3333333 649.074086,83.3333333 L843.518531,83.3333333 C861.416648,83.3333333 875.925938,97.6831811 875.925938,115.384615 L875.925938,307.692308 C875.925938,325.393742 861.416648,339.74359 843.518531,339.74359 C825.620414,339.74359 811.111123,325.393742 811.111123,307.692308 L811.111123,189.541939 L509.952547,487.391081 C497.296667,499.907885 476.777432,499.907885 464.121552,487.391081 C451.465672,474.874276 451.465672,454.580527 464.121552,442.063723 L762.02302,147.435897 Z M819.148758,447.108154 C818.555236,444.655449 818.240731,442.093797 818.240731,439.458689 C818.240731,421.560573 832.750021,407.051282 850.648138,407.051282 C868.546255,407.051282 883.055546,421.560573 883.055546,439.458689 L883.511953,439.458689 C887.048226,460.537016 888.888889,482.190305 888.888889,504.273504 C888.888889,719.050907 714.777403,893.162393 500,893.162393 C285.222597,893.162393 111.111111,719.050907 111.111111,504.273504 C111.111111,289.496102 285.222597,115.384615 500,115.384615 C517.898117,115.384615 532.407407,129.893906 532.407407,147.792023 C532.407407,165.69014 517.898117,180.19943 500,180.19943 C321.018831,180.19943 175.925926,325.292335 175.925926,504.273504 C175.925926,683.254673 321.018831,828.347578 500,828.347578 C678.981169,828.347578 824.074074,683.254673 824.074074,504.273504 C824.074074,485.98629 822.565893,467.91801 819.590468,450.182683 C819.41823,449.156037 819.271143,448.130985 819.148758,447.108154 Z" id="Combined-Shape"></path>
            </g>
        </g>
    </g>
</svg>