<svg width="1000" height="1000" xmlns="http://www.w3.org/2000/svg" xmlns:xlink="http://www.w3.org/1999/xlink"><defs><path d="M780.645 175.107H662.133c-17.9 0-32.41-14.35-32.41-32.054 0-17.702 14.51-32.053 32.41-32.053H856.59c17.9 0 32.41 14.35 32.41 32.053v192.321c0 17.703-14.51 32.054-32.41 32.054-17.899 0-32.41-14.351-32.41-32.054V222.711L528.559 515.085c-12.657 12.518-33.178 12.518-45.835 0-12.656-12.517-12.656-32.812 0-45.33l297.922-294.648zm52.627 325.576c0-15.342 12.437-27.78 27.78-27.78 15.342 0 27.779 12.438 27.779 27.78 0 214.792-174.123 388.916-388.915 388.916C285.123 889.599 111 715.475 111 500.683s174.123-388.915 388.916-388.915c15.342 0 27.78 12.437 27.78 27.78 0 15.342-12.438 27.779-27.78 27.779-184.108 0-333.357 149.249-333.357 333.356 0 184.108 149.249 333.356 333.357 333.356 184.107 0 333.356-149.248 333.356-333.356z" id="a"/></defs><g fill="none" fill-rule="evenodd"><use fill="#000" xlink:href="#a"/></g></svg>