<svg width="1000" height="1000" xmlns="http://www.w3.org/2000/svg"><g transform="translate(0 55.556)" fill="#323233" fill-rule="evenodd"><path d="M219.638 166.667h650.588c30.683 0 55.556 24.873 55.556 55.555 0 5.3-.758 10.571-2.252 15.655l-82.684 281.535c-6.41 21.824-25.475 37.536-48.121 39.658l-527.053 49.39 3.5 33.585c1.474 14.15 13.4 24.899 27.628 24.899h534.848c15.341 0 27.778 12.436 27.778 27.777 0 15.342-12.437 27.778-27.778 27.778H296.8c-42.68 0-78.462-32.246-82.885-74.697L160.567 135.82c-1.474-14.15-13.401-24.899-27.628-24.899H55.556c-15.342 0-27.778-12.437-27.778-27.778s12.436-27.778 27.778-27.778h77.383c42.68 0 78.461 32.247 82.885 74.697l3.814 36.606zM259.914 553.2l527.628-49.443 82.684-281.535h-644.8L259.915 553.2z" fill-rule="nonzero"/><circle cx="333.333" cy="833.333" r="55.556"/><circle cx="722.222" cy="833.333" r="55.556"/></g></svg>