<svg width="1000" height="1000" xmlns="http://www.w3.org/2000/svg"><path d="M203.346 184.685l-52.552 37.537h39.682l12.87-37.537zm606.178 37.537l76.19 222.222h58.73l-95.238-277.777H150.794L55.556 444.444h58.73l76.19-222.222h619.048zm39.682 0l-52.552-37.537 12.87 37.537h39.682zm0 0l-52.552-37.537 12.87 37.537h39.682zm36.508 222.222h58.73l-95.238-277.777H150.794L55.556 444.444h58.73l76.19-222.222h619.048l76.19 222.222zM805.556 888.89V608.807a167.794 167.794 0 0 1-27.778 2.304c-57.972 0-109.03-29.597-138.89-74.506-29.858 44.909-80.917 74.506-138.888 74.506-57.971 0-109.03-29.597-138.889-74.506-29.859 44.909-80.917 74.506-138.889 74.506-9.464 0-18.744-.789-27.778-2.304v280.082h611.112zm55.409 55.409a.498.498 0 0 1-.354.146H139.39a.498.498 0 0 1-.5-.5v-355.13c-49.817-28.817-83.333-82.68-83.333-144.37h55.555c0 61.365 49.746 111.112 111.111 111.112s111.111-49.747 111.111-111.112c0-15.34 12.437-27.777 27.778-27.777s27.778 12.436 27.778 27.777c0 61.365 49.746 111.112 111.111 111.112s111.111-49.747 111.111-111.112c0-15.34 12.437-27.777 27.778-27.777s27.778 12.436 27.778 27.777c0 61.365 49.746 111.112 111.11 111.112 61.366 0 111.112-49.747 111.112-111.112h55.555c0 61.69-33.516 115.553-83.333 144.37v355.13a.498.498 0 0 1-.146.354zM203.346 184.685l-12.87 37.537h-39.682l52.552-37.537zm-36.18-129.13h665.667a.5.5 0 0 1 .5.5v54.556a.5.5 0 0 1-.5.5H167.167a.5.5 0 0 1-.5-.5V56.056a.5.5 0 0 1 .5-.5z" fill="#323233" fill-rule="nonzero"/></svg>