<svg width="1000" height="1000" xmlns="http://www.w3.org/2000/svg"><path d="M194.444 608.807v280.082h388.89c15.34 0 27.777 12.436 27.777 27.778 0 15.34-12.436 27.777-27.778 27.777H166.667c-15.342 0-27.778-12.436-27.778-27.777V588.814c-49.817-28.817-83.333-82.68-83.333-144.37l95.238-277.777h698.412l95.238 277.777c0 92.048-74.619 166.667-166.666 166.667-57.972 0-109.03-29.597-138.89-74.506-29.858 44.909-80.917 74.506-138.888 74.506-57.971 0-109.03-29.597-138.889-74.506-29.859 44.909-80.917 74.506-138.889 74.506-9.464 0-18.744-.789-27.778-2.304zm0-553.251h611.112c15.34 0 27.777 12.436 27.777 27.777 0 15.342-12.436 27.778-27.777 27.778H194.444c-15.34 0-27.777-12.436-27.777-27.778 0-15.34 12.436-27.777 27.777-27.777zm694.331 702.43h27.778c0 10.965-2.293 22.106-6.514 33.416-1.64 4.743-3.674 9.488-8.947 18.794 1.406-1.978 1.406-1.978 1.603-2.336-.024.04-.024.04.886-1.627l-.622 1.191c.123-.198.123-.198-.435.93-1.306 2.59-2.598 4.987-3.458 6.241a201.646 201.646 0 0 1-6.383 10.426c-12.522 19.169-29.597 38.916-50.169 59.054-14.38 14.076-29.668 27.564-45.159 40.234-9.202 7.527-26.45 20.89-21.762 17.142-7.402 5.864-16.474 9.035-25.827 9.035-9.269 0-18.263-3.06-25.803-8.99 4.86 3.871-12.568-9.588-21.748-17.078-15.46-12.613-30.704-26.037-45.044-40.067-21.208-20.746-38.687-41.103-51.294-60.889-5.743-9.013-10.44-17.866-14.048-26.72-.25-.632-.25-.632-.398-1.032-5.165-13.032-7.883-25.639-7.883-37.75-.158-2.117-.215-3.483-.215-5.355 0-62.376 48.366-113.716 108.713-113.716 20.735 0 40.776 6.301 57.948 17.724 17.15-11.424 37.201-17.724 57.96-17.724 60.331 0 108.713 51.361 108.713 113.716-.042 2.533-.044 2.629-.134 4.177l.02 1.203h-27.778z" fill="#323233" fill-rule="evenodd"/></svg>