<svg width="1000" height="1000" xmlns="http://www.w3.org/2000/svg" xmlns:xlink="http://www.w3.org/1999/xlink"><defs><path d="M166.556 557.062C132.65 529.412 111 487.306 111 440.144c0-22.482 4.96-44.348 14.358-64.273l34.92-139.678c6.183-24.732 28.404-42.082 53.897-42.082h571.43c25.493 0 47.714 17.35 53.897 42.082l34.92 139.678c9.397 19.925 14.358 41.79 14.358 64.273 0 47.162-21.651 89.267-55.556 116.918V874.67c0 23.012-18.655 41.667-41.667 41.667H208.222c-23.011 0-41.666-18.655-41.666-41.667V557.062zm55.555 28.6V860.78H777.67V585.662c-12.644 3.44-25.95 5.276-39.683 5.276-48.39 0-91.456-22.793-119.048-58.228-27.592 35.435-70.658 58.228-119.048 58.228s-91.456-22.793-119.048-58.228c-27.592 35.435-70.658 58.228-119.048 58.228-13.734 0-27.039-1.836-39.683-5.276zm0-502.662H777.67c15.34 0 27.777 12.437 27.777 27.778s-12.436 27.778-27.777 27.778H222.11c-15.34 0-27.777-12.437-27.777-27.778S206.77 83 222.11 83zm599.89 312.251l-36.396-145.584h-571.43l-36.396 145.584c-7.162 13.375-11.223 28.66-11.223 44.893 0 52.599 42.64 95.238 95.238 95.238 52.599 0 95.238-42.64 95.238-95.238h47.62c0 52.599 42.64 95.238 95.238 95.238 52.599 0 95.238-42.64 95.238-95.238h47.62c0 52.599 42.64 95.238 95.238 95.238 52.599 0 95.238-42.64 95.238-95.238 0-16.233-4.061-31.518-11.223-44.893z" id="a"/></defs><use fill="#000" xlink:href="#a" fill-rule="evenodd"/></svg>