<svg width="1000" height="1000" xmlns="http://www.w3.org/2000/svg"><path d="M111.111 444.444c0 61.365 49.746 111.112 111.111 111.112s111.111-49.747 111.111-111.112h55.556c0 61.365 49.746 111.112 111.111 111.112s111.111-49.747 111.111-111.112h55.556c0 61.365 49.746 111.112 111.11 111.112 61.366 0 111.112-49.747 111.112-111.112h-3.175l-76.19-222.222H190.476l-76.19 222.222h-3.175zm750 472.223c0 15.34-12.436 27.777-27.778 27.777H166.667c-15.342 0-27.778-12.436-27.778-27.777V588.814c-49.817-28.817-83.333-82.68-83.333-144.37l95.238-277.777h698.412l95.238 277.777c0 61.69-33.516 115.553-83.333 144.37v327.853zm-55.555-307.86a167.794 167.794 0 0 1-27.778 2.304c-57.972 0-109.03-29.597-138.89-74.506-29.858 44.909-80.917 74.506-138.888 74.506-57.971 0-109.03-29.597-138.889-74.506-29.859 44.909-80.917 74.506-138.889 74.506-9.464 0-18.744-.789-27.778-2.304v280.082h611.112V608.807zM194.444 55.556h611.112c15.34 0 27.777 12.436 27.777 27.777 0 15.342-12.436 27.778-27.777 27.778H194.444c-15.34 0-27.777-12.436-27.777-27.778 0-15.34 12.436-27.777 27.777-27.777z" fill="#333" fill-rule="nonzero"/></svg>