<svg width="1000" height="1000" xmlns="http://www.w3.org/2000/svg" xmlns:xlink="http://www.w3.org/1999/xlink"><defs><path d="M165.436 547.504C132.214 520.41 111 479.154 111 432.943c0-22.03 4.86-43.454 14.069-62.977l34.215-136.862c6.059-24.233 27.832-41.233 52.81-41.233h559.909c24.979 0 46.752 17 52.81 41.233l34.216 136.862c9.208 19.523 14.068 40.948 14.068 62.977 0 81.602-66.151 147.753-147.753 147.753-47.414 0-89.612-22.333-116.648-57.053-27.036 34.72-69.233 57.053-116.647 57.053s-89.612-22.333-116.648-57.053c-27.036 34.72-69.234 57.053-116.647 57.053-13.457 0-26.494-1.799-38.883-5.17v269.571h299.396c15.031 0 27.217 12.186 27.217 27.218s-12.186 27.218-27.217 27.218H206.262c-22.548 0-40.826-18.279-40.826-40.827V547.504zM219.87 83h544.355c15.032 0 27.218 12.186 27.218 27.218s-12.186 27.218-27.218 27.218H219.871c-15.032 0-27.218-12.186-27.218-27.218S204.84 83 219.871 83zm641.012 644.72h27.218c0 10.93-2.404 21.999-6.81 33.18-1.711 4.687-3.829 9.369-9.31 18.54 1.45-1.934 1.45-1.934 1.658-2.292l.931-1.62-.653 1.184c.144-.224.144-.224-.444.902-1.352 2.54-2.696 4.902-3.584 6.128a196.206 196.206 0 0 1-6.61 10.228c-12.945 18.773-30.582 38.098-51.832 57.804-14.85 13.772-30.64 26.968-46.635 39.363-9.502 7.363-27.334 20.45-22.493 16.784a41.957 41.957 0 0 1-25.21 8.419c-8.979 0-17.732-2.821-25.182-8.372 5.013 3.783-13.003-9.4-22.482-16.725-15.964-12.339-31.706-25.473-46.515-39.198-21.907-20.302-39.962-40.223-52.997-59.604-5.951-8.848-10.823-17.547-14.573-26.266-.264-.634-.264-.634-.42-1.034-5.387-12.872-8.234-25.384-8.234-37.446a58.794 58.794 0 0 1-.222-5.247c0-61.436 49.708-111.423 110.927-111.423 21.437 0 42.202 6.352 59.935 17.9 17.71-11.549 38.484-17.9 59.946-17.9 61.202 0 110.926 50.008 110.926 111.423-.043 2.512-.045 2.637-.137 4.125l.02 1.147h-27.218z" id="a"/></defs><use fill="#000" xlink:href="#a" fill-rule="evenodd"/></svg>