<svg width="1000" height="1000" xmlns="http://www.w3.org/2000/svg"><g transform="translate(0 55.556)" fill="#323233" fill-rule="evenodd"><path d="M219.638 166.667h723.47a1 1 0 0 1 .96 1.281L830.422 554.905a1 1 0 0 1-.866.714l-563.884 52.84 3.5 33.586c1.474 14.15 13.4 24.899 27.628 24.899h534.848c15.341 0 27.778 12.436 27.778 27.777 0 15.342-12.437 27.778-27.778 27.778H296.8c-42.68 0-78.462-32.246-82.885-74.697L160.567 135.82c-1.474-14.15-13.401-24.899-27.628-24.899H55.556c-15.342 0-27.778-12.437-27.778-27.778s12.436-27.778 27.778-27.778h77.383c42.68 0 78.461 32.247 82.885 74.697l3.814 36.606z"/><circle cx="333.333" cy="833.333" r="55.556"/><circle cx="722.222" cy="833.333" r="55.556"/></g></svg>