<svg width="1000" height="1000" xmlns="http://www.w3.org/2000/svg"><path d="M888.889 444.444h-3.346l-78.272-222.222H190.206l-75.94 222.222h-3.155c0 61.365 49.746 111.112 111.111 111.112s111.111-49.747 111.111-111.112h55.556c0 61.365 49.746 111.112 111.111 111.112s111.111-49.747 111.111-111.112h55.556c0 61.365 49.746 111.112 111.11 111.112 61.366 0 111.112-49.747 111.112-111.112zm55.555 0c0 92.048-74.619 166.667-166.666 166.667-57.972 0-109.03-29.597-138.89-74.506-29.858 44.909-80.917 74.506-138.888 74.506-57.971 0-109.03-29.597-138.889-74.506-29.859 44.909-80.917 74.506-138.889 74.506-9.464 0-18.744-.789-27.778-2.304v280.082h361.112c15.34 0 27.777 12.436 27.777 27.778 0 15.34-12.436 27.777-27.777 27.777h-388.89c-15.34 0-27.777-12.436-27.777-27.777V588.814c-49.817-28.817-83.333-82.68-83.333-144.37l94.925-277.777h696.123l97.84 277.777zm-750-388.888h611.112c15.34 0 27.777 12.436 27.777 27.777 0 15.342-12.436 27.778-27.777 27.778H194.444c-15.34 0-27.777-12.436-27.777-27.778 0-15.34 12.436-27.777 27.777-27.777zm709.757 702.43h27.778c0 11.154-2.454 22.45-6.95 33.862-1.746 4.784-3.908 9.561-9.503 18.921 1.48-1.974 1.48-1.974 1.693-2.338-.025.04-.025.04.95-1.655l-.666 1.21c.147-.23.147-.23-.453.92-1.38 2.593-2.752 5.002-3.658 6.254a200.243 200.243 0 0 1-6.745 10.438c-13.212 19.16-31.212 38.882-52.9 58.994-15.156 14.055-31.269 27.522-47.594 40.173-9.697 7.514-27.896 20.87-22.956 17.13a42.82 42.82 0 0 1-25.728 8.591c-9.164 0-18.097-2.879-25.7-8.544 5.116 3.86-13.27-9.593-22.945-17.07-16.292-12.592-32.358-25.996-47.472-40.003-22.357-20.72-40.785-41.052-54.088-60.831-6.073-9.03-11.045-17.908-14.872-26.806-.27-.648-.27-.648-.43-1.056-5.497-13.137-8.402-25.906-8.402-38.216a60.004 60.004 0 0 1-.227-5.355c0-62.7 50.731-113.716 113.21-113.716 21.877 0 43.07 6.483 61.168 18.269 18.073-11.787 39.275-18.27 61.179-18.27 62.461 0 113.209 51.039 113.209 113.717-.045 2.563-.047 2.69-.14 4.21l.02 1.17H904.2zm-31.117 14.172c2.346-5.966 3.34-10.538 3.34-14.173H904.2h-27.778c.006.327.006.327-.012-3.017.053-.887.053-.887.09-1.432.04-.702.04-.702.042-.931 0-32.067-25.946-58.16-57.653-58.16-15.4 0-30.241 6.437-41.1 17.766l-20.004 20.873-20.056-20.822c-10.954-11.373-25.82-17.818-41.188-17.818-31.725 0-57.653 26.074-57.653 58.16 0 .057.052 2.365.157 6.923.035-.36.038-.388.063-1.309.007 4.149 1.287 9.773 4.096 16.478.264.655.364.902.42 1.044 2.31 5.3 5.572 11.1 9.738 17.293 10.554 15.692 26.277 33.04 45.752 51.088 13.785 12.776 28.614 25.148 43.683 36.795 4.016 3.104 9.847 7.461 14.641 11.01 4.793-3.559 10.636-7.938 14.685-11.075 15.116-11.714 30.006-24.159 43.847-36.994 18.953-17.576 34.37-34.468 44.94-49.797 1.777-2.577 3.404-5.092 5.721-8.858.275-.404.423-.663 1.282-2.2.538-1.089.538-1.089 1.054-2.025l.973-1.688a59.337 59.337 0 0 0 3.143-7.13z" fill="#333" fill-rule="nonzero"/></svg>