<svg width="1000" height="1000" xmlns="http://www.w3.org/2000/svg" xmlns:xlink="http://www.w3.org/1999/xlink"><defs><path d="M165.436 547.504C132.214 520.41 111 479.154 111 432.943c0-22.03 4.86-43.454 14.069-62.977l34.215-136.862c6.059-24.233 27.832-41.233 52.81-41.233h559.909c24.979 0 46.752 17 52.81 41.233l34.216 136.862c9.208 19.523 14.068 40.948 14.068 62.977 0 81.602-66.151 147.753-147.753 147.753-47.414 0-89.612-22.333-116.648-57.053-27.036 34.72-69.233 57.053-116.647 57.053s-89.612-22.333-116.648-57.053c-27.036 34.72-69.234 57.053-116.647 57.053-13.457 0-26.494-1.799-38.883-5.17v269.571h299.396c15.031 0 27.217 12.186 27.217 27.218s-12.186 27.218-27.217 27.218H206.262c-22.548 0-40.826-18.279-40.826-40.827V547.504zM219.87 83h544.355c15.032 0 27.218 12.186 27.218 27.218s-12.186 27.218-27.218 27.218H219.871c-15.032 0-27.218-12.186-27.218-27.218S204.84 83 219.871 83zm587.794 305.955l-35.662-142.648H212.095l-35.663 142.648c-7.017 13.106-10.996 28.082-10.996 43.988 0 51.538 41.78 93.318 93.318 93.318s93.318-41.78 93.318-93.318h46.659c0 51.538 41.78 93.318 93.318 93.318s93.318-41.78 93.318-93.318h46.659c0 51.538 41.78 93.318 93.318 93.318s93.318-41.78 93.318-93.318c0-15.906-3.98-30.882-10.997-43.988zm53.218 338.765h27.218c0 10.93-2.404 21.999-6.81 33.18-1.711 4.687-3.829 9.369-9.31 18.54 1.45-1.934 1.45-1.934 1.658-2.292l.931-1.62-.653 1.184c.144-.224.144-.224-.444.902-1.352 2.54-2.696 4.902-3.584 6.128a196.206 196.206 0 0 1-6.61 10.228c-12.945 18.773-30.582 38.098-51.832 57.804-14.85 13.772-30.64 26.968-46.635 39.363-9.502 7.363-27.334 20.45-22.493 16.784a41.957 41.957 0 0 1-25.21 8.419c-8.979 0-17.732-2.821-25.182-8.372 5.013 3.783-13.003-9.4-22.482-16.725-15.964-12.339-31.706-25.473-46.515-39.198-21.907-20.302-39.962-40.223-52.997-59.604-5.951-8.848-10.823-17.547-14.573-26.266-.264-.634-.264-.634-.42-1.034-5.387-12.872-8.234-25.384-8.234-37.446a58.794 58.794 0 0 1-.222-5.247c0-61.436 49.708-111.423 110.927-111.423 21.437 0 42.202 6.352 59.935 17.9 17.71-11.549 38.484-17.9 59.946-17.9 61.202 0 110.926 50.008 110.926 111.423-.043 2.512-.045 2.637-.137 4.125l.02 1.147h-27.218zm-30.49 13.887c2.3-5.846 3.272-10.326 3.272-13.887h27.218-27.218c.006.32.006.32-.012-2.956.052-.87.052-.87.088-1.404.04-.688.04-.688.042-.912 0-31.42-25.423-56.988-56.491-56.988-15.09 0-29.631 6.308-40.27 17.409L717.42 703.32l-19.652-20.403c-10.733-11.143-25.3-17.458-40.357-17.458-31.086 0-56.491 25.548-56.491 56.988 0 .055.051 2.316.154 6.782.034-.352.037-.38.061-1.282.007 4.065 1.261 9.576 4.014 16.145.259.642.357.885.411 1.024 2.265 5.194 5.46 10.875 9.542 16.944 10.341 15.375 25.747 32.373 44.83 50.058 13.507 12.518 28.037 24.641 42.802 36.053 3.935 3.042 9.649 7.311 14.346 10.788 4.697-3.486 10.421-7.777 14.388-10.851 14.812-11.478 29.402-23.672 42.964-36.249 18.57-17.221 33.677-33.773 44.034-48.792 1.741-2.526 3.335-4.99 5.606-8.68.27-.396.414-.65 1.256-2.156.527-1.067.527-1.067 1.032-1.984l.954-1.654a58.14 58.14 0 0 0 3.08-6.987z" id="a"/></defs><use fill="#000" xlink:href="#a" fill-rule="evenodd"/></svg>