<?xml version="1.0" encoding="UTF-8"?>
<svg width="1000px" height="1000px" viewBox="0 0 1000 1000" version="1.1" xmlns="http://www.w3.org/2000/svg" xmlns:xlink="http://www.w3.org/1999/xlink">
    <!-- Generator: sketchtool 52.4 (67378) - http://www.bohemiancoding.com/sketch -->
    <title>smile-comment</title>
    <desc>Created with sketchtool.</desc>
    <g id="新版图标" stroke="none" stroke-width="1" fill="none" fill-rule="evenodd">
        <g id="smile-comment" fill="#333333">
            <g id="直角-商家社区-面">
                <path d="M361.111111,777.777778 L222.222222,888.888889 L222.222222,777.777778 L166.666667,777.777778 C135.984181,777.777778 111.111111,752.904708 111.111111,722.222222 L111.111111,166.666667 C111.111111,135.984181 135.984181,111.111111 166.666667,111.111111 L833.333333,111.111111 C864.015819,111.111111 888.888889,135.984181 888.888889,166.666667 L888.888889,722.222222 C888.888889,752.904708 864.015819,777.777778 833.333333,777.777778 L361.111111,777.777778 Z M333.333333,444.444444 C333.333333,536.491903 407.952542,611.111111 500,611.111111 C592.047458,611.111111 666.666667,536.491903 666.666667,444.444444 L611.111111,444.444444 C611.111111,505.809417 561.364972,555.555556 500,555.555556 C438.635028,555.555556 388.888889,505.809417 388.888889,444.444444 L333.333333,444.444444 Z M333.333333,277.777778 L333.333333,333.333333 L388.888889,333.333333 L388.888889,277.777778 L333.333333,277.777778 Z M611.111111,277.777778 L611.111111,333.333333 L666.666667,333.333333 L666.666667,277.777778 L611.111111,277.777778 Z" id="Combined-Shape"></path>
            </g>
        </g>
    </g>
</svg>