<svg width="1000" height="1000" xmlns="http://www.w3.org/2000/svg"><g fill="none" fill-rule="evenodd"><path d="M341.623 722.222h491.71V166.667H166.667v555.555h111.11V773.3l63.846-51.077zm19.488 55.556l-138.889 111.11v-111.11h-55.555c-30.683 0-55.556-24.873-55.556-55.556V166.667c0-30.683 24.873-55.556 55.556-55.556h666.666c30.683 0 55.556 24.873 55.556 55.556v555.555c0 30.683-24.873 55.556-55.556 55.556H361.111z" fill="#323233" fill-rule="nonzero"/><path d="M388.889 444.444c0 61.587 48.64 111.112 108.135 111.112 59.495 0 108.135-49.525 108.135-111.112h55.555c0 92.048-73.286 166.667-163.69 166.667s-163.69-74.62-163.69-166.667h55.555z" fill="#333" fill-rule="nonzero"/><path fill="#333" d="M333.333 277.778h55.556v55.556h-55.556zM611.111 277.778h55.556v55.556h-55.556z"/></g></svg>