<?xml version="1.0" encoding="UTF-8"?>
<svg width="1000px" height="1000px" viewBox="0 0 1000 1000" version="1.1" xmlns="http://www.w3.org/2000/svg" xmlns:xlink="http://www.w3.org/1999/xlink">
    <!-- Generator: sketchtool 52.4 (67378) - http://www.bohemiancoding.com/sketch -->
    <title>smile-o</title>
    <desc>Created with sketchtool.</desc>
    <g id="新版图标" stroke="none" stroke-width="1" fill="none" fill-rule="evenodd">
        <g id="smile-o" fill="#323233">
            <g id="圆角-表情">
                <path d="M500,857.142857 C697.244553,857.142857 857.142857,697.244553 857.142857,500 C857.142857,302.755447 697.244553,142.857143 500,142.857143 C302.755447,142.857143 142.857143,302.755447 142.857143,500 C142.857143,697.244553 302.755447,857.142857 500,857.142857 Z M500,916.666667 C269.881354,916.666667 83.3333333,730.118646 83.3333333,500 C83.3333333,269.881354 269.881354,83.3333333 500,83.3333333 C730.118646,83.3333333 916.666667,269.881354 916.666667,500 C916.666667,730.118646 730.118646,916.666667 500,916.666667 Z" id="Oval-5" fill-rule="nonzero"></path>
                <circle id="Oval-6" cx="347.001764" cy="392.857149" r="47.6190483"></circle>
                <circle id="Oval-6-Copy" cx="655.64374" cy="392.857149" r="47.6190483"></circle>
                <path d="M684.631892,549.605771 C690.109473,534.108269 707.113138,525.985517 722.610641,531.463099 C738.108144,536.94068 746.230895,553.944345 740.753314,569.441848 C705.315153,669.705627 610.249957,738.095238 502.179635,738.095238 C394.109313,738.095238 299.044117,669.705627 263.605956,569.441848 C258.128375,553.944345 266.251126,536.94068 281.748629,531.463099 C297.246131,525.985517 314.249796,534.108269 319.727378,549.605771 C346.822279,626.264298 419.531972,678.571429 502.179635,678.571429 C584.827297,678.571429 657.536991,626.264298 684.631892,549.605771 Z" id="Combined-Shape" fill-rule="nonzero"></path>
            </g>
        </g>
    </g>
</svg>