<svg width="1000" height="1000" xmlns="http://www.w3.org/2000/svg"><path d="M500 944.444C254.54 944.444 55.556 745.46 55.556 500S254.54 55.556 500 55.556 944.444 254.54 944.444 500 745.46 944.444 500 944.444zM347.002 440.476c26.299 0 47.619-21.32 47.619-47.619 0-26.3-21.32-47.619-47.62-47.619-26.299 0-47.618 21.32-47.618 47.62 0 26.298 21.32 47.618 47.619 47.618zm308.642 0c26.299 0 47.619-21.32 47.619-47.619 0-26.3-21.32-47.619-47.62-47.619-26.299 0-47.618 21.32-47.618 47.62 0 26.298 21.32 47.618 47.619 47.618zm28.988 109.13C657.537 626.264 584.827 678.57 502.18 678.57c-82.648 0-155.358-52.307-182.453-128.965-5.477-15.498-22.48-23.62-37.978-18.143-15.498 5.478-23.62 22.481-18.143 37.979 35.438 100.264 130.503 168.653 238.574 168.653 108.07 0 203.135-68.39 238.573-168.653 5.478-15.498-2.645-32.501-18.142-37.979-15.498-5.477-32.502 2.645-37.98 18.143z" fill="#323233" fill-rule="evenodd"/></svg>