<?xml version="1.0" encoding="UTF-8"?>
<svg width="1000px" height="1000px" viewBox="0 0 1000 1000" version="1.1" xmlns="http://www.w3.org/2000/svg" xmlns:xlink="http://www.w3.org/1999/xlink">
    <!-- Generator: sketchtool 52.4 (67378) - http://www.bohemiancoding.com/sketch -->
    <title>smile-comment-o</title>
    <desc>Created with sketchtool.</desc>
    <g id="新版图标" stroke="none" stroke-width="1" fill="none" fill-rule="evenodd">
        <g id="smile-comment-o">
            <g id="直角-商家社区-线">
                <g transform="translate(111.111111, 111.111111)">
                    <path d="M230.512163,611.111111 L722.222222,611.111111 L722.222222,55.5555556 L55.5555556,55.5555556 L55.5555556,611.111111 L166.666667,611.111111 L166.666667,662.187508 L230.512163,611.111111 Z M250,666.666667 L111.111111,777.777778 L111.111111,666.666667 L55.5555556,666.666667 C24.8730695,666.666667 0,641.793597 0,611.111111 L0,55.5555556 C0,24.8730695 24.8730695,0 55.5555556,0 L722.222222,0 C752.904708,0 777.777778,24.8730695 777.777778,55.5555556 L777.777778,611.111111 C777.777778,641.793597 752.904708,666.666667 722.222222,666.666667 L250,666.666667 Z" id="Combined-Shape" fill="#323233" fill-rule="nonzero"></path>
                    <path d="M277.777778,333.333333 C277.777778,394.920135 326.417725,444.444444 385.912698,444.444444 C445.407672,444.444444 494.047619,394.920135 494.047619,333.333333 L549.603175,333.333333 C549.603175,425.380792 476.316452,500 385.912698,500 C295.508945,500 222.222222,425.380792 222.222222,333.333333 L277.777778,333.333333 Z" id="Oval" fill="#333333" fill-rule="nonzero"></path>
                    <rect id="Rectangle-7" fill="#333333" x="222.222222" y="166.666667" width="55.5555556" height="55.5555556"></rect>
                    <rect id="Rectangle-7-Copy" fill="#333333" x="500" y="166.666667" width="55.5555556" height="55.5555556"></rect>
                </g>
            </g>
        </g>
    </g>
</svg>