<svg width="1000" height="1000" xmlns="http://www.w3.org/2000/svg"><path d="M361.111 777.778l-138.889 111.11v-111.11h-55.555c-30.683 0-55.556-24.873-55.556-55.556V166.667c0-30.683 24.873-55.556 55.556-55.556h666.666c30.683 0 55.556 24.873 55.556 55.556v555.555c0 30.683-24.873 55.556-55.556 55.556H361.111zm-27.778-333.334c0 92.048 74.62 166.667 166.667 166.667s166.667-74.62 166.667-166.667H611.11c0 61.365-49.746 111.112-111.111 111.112s-111.111-49.747-111.111-111.112h-55.556zm0-166.666v55.555h55.556v-55.555h-55.556zm277.778 0v55.555h55.556v-55.555H611.11z" fill="#333" fill-rule="evenodd"/></svg>