<svg width="1000" height="1000" xmlns="http://www.w3.org/2000/svg" xmlns:xlink="http://www.w3.org/1999/xlink"><defs><path d="M297.016 881.915c-26.079 11.048-56.176-1.136-67.224-27.215a51.282 51.282 0 0 1-3.87-24.438l19.06-219.624L100.47 444.163c-18.566-21.388-16.279-53.778 5.11-72.344a51.282 51.282 0 0 1 22.046-11.233l214.764-49.74L456.06 121.964c14.604-24.267 46.115-32.1 70.382-17.496a51.282 51.282 0 0 1 17.496 17.496L657.61 310.846l214.764 49.74c27.592 6.39 44.78 33.938 38.39 61.53a51.282 51.282 0 0 1-11.234 22.047L755.018 610.638l19.06 219.624c2.45 28.216-18.439 53.075-46.655 55.524a51.282 51.282 0 0 1-24.439-3.871L500 795.92l-202.984 85.995zM245.45 605.227a12.82 12.82 0 0 0 3.091 9.513l-3.56-4.102.47-5.41z" id="a"/></defs><use fill="#323233" fill-rule="nonzero" xlink:href="#a"/></svg>