<svg width="1000" height="1000" xmlns="http://www.w3.org/2000/svg"><path d="M166.667 318.096V830.37h666.666V318.096L500 166.666l-333.333 151.43zm555.555 567.831v-55.556H277.778v55.556H166.667c-30.683 0-55.556-24.873-55.556-55.556V318.096a55.556 55.556 0 0 1 32.577-50.581l333.334-151.43a55.556 55.556 0 0 1 45.956 0l333.334 151.43a55.556 55.556 0 0 1 32.577 50.58v512.276c0 30.683-24.873 55.556-55.556 55.556h-111.11zM305.556 441.483h55.555V719.26h-55.555V441.483zm333.333 166.666V385.927h55.555v222.222h83.334L666.667 719.26 555.556 608.15h83.333zM333.333 385.927l111.111 111.111H222.222l111.111-111.111z" fill="#333" fill-rule="nonzero"/></svg>