<svg width="1000" height="1000" xmlns="http://www.w3.org/2000/svg"><path d="M362.144 360.863h276.778a.5.5 0 0 1 .5.5v276.778a.5.5 0 0 1-.5.5H362.144a.5.5 0 0 1-.5-.5V361.363a.5.5 0 0 1 .5-.5zM500 888.89c214.777 0 388.889-174.112 388.889-388.889 0-214.777-174.112-388.889-388.889-388.889-214.777 0-388.889 174.112-388.889 388.889 0 214.777 174.112 388.889 388.889 388.889zm0 55.555C254.54 944.444 55.556 745.46 55.556 500S254.54 55.556 500 55.556 944.444 254.54 944.444 500 745.46 944.444 500 944.444z" fill="#323233" fill-rule="evenodd"/></svg>