<svg width="1000" height="1000" xmlns="http://www.w3.org/2000/svg"><g fill="#323233" fill-rule="evenodd"><path d="M448.879 392.825c5.7-20.253 10.277-42.112 13.81-63.994 2.12-13.129 3.411-23.281 4.066-29.615 2.574-19.041 17.896-36.11 36.527-41.052.853-.38 1.739-.502 2.621-.61.618-.123 1.24-.234 1.864-.33 41.98-3.952 74.21 27.428 70.923 70.34l-5.962 77.831 70.278-8.36c37.332-4.448 63.459 24.7 54.125 63.088-.287.848-.929 3.264-1.637 7.088-.517 2.786-.96 5.825-1.304 9.127-.16 1.519-.044 2.567.565 4.906.404 1.498.404 1.498.967 3.509 2.687 9.68 3.7 17.221 2.837 28.083-.812 10.115-2.571 17.009-5.821 25.297-.557 1.408-.557 1.408-1.03 2.598-1.448 3.679-1.914 5.395-2.177 8.44-.339 3.935-.195 5.389.723 9.715 1.618 7.619 2.144 12.518 1.587 20.318-.742 10.412-2.943 18.349-6.666 26.388-.524 1.13-2.574 5.303-2.874 5.997-.612 2.875-.595 4.976-.369 6.532.069.38.069.38.5 3.082 2.535 27.761-17.15 53.48-44.75 57.959l-292.717 47.483c-23.73 3.846-44.363-13.7-44.363-37.833V525.615c0-18.503 13.926-35.205 32.136-38.59a8771.5 8771.5 0 0 0 35.758-6.723l1.342-.256c16.87-3.214 28.674-5.54 32.197-6.37 16.078-3.79 33.55-33.608 46.844-80.85zm59.248-88.713c-.65 6.412-2.043 17.36-4.304 31.36-3.767 23.335-8.66 46.692-14.835 68.64-17.294 61.455-40.75 101.486-77.4 110.12-4.394 1.035-16.208 3.364-33.951 6.744l-1.352.258a8848.395 8848.395 0 0 1-34.016 6.4V684.87l288.74-46.838c5.887-.955 10.485-6.962 10.524-9.655-.348-1.39-.348-1.39-.834-4.266-.81-5.57-.863-11.914.267-18.794.593-3.623 1.626-6.88 3.09-10.268.785-1.812 3.172-6.67 3.31-6.969 1.697-3.663 2.55-6.742 2.914-11.841.233-3.266.093-4.57-.75-8.545-1.733-8.16-2.256-13.456-1.511-22.1.658-7.637 2.12-13.019 4.92-20.128l1.008-2.548c1.855-4.729 2.623-7.739 3.078-13.398.425-5.363.036-8.266-1.452-13.625-.525-1.869-.525-1.869-1.142-4.158-1.773-6.815-2.427-12.678-1.68-19.749.457-4.389 1.06-8.518 1.774-12.372 1.084-5.85 2.236-10.187 2.62-11.059 1.994-8.273-.606-11.174-9.213-10.148l-74.928 8.913c-24.426 2.885-44.022-16.06-42.162-40.656l6.303-82.286c1.26-16.453-8.407-26.587-23.98-25.668-2.165.995-4.829 3.925-5.038 5.399z" fill-rule="nonzero"/><path d="M375 706.35h41.667V509.92H375z"/><path d="M500 888.889c214.777 0 388.889-174.112 388.889-388.889 0-214.777-174.112-388.889-388.889-388.889-214.777 0-388.889 174.112-388.889 388.889 0 214.777 174.112 388.889 388.889 388.889zm0 55.555C254.54 944.444 55.556 745.46 55.556 500S254.54 55.556 500 55.556 944.444 254.54 944.444 500 745.46 944.444 500 944.444z" fill-rule="nonzero"/></g></svg>