<?xml version="1.0" encoding="UTF-8"?>
<svg width="1000px" height="1000px" viewBox="0 0 1000 1000" version="1.1" xmlns="http://www.w3.org/2000/svg" xmlns:xlink="http://www.w3.org/1999/xlink">
    <!-- Generator: sketchtool 52.4 (67378) - http://www.bohemiancoding.com/sketch -->
    <title>thumb-circle-o</title>
    <desc>Created with sketchtool.</desc>
    <g id="新版图标" stroke="none" stroke-width="1" fill="none" fill-rule="evenodd">
        <g id="thumb-circle-o" fill="#323233" fill-rule="nonzero">
            <g id="圆角-首页2">
                <path d="M416.666667,672.802319 L631.00989,638.033003 C636.895841,637.078018 641.493655,631.070625 641.532835,628.378446 C641.185298,626.987249 641.185298,626.987249 640.698546,624.112111 C639.889154,618.541725 639.835986,612.198437 640.965864,605.317772 C641.559432,601.695486 642.591863,598.438225 644.056929,595.050456 C644.840896,593.237638 647.227598,588.380587 647.366166,588.081404 C649.063039,584.417659 649.916691,581.339222 650.280188,576.240023 C650.513163,572.974134 650.373187,571.670208 649.529287,567.694652 C647.797015,559.53526 647.273728,554.239092 648.018576,545.594657 C648.676561,537.958332 650.13974,532.576395 652.938852,525.466792 C653.478827,524.104488 653.478827,524.104488 653.947465,522.919321 C655.802213,518.190162 656.570366,515.180124 657.024828,509.520593 C657.450424,504.158079 657.060683,501.254634 655.57338,495.895958 C655.047966,494.027354 655.047966,494.027354 654.431348,491.737872 C652.657769,484.922562 652.004241,479.059945 652.750574,471.98906 C653.208493,467.600167 653.810274,463.471205 654.524719,459.616827 C655.609063,453.766877 656.760706,449.430167 657.145884,448.55833 C659.138591,440.284979 656.538579,437.384388 647.932229,438.409911 L573.004359,447.322658 C548.577513,450.207719 528.981927,431.262768 530.841814,406.666841 L537.145397,324.380982 C538.405878,307.928386 528.738021,297.793597 513.164101,298.713145 C510.999837,299.70822 508.33613,302.638342 508.126879,304.111528 C507.476153,310.5238 506.083665,321.472322 503.823207,335.472742 C500.055679,358.807379 495.163897,382.164253 488.98761,404.112168 C472.506346,462.679614 450.427561,501.789832 416.666667,512.808999 L416.666667,672.802319 Z M375,679.561205 L375,521.478281 C362.882141,523.782 350.887297,526.030368 342.269048,527.633878 L342.269048,684.8706 L375,679.561205 Z M500,888.888889 C714.777403,888.888889 888.888889,714.777403 888.888889,500 C888.888889,285.222597 714.777403,111.111111 500,111.111111 C285.222597,111.111111 111.111111,285.222597 111.111111,500 C111.111111,714.777403 285.222597,888.888889 500,888.888889 Z M500,944.444444 C254.540111,944.444444 55.5555556,745.459889 55.5555556,500 C55.5555556,254.540111 254.540111,55.5555556 500,55.5555556 C745.459889,55.5555556 944.444444,254.540111 944.444444,500 C944.444444,745.459889 745.459889,944.444444 500,944.444444 Z M448.878791,392.825283 C454.578285,372.57169 459.156363,350.712663 462.689235,328.831397 C464.809016,315.702276 466.100228,305.550044 466.754557,299.216456 C469.32937,280.17482 484.650523,263.105326 503.282053,258.164302 C504.134696,257.784669 505.020912,257.661751 505.903054,257.554448 C506.521265,257.430588 507.142542,257.320182 507.766556,257.223586 C549.747902,253.271966 581.977918,284.652021 578.690328,327.563715 L572.727973,405.395132 L643.006391,397.035435 C680.337994,392.587043 706.464888,421.734387 697.131262,460.122892 C696.843854,460.971046 696.202338,463.386785 695.493524,467.210785 C694.977162,469.996515 694.534225,473.035613 694.189677,476.337763 C694.02937,477.856565 694.146259,478.90514 694.754981,481.244271 C695.158547,482.742476 695.158547,482.742476 695.722313,484.752605 C698.409114,494.433014 699.421421,501.974362 698.559348,512.836373 C697.747116,522.951499 695.988029,529.844549 692.737528,538.132545 C692.180602,539.541306 692.180602,539.541306 691.708919,540.730902 C690.260462,544.409908 689.79382,546.126332 689.531424,549.171613 C689.192413,553.10605 689.336056,554.55986 690.254437,558.885641 C691.871728,566.504563 692.397704,571.40422 691.841315,579.203769 C691.099095,589.615761 688.898166,597.552746 685.174553,605.592458 C684.651417,606.721968 682.600945,610.894773 682.300624,611.589225 C681.688603,614.464341 681.706214,616.565431 681.932206,618.120749 C682.000961,618.50097 682.000961,618.50097 682.432766,621.203316 C684.967216,648.964391 665.282589,674.683851 637.682269,679.161952 L344.965203,726.644546 C321.234314,730.490719 300.602381,712.944169 300.602381,688.811706 L300.602381,525.615278 C300.602381,507.112371 314.528339,490.410324 332.738014,487.025192 C341.67241,485.365568 355.088977,482.853038 368.495599,480.301775 L369.838465,480.046073 C386.707654,476.831948 398.511847,474.505176 402.035161,473.675957 C418.112856,469.886089 435.584497,440.067588 448.878791,392.825283 Z" id="Combined-Shape"></path>
            </g>
        </g>
    </g>
</svg>