<?xml version="1.0" encoding="UTF-8"?>
<svg width="1000px" height="1000px" viewBox="0 0 1000 1000" version="1.1" xmlns="http://www.w3.org/2000/svg" xmlns:xlink="http://www.w3.org/1999/xlink">
    <!-- Generator: sketchtool 52.4 (67378) - http://www.bohemiancoding.com/sketch -->
    <title>todo-list-o</title>
    <desc>Created with sketchtool.</desc>
    <g id="新版图标" stroke="none" stroke-width="1" fill="none" fill-rule="evenodd">
        <g id="todo-list-o" fill="#323233">
            <g id="圆角-待接单-线">
                <g id="Group-3">
                    <g transform="translate(166.666667, 111.111111)">
                        <path d="M55.5555556,0 L611.111111,0 L665.666667,0 C666.218951,-4.02567223e-15 666.666667,0.44771525 666.666667,1 L666.666667,332.833333 C666.666667,333.109476 666.442809,333.333333 666.166667,333.333333 L611.611111,333.333333 C611.334969,333.333333 611.111111,333.109476 611.111111,332.833333 L611.111111,55.5555556 L55.5555556,55.5555556 L55.5555556,722.222222 L250,722.222222 C265.341243,722.222222 277.777778,734.658757 277.777778,750 C277.777778,765.341243 265.341243,777.777778 250,777.777778 L55.5555556,777.777778 C24.8730695,777.777778 4.40536496e-13,752.904708 3.7658765e-13,722.222222 L4.8316906e-13,1 C4.8316906e-13,0.44771525 0.44771525,3.82276611e-15 1,0 L55.5555556,0 Z M555.555556,777.777778 C647.603014,777.777778 722.222222,703.158569 722.222222,611.111111 C722.222222,519.063653 647.603014,444.444444 555.555556,444.444444 C463.508097,444.444444 388.888889,519.063653 388.888889,611.111111 C388.888889,703.158569 463.508097,777.777778 555.555556,777.777778 Z M555.555556,833.333333 C432.825611,833.333333 333.333333,733.841056 333.333333,611.111111 C333.333333,488.381167 432.825611,388.888889 555.555556,388.888889 C678.2855,388.888889 777.777778,488.381167 777.777778,611.111111 C777.777778,733.841056 678.2855,833.333333 555.555556,833.333333 Z M527.777778,529.376678 C527.777778,514.035435 540.214313,501.5989 555.555556,501.5989 C570.896799,501.5989 583.333333,514.035435 583.333333,529.376678 L583.333333,600.552363 L637.167124,654.386154 C648.015021,665.234051 648.015021,682.821967 637.167124,693.669864 C626.319227,704.517761 608.731311,704.517761 597.883414,693.669864 L544.049623,639.836073 C533.630936,629.417385 527.777778,615.286612 527.777778,600.552363 L527.777778,529.376678 Z M111.611111,166.666667 L499.5,166.666667 C499.776142,166.666667 500,166.890524 500,167.166667 L500,221.722222 C500,221.998365 499.776142,222.222222 499.5,222.222222 L111.611111,222.222222 C111.334969,222.222222 111.111111,221.998365 111.111111,221.722222 L111.111111,167.166667 C111.111111,166.890524 111.334969,166.666667 111.611111,166.666667 Z M111.611111,277.777778 L388.388889,277.777778 C388.665031,277.777778 388.888889,278.001635 388.888889,278.277778 L388.888889,332.833333 C388.888889,333.109476 388.665031,333.333333 388.388889,333.333333 L111.611111,333.333333 C111.334969,333.333333 111.111111,333.109476 111.111111,332.833333 L111.111111,278.277778 C111.111111,278.001635 111.334969,277.777778 111.611111,277.777778 Z M111.611111,388.888889 L277.277778,388.888889 C277.55392,388.888889 277.777778,389.112747 277.777778,389.388889 L277.777778,443.944444 C277.777778,444.220587 277.55392,444.444444 277.277778,444.444444 L111.611111,444.444444 C111.334969,444.444444 111.111111,444.220587 111.111111,443.944444 L111.111111,389.388889 C111.111111,389.112747 111.334969,388.888889 111.611111,388.888889 Z" id="Combined-Shape"></path>
                    </g>
                </g>
            </g>
        </g>
    </g>
</svg>