<svg width="1000" height="1000" xmlns="http://www.w3.org/2000/svg"><path d="M722.206 555.572c92.055 0 166.666 74.556 166.666 166.667 0 92.055-74.61 166.667-166.666 166.667s-166.667-74.612-166.667-166.667c0-92.111 74.611-166.667 166.667-166.667zm81.61 249.222c10.834-10.833 10.834-28.444 0-39.277l-53.833-53.89v-71.166c0-15.278-12.389-27.778-27.777-27.778-15.334 0-27.778 12.5-27.778 27.778v71.167a55.545 55.545 0 0 0 16.278 39.278l53.833 53.888c10.833 10.834 28.444 10.834 39.278 0zm-387.15-249.238c15.334 0 27.778-12.445 27.778-27.778C444.444 512.444 432 500 416.667 500H305.556c-15.334 0-27.778 12.444-27.778 27.778 0 15.333 12.444 27.778 27.778 27.778h111.11zm-111.11-166.667c-15.334 0-27.778 12.444-27.778 27.778 0 15.333 12.444 27.777 27.778 27.777h222.222c15.333 0 27.778-12.444 27.778-27.777 0-15.334-12.445-27.778-27.778-27.778H305.556zm0-111.111c-15.334 0-27.778 12.444-27.778 27.778 0 15.333 12.444 27.777 27.778 27.777h333.333c15.333 0 27.778-12.444 27.778-27.777 0-15.334-12.445-27.778-27.778-27.778H305.556zM722.222 500C599.5 500 500 599.5 500 722.222c0 66.722 30.056 125.945 76.667 166.667H222.222c-30.722 0-55.555-24.833-55.555-55.556V166.667c0-30.723 24.833-55.556 55.555-55.556h555.556c30.722 0 55.555 24.833 55.555 55.556v364.166C800.5 511.723 762.89 500 722.223 500z" fill="#323233" fill-rule="evenodd"/></svg>