<?xml version="1.0" encoding="UTF-8"?>
<svg width="1000px" height="1000px" viewBox="0 0 1000 1000" version="1.1" xmlns="http://www.w3.org/2000/svg" xmlns:xlink="http://www.w3.org/1999/xlink">
    <!-- Generator: sketchtool 52.4 (67378) - http://www.bohemiancoding.com/sketch -->
    <title>todo-list</title>
    <desc>Created with sketchtool.</desc>
    <g id="新版图标" stroke="none" stroke-width="1" fill="none" fill-rule="evenodd">
        <g id="todo-list" fill="#323233">
            <g id="圆角-待接单-面">
                <g transform="translate(166.666667, 111.111111)" id="Combined-Shape">
                    <path d="M666.666729,418.618301 C633.980785,399.71049 596.03193,388.888889 555.555556,388.888889 C432.825611,388.888889 333.333333,488.381167 333.333333,611.111111 C333.333333,677.482918 362.430827,737.058641 408.565311,777.777778 L1,777.777778 C0.44771525,777.777778 6.76353751e-17,777.330063 0,776.777778 L0,1 C-6.76353751e-17,0.44771525 0.44771525,1.01453063e-16 1,0 L665.666667,0 C666.218951,-1.01453063e-16 666.666667,0.44771525 666.666667,1 L666.666667,418.618266 Z M111.611111,166.666667 C111.334969,166.666667 111.111111,166.890524 111.111111,167.166667 L111.111111,221.722222 C111.111111,221.998365 111.334969,222.222222 111.611111,222.222222 L499.5,222.222222 C499.776142,222.222222 500,221.998365 500,221.722222 L500,167.166667 C500,166.890524 499.776142,166.666667 499.5,166.666667 L111.611111,166.666667 Z M111.611111,277.777778 C111.334969,277.777778 111.111111,278.001635 111.111111,278.277778 L111.111111,332.833333 C111.111111,333.109476 111.334969,333.333333 111.611111,333.333333 L388.388889,333.333333 C388.665031,333.333333 388.888889,333.109476 388.888889,332.833333 L388.888889,278.277778 C388.888889,278.001635 388.665031,277.777778 388.388889,277.777778 L111.611111,277.777778 Z M111.611111,388.888889 C111.334969,388.888889 111.111111,389.112747 111.111111,389.388889 L111.111111,443.944444 C111.111111,444.220587 111.334969,444.444444 111.611111,444.444444 L277.277778,444.444444 C277.55392,444.444444 277.777778,444.220587 277.777778,443.944444 L277.777778,389.388889 C277.777778,389.112747 277.55392,388.888889 277.277778,388.888889 L111.611111,388.888889 Z"></path>
                    <path d="M555.555556,777.777778 C463.508097,777.777778 388.888889,703.158569 388.888889,611.111111 C388.888889,519.063653 463.508097,444.444444 555.555556,444.444444 C647.603014,444.444444 722.222222,519.063653 722.222222,611.111111 C722.222222,703.158569 647.603014,777.777778 555.555556,777.777778 Z M527.777778,529.376678 L527.777778,600.552363 C527.777778,615.286612 533.630936,629.417385 544.049623,639.836073 L597.883414,693.669864 C608.731311,704.517761 626.319227,704.517761 637.167124,693.669864 C648.015021,682.821967 648.015021,665.234051 637.167124,654.386154 L583.333333,600.552363 L583.333333,529.376678 C583.333333,514.035435 570.896799,501.5989 555.555556,501.5989 C540.214313,501.5989 527.777778,514.035435 527.777778,529.376678 Z"></path>
                </g>
            </g>
        </g>
    </g>
</svg>