<svg width="1000" height="1000" xmlns="http://www.w3.org/2000/svg"><g fill="#323233" fill-rule="nonzero"><path d="M166.667 277.778v555.555h666.666V277.778H166.667zm-55.556-55.556l40.2-80.4a55.556 55.556 0 0 1 49.69-30.71h597.997a55.556 55.556 0 0 1 49.69 30.71l40.2 80.4v611.111c0 30.683-24.872 55.556-55.555 55.556H166.667c-30.683 0-55.556-24.873-55.556-55.556v-611.11zm62.113 0h653.552l-27.778-55.555H201.002l-27.778 55.555z"/><path d="M500 555.556h83.333c15.342 0 27.778 12.436 27.778 27.777 0 15.342-12.436 27.778-27.778 27.778H444.444V416.667c0-15.342 12.437-27.778 27.778-27.778S500 401.325 500 416.667v138.889z"/></g></svg>