<svg width="1000" height="1000" xmlns="http://www.w3.org/2000/svg"><path d="M166.667 277.778v555.555h666.666V277.778H166.667zm-55.556-55.556H888.89v611.111c0 30.683-24.873 55.556-55.556 55.556H166.667c-30.683 0-55.556-24.873-55.556-55.556v-611.11zm62.113 0h-62.113l40.2-80.4a55.556 55.556 0 0 1 49.69-30.71h597.997a55.556 55.556 0 0 1 49.69 30.71l40.2 80.4h-62.112l-27.778-55.555H201.002l-27.778 55.555zm340.47 368.975l118.696 74.531a13.875 13.875 0 0 1-11.636 24.956l-176.202-56.827h-.083l.002-.026-.027-.008.036-.076 23.267-232.67a13.534 13.534 0 0 1 26.934 0l19.012 190.12z" fill="#323233" fill-rule="nonzero"/></svg>