<svg width="1000" height="1000" xmlns="http://www.w3.org/2000/svg"><path d="M166.667 277.778v555.555h666.666V277.778H166.667zm-55.556-55.556H888.89v611.111c0 30.683-24.873 55.556-55.556 55.556H166.667c-30.683 0-55.556-24.873-55.556-55.556v-611.11zm62.113 0h-62.113l40.2-80.4a55.556 55.556 0 0 1 49.69-30.71h597.997a55.556 55.556 0 0 1 49.69 30.71l40.2 80.4h-62.112l-27.778-55.555H201.002l-27.778 55.555zm354.554 361.111h137.889a1 1 0 0 1 1 1v53.556a1 1 0 0 1-1 1H472.722a.5.5 0 0 1-.5-.5v-248.5a1 1 0 0 1 1-1h53.556a1 1 0 0 1 1 1v193.444z" fill="#323233" fill-rule="nonzero"/></svg>