<svg width="1000" height="1000" xmlns="http://www.w3.org/2000/svg"><path d="M888.889 166.667h-46.596c-14.641 0-26.77 11.365-27.719 25.976l-29.358 451.651c-2.849 43.833-39.232 77.928-83.157 77.928H111.11v-55.555H702.06c14.641 0 26.77-11.365 27.719-25.976l29.358-451.652c2.849-43.833 39.232-77.928 83.157-77.928h46.596v55.556zm-666.667 0h388.89c30.682 0 55.555 24.873 55.555 55.555v333.334c0 30.682-24.873 55.555-55.556 55.555H222.222c-30.682 0-55.555-24.873-55.555-55.555V222.222c0-30.682 24.873-55.555 55.555-55.555zm0 55.555v333.334h388.89V222.222h-388.89zm111.111 138.89v-55.556H500v55.555H333.333zm-125 527.777c-23.012 0-41.666-18.655-41.666-41.667s18.654-41.666 41.666-41.666c23.012 0 41.667 18.654 41.667 41.666 0 23.012-18.655 41.667-41.667 41.667zm444.445 0c-23.012 0-41.667-18.655-41.667-41.667s18.655-41.666 41.667-41.666 41.666 18.654 41.666 41.666c0 23.012-18.654 41.667-41.666 41.667z" fill="#333" fill-rule="nonzero"/></svg>