<?xml version="1.0" encoding="UTF-8"?>
<svg width="1000px" height="1000px" viewBox="0 0 1000 1000" version="1.1" xmlns="http://www.w3.org/2000/svg" xmlns:xlink="http://www.w3.org/1999/xlink">
    <!-- Generator: sketchtool 52.4 (67378) - http://www.bohemiancoding.com/sketch -->
    <title>trolley-o</title>
    <desc>Created with sketchtool.</desc>
    <g id="新版图标" stroke="none" stroke-width="1" fill="none" fill-rule="evenodd">
        <g id="trolley-o" fill="#333333" fill-rule="nonzero">
            <g id="直角-库存调拨">
                <path d="M888.888889,166.666667 L842.29349,166.666667 C827.651738,166.666667 815.52393,178.031751 814.574209,192.642669 L785.216494,644.294216 C782.36733,688.12697 745.983906,722.222222 702.058651,722.222222 L111.111111,722.222222 L111.111111,666.666667 L702.058651,666.666667 C716.700403,666.666667 728.82821,655.301583 729.777932,640.690665 L759.135647,189.039118 C761.984811,145.206363 798.368234,111.111111 842.29349,111.111111 L888.888889,111.111111 L888.888889,166.666667 Z M222.222222,166.666667 L611.111111,166.666667 C641.793597,166.666667 666.666667,191.539736 666.666667,222.222222 L666.666667,555.555556 C666.666667,586.238042 641.793597,611.111111 611.111111,611.111111 L222.222222,611.111111 C191.539736,611.111111 166.666667,586.238042 166.666667,555.555556 L166.666667,222.222222 C166.666667,191.539736 191.539736,166.666667 222.222222,166.666667 Z M222.222222,222.222222 L222.222222,555.555556 L611.111111,555.555556 L611.111111,222.222222 L222.222222,222.222222 Z M333.333333,361.111111 L333.333333,305.555556 L500,305.555556 L500,361.111111 L333.333333,361.111111 Z M208.333333,888.888889 C185.321469,888.888889 166.666667,870.234087 166.666667,847.222222 C166.666667,824.210358 185.321469,805.555556 208.333333,805.555556 C231.345198,805.555556 250,824.210358 250,847.222222 C250,870.234087 231.345198,888.888889 208.333333,888.888889 Z M652.777778,888.888889 C629.765913,888.888889 611.111111,870.234087 611.111111,847.222222 C611.111111,824.210358 629.765913,805.555556 652.777778,805.555556 C675.789642,805.555556 694.444444,824.210358 694.444444,847.222222 C694.444444,870.234087 675.789642,888.888889 652.777778,888.888889 Z" id="直角-采购入库－线"></path>
            </g>
        </g>
    </g>
</svg>