<svg width="1000" height="1000" xmlns="http://www.w3.org/2000/svg"><path d="M833.333 833.333c0 61.365-49.746 111.111-111.11 111.111-61.366 0-111.112-49.746-111.112-111.11H388.89c0 61.364-49.746 111.11-111.111 111.11s-111.111-49.746-111.111-111.11h-53.868c-30.683 0-55.556-24.874-55.556-55.556V475.436a55.556 55.556 0 0 1 8.463-29.474l88.937-142.102a55.556 55.556 0 0 1 47.092-26.082H388.89V166.667c0-30.683 24.873-55.556 55.555-55.556H888.89c30.682 0 55.555 24.873 55.555 55.556v611.11c0 30.683-24.873 55.556-55.555 55.556h-55.556zm-14.864-55.555h70.42V166.667H444.444v611.11h181.532c19.211-33.21 55.12-55.555 96.246-55.555 41.127 0 77.035 22.345 96.247 55.556zm-636.938 0c19.212-33.211 55.12-55.556 96.247-55.556s77.035 22.345 96.246 55.556h14.865V333.333H201.735L112.8 475.436v302.342h68.732zm485.136-500h166.666v55.555H666.667v-55.555zm-388.89 611.11c30.683 0 55.556-24.872 55.556-55.555 0-30.682-24.873-55.555-55.555-55.555-30.683 0-55.556 24.873-55.556 55.555 0 30.683 24.873 55.556 55.556 55.556zm444.445 0c30.683 0 55.556-24.872 55.556-55.555 0-30.682-24.873-55.555-55.556-55.555-30.682 0-55.555 24.873-55.555 55.555 0 30.683 24.873 55.556 55.555 55.556z" fill="#333" fill-rule="nonzero"/></svg>