<?xml version="1.0" encoding="UTF-8"?>
<svg width="1000px" height="1000px" viewBox="0 0 1000 1000" version="1.1" xmlns="http://www.w3.org/2000/svg" xmlns:xlink="http://www.w3.org/1999/xlink">
    <!-- Generator: sketchtool 52.4 (67378) - http://www.bohemiancoding.com/sketch -->
    <title>truck-o</title>
    <desc>Created with sketchtool.</desc>
    <g id="新版图标" stroke="none" stroke-width="1" fill="none" fill-rule="evenodd">
        <g id="truck-o" fill="#333333" fill-rule="nonzero">
            <g id="直角-物流-线" transform="translate(57.000000, 111.000000)">
                <path d="M776.333333,722.333333 C776.333333,783.698306 726.587194,833.444444 665.222222,833.444444 C603.85725,833.444444 554.111111,783.698306 554.111111,722.333333 L387.444444,722.333333 L331.888889,722.333333 C331.888889,783.698306 282.14275,833.444444 220.777778,833.444444 C159.412806,833.444444 109.666667,783.698306 109.666667,722.333333 L55.7989774,722.333333 C25.1164913,722.333333 0.243421805,697.460264 0.243421805,666.777778 L0.243421805,364.43593 C0.243421805,354.012036 3.17606991,343.798417 8.70619232,334.962394 L97.6426622,192.859797 C107.798357,176.633038 125.592672,166.777778 144.735447,166.777778 L331.888889,166.777778 L331.888889,55.6666667 C331.888889,24.9841806 356.761958,0.111111111 387.444444,0.111111111 L831.888889,0.111111111 C862.571375,0.111111111 887.444444,24.9841806 887.444444,55.6666667 L887.444444,666.777778 C887.444444,697.460264 862.571375,722.333333 831.888889,722.333333 L776.333333,722.333333 Z M761.468645,666.777778 L831.888889,666.777778 L831.888889,55.6666667 L387.444444,55.6666667 L387.444444,666.777778 L568.975799,666.777778 C588.187456,633.566577 624.095437,611.222222 665.222222,611.222222 C706.349007,611.222222 742.256988,633.566577 761.468627,666.777747 Z M124.531373,666.777747 C143.743012,633.566577 179.650993,611.222222 220.777778,611.222222 C261.904563,611.222222 297.812544,633.566577 317.024183,666.777747 L331.888889,666.777778 L331.888889,222.333333 L144.735447,222.333333 L55.7989774,364.43593 L55.7989774,666.777778 L124.531355,666.777778 Z M609.666667,166.777778 L776.333333,166.777778 L776.333333,222.333333 L609.666667,222.333333 L609.666667,166.777778 Z M220.777778,777.888889 C251.460264,777.888889 276.333333,753.015819 276.333333,722.333333 C276.333333,691.650847 251.460264,666.777778 220.777778,666.777778 C190.095292,666.777778 165.222222,691.650847 165.222222,722.333333 C165.222222,753.015819 190.095292,777.888889 220.777778,777.888889 Z M665.222222,777.888889 C695.904708,777.888889 720.777778,753.015819 720.777778,722.333333 C720.777778,691.650847 695.904708,666.777778 665.222222,666.777778 C634.539736,666.777778 609.666667,691.650847 609.666667,722.333333 C609.666667,753.015819 634.539736,777.888889 665.222222,777.888889 Z" id="Combined-Shape"></path>
            </g>
        </g>
    </g>
</svg>