<svg width="1000" height="1000" xmlns="http://www.w3.org/2000/svg"><path d="M166.667 111.111h666.666c30.723 0 55.556 24.833 55.556 55.556v500c0 30.722-24.833 55.555-55.556 55.555H527.778v111.111h194.444v55.556H277.778v-55.556h194.444v-111.11H166.667c-30.723 0-55.556-24.834-55.556-55.556v-500c0-30.723 24.833-55.556 55.556-55.556zm0 555.556h666.666v-500H166.667v500zm256.35-123.645c-2 1.167-4.556.611-5.778-1.389-.333-.666-.556-1.389-.556-2.11V293.855a4.161 4.161 0 0 1 4.167-4.167c.778 0 1.5.167 2.167.611L625.46 413.078c1.945 1.222 2.5 3.778 1.333 5.778-.333.5-.833 1-1.333 1.388L423.017 543.022z" fill="#251714" fill-rule="evenodd"/></svg>