<?xml version="1.0" encoding="UTF-8"?>
<svg width="1000px" height="1000px" viewBox="0 0 1000 1000" version="1.1" xmlns="http://www.w3.org/2000/svg" xmlns:xlink="http://www.w3.org/1999/xlink">
    <!-- Generator: sketchtool 52.4 (67378) - http://www.bohemiancoding.com/sketch -->
    <title>tv-o</title>
    <desc>Created with sketchtool.</desc>
    <g id="新版图标" stroke="none" stroke-width="1" fill="none" fill-rule="evenodd">
        <g id="tv-o" fill="#251714">
            <g id="直角-视频教程-线">
                <path d="M166.666667,111.111111 L833.333333,111.111111 C864.055556,111.111111 888.888889,135.944444 888.888889,166.666667 L888.888889,666.666667 C888.888889,697.388889 864.055556,722.222222 833.333333,722.222222 L527.777778,722.222222 L527.777778,833.333333 L722.222222,833.333333 L722.222222,888.888889 L277.777778,888.888889 L277.777778,833.333333 L472.222222,833.333333 L472.222222,722.222222 L166.666667,722.222222 C135.944444,722.222222 111.111111,697.388889 111.111111,666.666667 L111.111111,166.666667 C111.111111,135.944444 135.944444,111.111111 166.666667,111.111111 Z M166.666667,666.666667 L833.333333,666.666667 L833.333333,166.666667 L166.666667,166.666667 L166.666667,666.666667 Z M423.016667,543.022222 C421.016667,544.188889 418.461111,543.633333 417.238889,541.633333 C416.905556,540.966667 416.683333,540.244444 416.683333,539.522222 L416.683333,293.855556 C416.683333,291.577778 418.516667,289.688889 420.85,289.688889 C421.627778,289.688889 422.35,289.855556 423.016667,290.3 L625.461111,413.077778 C627.405556,414.3 627.961111,416.855556 626.794444,418.855556 C626.461111,419.355556 625.961111,419.855556 625.461111,420.244444 L423.016667,543.022222 Z" id="Fill-3"></path>
            </g>
        </g>
    </g>
</svg>