<svg width="1000" height="1000" xmlns="http://www.w3.org/2000/svg"><path d="M500 944.444C254.54 944.444 55.556 745.46 55.556 500S254.54 55.556 500 55.556 944.444 254.54 944.444 500 745.46 944.444 500 944.444zM472.222 279.15c-140.37 13.937-250 132.37-250 276.407h555.556c0-144.038-109.63-262.47-250-276.407v-56.927h-55.556v56.927zm0 331.962v97.222c0 23.012-18.655 41.667-41.666 41.667-23.012 0-41.667-18.655-41.667-41.667v-21.272h-55.556v21.272c0 53.695 43.528 97.223 97.223 97.223 53.694 0 97.222-43.528 97.222-97.223v-97.222h-55.556z" fill="#323233" fill-rule="evenodd"/></svg>