<?xml version="1.0" encoding="UTF-8"?>
<svg width="1000px" height="1000px" viewBox="0 0 1000 1000" version="1.1" xmlns="http://www.w3.org/2000/svg" xmlns:xlink="http://www.w3.org/1999/xlink">
    <!-- Generator: sketchtool 52.4 (67378) - http://www.bohemiancoding.com/sketch -->
    <title>umbrella-circle</title>
    <desc>Created with sketchtool.</desc>
    <g id="新版图标" stroke="none" stroke-width="1" fill="none" fill-rule="evenodd">
        <g id="umbrella-circle" fill="#323233">
            <g id="直角-担保交易">
                <path d="M500,944.444444 C254.540111,944.444444 55.5555556,745.459889 55.5555556,500 C55.5555556,254.540111 254.540111,55.5555556 500,55.5555556 C745.459889,55.5555556 944.444444,254.540111 944.444444,500 C944.444444,745.459889 745.459889,944.444444 500,944.444444 Z M472.222222,279.149312 C331.852147,293.086102 222.222222,411.518108 222.222222,555.555556 L777.777778,555.555556 C777.777778,411.518108 668.147853,293.086102 527.777778,279.149312 L527.777778,222.222222 L472.222222,222.222222 L472.222222,279.149312 Z M472.222222,611.111111 L472.222222,708.333333 C472.222222,731.345198 453.56742,750 430.555556,750 C407.543691,750 388.888889,731.345198 388.888889,708.333333 L388.888889,687.060929 L333.333333,687.060929 L333.333333,708.333333 C333.333333,762.027684 376.861205,805.555556 430.555556,805.555556 C484.249906,805.555556 527.777778,762.027684 527.777778,708.333333 L527.777778,611.111111 L472.222222,611.111111 Z" id="Combined-Shape"></path>
            </g>
        </g>
    </g>
</svg>