<svg width="1000" height="1000" xmlns="http://www.w3.org/2000/svg"><path d="M543.371 511.234l-27.16-271.6c-.988-9.885-9.306-17.412-19.239-17.412-9.933 0-18.25 7.527-19.239 17.411L444.495 572.02l-.05.108.038.012-.004.037h.12l251.716 81.181c9.513 3.068 19.823-1.428 24.048-10.488 4.224-9.06 1.042-19.847-7.424-25.163L543.37 511.234zM500 944.444C254.54 944.444 55.556 745.46 55.556 500S254.54 55.556 500 55.556 944.444 254.54 944.444 500 745.46 944.444 500 944.444z" fill="#323233" fill-rule="evenodd"/></svg>