<svg width="1000" height="1000" xmlns="http://www.w3.org/2000/svg"><g fill="#323233" fill-rule="evenodd"><path d="M500 888.889c214.777 0 388.889-174.112 388.889-388.889 0-214.777-174.112-388.889-388.889-388.889-214.777 0-388.889 174.112-388.889 388.889 0 214.777 174.112 388.889 388.889 388.889zm0 55.555C254.54 944.444 55.556 745.46 55.556 500S254.54 55.556 500 55.556 944.444 254.54 944.444 500 745.46 944.444 500 944.444z"/><path d="M543.371 511.234L712.94 617.707c8.466 5.316 11.648 16.104 7.424 25.163-4.225 9.06-14.535 13.556-24.048 10.488l-251.717-81.18h-.12l.005-.038-.039-.012.05-.108 33.24-332.387c.988-9.884 9.305-17.41 19.238-17.41s18.25 7.526 19.239 17.41l27.16 271.601z"/></g></svg>