<svg width="1000" height="1000" xmlns="http://www.w3.org/2000/svg"><path d="M519.03 546.236l-14.068-347.003a.321.321 0 0 0-.32-.308h-53.147a.321.321 0 0 0-.321.308L435.23 592.522l-.497 1.016a.643.643 0 0 0 .3.863l.118.055-.067 1.65a.642.642 0 0 0 .643.668h4.283l261.266 124.64a.321.321 0 0 0 .417-.13l21.207-36.731a.321.321 0 0 0-.098-.427L519.03 546.236zM1000 506.173C1000 776.148 776.148 1000 493.827 1000 223.852 1000 0 776.148 0 506.173 0 223.852 223.852 0 493.827 0 776.148 0 1000 223.852 1000 506.173z" fill="#10AEFF" fill-rule="evenodd"/></svg>