<svg width="1000" height="1000" xmlns="http://www.w3.org/2000/svg"><g fill="#323233" fill-rule="evenodd"><path d="M500 888.889c214.777 0 388.889-174.112 388.889-388.889 0-214.777-174.112-388.889-388.889-388.889-214.777 0-388.889 174.112-388.889 388.889 0 214.777 174.112 388.889 388.889 388.889zm0 55.555C254.54 944.444 55.556 745.46 55.556 500S254.54 55.556 500 55.556 944.444 254.54 944.444 500 745.46 944.444 500 944.444z" fill-rule="nonzero"/><path d="M471.827 385.702l-127.029 127.03a.5.5 0 0 1-.707 0l-38.577-38.577a.5.5 0 0 1 0-.707l195.712-195.712a.5.5 0 0 1 .707 0l38.576 38.577 157.135 157.135a.5.5 0 0 1 0 .707l-38.576 38.577a.5.5 0 0 1-.707 0L527.383 381.754v339.573a.5.5 0 0 1-.5.5h-54.556a.5.5 0 0 1-.5-.5V385.702z"/></g></svg>