<?xml version="1.0" encoding="UTF-8"?>
<svg width="1000px" height="1000px" viewBox="0 0 1000 1000" version="1.1" xmlns="http://www.w3.org/2000/svg" xmlns:xlink="http://www.w3.org/1999/xlink">
    <!-- Generator: sketchtool 52.4 (67378) - http://www.bohemiancoding.com/sketch -->
    <title>user-o</title>
    <desc>Created with sketchtool.</desc>
    <g id="新版图标" stroke="none" stroke-width="1" fill="none" fill-rule="evenodd">
        <g id="user-o" fill="#323233" fill-rule="nonzero">
            <g id="直角--客户管理" transform="translate(111.000000, 55.000000)">
                <path d="M389,389.444444 C481.047458,389.444444 555.666667,314.825236 555.666667,222.777778 C555.666667,130.730319 481.047458,56.1111111 389,56.1111111 C296.952542,56.1111111 222.333333,130.730319 222.333333,222.777778 C222.333333,314.825236 296.952542,389.444444 389,389.444444 Z M389,445 C266.270056,445 166.777778,345.507722 166.777778,222.777778 C166.777778,100.047833 266.270056,0.555555556 389,0.555555556 C511.729944,0.555555556 611.222222,100.047833 611.222222,222.777778 C611.222222,345.507722 511.729944,445 389,445 Z M234.911341,556.111111 L55.6666667,641.659706 L55.6666667,833.888889 L722.333333,833.888889 L722.333333,641.659706 L543.088659,556.111111 L523.122976,556.111111 L389,690.234087 L254.877024,556.111111 L234.911341,556.111111 Z M389,611.666667 L500.111111,500.555556 L543.088659,500.555556 C551.369211,500.555556 559.545039,502.406597 567.01808,505.973276 L746.262755,591.52187 C765.585364,600.744025 777.888889,620.249163 777.888889,641.659706 L777.888889,833.888889 C777.888889,864.571375 753.015819,889.444444 722.333333,889.444444 L55.6666667,889.444444 C24.9841806,889.444444 0.111111111,864.571375 0.111111111,833.888889 L0.111111111,641.659706 C0.111111111,620.249163 12.414636,600.744025 31.7372452,591.52187 L210.98192,505.973276 C218.454961,502.406597 226.630789,500.555556 234.911341,500.555556 L277.888889,500.555556 L389,611.666667 Z" id="Combined-Shape"></path>
            </g>
        </g>
    </g>
</svg>