<?xml version="1.0" encoding="UTF-8"?>
<svg width="1000px" height="1000px" viewBox="0 0 1000 1000" version="1.1" xmlns="http://www.w3.org/2000/svg" xmlns:xlink="http://www.w3.org/1999/xlink">
    <!-- Generator: sketchtool 52.4 (67378) - http://www.bohemiancoding.com/sketch -->
    <title>video</title>
    <desc>Created with sketchtool.</desc>
    <g id="新版图标" stroke="none" stroke-width="1" fill="none" fill-rule="evenodd">
        <g id="video" fill="#323233">
            <g id="直角-视频教程-面">
                <g transform="translate(111.111111, 111.111111)" id="Combined-Shape">
                    <path d="M611.455077,166.666667 L555.555556,55.5555556 L500,55.5555556 L555.899521,166.666667 L444.78841,166.666667 L388.888889,55.5555556 L333.333333,55.5555556 L389.232854,166.666667 L278.121743,166.666667 L222.222222,55.5555556 L166.666667,55.5555556 L222.566188,166.666667 L0,166.666667 L0,55.5555556 C0,24.8730695 24.8730695,0 55.5555556,0 L722.222222,0 C752.904708,0 777.777778,24.8730695 777.777778,55.5555556 L777.777778,166.666667 L611.455077,166.666667 Z"></path>
                    <path d="M0,222.222222 L777.777778,222.222222 L777.777778,722.222222 C777.777778,752.904708 752.904708,777.777778 722.222222,777.777778 L55.5555556,777.777778 C24.8730695,777.777778 0,752.904708 0,722.222222 L0,222.222222 Z M555.555556,472.222222 L277.777778,333.333333 L277.777778,611.111111 L555.555556,472.222222 Z"></path>
                </g>
            </g>
        </g>
    </g>
</svg>