<svg width="1000" height="1000" xmlns="http://www.w3.org/2000/svg"><g fill="#323233" fill-rule="evenodd"><path d="M166.667 166.667v666.666h666.666V166.667H166.667zm0-55.556h666.666c30.683 0 55.556 24.873 55.556 55.556v666.666c0 30.683-24.873 55.556-55.556 55.556H166.667c-30.683 0-55.556-24.873-55.556-55.556V166.667c0-30.683 24.873-55.556 55.556-55.556z" fill-rule="nonzero"/><path d="M166.667 277.778h666.667v55.556H166.667zM665.772 583.78l-276.16 138.08a.5.5 0 0 1-.723-.447v-276.16a.5.5 0 0 1 .723-.447l276.16 138.08a.5.5 0 0 1 0 .895zm-110.216-.447l-111.112-55.555v111.11l111.112-55.555zM277.778 166.667h55.555l55.9 111.11h-55.556zM444.444 166.667H500l55.9 111.11h-55.556zM611.111 166.667h55.556l55.9 111.11H667.01z"/></g></svg>