<svg width="1000" height="1000" xmlns="http://www.w3.org/2000/svg"><g fill="#323233" fill-rule="evenodd"><path d="M722.566 277.778l-55.9-111.111h-55.555l55.9 111.11H555.9L500 166.668h-55.556l55.9 111.11H389.233l-55.9-111.11h-55.555l55.9 111.11H111.11v-111.11c0-30.683 24.873-55.556 55.556-55.556h666.666c30.683 0 55.556 24.873 55.556 55.556v111.11H722.566zM111.111 333.333H888.89v500c0 30.683-24.873 55.556-55.556 55.556H166.667c-30.683 0-55.556-24.873-55.556-55.556v-500zm555.556 250L388.889 444.444v277.778l277.778-138.889z"/></g></svg>