<svg width="1000" height="1000" xmlns="http://www.w3.org/2000/svg"><path d="M111.111 833.356v-500H888.89v500c0 30.666-24.833 55.555-55.556 55.555H166.667c-30.723 0-55.556-24.889-55.556-55.555zm291.722-334.334V723.19c0 21.444 23.223 34.889 41.834 24.167l194.11-112.112c18.612-10.722 18.612-37.555 0-48.277l-194.11-112.111c-18.611-10.723-41.834 2.666-41.834 24.166zm430.5-387.91c30.723 0 55.556 24.832 55.556 55.555v111.11H705.167l-56.111-97.221c-7.667-13.278-24.667-17.834-37.945-10.167-13.278 7.667-17.833 24.667-10.167 37.944l40.112 69.445H538.5l-56.111-97.222c-7.667-13.278-24.667-17.834-37.945-10.167-13.277 7.667-17.833 24.667-10.166 37.944l40.11 69.445H371.834l-56.11-97.222c-7.667-13.278-24.667-17.834-37.945-10.167-13.278 7.667-17.834 24.667-10.167 37.944l40.111 69.445h-196.61V166.667c0-30.723 24.832-55.556 55.555-55.556h666.666z" fill="#323233" fill-rule="evenodd"/></svg>