<?xml version="1.0" encoding="UTF-8"?>
<svg width="1000px" height="1000px" viewBox="0 0 1000 1000" version="1.1" xmlns="http://www.w3.org/2000/svg" xmlns:xlink="http://www.w3.org/1999/xlink">
    <!-- Generator: sketchtool 52.4 (67378) - http://www.bohemiancoding.com/sketch -->
    <title>vip-card</title>
    <desc>Created with sketchtool.</desc>
    <g id="新版图标" stroke="none" stroke-width="1" fill="none" fill-rule="evenodd">
        <g id="vip-card" fill="#333333" fill-rule="nonzero">
            <g id="直角-会员卡-面">
                <path d="M944.444444,277.777778 L55.5555556,277.777778 L55.5555556,167.666667 C55.5555556,167.114382 56.0032708,166.666667 56.5555556,166.666667 L943.444444,166.666667 C943.996729,166.666667 944.444444,167.114382 944.444444,167.666667 L944.444444,277.777778 Z M944.444444,333.333333 L944.444444,832.333333 C944.444444,832.885618 943.996729,833.333333 943.444444,833.333333 L56.5555556,833.333333 C56.0032708,833.333333 55.5555556,832.885618 55.5555556,832.333333 L55.5555556,333.333333 L944.444444,333.333333 Z M239.833333,428.666667 L324.5,666.666667 L371.5,666.666667 L456.166667,428.666667 L413.833333,428.666667 L348.5,622.666667 L347.5,622.666667 L282.166667,428.666667 L239.833333,428.666667 Z M481.166667,428.666667 L481.166667,666.666667 L520.166667,666.666667 L520.166667,428.666667 L481.166667,428.666667 Z M566.833333,428.666667 L566.833333,666.666667 L605.833333,666.666667 L605.833333,575.333333 L664.833333,575.333333 C722.833333,575.333333 751.833333,550.666667 751.833333,501.666667 C751.833333,453 722.833333,428.666667 665.5,428.666667 L566.833333,428.666667 Z M605.833333,462 L662.5,462 C679.5,462 692.166667,465 700.166667,471.333333 C708.166667,477.333333 712.5,487.333333 712.5,501.666667 C712.5,516 708.5,526.333333 700.5,532.666667 C692.5,538.666667 679.833333,542 662.5,542 L605.833333,542 L605.833333,462 Z" id="Combined-Shape"></path>
            </g>
        </g>
    </g>
</svg>