<svg width="1000" height="1000" xmlns="http://www.w3.org/2000/svg"><path d="M888.889 166.667c30.667 0 55.555 24.889 55.555 55.555v555.556c0 30.722-24.888 55.555-55.555 55.555H111.11c-30.667 0-55.555-24.833-55.555-55.555V222.222c0-30.666 24.888-55.555 55.555-55.555H888.89zM111.11 277.777H888.89v-55.555H111.11v55.556zm0 500H888.89V333.334H111.11v444.445zm128.722-349.11h42.334l65.333 194h1l65.333-194h42.334l-84.667 238h-47l-84.667-238zm241.334 0h39v238h-39v-238zm85.666 0H665.5c57.333 0 86.333 24.333 86.333 73 0 49-29 73.666-87 73.666h-59v91.334h-39v-238zm39 33.333v80H662.5c17.333 0 30-3.333 38-9.333 8-6.334 12-16.667 12-31 0-14.334-4.333-24.334-12.333-30.334C692.167 465 679.5 462 662.5 462h-56.667z" fill="#323233" fill-rule="evenodd"/></svg>