<svg width="1000" height="1000" xmlns="http://www.w3.org/2000/svg"><path d="M361.111 888.889V611.11c0-30.682 24.873-55.555 55.556-55.555h166.666c30.683 0 55.556 24.873 55.556 55.555V888.89h166.667V362.928L500.31 124.444 194.444 363.413v525.476h166.667zm500-482.557V888.89c0 30.682-24.873 55.555-55.555 55.555H194.444c-30.682 0-55.555-24.873-55.555-55.555V406.817l-43.045 33.63-33.416-42.77L500.212 55.641l.04.052.085-.108L938.12 397.62l-33.416 42.77-43.593-34.058zM416.667 888.89h166.666V611.11H416.667V888.89z" fill="#323233" fill-rule="evenodd"/></svg>