<svg width="1000" height="1000" xmlns="http://www.w3.org/2000/svg"><g fill="#323233" fill-rule="nonzero"><path d="M111.111 444.444c-9.984-11.647-8.635-29.184 3.013-39.168l349.72-299.76c20.806-17.833 51.506-17.833 72.311 0l349.721 299.76c11.648 9.984 12.997 27.52 3.013 39.168s-27.52 12.997-39.168 3.013L500 147.697l-349.72 299.76c-11.649 9.984-29.185 8.635-39.169-3.013z"/><path d="M443.922 833.337c0 30.682-24.918 55.555-55.656 55.555l-165.944-.003c-30.738 0-55.655-24.873-55.655-55.556V361.111h55.655v472.222l165.945.004-.028-166.667c-.004-30.682 24.91-55.559 55.653-55.562l111.56.003c30.738 0 55.656 24.873 55.656 55.556v166.666h166.57V377.18h55.655v456.153c0 30.683-24.917 55.556-55.655 55.556h-166.57c-30.738 0-55.655-24.873-55.655-55.556V666.667l-111.559-.004.028 166.674z"/></g></svg>