<?xml version="1.0" encoding="UTF-8"?>
<svg width="1000px" height="1000px" viewBox="0 0 1000 1000" version="1.1" xmlns="http://www.w3.org/2000/svg" xmlns:xlink="http://www.w3.org/1999/xlink">
    <!-- Generator: sketchtool 52.4 (67378) - http://www.bohemiancoding.com/sketch -->
    <title>warehouse-o</title>
    <desc>Created with sketchtool.</desc>
    <g id="新版图标" stroke="none" stroke-width="1" fill="none" fill-rule="evenodd">
        <g id="warehouse-o" fill="#333333" fill-rule="nonzero">
            <g id="直角-仓库" transform="translate(111.000000, 111.000000)">
                <path d="M55.6666667,207.095799 L55.6666667,719.371447 L722.333333,719.371447 L722.333333,207.095799 L389,55.6666667 L55.6666667,207.095799 Z M32.6884324,156.514968 L366.021766,5.0858353 C380.622579,-1.54713028 397.377421,-1.54713028 411.978234,5.0858353 L745.311568,156.514968 C765.150429,165.527513 777.888889,185.305747 777.888889,207.095799 L777.888889,719.371447 C777.888889,750.053933 753.015819,774.927002 722.333333,774.927002 L55.6666667,774.927002 C24.9841806,774.927002 0.111111111,750.053933 0.111111111,719.371447 L0.111111111,207.095799 C0.111111111,185.305747 12.8495706,165.527513 32.6884324,156.514968 Z M222.333333,555.666667 L555.666667,555.666667 L555.666667,611.222222 L222.333333,611.222222 L222.333333,555.666667 Z M222.333333,389 L555.666667,389 L555.666667,444.555556 L222.333333,444.555556 L222.333333,389 Z" id="Combined-Shape"></path>
            </g>
        </g>
    </g>
</svg>