<svg width="1000" height="1000" xmlns="http://www.w3.org/2000/svg"><path d="M166.667 318.096V830.37h666.666V318.096L500 166.666l-333.333 151.43zm-22.979-50.581l333.334-151.43a55.556 55.556 0 0 1 45.956 0l333.334 151.43a55.556 55.556 0 0 1 32.577 50.58v512.276c0 30.683-24.873 55.556-55.556 55.556H166.667c-30.683 0-55.556-24.873-55.556-55.556V318.096a55.556 55.556 0 0 1 32.577-50.581zm189.645 399.152h333.334v55.555H333.333v-55.555zm0-166.667h333.334v55.556H333.333V500z" fill="#333" fill-rule="nonzero"/></svg>