<svg width="1000" height="1000" xmlns="http://www.w3.org/2000/svg"><g fill="none" fill-rule="evenodd"><path d="M500 944.444C254.54 944.444 55.556 745.46 55.556 500S254.54 55.556 500 55.556 944.444 254.54 944.444 500 745.46 944.444 500 944.444zm-36.104-686.82l8.227 368.085c.135 6.035 4.731 10.402 10.28 10.402h40.75c5.272 0 10.15-4.657 10.28-10.402l8.226-368.085c.135-6.034-4.346-10.402-9.994-10.402H473.89c-6.021 0-10.123 4.657-9.995 10.402zm38.882 495.154c21.478 0 38.889-17.411 38.889-38.89 0-21.477-17.411-38.888-38.89-38.888-21.477 0-38.888 17.411-38.888 38.889s17.411 38.889 38.889 38.889z" fill="#323233"/></g></svg>