<svg width="1000" height="1000" xmlns="http://www.w3.org/2000/svg"><path d="M497.455 222.233l-330.788 607.96h661.576l-330.788-607.96zm48.8-26.552l330.788 607.96c14.664 26.952 4.703 60.688-22.248 75.352a55.556 55.556 0 0 1-26.552 6.755H166.667c-30.683 0-55.556-24.873-55.556-55.555a55.556 55.556 0 0 1 6.756-26.552l330.788-607.96c14.664-26.951 48.4-36.912 75.351-22.248a55.556 55.556 0 0 1 22.249 22.248zm-68.618 185.022h55.555V631.23h-55.555V380.703zm27.777 375c23.012 0 41.667-18.655 41.667-41.667s-18.655-41.667-41.667-41.667c-23.011 0-41.666 18.655-41.666 41.667s18.655 41.667 41.666 41.667z" fill="#323233" fill-rule="nonzero"/></svg>