<?xml version="1.0" encoding="UTF-8"?>
<svg width="1000px" height="1000px" viewBox="0 0 1000 1000" version="1.1" xmlns="http://www.w3.org/2000/svg" xmlns:xlink="http://www.w3.org/1999/xlink">
    <!-- Generator: sketchtool 52.4 (67378) - http://www.bohemiancoding.com/sketch -->
    <title>warn-o</title>
    <desc>Created with sketchtool.</desc>
    <g id="新版图标" stroke="none" stroke-width="1" fill="none" fill-rule="evenodd">
        <g id="warn-o" fill="#323233" fill-rule="nonzero">
            <g id="直角-消息类型－处罚信息">
                <path d="M497.454746,222.232782 L166.666667,830.192897 L828.242825,830.192897 L497.454746,222.232782 Z M546.254585,195.681032 L877.042665,803.641146 C891.706791,830.592553 881.745983,864.328609 854.794575,878.992736 C846.646757,883.425923 837.518605,885.748452 828.242825,885.748452 L166.666667,885.748452 C135.984181,885.748452 111.111111,860.875383 111.111111,830.192897 C111.111111,820.917117 113.43364,811.788965 117.866827,803.641146 L448.654907,195.681032 C463.319033,168.729625 497.055089,158.768816 524.006496,173.432943 C533.41147,178.550142 541.137386,186.276058 546.254585,195.681032 Z M477.636706,380.702575 L533.192262,380.702575 L533.192262,631.22977 L477.636706,631.22977 L477.636706,380.702575 Z M505.414484,755.702575 C528.426349,755.702575 547.081151,737.047773 547.081151,714.035909 C547.081151,691.024044 528.426349,672.369242 505.414484,672.369242 C482.40262,672.369242 463.747817,691.024044 463.747817,714.035909 C463.747817,737.047773 482.40262,755.702575 505.414484,755.702575 Z" id="直角-消息类型－处罚信息-线"></path>
            </g>
        </g>
    </g>
</svg>