<svg width="1000" height="1000" xmlns="http://www.w3.org/2000/svg"><path d="M547.588 13.307l348.245 105.557v449.044c0 75.577 0 275.118-406.246 432.092C83.372 843.026 83.333 643.485 83.333 567.908V118.864L438.728 11.732c3.079-.928 6.06-2.082 8.984-3.277 38.368-15.637 71.647-5.76 84.462-.634 5.024 2.009 10.145 3.89 15.414 5.486zM270.833 503.232V716.08c3.712 7.572 11.703 11.915 20.946 10.37l54.223-9.034V479.41c-24.534 4.894-60.093 11.674-60.093 11.674-6.468 1.241-12.11 6.059-15.076 12.15zm98.624 210.277l260.75-43.435c19.19-3.191 32.902-21.943 31.114-41.917 0 0-1.8-7.115-.191-17.181 1.61-10.066 9.545-15.6 11.006-36.694 1.14-16.32-4.106-18.517-2.639-35.965 1.467-17.441 8.632-20.252 10.402-42.916 1.77-22.677-6.591-28.229-4.982-43.872 1.597-15.637 4.538-24.532 4.538-24.532 6.234-26.646-10.106-45.632-36.478-42.416l-86.896 10.629c-13.06 1.589-22.82-8.078-21.809-21.62l7.295-97.848c2.731-36.675-23.604-61.833-58.811-56.205l4.544-.728c-13.281 2.127-25.336 15.004-27.142 28.73 0 0-20.304 205.503-90.7 226.831v239.14z" fill="#323233" fill-rule="evenodd"/></svg>